<svg width="500" height="500" viewBox="0 0 500 500" xmlns="http://www.w3.org/2000/svg"><title>journal-symbol</title><g fill="none" fill-rule="evenodd"><path fill="#FFF" d="M0 0h500v500H0z"/><g transform="translate(14 14)"><circle stroke="#BEC3C5" stroke-width="22" fill="#FFF" cx="236.5" cy="236.5" r="225.5"/><path d="M202.995 202.998c12.034 12.034 31.724 12.034 43.753 0L359.97 89.78a191.886 191.886 0 0 0-54.77-32.736L202.996 159.245c-12.034 12.034-12.034 31.719 0 43.753" fill="#7CB13F"/><path d="M268.624 268.627c12.034 12.034 12.034 31.719 0 43.753l-87.505 87.505c-12.034 12.028-31.718 12.028-43.752 0-12.034-12.034-12.034-31.719 0-43.753l87.505-87.505c12.028-12.034 31.718-12.034 43.752 0" fill="#D71D62"/><path d="M181.119 224.874c12.034 12.034 12.034 31.724 0 43.753-12.034 12.034-31.719 12.034-43.753 0-12.034-12.029-12.034-31.719 0-43.753 12.034-12.034 31.719-12.034 43.753 0M290.501 115.495c12.034 12.033 12.034 31.718 0 43.752-12.034 12.034-31.724 12.034-43.752 0-12.034-12.034-12.034-31.719 0-43.753 12.028-12.034 31.718-12.034 43.752 0" fill="#336A2D"/><path d="M202.995 334.254c12.034 12.034 12.034 31.724 0 43.752-12.034 12.034-31.724 12.034-43.752 0-12.034-12.028-12.034-31.718 0-43.752 12.028-12.034 31.718-12.034 43.752 0M399.884 137.371c12.034 12.034 12.034 31.719 0 43.753-12.034 12.034-31.724 12.034-43.753 0-12.034-12.034-12.034-31.719 0-43.753 12.029-12.034 31.719-12.034 43.753 0" fill="#861450"/><path d="M334.254 202.998c12.034 12.034 12.034 31.724 0 43.752-12.034 12.034-31.724 12.034-43.752 0-12.034-12.028-12.034-31.718 0-43.752 12.028-12.034 31.718-12.034 43.752 0" fill="#D71D62"/><path d="M356.13 312.38c12.034 12.034 12.034 31.719 0 43.753-12.034 12.034-31.724 12.034-43.752 0-12.034-12.034-12.034-31.719 0-43.753 12.029-12.034 31.719-12.034 43.752 0" fill="#2994D2"/><path d="M181.119 93.618c12.034 12.034 12.034 31.719 0 43.753-12.034 12.034-31.719 12.034-43.753 0-12.034-12.034-12.034-31.719 0-43.753 12.034-12.034 31.719-12.034 43.753 0" fill="#08589B"/><path d="M115.495 290.503c-12.035-12.034-31.725-12.034-43.753 0L57.04 305.2a191.81 191.81 0 0 0 32.736 54.77l25.719-25.713c12.033-12.034 12.033-31.719 0-43.753" fill="#861450"/><path d="M202.995 71.741c12.034 12.034 31.724 12.034 43.753 0l21.879-21.879c.808-.808 1.43-1.732 2.128-2.612C259.42 45.154 247.75 44 235.814 44c-14.333 0-28.281 1.627-41.723 4.625-.336 8.338 2.574 16.786 8.904 23.116" fill="#D71D62"/><path d="M115.495 202.998c12.033-12.034 12.033-31.719 0-43.753-12.035-12.034-31.725-12.034-43.753 0L52.882 178.1A191.244 191.244 0 0 0 44 235.811c0 10.17.809 20.152 2.343 29.898 5.302-1.298 10.34-3.9 14.46-8.02l54.692-54.691z" fill="#2994D2"/><path d="M378.007 246.75c-12.034 12.035-12.034 31.72 0 43.753 11.17 11.17 28.87 11.83 40.986 2.255 5.61-18.001 8.63-37.125 8.63-56.947 0-11.94-1.15-23.606-3.246-34.947-.88.704-1.804 1.32-2.618 2.134l-43.752 43.753z" fill="#08589B"/><path d="M290.501 378.007c-12.034-12.034-31.724-12.034-43.752 0l-43.753 43.752c-.814.814-1.43 1.738-2.134 2.618 11.341 2.096 23.012 3.245 34.953 3.245 19.816 0 38.945-3.02 56.941-8.624 9.576-12.116 8.916-29.815-2.255-40.991" fill="#7CB13F"/></g></g></svg>