<svg id="Layer_1" xmlns="http://www.w3.org/2000/svg" width="156" height="189" viewBox="0 0 156 189"><style>.st0,.st1{fill:none;stroke:#212121;stroke-width:4;stroke-miterlimit:10}.st1{stroke-linecap:round}.st2{fill:#cf0c4e}</style><path class="st0" d="M110 67.9c13.1 9.7 21.5 25.2 21.5 42.6 0 2.9-.2 5.7-.7 8.5M114.1 149.7c-9.4 8.6-21.9 13.8-35.6 13.8-21.9 0-40.8-13.4-48.8-32.4"/><path class="st0" d="M95.6 82.5c9.8 5.7 16.4 16.4 16.4 28.5 0 18.2-14.8 33-33 33-10.7 0-20.1-5-26.2-12.9"/><circle class="st0" cx="122.5" cy="134.5" r="16.5"/><circle class="st0" cx="122.5" cy="134.5" r="6.5"/><path class="st1" d="M13 131h63"/><path class="st0" d="M24 177s0-13 12-13h84s12 0 12 13H24z"/><circle class="st2" cx="47" cy="112" r="5"/><path transform="rotate(45.001 133.144 23.106)" class="st0" d="M124.1 18.6h18v9h-18z"/><path transform="rotate(45.001 123.245 33.005)" class="st0" d="M111.2 23.5h24v19h-24z"/><path class="st0" d="M83 94.2l43.8-43.8-21.2-21.2L61.8 73h-5.7l-3.2 3.2 26.9 26.9 3.2-3.2z"/></svg>