<svg id="Layer_1" xmlns="http://www.w3.org/2000/svg" width="175" height="160" viewBox="0 0 175 160"><style>.st0{stroke-linecap:round}.st0,.st1,.st2{fill:none;stroke:#212121;stroke-width:4;stroke-miterlimit:10}.st2{stroke:#cf0c4e}</style><path class="st0" d="M163 47l-18-30M31 71l-5-8M73 139l-5-8M91 101h30l15-25M121 41H85L70 66M82 96L70 76M37 131h30l15-25M61 71H31l-18 30 15 25"/><circle class="st1" cx="67" cy="71" r="5"/><circle class="st2" cx="85" cy="101" r="5"/><circle class="st2" cx="76" cy="143" r="5"/><circle class="st2" cx="23" cy="59" r="5"/><circle class="st1" cx="31" cy="131" r="5"/><circle class="st1" cx="138" cy="71" r="5"/><circle class="st2" cx="117" cy="17" r="5"/></svg>