<?xml version="1.0" encoding="UTF-8"?>
<svg width="128px" height="74px" viewBox="0 0 128 74" version="1.1" xmlns="http://www.w3.org/2000/svg" xmlns:xlink="http://www.w3.org/1999/xlink">
    <!-- Generator: Sketch 46.2 (44496) - http://www.bohemiancoding.com/sketch -->
    <title>kaw-logo</title>
    <desc>Created with Sketch.</desc>
    <defs>
        <polygon id="path-1" points="127.866538 73.6040119 0 73.6040119 0 3.59022036e-05 127.866538 3.59022036e-05 127.866538 73.6040119"></polygon>
    </defs>
    <g id="Symbols" stroke="none" stroke-width="1" fill="none" fill-rule="evenodd">
        <g id="global-footer/footer-hd" transform="translate(-1024.000000, -260.000000)">
            <g transform="translate(-4.000000, 0.000000)" id="funder-logos">
                <g transform="translate(0.000000, 240.000000)">
                    <g id="kaw-logo" transform="translate(1028.000000, 20.000000)">
                        <mask id="mask-2" fill="white">
                            <use xlink:href="#path-1"></use>
                        </mask>
                        <g id="Clip-2"></g>
                        <path d="M42.0723476,38.6764524 C40.7553238,39.0420476 39.7660143,39.5019048 39.1035381,40.0560238 C38.2631095,40.7096905 37.6843238,41.6109048 37.3663,42.7579048 C37.3169667,42.9244048 37.2773238,43.1032381 37.2482524,43.29 C37.1284429,43.9436667 37.1680857,44.4969048 37.3663,44.954119 C37.4262048,45.0915476 37.5143,45.2263333 37.6332286,45.3549524 C38.0296571,45.8685476 38.5890619,46.1548571 39.3105619,46.2147619 C40.290181,46.324 41.5120619,45.7187857 42.9762048,44.4035238 L43.0061571,44.3577143 L43.0061571,44.3145476 L44.7425143,40.3969524 C44.9407286,39.9318095 44.841181,39.5019048 44.4456333,39.1054762 C43.990181,38.5231667 43.1990857,38.3804524 42.0723476,38.6764524 L42.0723476,38.6764524 Z M68.7546333,62.9572619 C68.428681,62.9466905 68.0807048,63.0065952 67.7151095,63.1352143 C66.3390619,63.4417857 65.3400619,63.8822619 64.7172286,64.4557619 C63.8177762,65.0979762 63.1896571,66.0282619 62.8319905,67.246619 C62.4769667,68.432381 62.6143952,69.338 63.248681,69.9617143 C63.6336571,70.3466905 64.1481333,70.5907143 64.7912286,70.689381 C65.6616095,70.5801429 66.3452286,70.299119 66.8394429,69.8427857 C67.3239667,69.4181667 67.649919,68.967119 67.8190619,68.4931667 C68.1044905,67.7795952 68.7141095,66.3656667 69.6435143,64.2478571 C69.6725857,64.1791429 69.7862286,63.9421667 69.9870857,63.5360476 C69.7183952,63.1405 69.3087524,62.9466905 68.7546333,62.9572619 L68.7546333,62.9572619 Z M70.1483,38.8403095 C69.8611095,38.6218333 69.3968476,38.6218333 68.7546333,38.8403095 C68.2198952,39.0182619 67.7107048,39.2895952 67.226181,39.6560714 C66.6429905,40.0727619 66.1972286,40.6753333 65.8906571,41.4681905 C65.6924429,41.9624048 65.5928952,42.3368095 65.5928952,42.5949286 L65.5479667,42.8028333 L65.7549905,42.846 L66.6465143,42.937619 C66.6764667,42.937619 67.1803714,42.7931429 68.1608714,42.5068333 C69.1986333,42.0108571 69.9007524,41.2787857 70.2672286,40.3097381 C70.5253476,39.5873571 70.4857048,39.0984286 70.1483,38.8403095 L70.1483,38.8403095 Z M32.4109429,63.714 C32.2911333,63.8029762 32.1774905,63.9016429 32.0691333,64.01 C31.3758238,64.6143333 30.8816095,65.3067619 30.5847286,66.0872857 C30.3274905,66.7612143 30.1935857,67.433381 30.1847762,68.1046667 C30.1442524,68.8490714 30.2578952,69.4172857 30.5257048,69.8128333 C30.8225857,70.2577143 31.1335619,70.4805952 31.4603952,70.4805952 C32.964181,70.5898333 34.2706333,69.5212381 35.3788714,67.2748095 C35.6070381,66.7788333 35.7647286,66.1656905 35.8537048,65.4345 C35.8633952,64.7429524 35.7691333,64.1676905 35.570919,63.713119 C35.552419,63.6620238 35.5259905,63.6135714 35.4978,63.565119 L35.4978,63.5800952 C35.2299905,63.2039286 34.8591095,63.0162857 34.3851571,63.0162857 C33.7200381,62.9466905 33.0637286,63.1792619 32.4109429,63.714 L32.4109429,63.714 Z M62.5818,15.3461905 C62.6320143,15.0493095 62.5571333,14.8132143 62.358919,14.6335 C62.0523476,14.2485238 61.5475619,14.1551429 60.8463238,14.3524762 C59.9847524,14.5797619 59.3425381,14.8907381 58.9170381,15.2871667 C58.2343,15.7523095 57.8290619,16.4553095 57.7004429,17.3952857 C57.5718238,17.9203333 57.6361333,18.369619 57.8933714,18.7449048 C58.1391571,19.0532381 58.4968238,19.2109286 58.9619667,19.220619 L58.991919,19.220619 C59.6244429,19.3192857 60.4155381,18.9536905 61.3652048,18.1220714 L62.5818,15.3461905 Z M32.9448,31.7019524 L30.9697048,36.316381 C30.2781571,37.9972381 29.5258238,39.6014524 28.7153476,41.124619 C28.5867286,41.3237143 28.4722048,41.5201667 28.3726571,41.7175 C28.2537286,41.8778333 28.0114667,42.3817381 27.6458714,43.2327381 L27.5260619,43.5877619 C27.3789429,43.7877381 27.393919,43.9304524 27.5709905,44.0185476 C27.6811095,44.0969524 27.819419,44.0141429 27.987681,43.7657143 C28.2149667,43.5780714 28.4572286,43.3419762 28.7153476,43.0539048 C29.6940857,41.995881 31.0058238,40.4075238 32.647919,38.2905952 C33.0425857,37.8254524 33.4539905,37.3109762 33.8786095,36.7471667 C35.0863952,35.224 36.2483714,33.872619 37.3663,32.6947857 C37.9794429,32.0516905 38.5846571,31.4632143 39.1775381,30.9284762 C39.326419,30.8306905 39.4541571,30.7152857 39.5633952,30.5866667 C39.7202048,30.4580476 39.8840619,30.3250238 40.0540857,30.1867143 C42.6343952,28.0301429 45.2763714,26.622381 47.9782524,25.9722381 C49.4327048,25.6454048 50.8316571,25.6145714 52.1777524,25.882381 C52.2367762,25.9123333 52.870181,26.122881 54.0770857,26.5210714 C54.4928952,26.7474762 54.7008,26.9113333 54.7008,27.010881 C54.6408952,27.2073333 54.3792524,27.2522619 53.9141095,27.1439048 L53.869181,27.0989762 C51.6518238,26.3774762 49.8423476,26.1986429 48.4372286,26.565119 L47.412681,26.862 C45.4041095,27.4751429 43.2475381,28.7164048 40.9429667,30.5875476 C40.8055381,30.7161667 40.6804429,30.8306905 40.5712048,30.9293571 C39.5325619,31.8094286 38.4639667,32.8084286 37.365419,33.9263571 C36.0202048,35.3032857 34.6344667,36.871381 33.2108476,38.6306429 L32.9148476,39.017381 C32.8249905,39.1257381 32.7360143,39.2402619 32.6470381,39.3574286 C30.8569429,41.5642143 29.5443238,43.1578571 28.7144667,44.1365952 C28.3479905,44.5629762 28.0652048,44.8695476 27.8678714,45.0580714 C27.155181,45.7707619 26.3085857,46.3099048 25.3298476,46.674619 C25.0320857,46.7732857 24.7995143,46.8182143 24.6321333,46.8076429 L24.454181,46.7644762 L24.4092524,46.6305714 C24.4092524,46.5724286 24.454181,46.417381 24.5431571,46.1724762 L28.9505619,36.9110238 C28.9206095,36.9110238 29.132919,36.4053571 29.5892524,35.3957857 L28.579681,36.6573095 C24.9096333,41.5351429 22.3407762,44.5145238 20.8766333,45.5928095 C20.7982286,45.6324524 20.7136571,45.6817857 20.624681,45.7408095 C19.4177762,46.5028333 18.7147762,46.7600714 18.5174429,46.5134048 L18.4725143,46.4244286 L18.4275857,46.378619 C18.4275857,46.1804048 18.6998,45.6624048 19.2433476,44.8210952 C19.6688476,44.1577381 20.2141571,43.1375952 20.8757524,41.7624286 C21.3902286,40.7140952 21.9646095,39.4710714 22.5980143,38.036881 C23.6366571,35.8115952 24.2251333,34.5685714 24.3634429,34.3113333 C25.7985143,31.413 27.0353714,29.6678333 28.0748952,29.0731905 L28.4158238,28.8212381 L28.3708952,28.7181667 L28.1638714,28.7630952 L27.985919,28.7630952 C27.2335857,28.9604286 26.283919,28.9604286 25.136919,28.7630952 C23.9890381,28.564 22.9600857,28.3217381 22.049181,28.0345476 C21.6245619,27.898 21.2325381,27.7834762 20.8766333,27.693619 C20.4018,27.5262381 19.9921571,27.397619 19.6459429,27.3086429 C18.6363714,27.010881 17.755419,26.807381 17.0039667,26.6999048 C15.035919,26.4717381 12.9868238,26.64 10.8593238,27.2038095 C8.70275238,27.787881 6.75849048,28.7084762 5.02741905,29.9638333 C2.30615714,31.9239524 0.861395238,34.040881 0.693133333,36.316381 C0.633228571,37.5620476 0.994419048,38.5478333 1.77670476,39.2702143 C3.35008571,40.7343571 5.62646667,41.2241667 8.60408571,40.7396429 C11.2848238,40.3141429 13.7735143,39.2816667 16.0692762,37.6369286 C17.533419,36.5991667 18.6760143,35.3764048 19.4970619,33.9712857 L19.586919,33.8831905 L19.734919,34.0144524 C19.7939429,34.114881 19.7648714,34.2487857 19.6459429,34.4161667 C19.5763476,34.7641429 19.2151571,35.3165 18.5632524,36.0794048 C17.810919,36.999119 16.9793,37.7796429 16.0692762,38.4245 C13.8034667,40.0762857 11.2363714,41.0752857 8.36622857,41.420619 C5.31901429,41.8073571 3.00827619,41.2664524 1.43489524,39.8023095 C0.396252381,38.8526429 -0.0785809524,37.5955238 0.0103952381,36.0335952 C0.0703,34.9147857 0.515180952,33.7536905 1.34591905,32.5467857 C2.16784762,31.3698333 3.25141905,30.285381 4.59663333,29.2960714 C6.4175619,28.0001905 8.42084762,27.0364286 10.6073714,26.4012619 C12.8044667,25.7502381 14.9354905,25.5070952 17.0039667,25.6753571 C18.2408238,25.7652143 19.531419,26.1449048 20.8766333,26.8188333 C20.9065857,26.8188333 20.9515143,26.8338095 21.0105381,26.8637619 C22.2579667,27.5050952 23.4745619,27.9112143 24.6612048,28.0803571 C26.2152048,28.3076429 27.6802286,28.3076429 29.0545143,28.0803571 C29.8456095,27.9411667 30.4843,27.7429524 30.9679429,27.4857143 C31.2762762,27.397619 31.4586333,27.3826429 31.5185381,27.4416667 L30.8798476,27.9455714 C28.9805143,29.5180714 27.8467286,30.5734524 27.4820143,31.1081905 C26.561419,32.4534048 25.5527286,34.6002857 24.4533,37.5488333 L24.2004667,38.1866429 C23.8348714,39.1354286 23.0631571,40.719381 21.8862048,42.937619 L21.7963476,43.1878095 C21.7963476,43.2873571 21.8263,43.3560714 21.8862048,43.3957143 C22.0535857,43.4952619 22.2905619,43.3957143 22.5988952,43.0997143 C22.8852048,42.8125238 23.6181571,41.8725476 24.7942286,40.2797857 C26.6451095,37.924119 27.9515619,36.2679286 28.7135857,35.3076905 C29.0994429,34.7747143 29.3461095,34.4566905 29.4553476,34.3580238 C30.4340857,33.2198333 31.4973952,32.1917619 32.6461571,31.2702857 L32.6902048,31.2702857 C32.888419,31.1628095 33.0170381,31.117 33.0760619,31.1372619 C33.1377286,31.1971667 33.0928,31.3848095 32.9448,31.7019524 L32.9448,31.7019524 Z M20.5092762,3.54759524 L20.1674667,3.41457143 C18.9006571,3.05954762 17.9413,2.84107143 17.2885143,2.76090476 C15.9723714,2.61290476 14.6756095,2.78116667 13.3991095,3.26569048 C11.964919,3.78985714 10.6937048,4.42854762 9.58546667,5.18 C7.94337143,6.35783333 7.0078,7.59909524 6.78051429,8.90554762 C6.42372857,10.5767143 7.02718095,11.7704048 8.59087143,12.4822143 C9.76782381,13.0363333 11.0839667,13.2539286 12.5375381,13.134119 C13.8642524,13.0266429 14.9178714,12.6954048 15.6983952,12.1395238 C16.7185381,11.3995238 17.4303476,10.8304286 17.8364667,10.433119 C17.8946095,10.3626429 18.5579667,9.67197619 19.8247762,8.35671429 C20.2802286,7.8995 20.511919,7.68895238 20.5216095,7.71714286 C20.7207048,7.9162381 20.6546333,8.2122381 20.3295619,8.60866667 C18.865419,10.3397381 17.3061333,11.7448571 15.6552286,12.8222619 C14.6157048,13.5146905 13.3938238,13.8767619 11.9887048,13.9067143 C10.782681,13.9349048 9.66387143,13.7234762 8.63491905,13.2671429 C7.56632381,12.7720476 6.81839524,12.099881 6.39377619,11.2497619 C6.16825238,10.4683571 6.05372857,10.064 6.05372857,10.0340476 L6.05372857,9.98911905 C6.01408571,8.50471429 6.76201429,6.98507143 8.29399048,5.43283333 C9.74932381,4.01802381 11.4363476,3.02871429 13.3559429,2.46578571 C14.6615143,2.0887381 15.8234905,1.93104762 16.8436333,1.98919048 C17.8514429,2.04821429 19.3058952,2.36007143 21.2061095,2.9247619 C23.0966333,3.47888095 24.4867762,3.77047619 25.3756571,3.80130952 C26.0689667,3.83038095 26.6574429,3.6815 27.1419667,3.35642857 C27.5665857,3.09919048 27.8291095,3.01814286 27.9286571,3.11769048 C27.9286571,3.21635714 27.8643476,3.31502381 27.7357286,3.41457143 L27.3948,3.7555 C26.5041571,4.57654762 25.8610619,5.19585714 25.4655143,5.61078571 C24.8823238,6.30233333 24.3176333,7.20354762 23.7740857,8.31090476 L23.2243714,9.5292619 C22.363681,11.4964286 21.6765381,12.9570476 21.1620619,13.9075952 C20.1524905,15.8060476 19.2028238,17.1618333 18.312181,17.9731905 C17.0163,19.1897857 15.8234905,19.9764762 14.7363952,20.3332619 C13.648419,20.6997381 12.3569429,20.7437857 10.8637286,20.4671667 C9.54758571,20.239 8.78996667,19.9465238 8.59263333,19.5897381 L8.59263333,19.5007619 C8.65077619,19.4126667 8.90449048,19.4461429 9.34937143,19.6047143 C9.89291905,19.832 10.412681,19.9764762 10.9077762,20.034619 C12.3419667,20.1738095 13.4061571,20.1095 14.0985857,19.8425714 C15.2173952,19.4170714 16.4780381,18.3572857 17.8822762,16.667619 C19.2081095,15.2519286 20.6960381,12.6152381 22.3487048,8.75666667 C22.8534905,7.57971429 23.5018714,6.57102381 24.2938476,5.72971429 C24.6788238,5.33240476 25.0109429,5.03552381 25.2884429,4.83730952 L25.8804429,4.48228571 L25.2135619,4.43735714 C23.9775857,4.37833333 22.4086095,4.08145238 20.5092762,3.54759524 L20.5092762,3.54759524 Z M44.9803714,0.609619048 C45.7423952,0.866857143 46.173181,1.07916667 46.2718476,1.24654762 C46.3713952,1.31702381 46.3907762,1.41569048 46.3317524,1.54519048 C46.2621571,1.61390476 46.1767048,1.6482619 46.078919,1.6482619 L45.6490143,1.5002619 C44.857919,1.18311905 44.2588714,0.999880952 43.8527524,0.950547619 C39.8955143,0.407880952 36.7099905,1.1285 34.2953,3.11769048 C33.7121095,3.63216667 32.8963476,4.43383333 31.8471333,5.52180952 C31.1547048,6.27414286 30.6014667,6.87759524 30.1847762,7.33304762 C29.7892286,7.72771429 29.5328714,7.98054762 29.4139429,8.08978571 C27.8106095,9.68254762 26.5191333,10.7899048 25.5395143,11.413619 L24.7836571,11.7994762 C24.4867762,11.9369048 24.3238,12.0373333 24.2938476,12.0963571 C24.2630143,12.1941429 24.3484667,12.4029286 24.544919,12.7191905 C25.099919,13.6794286 25.2488,14.3806667 24.990681,14.8264286 C24.7528238,15.3030238 24.4920619,16.0051429 24.2039905,16.9354286 C23.8665857,17.964381 23.7688,18.5925 23.9071095,18.8197857 C24.0744905,19.1369286 24.3378952,19.350119 24.694681,19.4593571 C25.1492524,19.5879762 25.673419,19.5025238 26.267181,19.2047619 C27.2168476,18.721119 27.969181,17.8207857 28.5233,16.5055238 C28.9488,15.4369286 29.021919,14.8035238 28.7453,14.6053095 C28.6272524,14.4978333 28.5682286,14.3982857 28.5682286,14.3084286 C28.5682286,14.2115238 28.6272524,14.1463333 28.7453,14.116381 C29.0827048,13.9181667 29.3346571,13.8045238 29.5020381,13.7736905 C29.6306571,13.7736905 29.8235857,13.8195 30.0817048,13.9084762 L30.5116095,14.0555952 C30.7388952,14.1842143 30.9626571,14.2044762 31.1793714,14.1155 L31.3573238,14.0555952 C32.168681,13.7886667 32.7122286,13.6406667 32.9897286,13.6107143 L33.0795857,13.6107143 C33.4751333,13.6107143 33.7676095,13.7578333 33.9552524,14.0555952 C34.1534667,14.3137143 34.2072048,14.6114762 34.1191095,14.9462381 C33.9208952,15.7285238 33.5887762,16.6438333 33.1245143,17.6912857 L32.9906095,18.0780238 C32.8822524,18.3749048 32.8822524,18.6365476 32.9906095,18.8655952 C33.0505143,18.9545714 33.110419,19.0232857 33.1694429,19.072619 C33.4073,19.2708333 33.7182762,19.2858095 34.1041333,19.1166667 C34.9938952,18.721119 35.5832524,18.3246905 35.8704429,17.9291429 C36.0765857,17.6322619 36.4879905,16.7363333 37.1002524,15.243119 L37.2050857,14.9013095 C37.2050857,14.7039762 37.1055381,14.5198571 36.9082048,14.3524762 L36.6113238,14.0547143 L37.0570857,13.8626667 C38.1943952,13.5252619 38.8172286,13.4961905 38.9264667,13.7719286 C39.0462762,14.06 38.9070857,14.6238095 38.5106571,15.4642381 L38.1248,16.2509286 C37.4429429,17.5080476 37.1504667,18.2647857 37.2500143,18.5229048 C37.3187286,18.8382857 37.4526333,19.0215238 37.6508476,19.0717381 C37.8781333,19.1897857 38.2340381,19.1210714 38.7185619,18.8647143 L38.9705143,18.7748571 C39.4162762,18.5458095 39.7087524,18.3784286 39.846181,18.2700714 C40.0743476,18.0709762 40.3016333,17.7511905 40.528919,17.3054286 L41.9543,14.3515952 C42.0115619,14.2229762 42.1815857,14.1093333 42.4573238,14.0097857 C42.7453952,13.911119 42.9673952,13.9067143 43.1250857,13.9939286 C43.2352048,14.005381 43.2493,14.1674762 43.1700143,14.4855 L42.2503,16.5469286 C41.7948476,17.5274286 41.5684429,18.0859524 41.5684429,18.2251429 C41.5684429,18.5105714 41.6530143,18.739619 41.8195143,18.907 C42.0485619,19.0453095 42.3198952,19.074381 42.6361571,18.9959762 C43.9804905,18.6004286 44.8332524,18.1943095 45.1882762,17.779381 C45.3873714,17.4930714 45.599681,17.111619 45.8269667,16.6359048 C45.8868714,16.5169762 45.9406095,16.3892381 45.9908238,16.2500476 L46.1687762,15.8219048 C46.4665381,15.0977619 46.5511095,14.652 46.4207286,14.4855 C46.2225143,14.2960952 46.1247286,14.134 46.1247286,13.9939286 L46.1687762,13.9049524 C46.3678714,13.7358095 46.7290619,13.5094048 47.2514667,13.2222143 L47.3413238,13.1323571 C47.3413238,13.0539524 47.5545143,12.6240476 47.9800143,11.8426429 C48.4442762,10.9625714 48.837181,10.3925952 49.1534429,10.1353571 C49.7560143,9.67021429 50.5973238,9.324 51.6756095,9.09495238 C51.7945381,9.0667619 51.9372524,9.08085714 52.1046333,9.1407619 L52.1636571,9.30461905 C52.1636571,9.42178571 52.000681,9.52221429 51.6747286,9.60061905 C51.4174905,9.69047619 51.149681,9.7882619 50.8730619,9.8975 C50.3295143,10.1256667 49.9771333,10.3335714 49.8203238,10.5212143 C49.2265619,11.8567381 48.9041333,12.5738333 48.8548,12.671619 L48.7649429,12.8363571 L48.9288,12.9685 C49.2758952,13.1675952 49.4591333,13.3499524 49.4776333,13.5182143 C49.5375381,13.7754524 49.5375381,13.9393095 49.4776333,14.0089048 C49.4776333,14.0785 49.4379905,14.1128571 49.3587048,14.1128571 L48.1421095,14.245881 L46.7625381,17.1847381 C46.5334905,17.8771667 46.5334905,18.3669762 46.7625381,18.6532857 C46.8603238,18.8206667 47.024181,18.906119 47.2514667,18.906119 C47.558919,18.8752857 48.0187762,18.7466667 48.6310381,18.5202619 C49.2547524,18.2912143 49.630919,18.1229524 49.7595381,18.0145952 L50.0414429,17.9247381 L50.1445143,18.0745 C50.204419,18.1731667 50.1392286,18.3070714 49.9524667,18.4744524 C48.6460143,19.2858095 47.7307048,19.6919286 47.2065381,19.6919286 C46.8409429,19.6919286 46.4797524,19.5985476 46.1238476,19.4100238 C46.004919,19.3404286 45.9053714,19.2725952 45.8260857,19.202119 C45.6587048,19.0638095 45.544181,18.9210952 45.4851571,18.7730952 L45.396181,18.5211429 L45.1873952,18.6532857 C43.5558714,19.3756667 42.4626095,19.7562381 41.9084905,19.795881 C41.2548238,19.795881 40.8108238,19.6672619 40.5729667,19.4100238 L40.3950143,19.0690952 L40.3210143,18.7722143 L40.0532048,18.9492857 C38.9053238,19.6434762 37.9997048,19.9747143 37.3372286,19.943 C36.941681,19.9148095 36.5708,19.7518333 36.2245857,19.4549524 L35.8818952,18.9942143 L35.8078952,18.7722143 L35.5850143,18.9052381 C34.3992524,19.5685952 33.5632286,19.9007143 33.0778238,19.9007143 L32.9879667,19.9007143 C32.6523238,19.8901429 32.3545619,19.7905952 32.0973238,19.6020714 C31.7423,19.3642143 31.5634667,19.0197619 31.5634667,18.5634286 C31.5634667,17.9502857 31.9405143,16.8869762 32.6919667,15.372619 L32.7360143,15.281881 C32.9033952,14.9162857 32.9033952,14.6493571 32.7360143,14.4828571 C32.5686333,14.3225238 32.3404667,14.3225238 32.0541571,14.4828571 C31.0243238,14.9065952 30.4807762,15.133881 30.4208714,15.1638333 L30.2869667,15.1946667 L28.8624667,18.9484048 C28.635181,19.5421667 28.4078952,19.8584286 28.1814905,19.8998333 C27.913681,19.9879286 27.6960857,19.9879286 27.5278238,19.8998333 L27.3049429,19.5870952 L27.2749905,19.2902143 L27.0080619,19.4091429 C25.6337762,19.9632619 24.6136333,20.2152143 23.9511571,20.165881 C23.5564905,20.1359286 23.2296571,19.942119 22.972419,19.5870952 C22.6165143,19.1316429 22.4685143,18.5775238 22.5266571,17.9238571 C22.5574905,17.6578095 22.8341095,16.7627619 23.3582762,15.2395952 C23.6948,14.4485 23.8771571,13.8882143 23.9071095,13.5622619 C24.0154667,12.8707143 23.9317762,12.3791429 23.6551571,12.0928333 L23.6551571,12.0029762 L23.7740857,11.7959524 L24.1158952,11.618 C24.6497524,11.4004048 25.4311571,10.8004762 26.4601095,9.8217381 C27.0838238,9.23766667 28.0828238,8.24395238 29.4571095,6.83883333 C29.6553238,6.6397381 29.8975857,6.39747619 30.1847762,6.11116667 C30.6287762,5.65571429 31.1547048,5.09895238 31.7581571,4.43383333 C32.6382286,3.52469048 33.3059905,2.9062619 33.7614429,2.57854762 C35.2044429,1.54166667 36.5461333,0.837785714 37.7829905,0.472190476 C38.9299905,0.106595238 40.3051571,-0.048452381 41.9084905,0.0132142857 C43.0061571,0.0449285714 44.0307048,0.243142857 44.9803714,0.609619048 L44.9803714,0.609619048 Z M81.7248952,64.8565952 C81.8632048,64.3914524 81.7751095,63.9562619 81.4570857,63.5501429 C81.0509667,63.0065952 80.3488476,62.8726905 79.3489667,63.1501905 C78.1817048,63.5457381 77.3060381,64.0302619 76.7228476,64.6046429 C75.8128238,65.3367143 75.2639905,66.4000238 75.0763476,67.7954524 C74.9477286,68.6764048 75.0419905,69.3785238 75.3582524,69.9018095 C75.7229667,70.3581429 76.2286333,70.6294762 76.8708476,70.7202143 C77.7412286,70.8285714 78.8159905,70.2198333 80.0916095,68.894 L80.1356571,68.8499524 L80.1356571,68.8041429 L81.7248952,64.8275238 L81.7248952,64.8565952 Z M102.025562,66.1480714 C101.97711,66.2758095 101.937467,66.414119 101.906633,66.563 C101.778014,67.0889286 101.714586,67.6210238 101.714586,68.1663333 C101.714586,68.7495238 101.788586,69.2437381 101.937467,69.6498571 C101.97711,69.7696667 102.025562,69.8727381 102.085467,69.9625952 C102.341824,70.3088095 102.655443,70.5175952 103.021038,70.5863095 L103.05099,70.5863095 C104.47461,70.744 105.702657,69.6498571 106.730729,67.3065238 C106.978276,66.8114286 107.126276,66.192119 107.17649,65.4512381 C107.17649,64.619619 107.047871,63.9826905 106.790633,63.5369286 C106.503443,63.121119 106.131681,62.9132143 105.67711,62.9132143 C104.933586,62.8735714 104.191824,63.2241905 103.451824,63.9668333 C103.243919,64.1729762 103.054514,64.3870476 102.887133,64.6055238 C102.511848,65.0794762 102.223776,65.5939524 102.025562,66.1480714 L102.025562,66.1480714 Z M98.4938238,59.5726429 C97.6727762,59.8598333 97.177681,59.7461905 97.009419,59.2317143 L96.9503952,59.0669762 L97.009419,58.7410238 C97.1768,58.4150714 97.4939429,58.1825 97.9599667,58.0433095 C98.7598714,57.737619 99.2699429,57.831 99.4875381,58.3260952 C99.5174905,58.4344524 99.4981095,58.5965476 99.4285143,58.8150238 C99.2998952,59.0934048 98.9898,59.3462381 98.4938238,59.5726429 L98.4938238,59.5726429 Z M92.7826095,38.7663095 C92.2945619,38.6174286 91.6241571,38.7160952 90.7634667,39.0623095 C89.8825143,39.3988333 89.405919,39.6957143 89.3372048,39.9529524 C88.5963238,41.625 88.1021095,42.937619 87.853681,43.8864048 L87.853681,43.8414762 C87.7955381,43.901381 87.7638238,44.0599524 87.7638238,44.3163095 C87.7638238,44.6246429 87.8483952,44.9215238 88.0166571,45.2060714 C88.5813476,46.3257619 89.8270143,46.3900714 91.755419,45.4007619 C93.0821333,44.7655952 93.9269667,43.5542857 94.2952048,41.7641905 C94.6211571,40.1908095 94.1163714,39.1909286 92.7826095,38.7663095 L92.7826095,38.7663095 Z M103.911681,38.8403095 C103.416586,38.5037857 102.535633,38.7460476 101.269705,39.5679762 C100.320038,40.2093095 99.7068952,41.2444286 99.4293952,42.6689286 L99.3853476,42.8028333 L99.4593476,42.8918095 C99.6866333,43.1208571 100.364086,43.0600714 101.492586,42.7147381 C102.155062,42.4856905 102.744419,42.1544524 103.258895,41.718381 C103.852657,41.2338571 104.183014,40.7105714 104.251729,40.1467619 C104.369776,39.5027857 104.257895,39.0675952 103.911681,38.8403095 L103.911681,38.8403095 Z M37.1892286,63.714 L37.2033238,63.7280952 C39.1828238,64.639 40.2214667,64.6645476 40.3210143,63.8029762 L40.3359905,63.8100238 C40.2804905,63.7307381 40.2108952,63.6540952 40.1272048,63.5809762 L39.7263714,63.1501905 L40.3668238,62.8691667 C41.8899905,62.4234048 42.5965143,62.4234048 42.4881571,62.8691667 C42.3595381,63.324619 41.9155381,64.417 41.1535143,66.1489524 C40.3113238,68.097619 39.975681,69.2657619 40.1439429,69.6507381 C40.2822524,70.0172143 40.5438952,70.245381 40.9297524,70.3343571 C41.2962286,70.4127619 41.8001333,70.2894286 42.4441095,69.9625952 L42.785919,69.8436667 C43.4087524,69.5362143 43.8139905,69.3089286 44.0025143,69.1609286 C44.3090857,68.8737381 44.6156571,68.4288571 44.9231095,67.8262857 L46.6885381,63.5069762 C46.9263952,63.1704524 47.2373714,62.9528571 47.6241095,62.8533095 C48.0002762,62.7449524 48.2865857,62.7793095 48.485681,62.9572619 C48.6627524,63.1651667 48.6046095,63.418 48.3068476,63.714881 L46.8083476,66.859881 C46.1256095,68.2940714 45.7450381,69.1750238 45.6657524,69.5009762 C45.5758952,69.8278095 45.6657524,70.1449524 45.932681,70.4506429 C46.615419,70.7677857 47.338681,70.7580952 48.0998238,70.4224524 C48.5808238,70.2004524 49.0107286,69.986381 49.3913,69.7775952 L49.9850619,68.3601429 C50.1630143,67.9751667 50.4440381,67.3514524 50.8316571,66.489881 C51.4835619,65.2336429 51.8394667,64.5165476 51.8993714,64.3394762 C52.0658714,63.842619 52.0368,63.5122619 51.8086333,63.344881 L51.7196571,63.270881 C51.7196571,63.102619 51.8641333,62.993381 52.1495619,62.9431667 C52.426181,62.8348095 52.7538952,62.8348095 53.129181,62.9431667 C53.406681,62.993381 53.5696571,63.0189286 53.6189905,63.0189286 L53.7088476,63.2109762 C53.885919,63.4682143 54.0797286,63.5959524 54.2867524,63.5959524 L54.6875857,63.4320952 C55.9640857,62.8885476 56.9287286,62.6700714 57.5815143,62.7793095 C58.2545619,62.8304048 58.6906333,63.0805952 58.8870857,63.5369286 C59.1055619,63.9219048 59.1689905,64.3227381 59.0800143,64.7385476 L57.328681,69.2957143 C57.2405857,69.7899286 57.2952048,70.1705 57.493419,70.4383095 C57.7110143,70.7140476 57.9885143,70.8523571 58.3250381,70.8523571 C58.8289429,70.8523571 59.3178714,70.7950952 59.7927048,70.6744048 C60.4049667,70.4902857 60.8886095,70.2964762 61.2409905,70.097381 C61.0066571,69.6780476 60.8921333,69.3503333 60.8921333,69.116881 L60.8472048,68.9530238 C60.7873,68.319619 60.917681,67.7575714 61.2330619,67.2607143 C61.4515381,66.7576905 61.9607286,66.1049048 62.7623952,65.3032381 C62.989681,65.1235238 63.2169667,64.9226667 63.4433714,64.6945 C65.2052762,63.0418333 66.8967048,62.2419286 68.519419,62.2912619 L68.7581571,62.2912619 C69.2814429,62.308881 69.7316095,62.3837619 70.1068952,62.5141429 C70.2566571,62.5537857 70.3808714,62.6022381 70.4786571,62.6612619 C70.5288714,62.5731667 70.5685143,62.4797857 70.5975857,62.3793571 C70.8433714,61.8164286 71.1120619,61.2068095 71.3992524,60.5549048 C71.6053952,60.0007857 71.8379667,59.4369762 72.0960857,58.8634762 C72.0960857,58.7824286 72.1357286,58.7251667 72.2150143,58.6855238 C72.5215857,57.9930952 72.8774905,57.3350238 73.2836095,56.7113095 L73.312681,56.6954524 C74.0852762,55.3414286 74.9318714,54.1917857 75.8524667,53.2535714 C76.5836571,52.54 77.3756333,51.9726667 78.2248714,51.5454048 C78.4433476,51.4176667 78.6653476,51.3049048 78.8935143,51.2044762 C79.9418476,50.7692857 81.0712286,50.5367143 82.2772524,50.5076429 L82.7230143,50.5076429 L83.1247286,50.5076429 C83.9448952,50.5261429 84.4690619,50.6054286 84.6963476,50.7437381 C85.0038,51.0212381 85.097181,51.2485238 84.9782524,51.4273571 C84.9192286,51.5454048 84.7597762,51.5709524 84.503419,51.5013571 C83.8797048,51.1542619 83.1027048,50.9965714 82.1733,51.0274048 C81.1443476,51.0749762 80.1145143,51.3322143 79.0864429,51.7982381 C78.7789905,51.9374286 78.4918,52.1145 78.2239905,52.3320952 C77.8187524,52.5893333 77.4240857,52.8959048 77.0364667,53.2526905 C75.9987048,54.2807619 75.0781095,55.6647381 74.2773238,57.4081429 C74.108181,57.7349762 73.9443238,58.0565238 73.7857524,58.3727857 L73.4897524,59.1295238 C73.310919,59.5541429 73.1285619,59.9849286 72.940919,60.421 C72.6537286,61.0737857 72.3727048,61.7265714 72.0943238,62.3793571 C71.3613714,63.8840238 70.5456095,65.620381 69.6461571,67.5884286 L69.3219667,68.3301905 C68.9731095,69.0631429 68.9440381,69.7115238 69.2294667,70.2753333 C69.4585143,70.5537143 69.7351333,70.6920238 70.0610857,70.6920238 C71.2609429,70.7889286 72.4343714,70.4585714 73.5857762,69.6974286 C73.4809429,69.4727857 73.4307286,69.2842619 73.4307286,69.1327381 L73.4007762,69.0745952 C73.3417524,68.3997857 73.4448238,67.8562381 73.7117524,67.4404286 C73.9504905,66.8079048 74.6129667,65.9225476 75.7009429,64.7843571 C77.2338,63.1713333 78.6988238,62.3837619 80.0933714,62.4242857 C80.9153,62.4242857 81.5531095,62.5872619 82.0085619,62.9140952 C82.098419,62.9431667 82.1962048,62.9880952 82.3045619,63.048 L83.0181333,62.8533095 C83.670919,62.6568571 84.0664667,62.5564286 84.2056571,62.5564286 C84.669919,62.5564286 84.9976333,62.6568571 85.1843952,62.8533095 C84.9976333,63.0929286 84.6857762,63.2444524 84.2497048,63.3149286 C83.892919,63.363381 83.4665381,64.0408333 82.9732048,65.3464048 C82.1415857,67.5435 81.693181,68.8437857 81.6227048,69.2516667 L81.6227048,69.3089286 C81.5328476,69.9625952 81.5583952,70.3440476 81.6967048,70.4515238 C81.8350143,70.5607619 82.2658,70.5607619 82.988181,70.4515238 C83.6312762,70.3458095 84.8681333,69.5045 86.6978714,67.9302381 L88.3311571,63.8038571 L88.4051571,63.7457143 L88.3311571,63.6259048 C88.3311571,63.5272381 88.2571571,63.4629286 88.1073952,63.4320952 C87.8113952,63.324619 87.6827762,63.1651667 87.7233,62.9572619 C87.7532524,62.641 88.0193,62.4577619 88.5240857,62.4084286 L89.3539429,62.2155 L89.3539429,62.0815952 L90.184681,60.4500714 C91.0656333,59.143619 92.3060143,57.9120476 93.9102286,56.7544762 C94.5145619,56.388 94.8308238,56.2690714 94.8598952,56.3976905 L94.8149667,56.7544762 L94.6828238,56.7544762 C93.1094429,57.9402381 92.034681,59.1929524 91.4620619,60.5082143 L90.8973714,61.7715 L90.8233714,62.0824762 L90.8233714,62.1573571 C90.8735857,62.3749524 91.0850143,62.4833095 91.4620619,62.4833095 C91.7897762,62.4833095 92.016181,62.5423333 92.1448,62.6612619 L92.2029429,62.8541905 C92.1633,63.102619 91.9809429,63.2409286 91.6558714,63.2717619 L90.110681,63.4770238 L87.9585143,68.8517143 L87.8395857,69.5485476 C87.7902524,69.7661429 87.8554429,69.9987143 88.0325143,70.2462619 C88.2307286,70.5730952 88.5725381,70.7369524 89.0579429,70.7369524 C90.0763238,70.7369524 91.1273,70.448881 92.2029429,69.875381 C92.9173952,69.56 93.4433238,69.1838333 93.7842524,68.7477619 C93.7983476,68.6420476 93.8256571,68.5336905 93.8653,68.4218095 C93.9049429,68.3301905 93.9393,68.2526667 93.9701333,68.1830714 C94.1269429,67.8668095 94.4141333,67.248381 94.8308238,66.3286667 C94.8493238,66.2687619 94.8757524,66.2097381 94.9048238,66.1507143 L94.9048238,66.1621667 C95.4695143,64.8275238 95.7848952,64.0205714 95.8536095,63.7448333 C95.8835619,63.5060952 95.8650619,63.3087619 95.7937048,63.1501905 C95.7258714,63.0215714 95.642181,62.9220238 95.5435143,62.8524286 L95.4395619,62.7194048 C95.4395619,62.5211905 96.0165857,62.3635 97.175919,62.2454524 C97.5133238,62.2155 97.749419,62.2295952 97.8886095,62.290381 C97.899181,62.308 97.9538,62.3635 98.0524667,62.4533571 C98.1114905,62.5035714 98.0322048,62.7546429 97.8146095,63.2100952 L96.3892286,66.5048571 L95.9302524,67.5135476 C95.6624429,68.0579762 95.5144429,68.6217857 95.4844905,69.2058571 C95.4651095,69.7018333 95.5443952,70.0859286 95.7223476,70.3634286 C95.7725619,70.5308095 96.0386095,70.650619 96.5248952,70.7202143 L96.5539667,70.7202143 C97.5538476,70.8091905 98.5422762,70.5123095 99.5218952,69.8278095 C99.5333476,69.8093095 99.5509667,69.7934524 99.5800381,69.782881 C99.6778238,69.7220952 99.8055619,69.6278333 99.9667762,69.5009762 C99.9377048,69.0446429 99.9377048,68.7222143 99.9667762,68.5372143 C99.9852762,68.339 100.011705,68.1513571 100.039895,67.9734048 C100.051348,67.8139524 100.089229,67.6518571 100.159705,67.4818333 C100.199348,67.4122381 100.233705,67.3505714 100.262776,67.2889048 C100.3033,67.1805476 100.347348,67.0774762 100.394919,66.9779286 C100.425752,66.8977619 100.454824,66.8184762 100.486538,66.7383095 C100.514729,66.6801667 100.544681,66.6211429 100.574633,66.5612381 C100.79311,66.1163571 101.030086,65.6970238 101.286443,65.3005952 C101.356919,65.1614048 101.442371,65.026619 101.540157,64.8997619 C101.609752,64.7905238 101.677586,64.6918571 101.748062,64.602881 C102.954967,62.9396429 104.264062,62.1097857 105.680633,62.1097857 C106.590657,62.1494286 107.292776,62.3960952 107.788752,62.8506667 C108.034538,63.0506429 108.199276,63.2770476 108.279443,63.5342857 L108.425681,63.7122381 C109.633467,64.5121429 110.562871,64.8099048 111.216538,64.602881 C111.721324,64.4443095 111.9398,64.1324524 111.870205,63.6664286 L112.1063,63.861119 C112.162681,63.546619 112.111586,63.3299048 111.9583,63.2074524 L111.870205,63.0594524 C111.870205,62.9299524 111.998824,62.8207143 112.256062,62.7335 C112.563514,62.6542143 112.913252,62.6542143 113.307038,62.7335 C113.6048,62.7819524 113.773943,62.826881 113.813586,62.8665238 L113.857633,62.9986667 C114.09549,63.2955476 114.31749,63.4250476 114.526276,63.3854048 L114.913014,63.2673571 C116.238848,62.7017857 117.228157,62.4700952 117.880062,62.5696429 C118.5628,62.6489286 119.027943,62.8947143 119.27549,63.3122857 C119.503657,63.696381 119.541538,64.1368571 119.394419,64.6319524 L117.62899,69.2472619 C117.528562,69.7511667 117.588467,70.1616905 117.806062,70.4788333 C118.013086,70.726381 118.320538,70.8497143 118.725776,70.8497143 C119.172419,70.8497143 119.869252,70.6770476 120.818038,70.3308333 C121.817919,69.9440952 122.485681,69.6278333 122.822205,69.3811667 L123.9648,68.5935952 C124.320705,68.6332381 124.320705,68.8693333 123.9648,69.3062857 L123.711967,69.4551667 C121.752729,70.7721905 120.170538,71.4725476 118.963633,71.5624048 C117.587586,71.5914762 116.687252,71.2937143 116.262633,70.670881 C115.956062,70.2753333 115.890871,69.7370714 116.069705,69.0534524 C116.456443,67.9355238 116.974443,66.580619 117.62899,64.9869762 L117.880062,64.4099524 C117.978729,63.992381 117.930276,63.6725952 117.731181,63.4435476 C117.514467,63.1475476 117.088967,63.102619 116.456443,63.3122857 C114.913014,63.657619 114.0118,63.9844524 113.753681,64.2892619 C113.526395,64.5191905 112.755562,66.2159048 111.439419,69.3811667 L110.995419,70.3308333 C110.827157,70.726381 110.649205,71.0082857 110.460681,71.1765476 C110.243967,71.3448095 109.927705,71.409119 109.511014,71.3685952 C109.382395,71.3685952 109.292538,71.3289524 109.244086,71.2505476 C109.104895,71.1025476 109.104895,70.7959762 109.244086,70.3308333 L109.866919,68.6675952 C109.996419,68.4112381 110.370824,67.6571429 110.995419,66.4105952 C111.417395,65.563119 111.709871,64.9570238 111.878133,64.5940714 C111.589181,64.7781905 111.294943,64.9120952 110.995419,65.0019524 C110.222824,65.2389286 109.529514,65.1446667 108.917252,64.7191667 C108.798324,64.639881 108.640633,64.7006667 108.442419,64.898 C108.236276,65.0856429 108.10149,65.2891429 108.041586,65.5058571 L107.983443,65.6987857 C107.221419,69.1626905 105.578443,71.1113571 103.057157,71.5474286 C102.996371,71.5474286 102.927657,71.5500714 102.84749,71.5606429 C102.540919,71.6205476 102.240514,71.6064524 101.943633,71.5157143 C101.735729,71.447 101.53311,71.3492143 101.334895,71.2197143 C101.315514,71.2197143 101.300538,71.2153095 101.289086,71.205619 C101.20099,71.1457143 101.122586,71.0866905 101.05211,71.0276667 C100.855657,70.8787857 100.666252,70.7149286 100.489181,70.5369762 C100.409014,70.428619 100.335014,70.3299524 100.265419,70.2392143 C100.1738,70.1167619 100.094514,69.9995952 100.027562,69.8841905 C99.6619667,70.1449524 99.2021095,70.4515238 98.6471095,70.8047857 C97.9564429,71.2399762 97.1838476,71.4628571 96.3328476,71.4716667 C95.956681,71.4425952 95.6157524,71.3677143 95.309181,71.2496667 C95.140919,71.1606905 94.9832286,71.0673095 94.8352286,70.966881 C94.7550619,70.909619 94.6872286,70.8444286 94.6264429,70.7748333 C94.3603952,70.5175952 94.106681,70.0815238 93.8697048,69.468381 C93.8247762,69.3679524 93.7957048,69.2604762 93.7798476,69.1503571 C92.2003,70.4894048 90.8251333,71.2338095 89.6552286,71.3844524 C88.3100143,71.5606429 87.4387524,71.4980952 87.0414429,71.1897619 C86.6370857,70.874381 86.408919,70.5431429 86.3604667,70.1960476 C86.3102524,69.8498333 86.3005619,69.5089048 86.3305143,69.1715 L86.4353476,68.5935952 L86.4864429,68.4667381 C84.2453,70.3643095 82.7741095,71.3562619 82.0711095,71.4425952 C81.2606333,71.5412619 80.6915381,71.2752143 80.3638238,70.6409286 C80.1867524,70.3149762 80.0968952,70.1264524 80.0968952,70.077119 L79.9779667,69.6912619 L79.7401095,69.9881429 C79.5515857,70.2550714 79.2362048,70.5131905 78.7904429,70.7598571 C77.9508952,71.2840238 76.9800857,71.521 75.882419,71.4716667 C75.070181,71.4716667 74.4279667,71.0919762 73.9522524,70.3299524 C73.8509429,70.1749048 73.7628476,70.0286667 73.6950143,69.8912381 C72.3172048,70.9941905 71.0821095,71.5474286 69.9914905,71.5474286 C69.0999667,71.4875238 68.4278,71.2928333 67.9723476,70.966881 C67.8040857,70.7307857 67.6913238,70.5431429 67.631419,70.4030714 C67.4332048,70.522 67.2147286,70.6462143 66.9777524,70.7748333 C66.0201571,71.2893095 64.9251333,71.5474286 63.6979667,71.5474286 C63.3711333,71.5474286 63.0592762,71.4919286 62.7632762,71.3835714 C62.2593714,71.1950476 61.8083238,70.8629286 61.4127762,70.3889762 C61.3572762,70.300881 61.3097048,70.2180714 61.2630143,70.1370238 C60.2613714,70.9845 59.3707286,71.4443571 58.5928476,71.5148333 C57.2661333,71.5659286 56.4098476,71.2637619 56.0257524,70.6118571 C55.6883476,70.225119 55.6090619,69.6965476 55.7878952,69.022619 C56.163181,67.9839762 56.6776571,66.6722381 57.3295619,65.0891667 L57.5823952,64.6002381 C57.7110143,64.1430238 57.661681,63.8082619 57.4343952,63.5897857 C57.2071095,63.3316667 56.7913,63.3131667 56.1869667,63.5316429 C54.7122524,63.8584762 53.8330619,64.1553571 53.5458714,64.4222857 C53.3282762,64.6293095 52.5856333,66.2714048 51.3197048,69.3494524 L50.8316571,70.2691667 C50.6730857,70.6559048 50.5101095,70.9316429 50.3409667,71.1007857 C50.1815143,71.2584762 49.8758238,71.336881 49.4203714,71.336881 C49.3217048,71.336881 49.2415381,71.2919524 49.1825143,71.205619 C49.0635857,71.076119 49.0635857,70.7642619 49.1825143,70.2691667 L49.1983714,70.2392143 C48.0090857,71.0699524 47.114919,71.4399524 46.5123476,71.353619 C45.7978952,71.3139762 45.2798952,71.1201667 44.9530619,70.7748333 C44.7636571,70.4982143 44.6412048,70.2057381 44.5813,69.8982857 L44.2694429,70.0920952 C42.6969429,71.0417619 41.4548,71.4980952 40.5447762,71.4584524 C40.0303,71.4082381 39.550181,71.1615714 39.1053,70.7158095 L38.8674429,70.3898571 C38.6392762,69.7159286 38.6260619,69.1477143 38.8225143,68.6825714 C39.0401095,68.208619 39.5616333,66.9250714 40.3879667,64.8301667 C39.9413238,65.230119 39.270919,65.287381 38.3767524,65.0019524 C37.4958,64.7050714 36.9822048,64.8874286 36.8342048,65.5507857 L36.7293714,65.7137619 C35.868681,69.246381 34.0486333,71.1659762 31.2683476,71.4716667 C30.6058714,71.5606429 30.1310381,71.4628571 29.8438476,71.1756667 C29.5460857,70.8884762 29.2950143,70.4920476 29.0871095,69.9881429 C28.8792048,69.4736667 28.7963952,68.7415952 28.8351571,67.7919286 C28.8651095,66.8422619 29.245681,65.8626429 29.9786333,64.8530714 C30.2455619,64.4971667 30.520419,64.1765 30.8023238,63.8954762 C29.3082286,64.249619 27.2890857,64.417 24.7404905,64.3914524 C21.7223476,69.3600238 18.1941333,72.3076905 14.1584905,73.2370952 C13.4854429,73.4555714 12.7287048,73.573619 11.8873952,73.593881 C11.4918476,73.6238333 11.0513714,73.5894762 10.5677286,73.4899286 C9.69646667,73.3014048 8.99787143,72.9798571 8.47458571,72.5244048 C8.24641905,72.3649524 8.08344286,72.1781905 7.98477619,71.9597143 C7.62887143,71.5139524 7.45091905,70.9818571 7.45091905,70.3581429 C7.38132381,69.3873333 7.90108571,68.4147619 9.00932381,67.4351429 C10.0277048,66.395619 11.3086095,65.7428333 12.852919,65.4759048 C14.5249667,65.2882619 15.6922286,65.7956905 16.3555857,67.0025952 C16.5185619,67.5117857 16.5538,68.0615 16.0587048,68.7847619 C15.8014667,69.2481429 15.5345381,69.4075952 15.257919,69.2595952 C15.4852048,68.894 15.6631571,68.541619 15.7917762,68.2050952 C15.870181,67.5822619 15.7917762,67.0580952 15.553919,66.6325952 C15.2068238,66.1692143 14.5003,66.0132857 13.4317048,66.1727381 C12.3331571,66.2705238 11.3685143,66.5841429 10.5377762,67.1083095 C9.68677619,67.5329286 9.05337143,68.0183333 8.6375619,68.5627619 C8.18210952,69.0957381 7.94425238,69.6058095 7.92487143,70.0903333 C7.90549048,70.4365476 7.9495381,70.7589762 8.05877619,71.0558571 C8.0790381,71.0858095 8.08872857,71.1351429 8.08872857,71.2047381 C8.26668095,71.7368333 8.65782381,72.1341429 9.26127619,72.391381 C10.1113952,72.6292381 10.7958952,72.7578571 11.3094905,72.778119 C11.8433476,72.7957381 12.4133238,72.7878095 13.0167762,72.7472857 C13.6396095,72.668 14.4465619,72.4116429 15.4358714,71.9764524 C16.4842048,71.5104286 17.4497286,70.818 18.3298,69.8974048 C19.2688952,69.0684286 20.1551333,67.9936667 20.9867524,66.6775238 C21.5206095,65.9472143 22.0747286,65.119119 22.6491095,64.2002857 C20.5013476,63.6937381 20.4625857,63.159881 22.530181,62.5960714 C22.8173714,62.6965 23.1177762,62.7793095 23.4358,62.8480238 C23.5247762,62.6612619 23.6234429,62.4780238 23.7318,62.2991905 L24.2515619,61.4094286 C24.8153714,60.5875 25.3642048,59.791119 25.8998238,59.0202857 C26.4724429,58.1181905 27.0908714,57.2486905 27.7542286,56.407381 C28.762919,55.1705238 29.8315143,54.057881 30.9600143,53.0685714 C30.8410857,53.0483095 30.7124667,53.0350952 30.5741571,53.0227619 C30.3962048,52.9734286 30.1944667,52.9302619 29.9663,52.8897381 C29.4623952,52.7910714 28.8783238,52.6783095 28.2158476,52.5488095 C27.2256571,52.3206429 26.341181,52.1585476 25.5588952,52.059 C24.8259429,51.9004286 23.7670381,51.7964762 22.3830619,51.7471429 C21.8782762,51.726881 21.3585143,51.762119 20.8237762,51.8510952 C20.0617524,51.9013095 19.3305619,52.0325714 18.6275619,52.2510476 C17.3801333,52.6166429 16.3617524,53.1214286 15.5706571,53.7662857 C14.6694429,54.3688571 13.9426571,55.0278095 13.3885381,55.7387381 C12.9137048,56.5219048 12.6608714,57.3464762 12.6318,58.2177381 C12.6018476,59.2079286 12.8740619,59.9285476 13.4475619,60.384 C14.0615857,60.9874524 14.9125857,61.309 16.0005619,61.3486429 C16.8603714,61.3689048 17.7228238,61.2394048 18.5826333,60.9636667 C19.4530143,60.736381 20.2793476,60.3408333 21.0607524,59.7761429 C21.5170857,59.5382857 21.9417048,59.2607857 22.3372524,58.9454048 C22.6931571,58.6097619 23.0596333,58.2424048 23.4358,57.8477381 C24.2471571,57.016119 24.9439905,56.1219524 25.5280619,55.1608333 C25.7262762,54.6956905 25.9236095,54.7045 26.1218238,55.1890238 C25.6073476,56.239119 24.9836333,57.2284286 24.2515619,58.1569524 C24.0145857,58.4450238 23.7969905,58.7110714 23.5987762,58.9595 C23.0543476,59.4730952 22.5002286,59.8994762 21.936419,60.236 C21.0660381,60.8887857 20.1366333,61.3442381 19.1464429,61.6005952 C18.0575857,61.9283095 17.0286333,62.0719048 16.0595857,62.0322619 C14.7240619,61.992619 13.6951095,61.6402381 12.9727286,60.9777619 C12.2107048,60.236 11.853919,59.3021905 11.9041333,58.1728095 C11.9340857,57.2416429 12.2547524,56.2928571 12.8687762,55.3238095 C13.4026333,54.5124524 14.1946095,53.7204762 15.2429429,52.9487619 C16.2718952,52.2765952 17.5483952,51.7013333 19.0724429,51.227381 C19.6168714,51.0890714 20.2150381,50.9648571 20.8678238,50.855619 C21.8174905,50.707619 22.9019429,50.6582857 24.1185381,50.707619 C25.157181,50.7472619 26.2152048,50.8212619 27.2943714,50.9305 C28.4413714,51.1084524 29.3478714,51.2617381 30.0103476,51.3912381 C30.1187048,51.4097381 30.2173714,51.43 30.3063476,51.449381 C30.9203714,51.5691905 31.7176333,51.726 32.6963714,51.9242143 C32.795919,51.9347857 32.8989905,51.948 33.0082286,51.9691429 C33.9578952,52.096881 34.8828952,52.1920238 35.7832286,52.2501667 L35.8431333,52.2501667 C36.7328952,52.3409048 38.1970381,52.392881 40.2355619,52.4149048 C42.2538238,52.4334048 44.3760381,52.1277143 46.6013238,51.4943095 C47.244419,51.2960952 47.2946333,51.1798095 47.7588952,51.0018571 C49.9339667,50.1305952 48.6160619,51.3031429 48.3094905,51.4520238 C47.893681,51.6299762 47.2990381,51.8995476 46.6947048,52.1752857 C45.2605143,52.8289524 43.120681,53.2209762 40.2708,53.3865952 C37.4121095,53.5557381 35.3823952,53.4341667 34.2239429,53.3936429 C33.7191571,53.3830714 33.7358952,53.3865952 33.2002762,53.3689762 L32.8100143,53.3654524 L32.3730619,53.3055476 C32.3730619,53.2958571 31.9237762,53.2412381 31.9431571,53.2412381 C31.9325857,53.2412381 31.7255619,53.2262619 31.7167524,53.2174524 C30.9547286,53.9583333 30.207681,54.8445714 29.4756095,55.8735238 C28.8809667,56.7042619 28.2977762,57.7041429 27.7251571,58.8705238 C27.3877524,59.4651667 27.0767762,60.0730238 26.7895857,60.6967381 C26.4037286,61.4675714 25.9632524,62.2692381 25.4681571,63.1008571 C26.8530143,63.6153333 28.6404667,63.6849286 30.8261095,63.3096429 C31.114181,63.2567857 31.371419,63.215381 31.5978238,63.1810238 C32.4911095,62.4877143 33.4205143,62.1503095 34.3878,62.1661667 C35.3568476,62.1758571 36.0933238,62.4040238 36.5981095,62.8471429 C36.8060143,63.0955714 36.9839667,63.3272619 37.1319667,63.5448571 L37.1892286,63.714 Z M115.873252,38.9733333 C114.804657,39.498381 113.903443,39.7450476 113.171371,39.7159762 C112.815467,39.7159762 112.371467,39.6217143 111.835848,39.4331905 C111.252657,39.2658095 110.832443,39.2411429 110.574324,39.3583095 C110.345276,39.4384762 110.149705,39.478119 109.980562,39.478119 L109.787633,39.478119 C109.659014,39.5071905 109.5163,39.7168571 109.357729,40.1009524 C109.159514,40.6163095 108.664419,41.9615238 107.872443,44.1374762 L107.292776,45.8755952 C107.155348,46.2702619 106.89899,46.4931429 106.523705,46.5433571 L106.403014,46.5433571 C106.146657,46.5433571 105.948443,46.4446905 105.810133,46.2473571 C105.75111,46.1962619 105.719395,46.0984762 105.719395,45.9504762 C105.848895,45.583119 105.848895,45.3505476 105.719395,45.251881 C105.690324,45.1620238 105.611038,45.1179762 105.4833,45.1179762 C105.412824,45.1179762 105.34411,45.1479286 105.275395,45.2078333 C105.186419,45.2377857 105.10361,45.2827143 105.022562,45.3408571 C103.034252,46.2922857 101.530467,46.7521429 100.511205,46.7213095 C99.7298,46.6922381 99.0127048,46.3513095 98.3608,45.6967619 L97.6181571,44.7479762 L97.4842524,44.5250952 L97.2772286,44.659 C96.5345857,45.1215 95.7549429,45.4853333 94.9321333,45.7416905 C93.884681,46.0579524 93.3314429,46.1865714 93.2697762,46.1284286 C93.2697762,46.0368095 93.3543476,45.9399048 93.5226095,45.8315476 C95.7382048,44.9893571 96.9459905,44.4986667 97.1433238,44.3594762 L97.6181571,43.8864048 L97.6181571,43.7234286 C97.6181571,42.9120714 97.8648238,42.0848571 98.3608,41.2453095 C99.210919,39.8393095 100.6548,38.8367857 102.693324,38.2315714 C103.850895,37.8465952 104.711586,38.0386429 105.276276,38.8103571 C105.305348,38.830619 105.32649,38.8702619 105.3353,38.9301667 C105.563467,39.3248333 105.655967,39.7459286 105.616324,40.1916905 C105.587252,40.5282143 105.47361,40.8242143 105.275395,41.0814524 C105.21549,41.1607381 105.14149,41.2461905 105.051633,41.3342857 C104.545967,41.8302619 103.835038,42.290119 102.914443,42.7147381 C101.936586,43.1701905 101.08999,43.4115714 100.378181,43.4406429 L99.5906095,43.3375714 L99.3386571,43.233619 L99.2946095,43.531381 C99.2946095,43.5401905 99.2787524,43.771881 99.2488,44.2282143 C99.2787524,44.7435714 99.4073714,45.1338333 99.6346571,45.4007619 C99.8637048,45.6870714 100.140324,45.8465238 100.465395,45.8755952 C101.842324,46.0429762 103.261538,45.6932381 104.725681,44.8228571 C104.922133,44.7127381 105.106252,44.6140714 105.274514,44.5250952 C105.886776,44.1595 106.303467,43.8767143 106.521943,43.679381 C106.610038,43.6194762 106.669943,43.5710238 106.699014,43.531381 L106.743943,43.531381 L106.743943,43.4406429 C107.525348,41.3536667 107.949967,40.1265 108.018681,39.7591429 C108.060086,39.5230476 108.060086,39.3583095 108.018681,39.2702143 C107.890062,39.1618571 107.778181,39.1063571 107.677752,39.1063571 C107.450467,39.1063571 107.291014,39.0314762 107.202919,38.8834762 C107.173848,38.8535238 107.173848,38.813881 107.202919,38.7654286 C107.23199,38.6165476 107.504205,38.5425476 108.018681,38.5425476 L108.419514,38.5425476 C109.132205,38.5222857 109.522467,38.5513571 109.592062,38.6306429 L109.592062,38.5865952 L109.637871,38.6764524 C109.776181,38.9636429 110.018443,39.0772857 110.364657,39.0182619 L110.778705,38.8103571 C111.482586,38.3945476 112.13449,38.2527143 112.738824,38.3813333 L113.852348,38.7222619 C114.416157,38.9495476 114.920943,38.9795 115.366705,38.8112381 C115.703229,38.6923095 115.92611,38.6923095 116.034467,38.8112381 L115.873252,38.9733333 Z M121.466419,38.8843571 C121.101705,38.608619 120.660348,38.5231667 120.145871,38.6315238 C119.25611,38.8006667 118.390133,39.1275 117.549705,39.6120238 C115.9173,40.5317381 115.096252,41.773881 115.0848,43.3375714 C115.05661,44.2766667 115.233681,44.9787857 115.619538,45.4456905 C115.956062,45.8703095 116.371871,46.0984762 116.865205,46.1284286 C117.717086,46.156619 118.662348,45.7381667 119.70099,44.8651429 L119.745919,44.8219762 L119.745919,44.7770476 L119.790848,44.7470952 C121.165133,41.9368571 121.866371,40.3881429 121.898086,40.1009524 C121.937729,39.6366905 121.793252,39.2305714 121.466419,38.8843571 L121.466419,38.8843571 Z M123.82649,38.5874762 C123.857324,38.647381 123.840586,38.7610238 123.781562,38.9292857 L123.736633,39.0623095 C122.224038,42.5949286 121.025943,45.325881 120.145871,47.2542857 C119.285181,49.1641905 118.761014,50.2962143 118.57249,50.653881 C117.751443,52.0290476 116.783276,53.186619 115.663586,54.1248333 C113.902562,55.5616667 111.94861,56.2637857 109.801729,56.2338333 C108.39749,56.203881 107.402895,55.9210952 106.819705,55.388119 C106.4823,54.8128571 106.3158,54.5133333 106.3158,54.4825 C106.3158,54.315119 106.384514,54.2111667 106.523705,54.1715238 C106.642633,54.1715238 106.783586,54.2701905 106.951848,54.4692857 L107.205562,54.7203571 C107.560586,55.1370476 107.868038,55.4136667 108.125276,55.5510952 C108.492633,55.7202381 109.049395,55.8189048 109.800848,55.8479762 C113.125562,55.9387143 115.707633,54.0411429 117.548824,50.1640714 L119.151276,46.3345714 L119.01649,46.2156429 C118.938086,46.1275476 118.824443,46.1275476 118.676443,46.2156429 C118.092371,46.6120714 117.325943,46.7953095 116.375395,46.7653571 C115.72349,46.7653571 115.079514,46.508119 114.44699,45.9936429 L113.675276,45.2051905 L113.557229,44.9999286 L113.378395,45.1179762 C112.766133,45.5628571 111.978562,45.8852857 111.019205,46.0817381 C110.010514,46.250881 109.455514,46.304619 109.356848,46.2473571 C109.356848,46.2262143 109.420276,46.1425238 109.549776,45.9945238 C109.836967,45.9443095 110.410467,45.7963095 111.272038,45.5496429 C112.381157,45.2633333 112.981967,45.0633571 113.080633,44.955881 L113.467371,44.7030476 L113.511419,44.7030476 L113.557229,44.5691429 L113.557229,44.5250952 L113.467371,43.9762619 C113.524633,42.937619 114.032062,41.901619 114.980848,40.8735476 C115.881181,39.9141905 117.0643,39.182119 118.526681,38.6782143 C119.249062,38.4209762 119.887752,38.2729762 120.442752,38.2333333 C120.818919,38.2042619 121.158967,38.2377381 121.465538,38.3364048 C121.693705,38.4271429 121.822324,38.5099524 121.852276,38.5883571 C121.92011,38.7081667 122.039038,38.7671905 122.2073,38.7671905 C122.32711,38.7671905 122.440752,38.6923095 122.54911,38.5443095 C122.5773,38.4949762 122.721776,38.4394762 122.979895,38.3813333 C123.236252,38.2914762 123.402752,38.2615238 123.4838,38.2914762 C123.515514,38.3205476 123.628276,38.4192143 123.82649,38.5874762 L123.82649,38.5874762 Z M101.032729,8.35671429 C100.537633,9.01742857 99.8804429,9.95388095 99.0593952,11.1616667 C98.3070619,12.229381 97.9317762,12.7835 97.9317762,12.8240238 L97.7987524,13.0169524 L97.7987524,13.061881 C98.4515381,13.1411667 98.970419,13.1658333 99.3571571,13.135881 C100.306824,13.135881 100.866229,13.1112143 101.03361,13.061881 L101.078538,13.061881 C101.277633,12.9720238 101.415062,12.7984762 101.494348,12.5412381 L104.611157,5.22404762 C104.867514,4.61266667 104.952086,4.33428571 104.86311,4.39419048 L104.181252,4.94302381 C103.347871,5.61519048 102.300419,6.75338095 101.032729,8.35671429 L101.032729,8.35671429 Z M101.358681,33.8840714 C100.290086,34.5562381 98.9580857,35.021381 97.3679667,35.278619 C96.9609667,35.3570238 96.5751095,35.3966667 96.2095143,35.3966667 C95.882681,35.3675952 95.7047286,35.3288333 95.6756571,35.278619 L95.6307286,35.1896429 C95.7496571,35.021381 96.086181,34.9077381 96.639419,34.8478333 C96.6799429,34.8478333 97.6102286,34.6390476 99.4302762,34.225 C101.399205,33.5713333 102.684514,32.6410476 103.288848,31.4341429 C103.931943,30.2069762 103.976871,29.1877143 103.421871,28.3772381 C102.799919,27.4557619 101.73661,27.0795952 100.231943,27.2478571 C98.7986333,27.3773571 97.4428476,27.8521905 96.1654667,28.6732381 C94.197419,29.9197857 92.6724905,31.8640476 91.5950857,34.5060238 L89.8278952,38.8394286 L90.4216571,38.4676667 L91.0603476,38.2298095 C91.6144667,38.0412857 92.1888476,37.9787381 92.7826095,38.036881 C93.7613476,38.1364286 94.5268952,38.5020238 95.0810143,39.1345476 C95.566419,39.7080476 95.7787286,40.4119286 95.7197048,41.2426667 C95.6307286,42.1738333 94.9303714,43.2811905 93.6133476,44.567381 C92.0390857,46.0711667 90.4331095,46.8173333 88.7883714,46.8067619 C88.0078476,46.7776905 87.3744429,46.4367619 86.8890381,45.7839762 C86.7516095,45.5267381 86.6362048,45.3197143 86.5481095,45.1602619 C86.4388714,44.9329762 86.3701571,44.8043571 86.3410857,44.7752857 L86.2512286,44.4775238 L85.9983952,44.6554762 C85.8812286,44.7145 85.7808,44.7849762 85.7023952,44.8625 C83.9713238,45.9821905 82.5706095,46.5706667 81.5020143,46.6288095 C80.581419,46.6587619 79.8793,46.5310238 79.3930143,46.2438333 C79.1965619,46.1046429 79.0423952,45.9513571 78.9340381,45.7830952 C78.6494905,45.4263095 78.5878238,44.9074286 78.7578476,44.2246905 C78.9340381,43.7287143 79.1472286,43.1710714 79.3938952,42.5482381 C79.6520143,41.8945714 79.9295143,41.1915714 80.2272762,40.440119 L80.4492762,39.9062619 C80.5867048,39.4807619 80.5576333,39.1689048 80.3585381,38.9706905 C80.1612048,38.7425238 79.8387762,38.6729286 79.3930143,38.7636667 C79.3146095,38.7636667 79.2300381,38.7786429 79.1419429,38.8077143 C78.6168952,38.9169524 78.1588,39.0394048 77.7614905,39.1785952 C77.1104667,39.3776905 76.6990619,39.5688571 76.5308,39.757381 C76.3731095,39.9555952 75.6401571,41.5580476 74.3354667,44.5665 L73.9346333,45.4853333 C73.7672524,45.8526905 73.5919429,46.1046429 73.4148714,46.2438333 C73.2175381,46.4217857 72.9197762,46.4949048 72.5233476,46.4667143 C72.4238,46.4667143 72.3462762,46.4217857 72.2872524,46.3319286 C72.1771333,46.193619 72.1771333,45.8958571 72.2872524,45.4421667 L72.4643238,44.9074286 L71.9445619,45.2034286 C71.8344429,45.2642143 71.7278476,45.3294048 71.6177286,45.398119 C69.8575857,46.3486667 68.1009667,46.8164524 66.3513952,46.8067619 C65.5488476,46.7776905 64.8758,46.4675952 64.3331333,45.8729524 C63.9657762,45.4862143 63.783419,45.1805238 63.783419,44.9532381 L63.6495143,44.6554762 L63.6336571,44.7004048 L63.3958,44.863381 C61.8629429,46.1310714 60.3538714,46.748619 58.8712286,46.7186667 C57.9990857,46.6895952 57.3515857,46.5063571 56.9260857,46.1707143 C56.697919,45.8139286 56.5842762,45.621 56.5842762,45.5910476 L56.568419,45.2492381 L56.272419,45.398119 C54.8382286,46.3372143 53.275419,46.7768095 51.5831095,46.7186667 C50.8307762,46.6895952 50.2713714,46.3768571 49.9066571,45.7830952 C49.7084429,45.1981429 49.5948,44.8924524 49.5648476,44.8625 L49.5648476,44.4475714 L49.2230381,44.6995238 C47.3527762,46.0147857 45.9573476,46.6719762 45.0385143,46.6719762 C44.2165857,46.6446667 43.6131333,46.4605476 43.2263952,46.1240238 C42.9991095,45.7980714 42.8854667,45.620119 42.8854667,45.5901667 L42.7956095,45.1153333 L42.4987286,45.4421667 C42.2714429,45.7284762 41.9252286,45.9962857 41.4609667,46.2438333 C40.5209905,46.7574286 39.4427048,46.9988095 38.2252286,46.970619 C37.9098476,46.970619 37.6217762,46.9204048 37.3636571,46.8208571 C36.8597524,46.6323333 36.4289667,46.3010952 36.0730619,45.8271429 C35.7065857,45.3020952 35.5224667,44.8968571 35.5224667,44.6096667 L35.4343714,44.4017619 L35.2264667,44.4766429 C34.2168952,44.861619 33.3562048,45.1849286 32.6452762,45.4421667 C31.2005143,45.9751429 30.3345381,46.2438333 30.0482286,46.2438333 C29.5425619,46.2438333 29.2914905,46.2041905 29.2914905,46.1240238 C29.430681,45.9865952 29.5681095,45.8870476 29.7073,45.8271429 C30.8833714,45.5003095 31.8638714,45.2087143 32.6461571,44.9523571 C34.0107524,44.4951429 34.7974429,44.1859286 35.0053476,44.0167857 C35.4000143,43.6890714 35.6572524,43.3534286 35.776181,43.0072143 C35.9743952,42.5033095 36.5038476,41.8152857 37.3645381,40.9440238 C37.552181,40.7466905 37.7600857,40.5335 37.9882524,40.3062143 C39.6805619,38.7231429 41.3120857,37.9355714 42.8854667,37.9461429 C43.805181,37.9461429 44.5222762,38.1188095 45.0376333,38.4650238 C45.1063476,38.4949762 45.209419,38.534619 45.3486095,38.5848333 L46.1203238,38.4218571 C46.8427048,38.2315714 47.2884667,38.1390714 47.4567286,38.1390714 C48.0011571,38.1390714 48.3570619,38.2174762 48.5253238,38.3769286 C48.3579429,38.6332857 48.0302286,38.8024286 47.5457048,38.8808333 C47.1298952,38.9099048 46.6409667,39.5741429 46.0771571,40.8691429 C45.1565619,43.0477381 44.6667524,44.3224762 44.6077286,44.6995238 L44.5628,44.7744048 C44.5628,45.0589524 44.6482524,45.2827143 44.8147524,45.4421667 C44.9645143,45.6086667 45.1415857,45.6932381 45.3486095,45.6932381 C46.6453714,45.7240714 47.965919,45.1355952 49.3120143,43.9278095 C49.3410857,43.8987381 49.3701571,43.8687857 49.4009905,43.8379524 C49.6767286,43.6009762 49.8758238,43.4027619 49.9938714,43.2450714 C50.074919,43.1164524 50.1885619,42.8389524 50.3365619,42.4134524 L50.3506571,42.3385714 C52.5178,37.3717619 53.7599429,34.5280476 54.0762048,33.8056667 C54.4920143,32.9344048 55.2091095,31.9406905 56.2274905,30.821 C57.5039905,29.3868095 58.7663952,28.4133571 60.0120619,27.898881 C61.2198476,27.3940952 62.2532048,27.0972143 63.1130143,27.0073571 C63.6979667,26.9677143 64.0635619,26.9985476 64.2115619,27.0972143 C64.3798238,27.2645952 64.4344429,27.3940952 64.3763,27.4830714 L64.2115619,27.528881 L64.1225857,27.528881 C62.2232524,27.4689762 60.5952524,27.8997619 59.2403476,28.8203571 C58.6360143,29.2749286 57.9101095,30.0774762 57.0591095,31.2235952 C56.2468714,32.2921905 55.7279905,33.1105952 55.4998238,33.6717619 L51.4192524,43.6758571 C51.1910857,44.3559524 51.1910857,44.8677857 51.4192524,45.2025476 C51.5857524,45.490619 51.8685381,45.6544762 52.2640857,45.6932381 C52.6807762,45.7240714 53.2533952,45.6544762 53.9863476,45.4853333 C54.6884667,45.2985714 55.2373,45.0906667 55.6328476,44.8625 C56.1288238,44.6360952 56.4450857,44.4669524 56.5825143,44.3568333 L56.5825143,44.3136667 L56.6274429,44.269619 C56.6565143,44.2097143 58.0915857,40.9202381 60.9300143,34.4003095 C61.7616333,32.5996429 62.8108476,31.0209762 64.0767762,29.6660714 C65.5911333,28.0521667 67.1786095,27.0346667 68.8400857,26.6082857 C72.0353,25.7564048 74.1478238,26.1775 75.1767762,27.8698095 C75.7203238,28.7005476 75.680681,29.7198095 75.0578476,30.9275952 C74.7019429,31.6411667 74.2685143,32.2428571 73.7522762,32.7388333 C72.961181,33.5898333 71.9921333,34.2760952 70.8442524,34.8020238 C69.6963714,35.3658333 68.5828476,35.6776905 67.503681,35.7375952 C66.7328476,35.7957381 66.3073476,35.7261429 66.2289429,35.5296905 L66.2738714,35.3957857 C66.4113,35.2856667 66.8288714,35.2028571 67.520419,35.1447143 C68.558181,35.1147619 69.6813952,34.8222857 70.889181,34.2690476 C72.1040143,33.7043571 72.9761571,33.0797619 73.4994429,32.3996667 C74.2235857,31.4790714 74.6570143,30.6562619 74.8067762,29.9347619 C74.8843,29.3612619 74.8067762,28.7824762 74.5680381,28.1975238 C74.2826095,27.565 73.5205857,27.1342143 72.2846095,26.9069286 C69.7316095,26.4523571 67.2376333,27.5465 64.8035619,30.1875952 C64.0917524,30.968119 62.0135857,35.2028571 58.5708238,42.8909286 L58.2325381,43.6335714 C57.8775143,44.3762143 57.846681,44.9946429 58.1435619,45.4870952 C58.3717286,45.7954286 58.6377762,45.9487143 58.9452286,45.9487143 C60.2402286,46.0359286 61.4471333,45.6359762 62.5650619,44.7462143 C62.7632762,44.5982143 62.9473952,44.5233333 63.1138952,44.5233333 L63.3517524,44.5233333 L63.6336571,44.7012857 L63.544681,44.3145476 C63.4750857,44.1172143 63.4609905,43.8599762 63.5006333,43.5419524 C63.5297048,42.9103095 63.7067762,42.3006905 64.0336095,41.716619 C64.5480857,40.8083571 65.2968952,40.0058095 66.2765143,39.313381 C67.4226333,38.462381 68.5846095,38.036881 69.7633238,38.036881 C70.6231333,38.036881 71.2424429,38.295 71.6168476,38.8085952 C71.6379905,38.8288571 71.6617762,38.8685 71.6908476,38.9275238 C72.0370619,39.5503571 72.0520381,40.125619 71.7357762,40.6480238 C71.7067048,40.7088095 71.6653,40.7828095 71.6168476,40.8709048 C70.9746333,41.7624286 69.851419,42.5050714 68.2489667,43.0979524 C67.0420619,43.5419524 66.225419,43.6908333 65.8008,43.5419524 L65.6968476,43.5419524 L65.5479667,43.586881 C65.4493,43.677619 65.3999667,43.9040238 65.3999667,44.2705 C65.3691333,44.6052619 65.3893952,44.918881 65.4581095,45.2043095 C65.6475143,45.7011667 65.9584905,45.9769048 66.393681,46.0359286 C67.8877762,46.1548571 69.242681,45.8932143 70.4601571,45.2492381 C70.8856571,45.0501429 71.2723952,44.8545714 71.6168476,44.6554762 C72.091681,44.3982381 72.4925143,44.1691905 72.8193476,43.973619 L72.9092048,43.882881 C73.0378238,43.6555952 73.3928476,42.9534762 73.9760381,41.7765238 C74.5698,40.5590476 74.8860619,39.866619 74.9274667,39.6974762 L74.9274667,39.609381 C75.0939667,39.183881 75.0754667,38.887 74.8684429,38.7187381 L74.7644905,38.5848333 C74.7644905,38.4755952 74.9045619,38.3778095 75.179419,38.2888333 C75.4666095,38.2183571 75.7934429,38.2042619 76.159919,38.2430238 C76.4356571,38.3020476 76.5951095,38.3628333 76.6347524,38.4227381 L76.6928952,38.5407857 C76.8911095,38.7980238 77.0884429,38.9107857 77.2875381,38.8817143 L77.6733952,38.7636667 C77.7007048,38.7636667 77.7315381,38.7486905 77.7606095,38.7187381 C78.3737524,38.4615 78.918181,38.2967619 79.3930143,38.2280476 C79.8387762,38.1302619 80.2052524,38.1003095 80.4924429,38.1390714 C81.1064667,38.1989762 81.5363714,38.4315476 81.783919,38.8367857 C82.0112048,39.2120714 82.0605381,39.6181905 81.931919,40.053381 L80.2263952,44.4466905 C80.1162762,44.9206429 80.1753,45.3161905 80.4034667,45.6333333 C80.6008,45.8720714 80.8827048,45.990119 81.2483,45.990119 C81.7037524,45.9601667 82.3768,45.7778095 83.2674429,45.4412857 C84.188919,45.1144524 84.8214429,44.8228571 85.1667762,44.565619 L86.2494667,43.8379524 L86.2935143,43.8229762 C86.3842524,43.5948095 86.4688238,43.3666429 86.5463476,43.1402381 C87.981419,39.3803333 89.2173952,36.5313333 90.2560381,34.5923571 C91.255919,32.633119 92.4425619,30.9901429 93.8177286,29.6651905 C95.7769667,27.824881 97.9141571,26.8593571 100.2293,26.770381 C102.266062,26.7219286 103.557538,27.2408095 104.101086,28.3296667 C104.368014,28.8547143 104.462276,29.4581667 104.38299,30.1409048 C104.294895,30.7240952 104.116943,31.1998095 103.850014,31.5645238 C103.060681,32.577619 102.229062,33.3493333 101.358681,33.8840714 L101.358681,33.8840714 Z M86.3410857,5.78785714 C86.4793952,6.09530952 86.2221571,6.48116667 85.5684905,6.94542857 C85.5191571,7.03528571 85.4310619,7.14716667 85.3024429,7.28811905 C84.5694905,8.00080952 83.931681,8.94430952 83.3872524,10.1212619 L83.3722762,10.1212619 C83.2524667,10.3300476 83.1335381,10.5476429 83.0163714,10.7758095 L83.060419,10.7758095 L82.8533952,11.2788333 C82.7344667,11.5765952 82.6058476,11.8990238 82.4675381,12.2443571 C82.2693238,12.6998095 82.0719905,13.154381 81.8737762,13.6098333 C81.3302286,14.6379048 80.7708238,15.8412857 80.1973238,17.2173333 L79.9594667,17.7811429 C79.7313,18.2462857 79.7075143,18.6620952 79.8854667,19.0268095 C79.9744429,19.185381 80.1321333,19.2655476 80.3603,19.2655476 C81.2694429,19.333381 82.1160381,19.0426667 82.8974429,18.389881 C83.0965381,18.3009048 83.2533476,18.2559762 83.3731571,18.2559762 L83.506181,18.2559762 L83.6251095,18.2559762 L83.8180381,18.389881 C83.8180381,18.4189524 83.837419,18.4489048 83.876181,18.4797381 L83.6841333,18.6435952 L83.6841333,18.6876429 C82.5265619,19.6073571 81.3936571,20.0672143 80.2863,20.0672143 C79.6432048,19.9888095 79.1674905,19.8346429 78.860919,19.6073571 L78.8027762,19.6073571 C78.712919,19.4285238 78.6292286,19.2805238 78.5508238,19.1624762 L78.5508238,19.0893571 C78.3825619,19.2558571 78.1808238,19.4091429 77.9420857,19.5483333 L77.9420857,19.4725714 C77.2593476,19.8487381 76.4620857,20.0460714 75.5520619,20.0663333 C75.3159667,20.0663333 75.0974905,20.0275714 74.8983952,19.9474048 L74.9292286,19.9474048 C74.5539429,19.8090952 74.2271095,19.5615476 73.9513714,19.203881 C73.8905857,19.1157857 73.847419,19.0329762 73.8165857,18.9536905 C72.9858476,19.6364286 72.2837286,20.0073095 71.7093476,20.0663333 L71.6494429,20.0663333 C70.6495619,20.0663333 70.0223238,19.832881 69.7650857,19.368619 L69.7650857,19.4144286 C69.4875857,19.1069762 69.4179905,18.6973333 69.5563,18.1810952 L69.5563,18.1370476 C69.8153,17.3952857 70.1905857,16.4605952 70.6848,15.3320952 L70.8477762,14.9911667 L70.8477762,15.0360952 C70.907681,14.7674048 70.868919,14.5506905 70.7288476,14.3815476 C70.6310619,14.2141667 70.3782286,14.2141667 69.9721095,14.3815476 C68.9731095,14.5903333 68.3705381,14.7938333 68.1626333,14.9911667 C67.9943714,15.1585476 67.4790143,16.3214048 66.6183238,18.4788571 L66.5733952,18.4788571 L66.2324667,19.0875952 C66.0950381,19.424119 65.9699429,19.6399524 65.8607048,19.738619 C65.7135857,19.8786905 65.4651571,19.9465238 65.1189429,19.9465238 C64.9806333,19.9465238 64.9066333,19.8971905 64.8960619,19.7985238 C64.7780143,19.6699048 64.7780143,19.425881 64.8960619,19.0717381 L64.8960619,19.0250476 C64.0159905,19.5421667 63.3121095,19.7985238 62.7888238,19.7985238 C62.2250143,19.7985238 61.7986333,19.6549286 61.5123238,19.3677381 L61.2445143,19.0250476 L61.2445143,18.9519286 L61.2295381,18.833881 L61.1846095,18.8770476 L61.1846095,18.833881 C61.0762524,19.0796667 60.8392762,19.2884524 60.4728,19.4575952 L60.5177286,19.4126667 C59.8746333,19.7676905 59.0985143,19.9456429 58.1876095,19.9456429 C57.6035381,19.9456429 57.0890619,19.6593333 56.6433,19.0858333 C56.4168952,18.7387381 56.3023714,18.462119 56.3023714,18.2524524 L56.2151571,18.2524524 L56.2151571,18.3123571 C54.1968952,19.074381 53.034919,19.4567143 52.7274667,19.4567143 C52.3116571,19.4567143 52.1196095,19.3915238 52.148681,19.2620238 L52.148681,19.2179762 C52.1874429,19.1193095 52.2869905,19.0303333 52.444681,18.9501667 L52.4605381,18.9501667 C54.607419,18.3458333 55.7949429,17.9555714 56.0222286,17.777619 C56.2292524,17.5318333 56.3781333,17.3177619 56.4679905,17.1398095 C56.6353714,16.7151905 57.1551333,16.095881 58.0263952,15.2845238 C59.1742762,14.1665952 60.2860381,13.633619 61.3652048,13.6820714 C62.0285619,13.6820714 62.5227762,13.801881 62.8504905,14.0388571 L62.8337524,14.0388571 C62.9244905,14.0476667 63.0073,14.0732143 63.0874667,14.1128571 L63.5772762,13.9648571 C64.0521095,13.8362381 64.3481095,13.7860238 64.4670381,13.8159762 C64.8247048,13.8159762 65.1013238,13.8644286 65.2986571,13.9648571 L65.3735381,14.0388571 L65.3735381,14.1128571 C65.3233238,14.1128571 65.2986571,14.1172619 65.2986571,14.1278333 C65.0995619,14.2758333 64.8687524,14.4044524 64.6018238,14.5136905 L64.5568952,14.5136905 C64.2793952,14.541881 63.9675381,14.9629762 63.6204429,15.7752143 C63.0372524,17.2085238 62.7007286,18.0806667 62.6108714,18.3872381 C62.6108714,18.5352381 62.654919,18.6532857 62.7447762,18.7431429 L62.7447762,18.7730952 C62.8038,18.8409286 62.9174429,18.8752857 63.0865857,18.8752857 C63.7199905,18.8752857 64.3718952,18.6691429 65.0458238,18.2515714 C65.0845857,18.0850714 65.154181,17.9608571 65.2528476,17.8824524 C65.3321333,17.8119762 65.4070143,17.7177143 65.4748476,17.6005476 L65.505681,17.5415238 C65.6237286,17.2737143 65.8122524,16.8684762 66.0694905,16.3231667 C66.5038,15.4334048 66.761919,14.9339048 66.8412048,14.8246667 L66.8412048,14.8695952 C66.9011095,14.5427619 66.8755619,14.336619 66.7663238,14.2467619 C66.7372524,14.2467619 66.7222762,14.2229762 66.7222762,14.1727619 L66.7222762,14.1278333 L66.7073,14.0547143 C66.6773476,13.8970238 66.7927524,13.8036429 67.0499905,13.7728095 C67.2552524,13.6635714 67.5186571,13.6635714 67.8358,13.7728095 C68.0040619,13.7728095 68.1027286,13.7886667 68.132681,13.818619 L68.206681,13.818619 L68.206681,13.8626667 L68.2665857,13.9675 C68.3555619,14.1040476 68.463919,14.2000714 68.5925381,14.2485238 L68.8744429,14.1155 L68.8594667,14.1155 C69.758919,13.690881 70.4513476,13.5349524 70.9358714,13.6556429 C71.479419,13.6750238 71.8353238,13.8732381 72.0053476,14.2485238 L71.9595381,14.2485238 C72.1577524,14.5066429 72.2158952,14.8237857 72.1383714,15.1999524 L70.9200143,18.389881 C70.831919,18.6867619 70.8530619,18.944 70.979919,19.1615952 C71.0988476,19.2990238 71.296181,19.3844762 71.573681,19.4144286 C71.8608714,19.3642143 72.3947286,19.0972857 73.1778952,18.6127619 C73.3338238,18.5237857 73.4738952,18.4400952 73.5919429,18.3599286 C73.571681,18.3211667 73.5611095,18.2859286 73.5611095,18.2559762 L73.5611095,18.2277857 C73.4738952,17.8419286 73.5179429,17.4358095 73.6950143,17.0103095 C73.8632762,16.6729048 74.2491333,16.1839762 74.8525857,15.540881 L74.8957524,15.4959524 C75.0349429,15.3576429 75.1741333,15.2193333 75.3142048,15.0810238 L75.3591333,15.0810238 C76.6048,13.892619 77.7958476,13.3332143 78.934919,13.4036905 C79.6167762,13.4036905 80.1523952,13.5120476 80.5373714,13.7305238 C80.5655619,13.6503571 80.5928714,13.5807619 80.6104905,13.522619 C80.7796333,13.097119 80.9672762,12.6557619 81.1760619,12.2011905 C81.3143714,11.8452857 81.4826333,11.4550238 81.6799667,11.0295238 C81.6799667,10.9793095 81.709919,10.9264524 81.7707048,10.8665476 C81.9768476,10.4005238 82.2288,9.96533333 82.525681,9.55921429 C82.525681,9.54071429 82.5353714,9.53102381 82.5565143,9.53102381 C83.099181,8.58047619 83.6885381,7.78497619 84.3210619,7.141 L84.3210619,7.15597619 C84.8170381,6.60185714 85.3605857,6.18692857 85.9552286,5.90942857 C86.0133714,5.8292619 86.0829667,5.78521429 86.1622524,5.77640476 L86.2212762,5.77640476 L86.2952762,5.77640476 L86.3410857,5.78785714 Z M80.1532762,14.6335 C80.1127524,14.5057619 80.063419,14.4115 80.0052762,14.3524762 C79.7172048,13.966619 79.1780619,13.8864524 78.3869667,14.114619 C77.4575619,14.3313333 76.7695381,14.6379048 76.3237762,15.0352143 C75.680681,15.4906667 75.2587048,16.1179048 75.0622524,16.9195714 C75.0437524,16.9882857 75.031419,17.1169048 75.031419,17.3054286 L75.031419,17.3494762 C74.9433238,17.7855476 74.9521333,18.1467381 75.0622524,18.4330476 L75.0622524,18.4779762 C75.0622524,18.5678333 75.107181,18.6356667 75.1943952,18.685 L75.1943952,18.7440238 C75.4815857,19.0514762 75.8674429,19.2479286 76.3519667,19.3386667 L76.4109905,19.3386667 C76.9748,19.3580476 77.641681,19.0567619 78.4142762,18.4330476 L78.548181,18.1793333 C78.548181,18.1511429 78.5622762,18.1352857 78.5913476,18.1352857 L78.6662286,18.1352857 L78.6662286,18.1211905 C78.7974905,17.7740952 79.2925857,16.613 80.1532762,14.6335 L80.1532762,14.6335 Z M69.2162524,19.2637857 L69.2162524,19.3536429 C69.1863,19.3430714 69.1704429,19.314 69.1704429,19.2637857 L69.2162524,19.2637857 Z M122.165014,14.8264286 C121.741276,15.2721905 121.468181,15.6827143 121.348371,16.058881 L121.348371,16.1179048 L121.483157,16.354881 C121.650538,16.4544286 121.819681,16.4887857 121.986181,16.4588333 C122.708562,16.3989286 123.341967,16.1672381 123.885514,15.761119 C124.499538,15.2175714 124.746205,14.7471429 124.629038,14.3515952 C124.530371,14.1137381 124.267848,13.9948095 123.840586,13.9948095 C123.250348,13.9675 122.689181,14.244119 122.165014,14.8264286 L122.165014,14.8264286 Z M113.587181,10.7159048 C113.597752,10.786381 113.583657,10.8894524 113.542252,11.0277619 C113.445348,11.2242143 113.230395,11.3995238 112.905324,11.5475238 C112.340633,11.7448571 111.998824,11.6708571 111.879895,11.3246429 L111.834967,11.2048333 L111.879895,10.9986905 C111.998824,10.7793333 112.212014,10.6216429 112.518586,10.5229762 C113.074467,10.3045 113.42861,10.3705714 113.587181,10.7159048 L113.587181,10.7159048 Z M113.6048,4.35102381 C112.375871,5.26985714 111.539848,6.2142381 111.096729,7.18328571 C110.895871,7.56914286 110.713514,7.94619048 110.546133,8.31178571 C109.339229,10.9255714 108.389562,13.0962381 107.696252,14.8273095 L107.41611,15.466881 C107.089276,16.3266905 106.885776,16.9160476 106.807371,17.2331905 C106.65761,17.8366429 106.757157,18.2383571 107.103371,18.4339286 C107.469848,18.6629762 107.929705,18.6365476 108.484705,18.3599286 C108.87849,18.1326429 109.176252,17.9106429 109.374467,17.6912857 C109.472252,17.5520952 109.736538,17.0103095 110.162919,16.0597619 C110.556705,15.1206667 110.785752,14.5506905 110.843895,14.3524762 C110.872967,14.1243095 110.805133,13.9322619 110.63599,13.7728095 L110.547014,13.6988095 C110.547014,13.5508095 110.938157,13.4371667 111.720443,13.357881 C112.113348,13.3288095 112.367943,13.3675714 112.4763,13.4768095 C112.536205,13.5340714 112.510657,13.7102619 112.400538,13.9956905 L111.140776,17.0975238 C110.743467,17.9106429 110.6448,18.4691667 110.843014,18.7757381 C110.902919,18.9730714 111.050919,19.0875952 111.288776,19.1166667 C112.138895,19.2047619 112.98549,18.8594286 113.8268,18.0780238 L113.870848,18.019 L113.870848,17.9291429 C113.889348,17.7115476 113.944848,17.4499048 114.034705,17.1424524 C114.202086,16.5478095 114.46461,16.0289286 114.820514,15.5840476 C114.950014,15.4439762 115.062776,15.3153571 115.163205,15.1981905 C115.320895,15.0290476 115.478586,14.874881 115.636276,14.7383333 C116.597395,13.8177381 117.566443,13.3120714 118.547824,13.2230952 C118.605086,13.1940238 118.656181,13.1790476 118.696705,13.1790476 C119.258752,13.1288333 119.699229,13.2574524 120.01549,13.5649048 C120.312371,13.8221429 120.411919,14.0485476 120.312371,14.2467619 C120.223395,14.4731667 119.99611,14.5885714 119.630514,14.5885714 C119.521276,14.5885714 119.42261,14.5075238 119.333633,14.3507143 C119.27461,13.9155238 119.012967,13.6820714 118.547824,13.653 L118.502014,13.653 C117.651014,13.5640238 116.794729,14.1912619 115.933157,15.5373571 C115.81511,15.725881 115.716443,15.9628571 115.636276,16.2500476 C115.579014,16.4174286 115.534086,16.6015476 115.504133,16.7997619 C115.405467,17.3935238 115.435419,17.8824524 115.59311,18.2691905 C115.59311,18.2991429 115.609848,18.3282143 115.637157,18.3581667 C115.837133,18.7255238 116.147229,18.9466429 116.57361,19.0250476 C117.236086,19.1457381 117.894157,19.037381 118.548705,18.6999762 C118.814752,18.5229048 119.091371,18.314119 119.378562,18.0771429 L119.333633,17.8392857 C119.3028,17.7397381 119.320419,17.5626667 119.378562,17.3054286 C119.545943,16.7997619 119.893038,16.2121667 120.418086,15.5382381 C120.933443,14.9057143 121.600324,14.3912381 122.42049,13.9948095 C123.172824,13.6186429 123.874943,13.431 124.52861,13.431 C124.99199,13.431 125.340848,13.559619 125.567252,13.8168571 C125.733752,14.0450238 125.794538,14.3031429 125.744324,14.5885714 C125.597205,15.280119 124.894205,15.9884048 123.637967,16.7099048 C123.053014,17.0755 122.366752,17.2199762 121.573895,17.1406905 C121.257633,17.1406905 121.070871,17.1961905 121.010086,17.3045476 C120.932562,17.7194762 120.932562,18.0410238 121.010086,18.2691905 C121.128133,18.4674048 121.327229,18.6506429 121.603848,18.8180238 C121.693705,18.8761667 121.79149,18.9369524 121.900729,18.9959762 C122.514752,19.2734762 123.28999,19.2144524 124.231729,18.8180238 C124.527729,18.7079048 124.829014,18.556381 125.134705,18.3581667 C126.094943,17.8137381 126.788252,17.3107143 127.212871,16.8446905 C127.432229,16.6156429 127.634848,16.502881 127.82161,16.502881 L127.866538,16.502881 C127.866538,16.6411905 127.688586,16.8693571 127.3318,17.1847381 C126.76711,17.7388571 125.996276,18.2683095 125.015776,18.7739762 C124.988467,18.8021667 124.957633,18.8180238 124.927681,18.8180238 C123.64061,19.499881 122.434586,19.8082143 121.306967,19.7377381 C120.811871,19.7095476 120.381967,19.5606667 120.01549,19.2928571 C119.729181,19.0646905 119.585586,18.907 119.585586,18.8180238 L119.511586,18.6990952 L119.288705,18.7281667 C119.209419,18.758119 119.140705,18.7871905 119.0808,18.8180238 C117.577014,19.3721429 116.483752,19.647881 115.801014,19.647881 L115.636276,19.647881 C115.488276,19.6205714 115.330586,19.5994286 115.163205,19.5888571 C114.974681,19.5315952 114.767657,19.4320476 114.53949,19.2928571 C114.172133,19.0646905 113.989776,18.9219762 113.989776,18.8638333 L113.871729,18.7290476 L113.739586,18.8189048 C112.303633,19.4029762 111.438538,19.664619 111.142538,19.6055952 C110.684443,19.5959048 110.306514,19.4470238 109.998181,19.1607143 C109.5533,18.7052619 109.230871,18.5528571 109.032657,18.7008571 C108.153467,19.3051905 107.312157,19.6055952 106.51049,19.6055952 C106.323729,19.6055952 106.135205,19.5712381 105.9458,19.5016429 C105.787229,19.4135476 105.639229,19.2699524 105.5018,19.072619 C105.334419,18.8444524 105.248967,18.6620952 105.248967,18.5237857 L105.15911,18.2269048 L104.908038,18.4039762 C103.958371,18.9378333 103.206919,19.2752381 102.6528,19.4135476 C101.346348,19.7994048 100.233705,19.9615 99.3131095,19.9033571 C98.3334905,19.9033571 97.7441333,19.7694524 97.5468,19.5016429 C97.4076095,19.2752381 97.640181,18.8937857 98.2436333,18.3590476 C98.6691333,17.9731905 99.4364429,16.7019762 100.5438,14.5445238 L100.588729,14.4423333 C100.657443,14.3137143 100.662729,14.1692381 100.603705,14.0106667 C100.53411,13.8820476 100.217848,13.7886667 99.6540381,13.7305238 L99.3131095,13.7305238 C98.9263714,13.7111429 98.4515381,13.7384524 97.8877286,13.8195 C97.344181,13.9093571 97.066681,13.9534048 97.0569905,13.9534048 L97.011181,13.9965714 L95.4395619,16.0606429 C94.1736333,17.5644286 92.9667286,18.6277381 91.8179667,19.2505714 C90.6410143,19.8637143 89.3794905,20.1121429 88.0325143,19.9932143 C87.0247048,19.9227381 86.3375619,19.5915 85.9719667,18.998619 L85.8812286,18.776619 C86.0494905,18.6092381 86.2089429,18.5537381 86.3578238,18.6127619 C86.7524905,19.1166667 87.4246571,19.3844762 88.3752048,19.4144286 C90.1758714,19.442619 91.8276571,18.7008571 93.3323238,17.187381 C93.956919,16.5354762 95.196419,14.8828095 97.0569905,12.2302619 L97.3697286,11.7122619 C99.0902286,9.29669048 101.389514,6.48204762 104.27111,3.26657143 L104.700133,2.88071429 L104.655205,2.88071429 C103.874681,3.0692381 102.637824,3.08333333 100.943752,2.9247619 C100.647752,2.89657143 99.8610619,2.76707143 98.5854429,2.53890476 C96.6262048,2.20414286 95.1435619,2.07992857 94.1331095,2.16978571 C92.9852286,2.21911905 91.8082762,2.7177381 90.6004905,3.66740476 C89.5125143,4.47964286 88.6720857,5.43811905 88.0783238,6.54811905 C87.7911333,7.0115 87.6272762,7.51628571 87.5876333,8.06159524 C87.5303714,8.55669048 87.5770619,8.95664286 87.7356333,9.26321429 C88.1329429,10.0049762 88.9328476,10.4745238 90.1406333,10.6718571 C91.2594429,10.8612619 92.6046571,10.6489524 94.1771571,10.0349286 C95.642181,9.44028571 96.8623,8.695 97.843681,7.79290476 C97.9802286,7.68454762 98.1634667,7.57530952 98.3916333,7.46783333 L98.4365619,7.54095238 C98.4365619,7.76911905 98.4066095,7.91359524 98.3458238,7.9717381 C97.4957048,8.89057143 96.2482762,9.72747619 94.6070619,10.4806905 C93.2803476,11.1035238 92.0188238,11.4012857 90.8233714,11.3704524 C89.5873952,11.3405 88.5584429,10.9801905 87.7347524,10.286881 C87.5180381,10.0895476 87.3259905,9.8067619 87.1577286,9.44116667 C86.9894667,9.01654762 86.9057762,8.64038095 86.9057762,8.31354762 C86.9057762,7.60085714 87.1815143,6.78597619 87.7347524,5.8645 C88.3593476,4.85492857 89.1900857,3.92640476 90.2296095,3.07452381 C92.5835143,1.17607143 95.7787286,0.759380952 99.8152524,1.82797619 C101.022157,2.13542857 102.285443,2.34861905 103.600705,2.46754762 C104.866633,2.57590476 105.692967,2.56092857 106.078824,2.4235 C106.385395,2.30280952 106.6673,2.28959524 106.925419,2.37680952 C107.152705,2.4067619 107.297181,2.50542857 107.355324,2.67457143 C107.464562,2.87278571 107.43461,3.08509524 107.265467,3.3132619 L107.134205,3.41721429 C106.527229,4.15809524 106.113181,4.68402381 105.886776,4.99059524 C105.65861,5.34561905 104.615562,7.8792381 102.75499,12.5888095 L102.75499,12.6337381 C101.745419,15.2466429 101.20099,16.6191667 101.121705,16.760119 C100.894419,17.2437619 100.517371,17.7494286 99.9940857,18.2744762 L99.7271571,18.5713571 C99.6170381,18.7079048 99.6170381,18.8374048 99.7271571,18.9572143 C99.9244905,19.1950714 100.736729,19.1642381 102.161229,18.8682381 C103.506443,18.5607857 104.550371,18.1018095 105.292133,17.4886667 L105.337062,17.4419762 L106.078824,15.4695238 C106.247086,15.0131905 106.836443,13.7085 107.844252,11.5510476 C108.438014,10.2842381 108.964824,9.20595238 109.418514,8.31530952 C109.745348,7.60261905 110.036062,7.01414286 110.294181,6.5507619 C110.98661,5.22316667 112.218181,4.13166667 113.988014,3.26921429 C115.453038,2.55740476 116.744514,2.2015 117.860681,2.2015 C118.317014,2.2015 118.791848,2.29047619 119.286062,2.46842857 C119.879824,2.66664286 120.334395,2.93357143 120.651538,3.26921429 C121.175705,3.85328571 121.43911,4.4567381 121.43911,5.08045238 C121.410038,6.06007143 121.2268,6.85645238 120.889395,7.47047619 C120.564324,8.07480952 119.958229,8.70116667 119.078157,9.35571429 C117.901205,10.2648571 116.752443,10.8136905 115.634514,11.0022143 C115.486514,11.0215952 115.358776,11.0321667 115.249538,11.0321667 C115.090967,11.0603571 114.92799,11.0365714 114.759729,10.9581667 C114.581776,10.8982619 114.491919,10.8533333 114.491919,10.8251429 L114.462848,10.7352857 L114.581776,10.6745 L114.625824,10.6745 L114.966752,10.6745 C115.096252,10.6471905 115.319133,10.5679048 115.634514,10.4384048 C115.882943,10.3679286 116.1948,10.2701429 116.570967,10.1406429 C118.144348,9.61647619 119.261395,8.93461905 119.925633,8.09330952 C120.4498,7.4202619 120.742276,6.59392857 120.8013,5.61519048 C120.890276,3.88235714 119.871014,2.95911905 117.743514,2.84107143 C116.446752,2.7565 115.068062,3.25952381 113.6048,4.35102381 L113.6048,4.35102381 Z" id="Fill-1" fill="#231F20" mask="url(#mask-2)"></path>
                    </g>
                </g>
            </g>
        </g>
    </g>
</svg>
