<svg xmlns="http://www.w3.org/2000/svg" width="351" height="285">
  <g fill-rule="evenodd">
    <path d="M58.27 123.815c0-64.15 52.2-116.348 116.364-116.348 64.15 0 116.344 52.199 116.344 116.348 0 64.165-52.195 116.35-116.344 116.35-64.165 0-116.365-52.185-116.365-116.35zm-3.34 0c0 66.003 53.701 119.689 119.704 119.689 66.002 0 119.703-53.686 119.703-119.689 0-66.002-53.701-119.689-119.703-119.689-66.003 0-119.704 53.687-119.704 119.69z"/>
    <path d="M253.273 143.282c-3.268 3.033-7.883 3.079-11.618 5.544-1.707 1.707-1.281 3.665-.582 5.824 1.385 2.726.858 2.451-1.065 3.094-4.51 1.5-4.464 6.437-9.896 5.618-.306.086-1.573-.554-.815.365.584.685.815.277 1.969.408 1.928.1 2.657-.703 4.012-1.622 1.928-1.632 1.693-2.245 4.088-3.384.567-.146 1.968-.552 2.756-.276.526.482.542.496.628.933-.306 1.326-2.23 2.422-2.978 2.874 1.024.747 2.922 2.002 2.6 3.05-.44.7-.411.82-1.17 1.181-1.078.527-3.223.438-5.252-1.064-.306.101-.642-.582-1.5.236 1.968 2.028 4.725 1.572 5.136 1.983.422.407-1.475 2.858-1.547 3.385-1.33 3.518.292 6.757-.411 10.418-.437 2.847-1.3 4.203-3.791 6.015-4.599 3.18-7.824 4.099-12.96 4.932-13.512.918-22.036-3.722-31.753-10.99-9.735-7.268-13.457-11.118-16.49-15.206-.045-1.677 1.18-2.948.131-4.755-.878.307-.789 1.457-1.315 2.114-.759 1.064-2.552 1.838-3.837 1.708-3.997-1.357-4.217-6.055-6.727-8.742-5.355-5.282-6.86-12.9-3.998-19.276 1.006-1.97 2.817-3.867 4.845-4.569 2.496-.393 5.443-.393 7.076 2.029 1.927 1.841 3.123 4.83 3.605 7.47.788 1.271-.175 2.731 1.14 3.782 2.29.22 4.258.788 6.462-.613 1.636.22 1.854 2.029 3.093 2.817l2.189 1.314c2.335.96 5.342.96 7.31-.747 3.696-3.777 2.892-7.672 4.163-11.849 3.53-3.12 5.865-7.587 5.82-11.952-.216-2.68-1.18-5.457-2.772-8.128.262-1.587 1.154-2.772 1.662-4.188.452-.261 1.024-.261 1.505-.347 3.924-.833 7.488-4.393 9.018-8.144l.352-.352c4.494-.305 10.082-1.897 12.665-6.592.54-2.029 2.816-.527 4.231-1.01 2.38-.13 4.755-1.46 6.553-2.991.522-.175.92.395 1.24.658 1.05 3.514 2.977 6.902 4.087 10.478 1.356 2.671 1.852 5.222 1.356 7.953.569 4.174 2.963 8.099 4.625 12.316 1.666 4.45 4.263 8.929 6.16 13.512.347 1.839 1.135 3.3 0 4.786zm.92-7.676c-3.169-7.311-6.728-13.584-9.325-20.939-1.852-2.642-.788-5.443-1.024-8.275-1.18-4.393-3.034-7.778-4.785-12.055-.497-1.226.874-1.573 1.356-2.451.788-2.159.236-4.58-.743-6.653-.392-1.185 1.02-2.014.743-3.24-.041-1.897-1.707-3.182-3.033-4.187-1.988-2.862-2.907-4.363-5.372-6.948v-.497c1.24-1.094 2.249-2.989 2.22-4.61-.498-1.838-.89-3.56-2.658-4.846-2.817-1.575-5.674.89-7.908 2.16-.627.437-.933.879-1.812.804-.567-.206-1.15-.422-1.763-.642a16.276 16.276 0 0 1-2.145 2.043l2.728 1.11c.089.074.13.13.13.234 0 .04-.03.131-.03.202-.186.16-6.33 5.547-6.33 5.547-.016.012-11.063 10.913-11.063 10.913 0 .014-3.153 3.228-3.153 3.228-.025.014-9.833 11.322-9.833 11.322-5.136 5.955-12.727 15.716-17.277 22.866-2.38 3.268-4.745 6.904-6.949 10.348-.231.378-.683.347-1.4.262-.481-.06-.99-.101-1.43.044h.014l-.1.027c.03-.011.059-.011.086-.027-2.497.277-4.32 1.11-6.258 2.858-2.51 2.978-3.781 6.568-3.781 10.45 0 2.671.598 5.486 1.823 8.303-.511 1.518-1.692 2.848-2.756 4.028l-.6.657-.757.758c-.482.453-1.054.991-1.446 1.502l-.044.046-.03.07c-.042.161-.071.467.426.702l.115.072.132-.027c2.32-.556 3.78-2.308 5.195-4 0 0 .89-1.02 1.02-1.182.22-.03.397.086.687.352.161.131.348.247.554.347v.12s-.03.758-.03.933c-5.499 5.43-9.982 8.492-15.847 11.937l-.979.567 1.14.12c2.279.232 4.453-1.054 6.553-2.294l2.524-1.386c2.32-1.195 4.479-3.018 6.582-4.77 0 0 1.88-1.577 2.084-1.752.207.045.423.29.584.497 0 0 .134.13.22.22.03.057 1.752 3.47 1.854 3.675-.393 1.607-.554 3.225-.554 4.846 0 3.516.758 7.034 1.502 10.464.743 3.384 1.501 6.87 1.501 10.3 0 .234 0 .452-.014.672 0 1.065-1.15 2.465-2.129 2.917-2.19.366-4.861.397-7.662.426-3.455.026-7.03.055-9.777.8-.873.104-1.897.395-2.887.672-.964.26-1.972.556-2.907.673l-.086.014-.116.086-.336.236c-.306.186-.702.436-.788.888 0 .045-.015.086-.015.131 0 .248.115.557.321.743a.833.833 0 0 0 .673.281c.828 0 1.763-.352 2.667-.672.628-.236 1.285-.467 1.883-.572 5.738-.976 12.01-.785 16.273-.437 2.1-.03 5.543-.1 6.784-3.092a9.584 9.584 0 0 0 .613-3.416c0-1.194-.188-2.334-.377-3.514l-.381-2.907c-.248-1.764-.629-3.53-.992-5.253-.642-3.019-1.299-6.142-1.299-9.309 0-.642.03-1.286.087-1.928.059-.087.13-.175.22-.187.175-.03.497.232.758.438.29.216.597.452.933.538.381.275.804.366 1.196.41.556.071.849.146 1.024.569.231 2.771 1.196 5.647 2.129 8.434.642 1.91 1.3 3.882 1.722 5.82.759 3.375 1.517 6.803 1.517 10.189 0 2.013-.261 4.011-.976 5.97-1.46 2.68-4.683 2.68-7.777 2.696h-.934l-7.62-.467c-6.524-.468-13.277-.95-20.197.16.046 0-1.546.176-1.546.176-.858.131-1.661.235-2.526.03-.32-.262-.581-.702-.581-1.184 0-.147.03-.292.089-.438 1.24-2.726 1.853-5.193 1.853-7.381 0-1.768-.41-3.343-1.214-4.744-1.793-3.43-3.763-5.806-6.187-7.472-2.978-2.962-5.513-5.604-7.777-8.17-1.311-.16-2.115-.426-2.22-.453l-.29-.104-1.312 1.636c1.707 1.618 3.299 3.255 5.223 5.007 2.947 1.587 5.327 4.449 7.44 6.392 2.556 2.973 3.17 6.14 2.627 9.671-.332 4.177-4.158 5.984-6.753 8.742-1.065 1.983-1.723 4.363-.277 6.2.933 2.47 4.887 2.03 5.368 4.057 1.094 4.47 8.843 7.05 10.362 7.152 1.503.104 3.064 1.781 3.064 1.781 3.078 2.248 7.12 1.692 9.25 1.371 2.117-.321 5.913 1.401 8.305 1.05 3.545-1.417 6.466-.759 10.157-1.065 11.614.175 24.809-.086 36.684 1.416 2.204-.261 4.83 1.446 6.903.395.538-.892.132-1.636 0-2.379-5.677-8.931-6.521-18.955-3.298-28.674l2.13.115c7.721.847 14.726-.16 22.548-4.684 3.908-2.16 5.966-7.193 5.79-10.857-.13-2.365-.949-5.166-.552-7.674.145-1.123.874-2.83 1.852-3.357.393-.232 1.839-1.212 2.29-2.467.745-2.027-.844-2.991-1.311-3.268 1.255-.511 2.45-3.049 1.312-5.035-.73-.774-1.592-3.867-1.678-4.871-.277-1.462-.32-2.948 1.05-3.882 3.078-1.622 5.984-2.017 9.194-3.43 2.204-.923 3.343-3.213 3.254-5.271l-1.312-4.493zm-125.759 72.525c-.397.717-.352 1.183-.528 2.027-.22.397-1.315-.13-1.662-.347-1.36-.731-1.27-.35-1.666-1.621-.216-.849-.202-1.838 1.214-2.581.874-.497 2.642-1.094 3.21 0 .175.743-.7 1.691-.568 2.522zm7.497 9.515c-1.808.044-3.064-.949-3.892-3.064-.849-2.715-1.14-5.092-.557-7.894.19-.336.582-.57.847-.452l2.51-.863c.845-.336 1.548-.452 2.348-.26l.496.507c-.03 1.46-.392 2.54-.422 3.896-.147 3.404-.437 4.423.538 7.662-.363.863-1.091.452-1.868.468zM239.305 91.113c-.246.262-.552.568-.96.466-.933-.656-.586-1.486-.527-2.274.191-.19.22-.291.527-.291.438-.09.683.246.844.481.277.509.322 1.092.116 1.618zm-71.37 41.193c6.156-11.045 13.628-20.632 21.64-30.483l11.223-12.754c7.994-8.535 16.84-17.292 26.647-24.06 1.24-.704 1.777-2.16 3.048-1.14l1.154 1.065c.774.876.102 3.373-.688 4.072-.642.526-1.255 1.023-1.866 1.53 1.911 1.898 4.683 5.504 6.943 7.838.995 1.02.688 2.088 2.47 2.903.89.426 1.15 1.4.613 2.233-1.577 2.03-4.204 1.723-6.276 2.25-7.707 1.706-13.923 3.908-22.444 8.039-6.814 3.62-12.257 7.617-17.203 13.818-1.884 2.336-4.001 4.102-5.578 6.903-4.493 5.765-8.054 11.178-11.63 17.118-1.27 1.868-1.676 2.802-3.474 4.479-.858.833-1.632-.89-2.174-1.487-.055-.059-.1-.15-.146-.206-.175.031-.361-.014-.552-.13-.483-.628-1.983-.893-1.707-1.988zm67.84-42.654c-.116 2.133-2.962 3.897-5.342 4.554-1.004.16-1.939.104-2.843.104-.235-.16-.497-.366-.467-.6.16-1.005.322-1.604.393-2.507l.583-.441c2.102-.422 4.669-.874 6.787-1.427.306.056.699.026.89.317zm-22.108 5.563l.382-.497c1.732-.819 3.325-1.461 5.237-2l2.29-.596c.612-.557 1.677-1.009 2.305-.22.03 2.962-2.185 6.536-5.47 7.893-1.037.452-2.408.598-3.634.908-.306-.265-1.3.291-1.607-.456.191-1.487.759-3.706.497-5.032zm-23.478 52.636c-.613.348-5.94-1.681-5.314-1.125-1.269-1.355.804-1.811-3.895-3.575l-1.14.116c-.145.131-.553.352-.975-.231-.044-.718.89-.616 1.18-1.492 1.678-3.78.744-6.712.584-10.623l1.24-3.21c2.364-2.831 2.35-3.238 3.955-4.784 1.593-2.25 1.929-2.426 4.072-4.263.352-.306.992-.538 1.416-.19 1.006.788 1.065 1.314 1.357 2.32.497 3.735-1.767 6.305-4.494 8.334-1.929 1.662-3.78 4.263-3.359 6.814l.161.16c.893-.729 2.002-1.165 2.38-2.089 1.475-3.294 5.442-4.799 7.662-7.658.978-1.721.377-4.683 0-6.667 0 .055 2.917-1.39 2.129-.878 1.386.583 1.21 1.576 1.882 2.846 1.316 3.299 1.196 6.287-.817 9.15l-5.544 6.918c-.086 3.514.874 8.053-2.48 10.127zm7.31-33.476c-1.33.613-2.7.744-4.173.056-.381-.497-1.591-.919-1.11-1.661 1.066-1.738 2.873-3.169 3.983-4.876l.527-.277c2.245-2.712 5.808-5.005 9.179-7.05l2.029-.887c.451-.438 1.486-1.357 1.882-.408.086 3.545-1.416 7.34-4.8 9.848-2.044 1.519-2.933 1.228-4.76 1.344l-.95 1.693c-.215.844-.96 1.707-1.807 2.218zm-18.664 20.24l-.089 2.51c-.231 2.29-1.282 4.932-3.44 6.201-1.285-.305-.82-1.852-1.14-2.905.833-2.275 2.42-4.173 3.75-6.202.19-.13.363-.217.554-.13l.365.526zm-30.629 87.218c-.892.92-1.4.497-2.308.586-2.597-.717-4.113-1.827-4.842-4.76-.964-4.085-.923-8.58 0-12.767l.407-.322c1.823-.202 4.57-.568 5.327-.161.744.412-.803 7.764-.803 7.764-.06 1.46.658 5.196 1.327 7.123.134.292 1.635 1.78.892 2.537zm18.795-4.539c-.277 2.63-3.575 4.935-5.196 5.402-1.618.468-6.433.232-7.82-.25-1.4-.483-4.789-7.09-4.392-10.52 0-2.846.772-7.34 1.909-7.706 1.14-.35 4.145-.173 4.145-.173 1.256-.09 2.22.216 3.325.348.774.306.236 1.285.497 1.852.366 1.462.452 3.053 1.36 4.51 1.267 2.454 3.586 3.911 5.895 4.774.508.481.217 1.125.277 1.763zm-3.707-11.102c0-.528.031-.744.422-.92h2.175c1.943.072 4.423.699 6.232-1.168 1.033.044 1.124 1.27 1.4 2.234.246 1.325.191 2.174.191 3.368-.438.95-.919 2.395-1.897 3.008-1.562.728-3.14.583-4.641 0-2.264-1.341-3.911-3.489-3.882-6.522zm44.538-10.39c-2.906 10.084-4.292 15.275.247 25.653.044.393.481 1.693 0 1.854-5.02-1.01-6.348-1.446-11.062-1.782-4.348-.758-11.588.452-16.414.411-3.781.13-7.622.261-11.573.743-1.185-.613-.262-1.943-.177-2.817.438-1.356.483-2.059.613-3.65.613-.654 1.37-.306 2.115-.613 2.54-.39 4.699-2.64 5.311-5.016.804-2.495-.07-5.271-1.225-7.647-.216-.702-1.18-1.24-.788-1.943 3.123-5.85.92-11.79-.13-17.494-1.095-4.058-2.773-8.54-3.445-12.813.146-.438-.422-1.461.542-1.532l.35.07c3.341 4.057 12.915 12.623 16.502 15.41 3.579 2.788 12.843 8.19 18.869 9.631.571.482.482.878.265 1.535z"/>
    <path d="M233.25 108.215c.612.803 1.023 1.506.526 2.249-1.14.086-1.314-1.356-2.274-1.839-1.592-.787-3.008.042-4.584.438-3.997 1.723-7.34 5.15-11.222 6.944-.482 0-.919-.044-1.225-.391.657-.658 1.721-.79 2.554-1.33 3.999-2.626 7.88-6.755 12.885-7.513 1.326-.09 2.51.393 3.34 1.442zm-.305 6.788c-.307-.978-.262-2.555-1.442-2.776-.265.616 0 1.285-.265 1.857-.362.436-.979.96-1.678.785-4.844.31-8.45 4.568-12.577 6.772-1.416.789-2.993 1.24-4.494 1.633-.131.22-.09.527.13.657 4.58.483 9.104.919 13.643 1.4l5.05-.567c.146-.657-.657-1.226-.526-1.984.583-2.057.758-4.306.19-6.245.393-1.05 1.884-.265 1.969-1.532zm-3.53 7.804c-.627.922-1.607.12-2.465.236-1.984-.236-5.328.231-7.517-.046-.336-.19-.568-.523-.38-.83.336-.556 1.255-.586 1.825-1.008 2.392-1.487 4.902-2.917 7.633-3.56.497-.074.904.337.99.687.32 1.266.12 3.295-.086 4.52zm6.1 14.872c.145-.236.336-.497.552-.513.277.106.438.236.483.774-.045.848-.247 1.736-.483 2.687-.261 1.064-.538 2.173-.538 3.253 0 .467.056.949.188 1.416.627.788 1.62.978 2.79.567l2.013-1.15c1.722-1.024 3.34-1.998 6.378-2.772.055-.015.07.012.084.026.061.045.075.16.075.306 0 .251-.075.613-.205.894-.115.055-2.902 1.296-2.902 1.296-2.189.963-4.468 1.957-6.598 3.182-.627.116-1.21-.22-1.767-.556l-.145-.07c-.803-1.11-1.065-2.175-1.065-3.255 0-.964.205-1.927.422-2.917.191-.92.411-1.868.452-2.877.075-.071.266-.291.266-.291zm-68.559-.904c1.592 3.253-.084 6.331 0 9.715.263.965 2.16 1.096 1.592 2.25-.437.306-1.065.392-1.547.045-.873-.572-1.184-1.008-1.4-2.03-.236-2.975 2.145-6.466.045-9.283-.613-.61-1.506-1.224-2.38-1.269-1.898.352-2.861 2.38-3.519 3.87-1.005 3.952-1.282 8.14 2.204 11.308 2.029 1.18 4.483 2.466 4.628 5.021.293.437.904.859 1.4.613.614-.045.7-1.811 1.574-.964l.265.598c-.22.713-.436 1.942-1.576 1.983-.569.131-1.195-.175-1.663-.523-1.24-1.27-.28-3.212-2.35-4.042-3.429-1.065-5.678-4.67-6.028-8.058-.218-3.253-.072-6.814 2.73-9.672 1.109-.833 2.552-1.375 3.968-.922.788.135 1.707.687 2.057 1.36zm-43.004 23.785c-6.258 2.903-8.17 10.374-8.257 10.68l-.161.672.64.22c.25.072 6.058 1.984 13.165-1.505 7.15-3.5 8.62-10.593 8.681-10.9l.146-.744-.759-.116c-.292-.059-7.295-1.153-13.455 1.693zm.627 1.356c4.569-2.13 9.794-1.882 11.764-1.692-.556 1.807-2.465 6.522-7.663 9.078-5.207 2.55-9.69 1.938-11.322 1.59.613-1.81 2.627-6.843 7.22-8.976zm5.618-15.41c-6.272 2.832-8.592 10.217-8.682 10.539l-.216.699.699.22c.245.07 6.04 1.807 13.16-1.592 7.18-3.445 8.712-10.288 8.771-10.579l.161-.744-.758-.134c-.277-.057-6.96-1.196-13.135 1.59zm.613 1.345c4.555-2.058 9.53-1.797 11.442-1.592-.597 1.779-2.54 6.287-7.732 8.768-5.168 2.47-9.62 2.002-11.312 1.696.717-1.853 3.007-6.803 7.602-8.872zm7.546-14.887c-6.291 2.76-9.017 10.083-9.12 10.39l-.279.746.774.218c.25.074 6.029 1.62 13.15-1.709 7.22-3.353 8.797-9.951 8.872-10.242l.16-.744-.743-.145c-.266-.046-6.613-1.242-12.814 1.486zm.583 1.36c4.554-2.002 9.268-1.723 11.12-1.505a14.992 14.992 0 0 1-7.792 8.45c-5.12 2.395-9.529 2.057-11.296 1.778.848-1.868 3.402-6.71 7.968-8.723zm7.501-14.74c-6.29 2.7-9.414 9.935-9.53 10.242l-.351.803.848.206c.246.06 6.011 1.446 13.161-1.797 7.255-3.28 8.873-9.645 8.947-9.922l.191-.744-.758-.16c-.252-.06-6.262-1.286-12.508 1.372zm.583 1.37c4.523-1.924 9.004-1.633 10.785-1.416-.642 1.68-2.67 5.809-7.853 8.144-5.061 2.304-9.44 2.103-11.262 1.868.975-1.913 3.776-6.654 8.33-8.596zm10.624-14.753c-6.305 2.627-9.82 9.792-9.966 10.098l-.408.847.919.207c.231.04 5.98 1.25 13.162-1.898 7.265-3.214 8.961-9.34 9.032-9.605l.19-.727-.742-.191c-.236-.042-5.91-1.327-12.187 1.27zm.568 1.371c4.51-1.868 8.727-1.561 10.45-1.325-.67 1.647-2.728 5.558-7.91 7.848-5.05 2.219-9.368 2.134-11.236 1.943 1.124-1.943 4.157-6.582 8.696-8.466z"/>
    <path d="M170.009 93.288c-6.321 2.554-10.248 9.66-10.408 9.967l-.478.888.99.19c.25.046 5.985 1.08 13.164-2.013 7.311-3.123 9.06-9.003 9.134-9.25l.206-.746-.747-.176c-.217-.056-5.574-1.402-11.861 1.14zm.553 1.37c4.463-1.792 8.45-1.472 10.112-1.225-.698 1.592-2.816 5.327-7.983 7.531-4.99 2.144-9.264 2.16-11.192 2.028 1.255-1.973 4.538-6.492 9.063-8.333z"/>
    <path d="M183.199 81.09c-6.331 2.465-10.653 9.51-10.83 9.817l-.567.935 1.08.175c.25.03 5.97.904 13.165-2.1 7.336-3.052 9.134-8.697 9.204-8.931l.236-.729-.729-.206c-.206-.055-5.24-1.446-11.559 1.04zm.538 1.371c4.424-1.722 8.19-1.4 9.792-1.155-.743 1.548-2.888 5.093-8.054 7.24-4.916 2.055-9.163 2.19-11.147 2.1 1.415-2 4.916-6.421 9.409-8.185z"/>
    <path d="M196.917 69.823c-6.35 2.406-11.06 9.384-11.251 9.676l-.674 1.004 1.2.147c.232.03 5.936.717 13.16-2.204 7.357-2.974 9.225-8.376 9.295-8.607l.236-.704-.717-.231c-.188-.06-4.887-1.505-11.249.92zm.523 1.371c4.394-1.662 7.923-1.326 9.46-1.064-.774 1.502-2.978 4.875-8.1 6.945-4.89 1.972-9.078 2.204-11.107 2.173 1.562-2.028 5.268-6.347 9.747-8.054z"/>
    <path d="M210.851 59.725c-6.362 2.35-11.453 9.265-11.674 9.556l-.773 1.04 1.3.13c.232.03 5.924.538 13.16-2.305 7.4-2.906 9.31-8.058 9.384-8.274l.247-.703-.699-.232c-.175-.075-4.553-1.561-10.945.788zm.511 1.387c4.349-1.592 7.663-1.271 9.12-.994-.804 1.445-3.034 4.64-8.156 6.653-4.83 1.897-8.96 2.22-11.046 2.235 1.707-2.045 5.63-6.247 10.082-7.894zm-97.419 85.294c-.19.231-4.538 5.879-4.99 12.679-.453 6.932 5.207 12.214 5.457 12.436l.497.466.509-.466c.19-.16 4.669-4.378 5.005-12.318.367-7.997-5.192-12.713-5.428-12.913l-.583-.483-.467.599zm-3.534 13.451c0-.216.015-.436.03-.668.321-5.095 3.079-9.575 4.189-11.192 1.285 1.326 4.336 5.032 4.336 10.505 0 .205 0 .422-.014.642-.266 5.838-2.949 9.485-4.058 10.755-1.256-1.342-4.483-5.253-4.483-10.042z"/>
    <path d="M122.77 131.171c-.145.161-3.69 4.072-5.196 9.676a18.444 18.444 0 0 0-.467 2.42c-.813 6.714 4.03 12.216 4.248 12.448l.466.542.558-.468c.202-.16 4.77-4.13 5.704-11.85.933-7.792-4.042-12.607-4.262-12.797l-.538-.527-.513.556zm-4.272 13.613c0-.437.025-.875.084-1.326a14.89 14.89 0 0 1 .423-2.22c1.08-4.027 3.329-7.164 4.334-8.435 1.068 1.256 3.373 4.554 3.373 9.254 0 .538-.03 1.124-.104 1.707-.67 5.618-3.47 9.104-4.64 10.36-1.05-1.387-3.47-5.033-3.47-9.34z"/>
    <path d="M132.678 116.885c-.161.146-3.882 3.602-5.764 9.18a18.048 18.048 0 0 0-.599 2.346c-1.164 6.496 2.878 12.2 3.037 12.45l.454.624.611-.478c.19-.16 4.876-3.896 6.378-11.382 1.516-7.576-2.887-12.493-3.078-12.699l-.497-.538-.542.497zm-5.076 13.92c0-.699.059-1.431.189-2.144.131-.788.306-1.476.524-2.118 1.344-3.968 3.725-6.83 4.803-7.98.844 1.18 2.508 4.042 2.508 7.969 0 .89-.086 1.822-.293 2.812-1.078 5.387-3.966 8.7-5.22 9.941-.835-1.402-2.511-4.7-2.511-8.48z"/>
    <path d="M143.564 103.53c-.173.131-4.054 3.153-6.333 8.686a15.072 15.072 0 0 0-.697 2.245c-1.537 6.276 1.661 12.2 1.807 12.448l.392.728.688-.493c.205-.135 4.976-3.65 7.064-10.886 2.1-7.356-1.723-12.39-1.882-12.597l-.452-.583-.587.452zm-5.952 14.435c0-1.023.102-2.103.348-3.152.19-.788.41-1.462.642-2.043 1.607-3.882 4.103-6.478 5.257-7.532.628 1.08 1.748 3.46 1.748 6.656a14.22 14.22 0 0 1-.552 3.953c-1.491 5.151-4.465 8.304-5.81 9.515-.582-1.327-1.633-4.158-1.633-7.397z"/>
    <path d="M155.357 91.098c-.175.105-4.217 2.685-6.888 8.174a13.322 13.322 0 0 0-.848 2.174c-1.883 6.056.496 12.17.612 12.432l.337.833.758-.497c.205-.145 5.065-3.414 7.722-10.419 2.697-7.138-.542-12.26-.687-12.477l-.393-.613-.613.393zm-6.963 15.294c0-1.446.176-2.992.642-4.508.252-.79.483-1.417.758-1.959 1.868-3.836 4.499-6.171 5.695-7.104.451.933 1.15 2.787 1.15 5.281 0 1.517-.262 3.255-.975 5.153-1.853 4.919-4.935 7.908-6.362 9.122-.366-1.214-.908-3.418-.908-5.985z"/>
    <path d="M167.98 79.57c-.175.09-4.363 2.22-7.47 7.662a17.631 17.631 0 0 0-.95 2.088c-2.249 5.834-.673 12.142-.598 12.403l.247.963.849-.527c.2-.116 5.162-3.167 8.39-9.937 3.283-6.903.628-12.11.507-12.33l-.336-.644-.64.322zm-8.129 16.724c0-1.957.248-4.261 1.08-6.451.307-.758.568-1.356.874-1.882 2.144-3.752 4.876-5.836 6.145-6.655.277.774.658 2.12.658 3.972 0 1.748-.351 3.907-1.505 6.317-2.23 4.699-5.4 7.516-6.916 8.666a23.138 23.138 0 0 1-.336-3.967z"/>
    <path d="M181.376 68.934c-.19.072-4.508 1.763-8.042 7.15a18.107 18.107 0 0 0-1.08 1.999c-2.581 5.618-1.823 12.111-1.793 12.373l.131 1.08.963-.524c.217-.116 5.252-2.917 9.049-9.454 3.881-6.687 1.807-11.985 1.718-12.202l-.277-.688-.669.266zm-9.558 18.97c0-2.306.29-5.97 1.781-9.208.332-.718.654-1.3.975-1.798 2.424-3.69 5.267-5.513 6.582-6.23.145.601.292 1.475.292 2.641 0 1.942-.437 4.583-2.115 7.5-2.615 4.483-5.87 7.125-7.486 8.246a23.9 23.9 0 0 1-.03-1.15z"/>
    <path d="M195.487 59.184c-.19.044-4.641 1.315-8.611 6.642a14.029 14.029 0 0 0-1.196 1.88c-2.947 5.401-2.992 12.084-2.992 12.376l.015 1.18 1.05-.523c.235-.116 5.372-2.701 9.735-9.003 4.434-6.437 2.962-11.82 2.903-12.04l-.207-.714-.697.202zm-8.507 9.239c.347-.658.713-1.21 1.08-1.723 2.712-3.62 5.675-5.211 7.046-5.795.03.352.075.76.075 1.3 0 1.985-.483 5.167-2.919 8.698-2.962 4.263-6.305 6.742-8.028 7.838.161-2.175.717-6.628 2.746-10.318z"/>
    <path d="M210.18 50.296c-.189.03-4.742.878-9.18 6.101-4.39 5.212-5.429 13.792-5.47 14.155l-.145 1.284 1.18-.526c.22-.1 5.459-2.451 10.375-8.537 5.021-6.185 4.131-11.658 4.102-11.878l-.131-.729-.732.13zm-8.04 7.065c3.007-3.545 6.07-4.905 7.486-5.372.015.03.015.045.015.09 0 1.722-.451 5.573-3.851 9.775-3.299 4.072-6.76 6.378-8.552 7.427.482-2.64 1.824-8.285 4.902-11.92z"/>
    <path d="M69.436 123.815c0 35.856 19.392 70.336 50.62 90.024l1.3.802.933-1.213c.26-.337.365-.669.365-.964 0-.774-.656-1.37-1.023-1.718l-1.808-1.737c-6.45-7.311-8.173-14.245-8.173-19.572 0-5.895 2.118-9.833 2.293-10.128l.569-1.049-.79-.89c-13.205-14.721-20.164-33.229-20.164-53.555 0-44.713 36.364-81.075 81.076-81.075 12.432 0 24.353 2.726 35.444 8.128l1.155.568 16.283-18.593-1.793-1.005c-15.544-8.652-33.214-13.22-51.089-13.22-58.02 0-105.198 47.192-105.198 105.197zm3.325 0c0-56.166 45.706-101.858 101.873-101.858 16.605 0 33.024 4.118 47.6 11.835-2.144 2.44-10.565 12.07-11.88 13.542-11.206-5.252-23.213-7.938-35.72-7.938-46.55 0-84.435 37.87-84.435 84.42 0 20.765 7.035 39.72 20.33 54.926-.774 1.766-2.134 5.633-2.134 10.754 0 4.233.979 9.31 3.972 14.712-24.648-19.628-39.606-49.487-39.606-80.393z"/>
    <path d="M211.538 47.876c-11.558-5.633-23.961-8.48-36.905-8.48-46.55 0-84.435 37.87-84.435 84.42 0 21.144 7.27 40.45 21.029 55.788l1.446 1.603 6.421-9.686-.336-.397c-.583-.07-1.05-.16-1.4-.231.084-.266.216-.613.36-.994-.492-.597-1.003-1.21-1.486-1.823a14.26 14.26 0 0 1-1.341 1.823c-1.255-1.342-4.483-5.253-4.483-10.042 0-.145.016-.306.016-.452-5.997-10.564-9.048-22.485-9.048-35.59 0-40.39 32.862-73.253 73.257-73.253 9.906 0 19.467 1.938 28.47 5.75a18.012 18.012 0 0 1 2.802-2.41c-9.851-4.41-20.356-6.684-31.272-6.684-42.247 0-76.612 34.365-76.612 76.597 0 18.313 5.72 34.41 16.91 47.922-.637.979-1.56 2.365-2.594 3.94-12.257-14.445-18.78-32.294-18.78-51.862 0-44.713 36.364-81.075 81.076-81.075 11.879 0 23.273 2.524 33.943 7.456-.453.963-.878 1.913-1.33 2.862.993-.558 1.811-.894 2.38-1.069.015.03.015.045.015.09 0 1.254-.248 3.635-1.693 6.463l.377.19 4.684-10.157-1.47-.699zm-.758-16.565l-8.073 10.219c.747.245 1.475.506 2.204.787l8.013-10.127a53.194 53.194 0 0 0-2.144-.879zm-15.79-4.698l-4.714 11.662c.746.132 1.49.277 2.218.438l4.7-11.619c-.744-.172-1.476-.322-2.204-.481zm-18.794-2.1l-1.155 12.362c.743 0 1.49.01 2.22.025l1.164-12.328c-.742-.015-1.486-.045-2.23-.059zm-18.316 1.401l2.348 12.14c.733-.115 1.462-.235 2.204-.335l-2.349-12.157c-.743.105-1.471.22-2.204.352z"/>
    <path d="M140.123 30.67l5.558 11.15c.7-.25 1.403-.481 2.116-.717l-5.575-11.177c-.697.25-1.4.496-2.1.743zm-16.856 8.159l8.29 9.47a90.903 90.903 0 0 1 1.983-1.11l-8.333-9.515c-.653.38-1.297.773-1.94 1.155zM107.96 50.255l10.463 7.266c.582-.497 1.18-.978 1.782-1.476l-10.539-7.31c-.567.497-1.15 1.01-1.707 1.52zM94.928 64.598l12.026 4.683c.493-.613.99-1.21 1.486-1.793l-12.11-4.729-1.402 1.839zM84.876 81.306l12.94 1.809c.367-.713.747-1.4 1.14-2.084l-13.061-1.824c-.35.699-.702 1.402-1.02 2.1zM78.28 99.634l13.19-1.266c.25-.762.496-1.536.743-2.294l-13.322 1.27c-.22.758-.421 1.517-.612 2.29zm-2.863 19.19l12.768-4.434c.09-.818.19-1.636.293-2.453l-12.915 4.492c-.057.79-.1 1.593-.146 2.395zm.994 19.393l11.528-7.572a133.59 133.59 0 0 1-.16-2.552l-11.72 7.688c.116.818.22 1.62.352 2.436zm4.917 18.973l9.354-10.303c-.232-.862-.438-1.736-.643-2.6l-9.556 10.524c.276.803.552 1.591.845 2.379zm8.8 18.122l6.623-12.593c-.406-.817-.828-1.632-1.21-2.465l-6.743 12.829c.438.742.878 1.5 1.33 2.23zm11.278 15.103l3.548-14.576a79.118 79.118 0 0 1-1.72-2.35l-3.605 14.899c.581.686 1.18 1.355 1.777 2.027zM209.13 59.475c.306.19.612.397.903.602.28-.12.542-.25.819-.352.32-.116.642-.22.964-.32a17.66 17.66 0 0 1-1.943-1.505c-.202.51-.467 1.037-.744 1.575zm128.81 218.929h5.349v-.479h-1.721v-13.33h.911c1.06.011 1.82.352 2.28 1.025.444.688.71 1.561.79 2.614h.9l-.144-4.123h-11.021l-.228 4.123h.536c.105-.543.208-1.041.3-1.497a9.87 9.87 0 0 0 .194-.616 2.33 2.33 0 0 1 .2-.524c.183-.327.426-.574.73-.741.29-.174.668-.262 1.14-.262h1.405v13.331h-1.622v.479zm-16.525 0h5.44v-.479h-1.781v-6.56h.143c.901 0 1.563.137 1.991.406.237.175.415.433.536.775.13.327.21.771.236 1.33h.456v-5.266h-.478c-.038.532-.126.939-.251 1.228-.138.299-.323.52-.559.66-.235.145-.52.232-.851.262-.342.042-.753.069-1.223.084v-6.25h2.75c1.197 0 2.01.224 2.435.669.434.471.78 1.348 1.041 2.644h.726l-.178-3.796h-10.433v.483h1.653v13.331h-1.653v.479zm-17.05 0h4.035v-.479h-1.778l1.478-4.721h3.954l1.43 4.721h-1.737v.479h5.277v-.479h-1.448l-4.27-14h-.809l-4.494 14h-1.638v.479zm7.477-5.786h-3.563l1.823-5.813h.042l1.698 5.813zm-15.388-1.88h-5.981v-6.144h1.622v-.483h-5.216v.483h1.592v13.331h-1.592v.479h5.216v-.479h-1.622v-6.584h5.98v6.584h-1.622v.479h5.699v-.479h-2.075v-13.33h2.075v-.484h-5.699v.483h1.623v6.143zm-14.557-2.812v-3.636h-.308l-.71.627a6.723 6.723 0 0 0-1.406-.847 4.54 4.54 0 0 0-1.637-.281c-1.52.026-2.892.73-4.119 2.1-1.276 1.372-1.925 3.135-1.953 5.286 0 2.111.528 3.882 1.58 5.307 1.02 1.46 2.49 2.207 4.412 2.249h.049c1.155 0 2.226-.403 3.21-1.2l.578.873h.555v-3.882h-.505c-.263.976-.707 1.815-1.327 2.515-.634.725-1.463 1.094-2.488 1.11-1.572-.016-2.595-.616-3.066-1.802-.25-.574-.414-1.242-.497-2.013a21.282 21.282 0 0 1-.141-2.535c0-.076-.004-.163-.004-.247 0-.638.05-1.485.145-2.515.056-.558.147-1.113.273-1.656.11-.525.255-.98.437-1.372.216-.425.566-.817 1.052-1.174.472-.36 1.038-.55 1.698-.566 1.09.016 1.927.36 2.508 1.037.593.688.988 1.558 1.185 2.622h.479zm-23.434 10.543l.892-.93a4 4 0 0 0 1.471.91 5.34 5.34 0 0 0 1.706.282c2.93-.056 4.43-1.641 4.499-4.76 0-.723-.104-1.345-.305-1.859a3.023 3.023 0 0 0-.89-1.222c-.774-.632-1.682-1.072-2.72-1.33l-1.405-.45a6.31 6.31 0 0 1-1.284-.47 2.425 2.425 0 0 1-.889-.703c-.239-.27-.357-.623-.357-1.055 0-.41.099-.78.296-1.106.16-.331.38-.6.658-.817a3.173 3.173 0 0 1 1.994-.692c.94.016 1.703.315 2.298.901.578.6.989 1.352 1.224 2.268h.418v-3.325h-.296l-.78.62c-.235-.183-.615-.38-1.14-.597a4.59 4.59 0 0 0-1.576-.345c-.783.014-1.429.155-1.941.429-.54.285-.961.653-1.266 1.098-.558.76-.846 1.55-.846 2.371v.064c0 .616.129 1.208.394 1.778.263.6.688 1.098 1.281 1.497.278.145.939.395 1.983.753 1.053.383 1.82.668 2.306.854.78.3 1.296.635 1.547 1.007.223.357.334.832.334 1.417v.088c-.015.953-.368 1.706-1.056 2.248-.7.57-1.512.856-2.439.856-.996-.012-1.84-.354-2.538-1.015-.688-.642-1.181-1.459-1.47-2.443h-.395v3.678h.292zm-14.711-.065h10.668l.228-3.992h-.414c-.114.744-.4 1.5-.851 2.268-.228.341-.513.63-.852.858a1.947 1.947 0 0 1-1.192.387h-3.906v-13.33h2.105v-.484h-5.786v.483h1.68v13.331h-1.68v.479zm-14.4 0h10.665l.231-3.992h-.418c-.114.744-.395 1.5-.85 2.268a3.08 3.08 0 0 1-.852.858 1.94 1.94 0 0 1-1.188.387h-3.906v-13.33h2.104v-.484h-5.786v.483h1.676v13.331h-1.676v.479zm-15.305 0h11.144l.285-3.996h-.555c-.25 1.53-.695 2.51-1.333 2.944-.597.384-1.55.577-2.827.577-.08 0-.17-.004-.254-.004h-2.645V271.3c.114 0 .227-.007.338-.007.86 0 1.501.148 1.934.437.467.327.726 1.052.783 2.165h.455v-5.41h-.455c-.057.559-.145.989-.267 1.288-.14.315-.33.544-.566.684-.39.22-1.04.327-1.918.327-.095 0-.205-.004-.304-.004v-6.185h2.811c.9 0 1.642.179 2.223.532.304.205.562.505.772.905.185.402.326.93.414 1.572h.455v-3.492h-10.49v.483h1.813v13.331h-1.813v.479zm-12.986.065l.893-.93c.44.42.93.725 1.475.91a5.32 5.32 0 0 0 1.705.282c2.93-.056 4.427-1.641 4.495-4.76 0-.723-.103-1.345-.304-1.859a3.02 3.02 0 0 0-.89-1.222c-.775-.632-1.682-1.072-2.72-1.33-.479-.153-.945-.304-1.405-.45a6.4 6.4 0 0 1-1.284-.47 2.428 2.428 0 0 1-.89-.703c-.234-.27-.353-.623-.353-1.055 0-.41.095-.78.292-1.106.164-.331.381-.6.658-.817a3.172 3.172 0 0 1 1.995-.692c.939.016 1.706.315 2.298.901.582.6.988 1.352 1.224 2.268h.418v-3.325h-.297l-.775.62c-.24-.183-.62-.38-1.144-.597a4.574 4.574 0 0 0-1.576-.345c-.783.014-1.43.155-1.941.429-.54.285-.961.653-1.262 1.098-.562.76-.851 1.55-.851 2.371v.064c0 .616.133 1.208.395 1.778.262.6.691 1.098 1.285 1.497.273.145.934.395 1.979.753 1.052.383 1.82.668 2.306.854.783.3 1.295.635 1.546 1.007.224.357.335.832.335 1.417v.088c-.016.953-.365 1.706-1.057 2.248a3.735 3.735 0 0 1-2.435.856c-.996-.012-1.843-.354-2.538-1.015-.692-.642-1.18-1.459-1.474-2.443h-.394v3.678h.291zm-15.82-.065h11.147l.28-3.996h-.55c-.25 1.53-.695 2.51-1.333 2.944-.6.384-1.55.577-2.826.577-.08 0-.172-.004-.255-.004h-2.645V271.3c.114 0 .225-.007.335-.007.858 0 1.504.148 1.937.437.468.327.726 1.052.78 2.165h.459v-5.41h-.46c-.053.559-.141.989-.262 1.288-.14.315-.331.544-.567.684-.39.22-1.04.327-1.917.327-.096 0-.206-.004-.305-.004v-6.185h2.812c.9 0 1.64.179 2.222.532.304.205.562.505.772.905.185.402.326.93.414 1.572h.455v-3.492H185.24v.483h1.813v13.331h-1.813v.479zm-5.892-14.133l-.73.794c-.896-.836-2.07-1.262-3.521-1.276-1.517.026-2.892.721-4.12 2.078-1.275 1.375-1.925 3.142-1.952 5.308 0 2.111.528 3.882 1.58 5.307 1.019 1.46 2.49 2.207 4.412 2.249 1.063-.016 1.938-.163 2.61-.452.675-.286 1.208-.658 1.6-1.117.2-.243.375-.498.516-.764a4.88 4.88 0 0 0 .334-.813c.174-.573.27-1.151.282-1.736h1.69v-.498h-6.045v.498h2.017a17.479 17.479 0 0 1 0 1.675 4.728 4.728 0 0 1-.357 1.417 1.86 1.86 0 0 1-.889.943c-.398.243-.96.365-1.682.365-1.574-.012-2.595-.639-3.07-1.874-.422-1.094-.643-2.526-.643-4.27 0-.099.004-.209.004-.312 0-.076-.004-.163-.004-.247 0-.638.05-1.497.145-2.537.057-.558.148-1.11.274-1.653.11-.524.254-.98.436-1.371.217-.426.566-.817 1.053-1.17.474-.35 1.041-.532 1.702-.548 1.174.016 2.116.353 2.815 1.019.726.657 1.189 1.534 1.398 2.64h.478v-3.655h-.333zm-20.294 10.216h5.075v-1.42h-5.075v1.42zm-11.284 3.917v-.479h-1.71v-13.33h1.71v-.484h-5.285v.483h1.57v13.331h-1.57v.479h5.285zm2.541-13.81h1.866l-5.722 5.976c-.117.115-.178.213-.178.3a.2.2 0 0 0 .01.065l5.499 6.99h-1.668v.479h5.694v-.479h-1.405l-6.444-8.012 4.894-5.319h1.573v-.483h-4.119v.483zm-12.994 3.332v-3.636h-.311l-.706.627a6.744 6.744 0 0 0-1.407-.847 4.545 4.545 0 0 0-1.64-.281c-1.517.026-2.888.73-4.115 2.1-1.276 1.372-1.926 3.135-1.954 5.286 0 2.111.526 3.882 1.578 5.307 1.021 1.46 2.492 2.207 4.415 2.249h.048c1.156 0 2.227-.403 3.211-1.2l.574.873h.558v-3.882h-.505c-.266.976-.707 1.815-1.326 2.515-.635.725-1.466 1.094-2.488 1.11-1.573-.016-2.595-.616-3.066-1.802-.25-.574-.418-1.242-.498-2.013a20.413 20.413 0 0 1-.14-2.535c0-.076-.005-.163-.005-.247 0-.638.05-1.485.145-2.515.053-.558.144-1.113.273-1.656.107-.525.255-.98.437-1.372.213-.425.566-.817 1.049-1.174.475-.36 1.041-.55 1.702-.566 1.09.016 1.926.36 2.508 1.037.592.688.987 1.558 1.18 2.622h.483zm-25.604-3.332v13.331h-1.592v.479h3.814v-.479h-1.596v-12.894h.038l7.773 13.7h.536v-14.137h2.01v-.483h-4.252v.483h1.616v9.863h-.038l-5.874-10.346h-4.027v.483h1.592zm-18.457 13.81h4.038v-.479h-1.781l1.478-4.721h3.955l1.429 4.721h-1.733v.479h5.274v-.479h-1.449l-4.27-14h-.809l-4.494 14h-1.638v.479zm7.477-5.786h-3.56l1.82-5.813h.042l1.698 5.813zm-21.591 5.786h10.664l.231-3.992h-.417c-.11.744-.395 1.5-.851 2.268-.224.341-.51.63-.851.858a1.942 1.942 0 0 1-1.19.387h-3.905v-13.33h2.105v-.484h-5.786v.483h1.675v13.331h-1.675v.479zm-10.867-6.926v-6.884h.577c.711 0 1.327.019 1.855.06.52.058.95.195 1.288.41.33.217.578.544.74.985.168.449.25 1.04.25 1.782 0 .064.005.13.005.194 0 1.08-.25 1.918-.733 2.51-.288.301-.691.532-1.205.692a1.675 1.675 0 0 1-.418.084 5.355 5.355 0 0 1-.475.107 9.87 9.87 0 0 1-1.177.06h-.707zm-3.62-7.367v.483h1.614v13.331H64.5v.479h5.619v-.479h-1.843v-5.968h.992c1.094 0 2.02-.133 2.785-.407.756-.243 1.364-.562 1.824-.957.47-.418.81-.859 1.01-1.326a3.39 3.39 0 0 0 .292-1.345c0-.486-.075-.96-.232-1.42a2.938 2.938 0 0 0-.827-1.209c-.753-.76-2.075-1.151-3.967-1.182h-5.497zm-9.702 10.376h5.075v-1.42h-5.075v1.42zm-12.739 3.917v-.479h-1.858l3.367-5.767 3.358 5.767h-1.714v.479h5.43v-.479H49.38l-4.472-7.67 3.404-5.66h1.714v-.484H45.92v.483h1.698l-2.933 5.034-2.921-5.034h1.527v-.483h-5.342v.483h1.448l3.932 7.051-3.64 6.28h-1.74v.479h4.267zm-20.759 0h4.035v-.479h-1.779l1.475-4.721h3.959l1.428 4.721h-1.736v.479h5.277v-.479h-1.448l-4.27-14h-.808l-4.495 14h-1.638v.479zm7.477-5.786h-3.564l1.824-5.813h.041l1.699 5.813zm-25.92-8.024h1.531v13.331H3.013v.479h3.715v-.479H5.171v-13.061h.038l3.875 13.54h.535l4.028-13.54h.041v13.061h-1.6v.479h5.654v-.479H15.69v-13.33h2.052v-.484h-4.247l-3.154 10.52h-.04l-3.006-10.52H3.013v.483zm-.049-8.07h343.534v.83H2.964v-.83z"/>
  </g>
</svg>
