<svg width="88" height="35" viewBox="0 0 88 35" xmlns="http://www.w3.org/2000/svg"><title>elife-logo-cropped-xs</title><g fill="none" fill-rule="evenodd"><path fill="#FFF" d="M-2 0h93v35H-2z"/><g transform="translate(.72 2.72)"><circle stroke="#BEC3C5" stroke-width="1.36" fill="#FFF" cx="14.62" cy="14.62" r="13.94"/><path d="M12.549 12.549a1.918 1.918 0 0 0 2.704 0l7-6.999c-1-.852-2.142-1.54-3.386-2.024l-6.318 6.318a1.918 1.918 0 0 0 0 2.705" fill="#7CB13F"/><path d="M16.606 16.606c.744.744.744 1.96 0 2.705l-5.41 5.41a1.919 1.919 0 0 1-2.704 0 1.918 1.918 0 0 1 0-2.706l5.41-5.409a1.918 1.918 0 0 1 2.704 0" fill="#D71D62"/><path d="M11.196 13.901a1.918 1.918 0 0 1 0 2.705 1.918 1.918 0 0 1-2.704 0 1.918 1.918 0 0 1 0-2.705 1.918 1.918 0 0 1 2.704 0M17.958 7.14c.744.744.744 1.96 0 2.704a1.918 1.918 0 0 1-2.704 0 1.918 1.918 0 0 1 0-2.704 1.918 1.918 0 0 1 2.704 0" fill="#336A2D"/><path d="M12.549 20.663a1.918 1.918 0 0 1 0 2.705 1.918 1.918 0 0 1-2.705 0 1.918 1.918 0 0 1 0-2.705 1.918 1.918 0 0 1 2.705 0M24.72 8.492c.744.744.744 1.96 0 2.705a1.918 1.918 0 0 1-2.705 0 1.918 1.918 0 0 1 0-2.705 1.918 1.918 0 0 1 2.705 0" fill="#861450"/><path d="M20.663 12.549a1.918 1.918 0 0 1 0 2.705 1.918 1.918 0 0 1-2.705 0 1.918 1.918 0 0 1 0-2.705 1.918 1.918 0 0 1 2.705 0" fill="#D71D62"/><path d="M22.015 19.31c.744.745.744 1.962 0 2.705a1.918 1.918 0 0 1-2.704 0 1.918 1.918 0 0 1 0-2.704 1.918 1.918 0 0 1 2.704 0" fill="#2994D2"/><path d="M11.196 5.787c.744.744.744 1.961 0 2.705a1.918 1.918 0 0 1-2.704 0 1.918 1.918 0 0 1 0-2.705 1.918 1.918 0 0 1 2.704 0" fill="#08589B"/><path d="M7.14 17.958a1.918 1.918 0 0 0-2.705 0l-.909.909a11.857 11.857 0 0 0 2.024 3.386l1.59-1.59a1.918 1.918 0 0 0 0-2.705" fill="#861450"/><path d="M12.549 4.435a1.918 1.918 0 0 0 2.704 0l1.353-1.353c.05-.05.088-.107.132-.161-.701-.13-1.423-.201-2.16-.201-.886 0-1.749.1-2.58.286-.02.515.16 1.038.55 1.429" fill="#D71D62"/><path d="M7.14 12.549a1.918 1.918 0 0 0 0-2.705 1.918 1.918 0 0 0-2.705 0L3.269 11.01a11.822 11.822 0 0 0-.404 5.416c.328-.08.639-.241.894-.496l3.38-3.381z" fill="#2994D2"/><path d="M23.368 15.254a1.918 1.918 0 0 0 0 2.704c.69.69 1.784.732 2.533.14a11.812 11.812 0 0 0 .333-5.68c-.054.043-.111.08-.162.131l-2.704 2.705z" fill="#08589B"/><path d="M17.958 23.368a1.918 1.918 0 0 0-2.704 0l-2.705 2.704c-.05.05-.089.108-.132.162a11.82 11.82 0 0 0 5.68-.333 1.913 1.913 0 0 0-.139-2.533" fill="#7CB13F"/></g><g fill="#666B6E"><path d="M39.707 14.834c-.773 0-1.379.245-1.817.735-.438.49-.689 1.185-.753 2.086h5.116c-.016-.9-.25-1.596-.705-2.086-.454-.49-1.068-.735-1.84-.735m.513 11.26c-2.151 0-3.833-.594-5.044-1.781-1.211-1.188-1.817-2.87-1.817-5.045 0-2.239.56-3.97 1.68-5.193 1.119-1.223 2.667-1.835 4.643-1.835 1.889 0 3.36.538 4.41 1.614 1.053 1.075 1.579 2.562 1.579 4.458v1.77h-8.619c.04 1.035.347 1.844.92 2.426.575.581 1.38.872 2.415.872.805 0 1.566-.083 2.284-.25a11.424 11.424 0 0 0 2.247-.802v2.821a8.567 8.567 0 0 1-2.044.712c-.725.155-1.61.233-2.654.233M47.64 25.84v-17h3.4v14.28h6.8v2.72zM59.88 25.84h3.4V12.92h-3.4v12.92zm0-15.985c0-1.13.567-1.695 1.7-1.695s1.7.565 1.7 1.695c0 .538-.142.957-.425 1.256-.283.3-.708.449-1.275.449-1.133 0-1.7-.569-1.7-1.705zM74.16 15.64h-3.4v10.2h-3.4v-10.2h-2.04V13.6l2.04-.68v-.68c0-1.522.413-3.007 1.162-3.708.75-.701 1.948-1.052 3.598-1.052 1.259 0 2.379.187 3.359.562l-.987 2.504c-.733-.23-1.75-.346-2.372-.346-.518 0-.893.153-1.124.46-.23.307-.236 1.102-.236 1.58v.68h3.4v2.72zM81.867 14.834c-.773 0-1.379.245-1.817.735-.438.49-.689 1.185-.753 2.086h5.116c-.016-.9-.25-1.596-.705-2.086-.454-.49-1.068-.735-1.84-.735m.513 11.26c-2.151 0-3.833-.594-5.044-1.781-1.211-1.188-1.817-2.87-1.817-5.045 0-2.239.56-3.97 1.68-5.193 1.119-1.223 2.667-1.835 4.643-1.835 1.889 0 3.36.538 4.41 1.614 1.053 1.075 1.579 2.562 1.579 4.458v1.77h-8.619c.04 1.035.347 1.844.92 2.426.575.581 1.38.872 2.415.872.805 0 1.566-.083 2.284-.25a11.424 11.424 0 0 0 2.247-.802v2.821a8.567 8.567 0 0 1-2.044.712c-.725.155-1.61.233-2.654.233"/></g></g></svg>