<svg width="138" height="174" viewBox="0 0 138 174" xmlns="http://www.w3.org/2000/svg"><title>Group</title><g fill="none" fill-rule="evenodd"><rect stroke="#212121" stroke-width="4" x="10" y="10" width="118" height="154" rx="3"/><rect stroke="#212121" stroke-width="4" x="2" y="2" width="134" height="170" rx="3"/><path d="M42.3 39.648c0-.445-.062-.87-.188-1.276a2.92 2.92 0 0 0-.595-1.073 2.902 2.902 0 0 0-1.03-.74c-.415-.183-.903-.275-1.464-.275-1.044 0-1.928.314-2.653.943-.725.628-1.126 1.435-1.204 2.421H42.3zm3.48 1.566v.464c0 .155-.01.31-.029.464H35.166a3.447 3.447 0 0 0 1.276 2.45c.368.3.783.537 1.247.711.464.174.948.261 1.45.261.87 0 1.605-.16 2.204-.478a4.128 4.128 0 0 0 1.48-1.32l2.32 1.856c-1.373 1.856-3.365 2.784-5.975 2.784-1.082 0-2.078-.17-2.987-.508a7.049 7.049 0 0 1-2.363-1.435 6.47 6.47 0 0 1-1.566-2.276c-.377-.9-.566-1.92-.566-3.06 0-1.121.189-2.141.566-3.06a6.965 6.965 0 0 1 1.551-2.349 6.94 6.94 0 0 1 2.335-1.508 7.812 7.812 0 0 1 2.914-.536c.967 0 1.861.16 2.683.479a5.817 5.817 0 0 1 2.131 1.42c.6.629 1.069 1.412 1.407 2.35.338.937.507 2.034.507 3.291zM50 27h3.541v17.678H62V48H50V27zm16 0h4v21h-4V27zm9 0h13v3.263h-9.416v5.754h8.876v3.144h-8.876V48H75V27zm17 0h13.483v3.263h-9.86v5.339h9.342v3.144h-9.343v5.932H106V48H92V27z" fill="#212121"/><path d="M25.5 76h40M25.5 86h40M25.5 96h20" stroke="#B92B5B" stroke-width="4" stroke-linecap="round"/><path d="M23.5 136h20M59 136h20M95 136h20M23.5 143h20M59 143h20M95 143h20M23.5 150h20M59 150h20M95 150h20" stroke="#212121" stroke-width="4" stroke-linecap="round"/></g></svg>