<svg width="17" height="18" viewBox="0 0 17 18" xmlns="http://www.w3.org/2000/svg"><title>cc-hover</title><path d="M8.485.48c2.34 0 4.334.818 5.978 2.452a8.049 8.049 0 0 1 1.793 2.697 8.522 8.522 0 0 1 .613 3.221 8.54 8.54 0 0 1-.605 3.22 7.683 7.683 0 0 1-1.786 2.653 8.6 8.6 0 0 1-2.78 1.853 8.332 8.332 0 0 1-3.213.643 8.134 8.134 0 0 1-3.176-.635 8.418 8.418 0 0 1-2.72-1.838A8.208 8.208 0 0 1 .131 8.85c0-1.106.211-2.17.635-3.19A8.404 8.404 0 0 1 2.61 2.916C4.206 1.293 6.163.48 8.485.48zm.03 1.51c-1.913 0-3.522.668-4.828 2.003a7.195 7.195 0 0 0-1.516 2.25A6.592 6.592 0 0 0 1.64 8.85c0 .897.176 1.761.53 2.593.354.832.86 1.575 1.517 2.227.658.653 1.4 1.15 2.227 1.495a6.709 6.709 0 0 0 2.6.515c.897 0 1.766-.174 2.61-.522.841-.35 1.6-.852 2.278-1.51 1.305-1.275 1.957-2.874 1.957-4.797 0-.927-.17-1.804-.508-2.63a6.692 6.692 0 0 0-1.479-2.213C12.027 2.663 10.408 1.99 8.515 1.99zM8.41 7.46l-1.121.583c-.12-.248-.267-.423-.44-.523a.993.993 0 0 0-.487-.149c-.747 0-1.12.493-1.12 1.48 0 .448.094.806.283 1.075.19.27.468.404.837.404.488 0 .832-.24 1.032-.717l1.03.523a2.459 2.459 0 0 1-2.196 1.315c-.747 0-1.35-.229-1.809-.688-.458-.458-.687-1.095-.687-1.912 0-.797.232-1.43.695-1.898.463-.468 1.048-.703 1.756-.703 1.037 0 1.778.403 2.227 1.21zm4.827 0l-1.106.583c-.12-.248-.267-.423-.44-.523-.175-.099-.343-.149-.501-.149-.748 0-1.122.493-1.122 1.48 0 .448.095.806.284 1.075.19.27.468.404.838.404.487 0 .831-.24 1.03-.717l1.047.523a2.57 2.57 0 0 1-.927.964 2.415 2.415 0 0 1-1.27.351c-.757 0-1.362-.229-1.815-.688-.454-.458-.68-1.095-.68-1.912 0-.797.23-1.43.694-1.898.463-.468 1.049-.703 1.756-.703 1.036 0 1.774.403 2.212 1.21z" fill-rule="nonzero" fill="#888"/></svg>