<svg width="18" height="24" viewBox="0 0 18 24" xmlns="http://www.w3.org/2000/svg"><title>icons/cc-slim</title><path d="M8.984 2c2.517 0 4.66.879 6.428 2.636a8.655 8.655 0 0 1 1.929 2.9A9.164 9.164 0 0 1 18 11a9.185 9.185 0 0 1-.65 3.463 8.262 8.262 0 0 1-1.921 2.853 9.25 9.25 0 0 1-2.99 1.993A8.96 8.96 0 0 1 8.984 20a8.747 8.747 0 0 1-3.415-.683 9.053 9.053 0 0 1-2.925-1.977A8.826 8.826 0 0 1 0 11C0 9.81.228 8.667.683 7.57a9.037 9.037 0 0 1 1.985-2.95C4.382 2.875 6.488 2 8.984 2zm.032 1.623c-2.057 0-3.787.718-5.191 2.154a7.738 7.738 0 0 0-1.631 2.419c-.381.894-.571 1.83-.571 2.804 0 .965.19 1.894.57 2.788.381.896.924 1.694 1.632 2.396A7.417 7.417 0 0 0 6.22 17.79c.889.37 1.821.554 2.796.554.964 0 1.899-.187 2.805-.562a7.773 7.773 0 0 0 2.45-1.623c1.404-1.371 2.106-3.091 2.106-5.16a7.39 7.39 0 0 0-.547-2.828 7.196 7.196 0 0 0-1.59-2.379c-1.447-1.446-3.188-2.17-5.224-2.17zm-.113 5.883l-1.205.627c-.13-.268-.287-.456-.474-.563a1.068 1.068 0 0 0-.523-.16c-.803 0-1.205.53-1.205 1.59 0 .483.102.868.305 1.158.204.289.504.434.9.434.525 0 .895-.258 1.11-.772l1.108.563a2.644 2.644 0 0 1-2.362 1.414c-.804 0-1.453-.246-1.945-.74-.493-.492-.74-1.178-.74-2.056 0-.857.25-1.537.748-2.041s1.127-.756 1.889-.756c1.114 0 1.912.434 2.394 1.302zm5.192 0l-1.19.627c-.128-.268-.287-.456-.474-.563a1.093 1.093 0 0 0-.538-.16c-.804 0-1.206.53-1.206 1.59 0 .483.102.868.305 1.158.204.289.503.434.9.434.525 0 .895-.258 1.109-.772l1.125.563c-.246.44-.579.785-.996 1.036a2.597 2.597 0 0 1-1.366.378c-.814 0-1.465-.246-1.952-.74-.488-.492-.732-1.178-.732-2.056 0-.857.249-1.537.748-2.041.497-.504 1.127-.756 1.888-.756 1.114 0 1.907.434 2.379 1.302z" fill="#959595" fill-rule="nonzero"/></svg>