<svg width="24" height="24" viewBox="0 0 24 24" xmlns="http://www.w3.org/2000/svg" xmlns:xlink="http://www.w3.org/1999/xlink"><title>icons/facebook/default</title><defs><path id="a" d="M.001 0h19.793v19.583H0z"/></defs><g fill="none" fill-rule="evenodd"><path d="M0 0h24v24H0z"/><g transform="translate(2 2)"><mask id="b" fill="#fff"><use xlink:href="#a"/></mask><path d="M19.794 9.852C19.794 4.41 15.363 0 9.897 0S0 4.41 0 9.852c0 4.917 3.62 8.992 8.35 9.731V12.7H5.839V9.852H8.35v-2.17c0-2.47 1.477-3.834 3.738-3.834 1.083 0 2.215.193 2.215.193v2.424h-1.248c-1.23 0-1.613.76-1.613 1.539v1.848h2.745l-.439 2.847h-2.306v6.884c4.732-.739 8.35-4.814 8.35-9.731" fill="#0A0B09" mask="url(#b)"/></g><path d="M15.673 14.78l.438-2.851h-2.74v-1.85c0-.78.382-1.541 1.61-1.541h1.246V6.11s-1.131-.192-2.212-.192c-2.257 0-3.733 1.365-3.733 3.838v2.173H7.773v2.852h2.51v6.893a9.973 9.973 0 0 0 3.087 0v-6.893h2.303" fill="#FFFFFE"/></g></svg>