<svg width="24" height="24" viewBox="0 0 24 24" xmlns="http://www.w3.org/2000/svg"><title>linkedin</title><g fill="none" fill-rule="evenodd"><path d="M0 0h24v24H0z"/><path d="M18.975 18.975h-2.952v-4.623c0-1.102-.02-2.521-1.535-2.521-1.538 0-1.773 1.2-1.773 2.441v4.703H9.763V9.468h2.834v1.3h.04a3.106 3.106 0 0 1 2.796-1.536c2.992 0 3.543 1.968 3.543 4.528v5.215zM6.433 8.17a1.713 1.713 0 1 1-.001-3.426 1.713 1.713 0 0 1 0 3.426m1.476 10.806H4.953V9.468h2.955v9.507zM20.447 2.001H3.47A1.454 1.454 0 0 0 2 3.437v17.048c.01.802.667 1.446 1.47 1.437h16.977a1.458 1.458 0 0 0 1.476-1.437V3.436A1.457 1.457 0 0 0 20.447 2" fill="#212121" fill-rule="nonzero"/></g></svg>