<svg width="16" height="24" viewBox="0 0 16 24" xmlns="http://www.w3.org/2000/svg"><title>icons/oa-slim</title><path d="M8.012 0c2.782 0 5.042 2.212 5.087 4.959l.001 4.82c.57.91.9 1.983.9 3.133 0 3.283-2.686 5.945-6 5.945s-6-2.662-6-5.945c0-3.284 2.686-5.945 6-5.945 1.119 0 2.166.303 3.063.831l-.001-2.756c0-1.67-1.366-3.023-3.05-3.023-1.668 0-3.024 1.327-3.05 2.973l-.001.739H2.923v-.689C2.923 2.257 5.201 0 8.012 0zM8 8.986c-2.188 0-3.962 1.758-3.962 3.926S5.812 16.838 8 16.838s3.962-1.758 3.962-3.926S10.188 8.986 8 8.986zm0 2.157a1.714 1.714 0 1 1 0 3.428 1.714 1.714 0 0 1 0-3.428z" fill="#959595" fill-rule="nonzero"/></svg>