<svg width="15" height="22" viewBox="0 0 15 22" xmlns="http://www.w3.org/2000/svg"><title>oa</title><g fill-rule="nonzero" fill="#BDBDBD"><path d="M1.805 5.747v.783h2.297v-.783A3.442 3.442 0 0 1 7.54 2.309a3.442 3.442 0 0 1 3.438 3.438v5.665h2.297V5.747A5.741 5.741 0 0 0 7.54.012a5.741 5.741 0 0 0-5.735 5.735m7.639 8.971a1.895 1.895 0 1 1-3.79 0 1.895 1.895 0 0 1 3.79 0"/><path d="M3.061 14.698a4.47 4.47 0 0 1 4.466-4.466 4.47 4.47 0 0 1 4.466 4.466 4.47 4.47 0 0 1-4.466 4.466 4.471 4.471 0 0 1-4.466-4.466zm-2.296 0a6.77 6.77 0 0 0 6.762 6.762 6.77 6.77 0 0 0 6.762-6.762 6.77 6.77 0 0 0-6.762-6.762 6.77 6.77 0 0 0-6.762 6.762z"/></g></svg>