<svg width="30" height="24" viewBox="0 0 30 24" xmlns="http://www.w3.org/2000/svg"><title>quote</title><path d="M13.243 18.29c0 1.374-.553 2.577-1.66 3.608-1.106 1.032-2.411 1.547-3.915 1.547-2.363 0-4.179-.784-5.446-2.352C.954 19.524.32 17.355.32 14.583c0-2.578 1.09-5.178 3.271-7.799 2.181-2.62 4.807-4.608 7.88-5.962l1.418 2.288c-2.428 1.182-4.33 2.557-5.704 4.125-1.375 1.569-2.17 3.47-2.385 5.704h1.804c1.333 0 2.417.15 3.255.452.838.3 1.515.72 2.03 1.256a4.465 4.465 0 0 1 1.048 1.708c.204.624.306 1.268.306 1.934zm15.888 0c0 1.374-.553 2.577-1.66 3.608-1.106 1.032-2.411 1.547-3.915 1.547-2.364 0-4.179-.784-5.447-2.352-1.267-1.569-1.901-3.738-1.901-6.51 0-2.578 1.09-5.178 3.271-7.799 2.18-2.62 4.807-4.608 7.88-5.962l1.417 2.288c-2.427 1.182-4.329 2.557-5.704 4.125-1.375 1.569-2.17 3.47-2.384 5.704h1.804c1.332 0 2.417.15 3.255.452.838.3 1.515.72 2.03 1.256a4.465 4.465 0 0 1 1.048 1.708c.204.624.306 1.268.306 1.934z" fill="#087acc" fill-rule="evenodd"/></svg>