<svg width="29" height="24" viewBox="0 0 29 24" xmlns="http://www.w3.org/2000/svg"><title>quote-close</title><path d="M.48 21.028c2.428-1.181 4.33-2.556 5.705-4.125 1.375-1.568 2.17-3.47 2.384-5.704H6.765c-1.332 0-2.417-.15-3.255-.451-.838-.3-1.515-.72-2.03-1.257A4.465 4.465 0 0 1 .431 7.783 6.172 6.172 0 0 1 .126 5.85c0-1.375.553-2.579 1.66-3.61C2.892 1.21 4.197.693 5.7.693c2.363 0 4.179.785 5.446 2.353 1.268 1.568 1.902 3.738 1.902 6.51 0 2.578-1.09 5.177-3.271 7.798-2.18 2.622-4.807 4.609-7.88 5.962L.48 21.028zm15.888 0c2.428-1.181 4.33-2.556 5.704-4.125 1.375-1.568 2.17-3.47 2.385-5.704h-1.805c-1.332 0-2.417-.15-3.255-.451-.837-.3-1.514-.72-2.03-1.257a4.465 4.465 0 0 1-1.047-1.708 6.172 6.172 0 0 1-.306-1.933c0-1.375.553-2.579 1.66-3.61C18.78 1.21 20.084.693 21.588.693c2.363 0 4.179.785 5.446 2.353 1.268 1.568 1.902 3.738 1.902 6.51 0 2.578-1.09 5.177-3.271 7.798-2.181 2.622-4.808 4.609-7.88 5.962l-1.418-2.288z" fill="#087acc" fill-rule="evenodd"/></svg>