<svg width="24" height="24" viewBox="0 0 24 24" xmlns="http://www.w3.org/2000/svg"><title>Group 4</title><g fill="none" fill-rule="evenodd"><g transform="translate(1.051 1.051)" fill-rule="nonzero"><circle fill="#212121" cx="10.936" cy="10.936" r="10.936"/><path d="M18.227 10.936a1.6 1.6 0 0 0-1.6-1.599c-.434 0-.818.166-1.1.448-1.086-.78-2.596-1.292-4.258-1.356l.729-3.415 2.366.499a1.14 1.14 0 0 0 2.277-.051 1.14 1.14 0 0 0-1.139-1.139c-.447 0-.831.256-1.01.64L11.844 4.4a.319.319 0 0 0-.217.038.311.311 0 0 0-.128.18l-.806 3.811c-1.701.051-3.223.55-4.323 1.356a1.614 1.614 0 0 0-1.1-.448 1.6 1.6 0 0 0-.653 3.057c-.025.154-.038.32-.038.486 0 2.456 2.852 4.439 6.383 4.439 3.53 0 6.382-1.983 6.382-4.439 0-.166-.013-.32-.038-.473.524-.256.92-.819.92-1.471zM7.29 12.074a1.14 1.14 0 0 1 1.138-1.138 1.14 1.14 0 0 1 1.138 1.138 1.14 1.14 0 0 1-1.138 1.139 1.14 1.14 0 0 1-1.138-1.139zm6.357 3.006c-.78.78-2.264.832-2.7.832-.434 0-1.93-.064-2.698-.832a.301.301 0 0 1 0-.422.301.301 0 0 1 .422 0c.486.486 1.535.665 2.29.665.754 0 1.79-.179 2.29-.665a.301.301 0 0 1 .421 0 .33.33 0 0 1-.025.422zm-.205-1.867a1.14 1.14 0 0 1-1.138-1.139 1.14 1.14 0 0 1 1.138-1.138 1.14 1.14 0 0 1 1.138 1.138 1.14 1.14 0 0 1-1.138 1.139z" fill="#FFF"/></g><path d="M0 0h24v24H0z"/></g></svg>