<svg width="24" height="24" viewBox="0 0 24 24" xmlns="http://www.w3.org/2000/svg"><title>icons/tweet/blue</title><g fill="none" fill-rule="evenodd"><path d="M0 0h24v24H0z"/><path d="M21 6.732a7.373 7.373 0 0 1-2.121.581 3.699 3.699 0 0 0 1.624-2.043 7.398 7.398 0 0 1-2.345.896A3.687 3.687 0 0 0 15.461 5c-2.384 0-4.136 2.225-3.598 4.534a10.484 10.484 0 0 1-7.61-3.858 3.698 3.698 0 0 0 1.141 4.93 3.677 3.677 0 0 1-1.671-.462c-.04 1.711 1.185 3.312 2.961 3.668a3.701 3.701 0 0 1-1.668.063 3.696 3.696 0 0 0 3.45 2.564A7.425 7.425 0 0 1 3 17.969a10.454 10.454 0 0 0 5.661 1.659c6.856 0 10.73-5.79 10.496-10.985A7.519 7.519 0 0 0 21 6.732z" fill="#1DA1F2" fill-rule="nonzero"/></g></svg>