<?xml version="1.0" encoding="utf-8"?>
<!-- Generator: Adobe Illustrator 21.0.0, SVG Export Plug-In . SVG Version: 6.00 Build 0)  -->
<svg version="1.1" id="Layer_1" xmlns="http://www.w3.org/2000/svg" xmlns:xlink="http://www.w3.org/1999/xlink" x="0px" y="0px"
	 viewBox="0 0 500 500" style="enable-background:new 0 0 500 500;" xml:space="preserve">
<style type="text/css">
	.st0{fill:#FFFFFF;}
	.st1{fill:#199BD8;}
	.st2{fill:#1558A2;}
	.st3{fill:#D20D51;}
	.st4{fill:#629B31;}
</style>
<rect class="st0" width="500" height="500"/>
<g>
	<path class="st1" d="M354.5,330.1c-6.8,7.1-13.5,14.3-19.9,21.7c-25.6,28.7-47.3,60.3-65.4,94c6.3,17.9,12,36,17.2,54.2h127.8
		c-5.2-18.3-10.8-36.5-17-54.6C383.9,406.8,369.7,368.4,354.5,330.1z"/>
	<path class="st2" d="M455.2,245.8c-20.7,14.3-40.7,29.5-59.7,45.7c17.7,45.6,35,91.7,48.5,139.3c6.6,22.8,12.6,45.9,17.8,69.2H501
		V215.5C485.4,225.2,470.1,235.2,455.2,245.8z"/>
	<path class="st1" d="M99,91.7c17.7-26.8,36.7-52.8,56.6-78c3.6-4.6,7.3-9.1,11-13.7H27.5c14.9,40.1,34.9,77.8,57.2,114.9
		C89.4,107.1,94.1,99.3,99,91.7z"/>
	<path class="st3" d="M234.2,0c-0.3,0.4-0.7,0.8-1,1.2c-12.3,14.6-24.5,29.4-36,44.7c-18.7,24.4-36.2,49.7-53,75.4
		c-9.6,14.5-18.9,29.2-27.9,44.1c25,38.6,51.1,77.3,75.3,118.1c19,32.2,36.7,65.5,52.3,99.9c15-23.7,31.7-46.2,50.2-67.1
		c12.3-13.8,25.2-26.8,38.7-39.3c13.7-12.8,28-25,42.7-36.6c16.6-13.1,33.8-25.4,51.4-36.9c24.2-15.5,49.1-29.7,74.2-42.9V0H234.2z"
		/>
	<path class="st4" d="M211.6,442.1c-18.6-45.1-40.8-88.7-66.4-131c-18.5-31.3-38.6-62.1-58.4-93.6c-10.8-17.1-21.5-34.3-31.9-52
		c-0.6-1.1-1.3-2.1-1.9-3.1C33.1,128.1,14.9,92.1,0,54.6V500h233.3c-4-12.2-8.3-24.3-12.9-36.3C217.7,456.4,214.6,449.3,211.6,442.1
		z"/>
</g>
</svg>
