<svg id="Layer_1" data-name="Layer 1" xmlns="http://www.w3.org/2000/svg" viewBox="0 0 473 473"><defs><style>.cls-1{fill:#fff;}.cls-2{fill:#7cb13f;}.cls-2,.cls-3,.cls-4,.cls-5,.cls-6,.cls-7{fill-rule:evenodd;}.cls-3{fill:#d71d62;}.cls-4{fill:#336a2d;}.cls-5{fill:#861450;}.cls-6{fill:#2994d2;}.cls-7{fill:#08589b;}</style></defs><title>journal-symbol-no-hoop-circle-bg-adobe-ai</title><g id="logo"><g id="symbol"><circle id="Oval" class="cls-1" cx="236.5" cy="236.5" r="236.5"/><path id="Fill-2" class="cls-2" d="M217,217a31,31,0,0,0,43.75,0L374,103.78A191.81,191.81,0,0,0,319.2,71L217,173.25A31,31,0,0,0,217,217" transform="translate(-14 -14)"/><path id="Fill-4" class="cls-3" d="M282.62,282.63a31,31,0,0,1,0,43.75l-87.5,87.5a30.94,30.94,0,0,1-43.75-43.75l87.5-87.5a31,31,0,0,1,43.75,0" transform="translate(-14 -14)"/><path id="Fill-6" class="cls-4" d="M195.12,238.87a30.94,30.94,0,1,1-43.75,0,31,31,0,0,1,43.75,0" transform="translate(-14 -14)"/><path id="Fill-8" class="cls-4" d="M304.5,129.49a30.94,30.94,0,1,1-43.75,0,31,31,0,0,1,43.75,0" transform="translate(-14 -14)"/><path id="Fill-10" class="cls-5" d="M217,348.25a30.94,30.94,0,1,1-43.76,0,31,31,0,0,1,43.76,0" transform="translate(-14 -14)"/><path id="Fill-12" class="cls-5" d="M413.88,151.37a30.94,30.94,0,1,1-43.75,0,31,31,0,0,1,43.75,0" transform="translate(-14 -14)"/><path id="Fill-14" class="cls-3" d="M348.25,217a30.94,30.94,0,1,1-43.75,0,31,31,0,0,1,43.75,0" transform="translate(-14 -14)"/><path id="Fill-16" class="cls-6" d="M370.13,326.38a30.94,30.94,0,1,1-43.75,0,31,31,0,0,1,43.75,0" transform="translate(-14 -14)"/><path id="Fill-18" class="cls-7" d="M195.12,107.62a30.94,30.94,0,1,1-43.75,0,31,31,0,0,1,43.75,0" transform="translate(-14 -14)"/><path id="Fill-20" class="cls-5" d="M129.49,304.5a31,31,0,0,0-43.75,0L71,319.2A192,192,0,0,0,103.78,374l25.71-25.71a31,31,0,0,0,0-43.76" transform="translate(-14 -14)"/><path id="Fill-22" class="cls-3" d="M217,85.74a31,31,0,0,0,43.75,0l21.88-21.88a29.24,29.24,0,0,0,2.13-2.61,190.16,190.16,0,0,0-76.67,1.37A30.75,30.75,0,0,0,217,85.74" transform="translate(-14 -14)"/><path id="Fill-24" class="cls-6" d="M129.49,217a30.94,30.94,0,1,0-43.75-43.75L66.88,192.1a192,192,0,0,0-6.54,87.61,30.51,30.51,0,0,0,14.46-8Z" transform="translate(-14 -14)"/><path id="Fill-26" class="cls-7" d="M392,260.75a30.85,30.85,0,0,0,41,46,191.43,191.43,0,0,0,5.39-91.9,29.49,29.49,0,0,0-2.62,2.14Z" transform="translate(-14 -14)"/><path id="Fill-28" class="cls-2" d="M304.5,392a31,31,0,0,0-43.75,0L217,435.76a29.49,29.49,0,0,0-2.14,2.62,191.56,191.56,0,0,0,91.9-5.38,31,31,0,0,0-2.26-41" transform="translate(-14 -14)"/></g></g></svg>