<svg xmlns="http://www.w3.org/2000/svg" height="99.72" width="606.307">
    <path d="M0 7.85h23.066v29.24h.233c3.96-4.66 9.087-8.038 18.873-8.038 10.835 0 20.737 6.64 20.737 20.503V91.03H39.842V59.34c0-6.988-.815-11.882-7.572-11.882-3.961 0-9.204 1.981-9.204 11.65V91.03H0V7.85m73.004 0H96.07v29.24h.234c3.96-4.66 9.086-8.038 18.873-8.038 10.833 0 20.736 6.64 20.736 20.503V91.03h-23.067V59.34c0-6.988-.815-11.882-7.572-11.882-3.96 0-9.204 1.981-9.204 11.65V91.03H73.004V7.85m72.944 22.717h22.253v8.038h.232c4.66-6.991 11.418-9.553 19.806-9.553 6.524 0 13.513 3.378 16.309 9.436.932-.7 5.592-9.436 20.62-9.436 15.495 0 20.737 10.718 20.737 20.503V91.03H222.84V58.294c0-5.71-.583-10.836-7.574-10.836-5.824 0-7.805 4.544-7.805 10.836V91.03h-23.065V58.294c0-5.71-.584-10.836-7.574-10.836-5.825 0-7.805 4.544-7.805 10.836V91.03h-23.068V30.567M255.728 91.03h23.067V30.567h-23.067zm23.669-67.87c.342-1.142.528-2.35.528-3.605 0-6.994-5.67-12.666-12.665-12.666-6.995 0-12.665 5.672-12.665 12.666 0 1.254.186 2.463.528 3.605h24.274m21.522 76.56h1.888V-.005h-1.888zm24.134-76.705h3.767V35.19h14.91V23.015h3.767v28.312h-3.766V38.361H328.82v12.966h-3.767V23.015M361.66 48.83c3.528 0 6.384-2.777 6.384-7.733 0-4.996-2.856-7.772-6.384-7.772-3.53 0-6.384 2.776-6.384 7.772 0 4.956 2.853 7.732 6.384 7.732zm0-18.479c6.503 0 9.953 4.718 9.953 10.746 0 5.988-3.45 10.706-9.953 10.706-6.504 0-9.953-4.718-9.953-10.706 0-6.028 3.449-10.746 9.953-10.746m33.192 20.976h-3.568L387.12 35.03h-.08l-4.124 16.297h-3.647l-6.584-20.5h3.728l4.64 16.773h.079l4.124-16.773h3.688l4.283 16.773h.078l4.6-16.773h3.491l-6.544 20.5m21.503-10.587c-1.308.952-3.846.991-6.107 1.388-2.22.397-4.124 1.19-4.124 3.688 0 2.22 1.904 3.013 3.967 3.013 4.44 0 6.264-2.776 6.264-4.64zm5.473 10.508c-.596.357-1.35.555-2.42.555-1.744 0-2.853-.952-2.853-3.172-1.866 2.18-4.363 3.172-7.218 3.172-3.728 0-6.78-1.665-6.78-5.75 0-4.64 3.45-5.63 6.939-6.304 3.727-.714 6.9-.476 6.9-3.014 0-2.934-2.42-3.41-4.56-3.41-2.856 0-4.957.872-5.116 3.886h-3.37c.198-5.076 4.123-6.86 8.683-6.86 3.688 0 7.694.833 7.694 5.63V46.53c0 1.587 0 2.3 1.069 2.3.277 0 .596-.04 1.032-.198v2.617m2.893-20.422h3.174v4.322h.078c1.626-3.291 3.886-4.916 7.535-4.798v3.569c-5.433 0-7.416 3.093-7.416 8.287v9.12h-3.37v-20.5m21.755 18.003c4.522 0 6.266-3.887 6.266-7.733 0-4.044-1.824-7.772-6.463-7.772-4.6 0-6.147 3.926-6.147 7.931 0 3.846 1.984 7.573 6.344 7.573zm9.518 2.497h-3.371v-2.775h-.079c-1.11 2.26-3.728 3.251-6.542 3.251-6.306 0-9.438-4.996-9.438-10.786 0-5.789 3.092-10.666 9.358-10.666 2.101 0 5.114.794 6.622 3.212h.079V23.015h3.37v28.312m16.773-28.312h3.766V35.19h14.911V23.015h3.767v28.312h-3.767V38.361h-14.91v12.966h-3.767V23.015m44.652 28.312h-3.172v-3.25h-.079c-1.428 2.537-3.728 3.726-6.661 3.726-5.394 0-7.059-3.093-7.059-7.494V30.827h3.37v13.878c0 2.499 1.586 4.124 4.163 4.124 4.084 0 6.068-2.736 6.068-6.424V30.827h3.37v20.5m19.176-10.667c0-3.607-1.586-7.335-5.83-7.335-4.321 0-6.066 3.529-6.066 7.455 0 3.687 1.348 7.81 5.789 7.81s6.107-4.083 6.107-7.93zm3.33 8.923c0 6.661-3.053 10.071-9.517 10.071-3.845 0-8.287-1.546-8.485-6.027h3.37c.159 2.459 3.094 3.331 5.314 3.331 4.402 0 6.146-3.172 6.146-7.772v-1.348h-.078c-1.111 2.498-3.808 3.727-6.386 3.727-6.106 0-9.16-4.798-9.16-10.389 0-4.838 2.38-10.825 9.478-10.825 2.577 0 4.877 1.15 6.106 3.41h.04v-2.934h3.172v18.756m4.71-26.568h3.372V33.84h.078c1.11-2.458 4.004-3.489 6.464-3.489 5.392 0 7.058 3.093 7.058 7.494v13.482h-3.371V37.45c0-2.498-1.585-4.124-4.164-4.124-4.084 0-6.065 2.736-6.065 6.424v11.578h-3.372V23.015m35.897 16.099c-.157-3.212-2.577-5.789-5.908-5.789-3.528 0-5.63 2.656-5.868 5.79zm3.253 5.71c-.913 4.52-4.164 6.98-8.765 6.98-6.541 0-9.635-4.52-9.833-10.787 0-6.145 4.045-10.666 9.636-10.666 7.256 0 9.476 6.781 9.278 11.737h-15.345c-.12 3.569 1.904 6.741 6.384 6.741 2.776 0 4.719-1.348 5.315-4.005h3.33m5.843.04c.119 3.013 2.736 3.965 5.512 3.965 2.101 0 4.956-.476 4.956-3.053 0-2.617-3.33-3.053-6.7-3.807-3.33-.753-6.703-1.863-6.703-5.789 0-4.124 4.086-5.829 7.654-5.829 4.52 0 8.129 1.427 8.406 6.424h-3.37c-.238-2.617-2.539-3.45-4.759-3.45-2.021 0-4.361.555-4.361 2.617 0 2.42 3.569 2.815 6.701 3.57 3.37.752 6.701 1.863 6.701 5.828 0 4.877-4.56 6.463-8.722 6.463-4.6 0-8.487-1.864-8.686-6.94h3.371M325.132 62.668h5.156l8.921 23.792 8.962-23.792h5.154V90.98h-3.569V67.426h-.079l-8.842 23.554h-3.212l-8.842-23.554h-.08V90.98h-3.569V62.668m46.615 16.099c-.159-3.213-2.578-5.79-5.908-5.79-3.53 0-5.631 2.657-5.87 5.79zm3.252 5.71c-.912 4.52-4.163 6.978-8.764 6.978-6.543 0-9.635-4.52-9.834-10.785 0-6.146 4.046-10.666 9.636-10.666 7.256 0 9.476 6.78 9.279 11.737h-15.347c-.118 3.568 1.904 6.74 6.384 6.74 2.776 0 4.719-1.347 5.315-4.005h3.33m12.645 4.005c4.521 0 6.265-3.886 6.265-7.732 0-4.044-1.824-7.771-6.463-7.771-4.6 0-6.146 3.925-6.146 7.93 0 3.846 1.984 7.573 6.344 7.573zm9.517 2.499h-3.37v-2.776h-.08c-1.11 2.26-3.727 3.251-6.542 3.251-6.305 0-9.437-4.995-9.437-10.785s3.092-10.666 9.357-10.666c2.101 0 5.115.793 6.623 3.211h.078V62.668h3.371V90.98m4.548-20.501h3.37v20.5h-3.37zm3.37-3.688h-3.37v-4.123h3.37v4.123m18.814 10.271c-.516-2.578-2.3-4.084-5.076-4.084-4.876 0-6.384 3.846-6.384 8.01 0 3.766 1.705 7.493 5.988 7.493 3.252 0 5.195-1.903 5.63-4.995h3.451c-.754 4.995-3.886 7.97-9.042 7.97-6.264 0-9.595-4.363-9.595-10.468 0-6.147 3.172-10.984 9.675-10.984 4.638 0 8.366 2.18 8.842 7.058h-3.489m19.896 3.33c-1.308.953-3.845.992-6.107 1.388-2.22.397-4.122 1.19-4.122 3.688 0 2.22 1.902 3.013 3.965 3.013 4.44 0 6.264-2.776 6.264-4.639zm5.473 10.508c-.594.357-1.349.555-2.418.555-1.746 0-2.855-.951-2.855-3.172-1.865 2.181-4.363 3.172-7.217 3.172-3.728 0-6.78-1.665-6.78-5.75 0-4.639 3.449-5.63 6.938-6.304 3.727-.714 6.9-.476 6.9-3.014 0-2.934-2.42-3.41-4.56-3.41-2.856 0-4.957.873-5.116 3.886h-3.369c.197-5.075 4.123-6.86 8.683-6.86 3.688 0 7.693.834 7.693 5.631v10.547c0 1.587 0 2.3 1.07 2.3.278 0 .595-.04 1.031-.198V90.9m3.109.08h3.37V62.668h-3.37zm20.34 0h3.768V62.668h-3.767zm9.053-20.501h3.172v3.252h.078c1.428-2.538 3.728-3.727 6.663-3.727 5.392 0 7.057 3.092 7.057 7.494V90.98h-3.37V77.1c0-2.498-1.586-4.123-4.163-4.123-4.084 0-6.068 2.735-6.068 6.423v11.58h-3.37V70.479m23.828 14.037c.118 3.014 2.735 3.965 5.511 3.965 2.102 0 4.956-.475 4.956-3.053 0-2.617-3.33-3.053-6.701-3.806-3.33-.754-6.701-1.863-6.701-5.79 0-4.123 4.084-5.828 7.653-5.828 4.52 0 8.13 1.427 8.407 6.423h-3.371c-.237-2.616-2.539-3.45-4.759-3.45-2.021 0-4.361.556-4.361 2.618 0 2.419 3.568 2.815 6.701 3.568 3.37.753 6.7 1.864 6.7 5.829 0 4.877-4.56 6.463-8.722 6.463-4.6 0-8.486-1.863-8.684-6.939h3.37m22.194-14.037h4.084v2.974h-4.084V86.18c0 1.547.436 1.825 2.537 1.825h1.547v2.974h-2.579c-3.488 0-4.876-.714-4.876-4.48V73.452h-3.49v-2.974h3.49v-6.146h3.37v6.146m7.379.001h3.371v20.5h-3.37zm3.371-3.688h-3.37v-4.123h3.37v4.123m9.56 3.688h4.084v2.974h-4.084V86.18c0 1.547.436 1.825 2.537 1.825h1.547v2.974h-2.577c-3.49 0-4.878-.714-4.878-4.48V73.452h-3.489v-2.974h3.49v-6.146h3.37v6.146m24.104 20.502h-3.173v-3.252h-.078c-1.429 2.538-3.728 3.727-6.662 3.727-5.392 0-7.058-3.092-7.058-7.493V70.479h3.37v13.879c0 2.498 1.585 4.123 4.164 4.123 4.085 0 6.066-2.736 6.066-6.423v-11.58h3.371V90.98m9.524-20.501h4.084v2.974h-4.084V86.18c0 1.547.436 1.825 2.537 1.825h1.547v2.974h-2.577c-3.49 0-4.878-.714-4.878-4.48V73.452h-3.489v-2.974h3.49v-6.146h3.37v6.146m21 8.289c-.159-3.213-2.579-5.79-5.91-5.79-3.527 0-5.63 2.657-5.867 5.79zm3.25 5.71c-.91 4.52-4.162 6.978-8.762 6.978-6.543 0-9.636-4.52-9.833-10.785 0-6.146 4.044-10.666 9.636-10.666 7.256 0 9.476 6.78 9.277 11.737h-15.345c-.119 3.568 1.902 6.74 6.384 6.74 2.776 0 4.718-1.347 5.313-4.005h3.33"/>
</svg>
