<?xml version="1.0" encoding="UTF-8" standalone="no"?>
<svg xmlns="http://www.w3.org/2000/svg" viewBox="0 0 279.84 83.90667" height="83.90667" width="279.84" version="1.1">
    <title>Max Planck Society</title>
    <g transform="matrix(1.3333333,0,0,-1.3333333,0,83.906667)">
        <g transform="scale(0.1)">
            <path d="M 75.4219,208.09 H 74.8242 L 38.0586,314.711 H 0 V 170.035 h 29.0234 v 98.961 l 0.586,0.109 35.7734,-99.07 h 19.6758 l 35.7734,98.867 0.594,-0.097 v -98.77 h 29.015 V 314.711 H 112.578 L 75.4219,208.09"/>
            <path d="m 230.82,223.988 16.094,50.977 h 0.606 l 15.988,-50.977 z m 31.301,90.723 H 232.414 L 183.625,170.035 h 30.301 l 9.746,31.199 h 46.894 l 9.836,-31.199 h 30.313 l -48.594,144.676"/>
            <path d="m 453.371,170.035 -45.41,72.93 42.93,71.746 h -33.782 l -27.129,-51.27 -26.726,51.27 h -33.586 l 42.922,-71.746 -44.024,-72.93 h 33.887 l 27.918,52.168 27.922,-52.168 h 35.078"/>
            <path d="m 620.051,251.461 c -4.172,-4.406 -10.293,-6.602 -18.379,-6.602 h -26.328 v 47.489 h 26.328 c 8.144,0 14.285,-2.266 18.426,-6.805 4.14,-4.531 6.211,-10.285 6.211,-17.238 0,-6.817 -2.09,-12.434 -6.258,-16.844 z m 20.867,50.535 c -9.539,8.477 -22.625,12.715 -39.246,12.715 H 546.32 V 170.035 h 29.024 v 52.469 h 26.328 c 16.621,0 29.707,4.199 39.246,12.617 9.531,8.41 14.309,19.543 14.309,33.379 0,13.848 -4.778,25.012 -14.309,33.496"/>
            <path d="M 768.313,192.289 H 715.129 V 314.711 H 686.105 V 170.035 h 82.208 v 22.254"/>
            <path d="m 833.75,223.988 16.094,50.977 h 0.605 l 15.989,-50.977 z m 1.594,90.723 -48.789,-144.676 h 30.3 l 9.747,31.199 h 46.894 l 9.844,-31.199 h 30.305 l -48.594,144.676 h -29.707"/>
            <path d="m 972.852,267.516 0.597,0.097 58.321,-97.578 h 29.01 v 144.676 h -29.01 v -97.383 l -0.6,-0.098 -58.318,97.481 H 943.828 V 170.035 h 29.024 v 97.481"/>
            <path d="m 1198.33,303.883 c -9.93,8.613 -23.71,12.918 -41.33,12.918 -16.89,0 -30.54,-5.613 -40.93,-16.848 -10.4,-11.226 -15.61,-25.652 -15.61,-43.269 v -28.719 c 0,-17.688 5.33,-32.11 16,-43.274 10.66,-11.16 24.67,-16.746 42.03,-16.746 17.03,0 30.37,4.375 40.04,13.114 9.67,8.75 14.38,20.839 14.12,36.269 l -0.2,0.606 h -28.12 c 0,-9.414 -2.14,-16.387 -6.42,-20.918 -4.27,-4.539 -10.74,-6.817 -19.42,-6.817 -9.14,0 -16.28,3.516 -21.42,10.539 -5.13,7.02 -7.69,16.09 -7.69,27.227 v 28.914 c 0,11.066 2.43,20.09 7.3,27.07 4.87,6.992 11.64,10.489 20.32,10.489 9.34,0 16.24,-2.266 20.72,-6.805 4.47,-4.543 6.7,-11.438 6.7,-20.715 h 28.23 l 0.19,0.598 c 0.27,15.632 -4.57,27.754 -14.51,36.367"/>
            <path d="m 1364.47,314.711 h -35.88 l -39.63,-59.121 h -8.15 v 59.121 h -29.02 V 170.035 h 29.02 v 60.418 h 10.63 l 39.94,-60.418 h 36.96 l -53.95,77.403 50.08,67.273"/>
            <path d="m 336.906,89.6719 h 24.082 V 67.2422 c -1.515,-2.3945 -4.238,-4.5234 -8.078,-6.3477 -3.906,-1.8554 -9.023,-2.7929 -15.203,-2.7929 -8.078,0 -14.719,2.9765 -19.738,8.8359 -5.039,5.8906 -7.598,13.5352 -7.598,22.7344 v 16.5231 c 0,8.965 2.453,16.407 7.285,22.121 4.824,5.704 11.262,8.602 19.133,8.602 7.684,0 13.691,-2 17.859,-5.926 4.161,-3.918 6.27,-8.965 6.27,-15.031 v -0.359 h 7.375 l 0.273,0.566 0.039,0.156 c 0.165,7.977 -2.675,14.649 -8.449,19.824 -5.75,5.145 -13.613,7.762 -23.367,7.762 -10.137,0 -18.516,-3.543 -24.914,-10.555 -6.375,-7.003 -9.609,-16.183 -9.609,-27.277 V 89.6719 c 0,-11.3086 3.339,-20.6524 9.922,-27.7735 6.601,-7.1171 15.187,-10.7304 25.519,-10.7304 8.094,0 14.902,1.4336 20.234,4.2773 5.332,2.8399 9.043,5.9453 11.043,9.2188 l 0.051,0.0976 v 31.9141 h -32.129 v -7.0039"/>
            <path d="m 417.051,95.7578 h 40.117 v 7.0002 h -40.117 v 32.863 h 46.074 v 7 h -54.18 V 52.4531 h 54.485 v 6.9375 h -46.379 v 36.3672"/>
            <path d="m 522.734,101.148 c -8.964,2.52 -15.293,5.254 -18.816,8.133 -3.477,2.84 -5.246,6.516 -5.246,10.918 0,4.66 1.953,8.645 5.801,11.856 3.867,3.222 9.297,4.863 16.132,4.863 6.622,0 12.11,-1.941 16.309,-5.75 4.172,-3.789 6.289,-8.645 6.289,-14.406 v -0.371 h 7.512 l 0.215,0.625 0.019,0.117 c 0.164,7.726 -2.578,14.199 -8.164,19.23 -5.578,5.008 -13.039,7.547 -22.18,7.547 -8.679,0 -15.925,-2.246 -21.542,-6.68 -5.645,-4.453 -8.497,-10.214 -8.497,-17.148 0,-6.805 2.559,-12.266 7.61,-16.23 4.98,-3.9262 12.351,-7.2348 21.894,-9.8637 8.641,-2.5977 14.832,-5.3985 18.418,-8.3477 3.543,-2.9023 5.34,-6.6328 5.34,-11.0742 0,-4.8047 -2.129,-8.7891 -6.297,-11.8359 -4.23,-3.0664 -9.777,-4.6289 -16.496,-4.6289 -6.562,0 -12.488,1.6875 -17.605,5.0078 -5.071,3.3008 -7.649,8.3867 -7.649,15.1367 v 0.3711 h -7.449 l -0.207,-0.625 -0.02,-0.1055 c -0.195,-8.6914 3.059,-15.4023 9.688,-19.9336 6.582,-4.5 14.406,-6.7851 23.242,-6.7851 8.84,0 16.281,2.1562 22.11,6.4258 5.871,4.2851 8.847,10.039 8.847,17.0976 0,6.7188 -2.539,12.1875 -7.566,16.2617 -4.981,4.0235 -12.278,7.4492 -21.692,10.1949"/>
            <path d="m 595.031,95.7578 h 40.117 v 7.0002 h -40.117 v 32.863 h 46.074 v 7 H 586.926 V 52.4531 h 54.48 v 6.9375 h -46.375 v 36.3672"/>
            <path d="m 679.473,142.621 h -8.106 V 52.4531 h 54.297 v 6.9375 h -46.191 v 83.2304"/>
            <path d="m 763.859,142.621 h -8.105 V 52.4531 h 54.297 v 6.9375 h -46.192 v 83.2304"/>
            <path d="m 866.965,101.148 c -8.965,2.52 -15.293,5.254 -18.82,8.133 -3.477,2.84 -5.243,6.516 -5.243,10.918 0,4.66 1.953,8.645 5.801,11.856 3.875,3.222 9.297,4.863 16.133,4.863 6.621,0 12.109,-1.941 16.309,-5.75 4.179,-3.789 6.289,-8.645 6.289,-14.406 v -0.371 h 7.507 l 0.215,0.625 0.032,0.117 c 0.156,7.726 -2.59,14.199 -8.176,19.23 -5.574,5.008 -13.035,7.547 -22.176,7.547 -8.684,0 -15.93,-2.246 -21.543,-6.68 -5.637,-4.453 -8.496,-10.214 -8.496,-17.148 0,-6.805 2.558,-12.266 7.605,-16.23 4.981,-3.9262 12.356,-7.2348 21.895,-9.8637 8.644,-2.5977 14.836,-5.3985 18.418,-8.3477 3.547,-2.9023 5.344,-6.6328 5.344,-11.0742 0,-4.8047 -2.129,-8.7891 -6.301,-11.8359 -4.219,-3.0664 -9.774,-4.6289 -16.492,-4.6289 -6.563,0 -12.493,1.6875 -17.61,5.0078 -5.066,3.3008 -7.644,8.3867 -7.644,15.1367 v 0.3711 h -7.442 l -0.215,-0.625 -0.011,-0.1055 c -0.203,-8.6914 3.047,-15.4023 9.679,-19.9336 6.582,-4.5 14.403,-6.7851 23.243,-6.7851 8.836,0 16.277,2.1562 22.109,6.4258 5.867,4.2851 8.848,10.039 8.848,17.0976 0,6.7188 -2.539,12.1875 -7.571,16.2617 -4.968,4.0235 -12.273,7.4492 -21.687,10.1949"/>
            <path d="m 990.879,113.996 0.215,0.617 0.019,0.117 c 0.157,9.043 -2.742,16.25 -8.633,21.418 -5.878,5.157 -13.808,7.762 -23.562,7.762 -10.012,0 -18.203,-3.691 -24.355,-10.965 -6.133,-7.265 -9.239,-16.742 -9.239,-28.156 V 90.2305 c 0,-11.4571 3.106,-20.9297 9.239,-28.1563 6.152,-7.2344 14.343,-10.9062 24.355,-10.9062 9.648,0 17.539,2.6758 23.477,7.957 5.945,5.2852 8.875,12.4414 8.718,21.2813 l -0.234,0.7304 h -7.508 v -0.3594 c 0,-7.3632 -2.187,-13.039 -6.476,-16.875 -4.317,-3.8476 -10.36,-5.8007 -17.977,-5.8007 -7.656,0 -13.898,2.9961 -18.535,8.9257 -4.641,5.9375 -7.004,13.75 -7.004,23.2032 v 14.6755 c 0,9.336 2.363,17.09 7.004,23.059 4.648,5.937 10.879,8.953 18.535,8.953 7.617,0 13.652,-2.012 17.969,-5.965 4.297,-3.937 6.484,-9.512 6.484,-16.582 v -0.375 h 7.508"/>
            <path d="m 1082.55,100.609 h -50.06 v 42.012 h -8.1 V 52.4531 h 8.1 v 41.1563 h 50.06 V 52.4531 h 8.12 v 90.1679 h -8.12 v -42.012"/>
            <path d="m 1139.78,84.6914 16.84,46.4646 16.61,-46.4646 z m 20.54,57.9296 h -7.46 l -32.95,-89.6679 -0.17,-0.5 h 8.4 l 9.03,24.9336 h 38.73 l 8.82,-24.6875 0.09,-0.2461 h 8.39 l -32.79,89.9339 -0.09,0.234"/>
            <path d="m 1221.23,52.4531 h 8.11 v 41.8867 h 41.1 v 7.0622 h -41.1 v 34.219 h 47.35 v 7 h -55.46 V 52.4531"/>
            <path d="m 1294.62,135.621 h 31.51 V 52.4531 h 8.05 v 83.1679 h 30.47 v 7 h -70.03 v -7"/>
            <path d="m 1784.17,8.78516 c -168.65,0 -305.85,137.20684 -305.85,305.85984 0,168.632 137.2,305.828 305.85,305.828 168.62,0 305.84,-137.196 305.84,-305.828 0,-168.653 -137.22,-305.85984 -305.84,-305.85984 z m 0,620.47684 c -173.5,0 -314.65,-141.141 -314.65,-314.617 0,-173.508 141.15,-314.64109375 314.65,-314.64109375 173.49,0 314.64,141.13309375 314.64,314.64109375 0,173.476 -141.15,314.617 -314.64,314.617"/>
            <path d="m 1990.89,263.453 c -9.77,-8.633 -24.76,-9.336 -30.82,-14.855 -3.16,-2.879 -4.59,-7.403 -1.17,-15.489 1.96,-4.648 3.32,-5.222 -3.38,-7.011 -10.87,-2.91 -12.36,-17.188 -26.21,-14.571 -5.55,1.055 -1.56,-2.5 0.43,-2.695 7.93,-0.742 11.06,1.484 13.85,4.094 2.77,2.597 6.48,7.285 10.74,8.894 4.38,1.66 8.82,1.551 8.89,-1.738 0.06,-2.5 -5.47,-6.484 -7.81,-7.566 2.83,-1.477 11.51,-5.879 4.1,-10.911 -5.76,-3.914 -13.7,1.516 -14.85,2.188 -1.7,0.988 -4.97,0.5 -3.89,-0.828 4.28,-5.235 15.76,-3.867 13.7,-6.641 -10.59,-14.25 -1.96,-22.57 -5.18,-36.886 -3.27,-14.52 -23.14,-22.469 -38.44,-25.235 -52.02,-9.383 -102.64,34.875 -132.29,68.235 2.7,6.328 2.35,14.597 -0.36,11.66 -2.55,-2.774 -2.13,-7.395 -8.32,-8.957 -11.92,-3.008 -17.06,17.695 -20.75,21.32 -14.49,14.199 -20.24,34.258 -11.58,51.797 8.74,17.722 26.89,14.168 34.15,3.445 9.01,-13.332 4.84,-20.906 9.96,-24.89 7.19,-5.598 14.43,-0.598 16.37,-0.071 5.48,1.496 5.06,-12.976 23.75,-12.304 20.11,0.722 17.83,31.992 20.67,34.765 25.8,25.156 12.63,47.61 7.94,52.832 -1.26,1.399 2.87,10.637 4.39,10.977 15.15,3.351 23.71,13.027 28.33,23.261 0,0 25.16,0.43 34.12,18.547 2.39,4.852 9.8,-4.668 26.61,8.543 1.89,1.485 3.67,0.774 4.38,-0.965 10.8,-26.484 15.35,-33.8 14.52,-47.304 -0.61,-9.817 26.2,-64.317 28.15,-69.024 2.18,-5.254 2.5,-10.41 0,-12.617 z M 1871.46,125.406 c -7.66,-26.4841 -11.51,-37.0622 -0.01,-65.8201 1.52,-3.8203 2.67,-6.6992 -0.69,-6.125 -23.14,3.9766 -28.14,7.7735 -100.83,1.6133 -5.23,-0.4414 1.71,10.1367 0.85,17.3438 6.64,0.8476 17.25,3.8867 19.5,14.6953 2.73,13.1167 -6.41,22.7457 -5.44,24.6287 10.3,20.098 -0.67,42.363 -9.38,79.688 -0.82,3.496 1.2,5.019 2.73,3.371 46.7,-50.547 76.47,-60.598 92.55,-65.371 1.6,-0.469 1.28,-2.297 0.72,-4.024 z M 1729.88,55.3672 c -4.78,1.1914 -17.98,22.207 -7.24,47.2848 1.14,2.645 17.61,0.996 20.37,0.164 2.75,-0.828 -2.27,-20.5465 20.36,-29.2769 2.31,-0.8868 -0.1,-26.4532 -33.49,-18.1719 z m -33.98,12.5976 c -2.49,11.0235 -3.49,30.1368 1.09,34.3832 0.91,0.84 14.62,2.812 14.37,-0.321 -1.06,-13.1637 -6.37,-27.8629 3.65,-42.4997 3.75,-5.4804 -15.76,-6.3476 -19.11,8.4375 z m 80.87,13.0079 c -17.81,-6.1719 -24.85,14.6562 -21.92,19.1483 1.77,2.695 13.01,-3.0663 21.77,2.578 6.74,4.348 10.46,-18.1521 0.15,-21.7263 z m -105.2,29.5783 c -1.02,5.945 4.7,11.66 4.58,24.64 -0.15,15.907 -19.77,37.735 -33.07,51.766 6.24,0 14.41,1.477 23.58,5.723 19.79,9.16 23.67,30.195 24.24,31.054 0.26,0.391 -4.42,1.321 -11.16,1.407 0.72,0.363 1.45,0.722 2.19,1.125 19.35,10.371 24.42,32.812 23.5,33.3 -0.37,0.204 -5.19,0.957 -11.94,0.782 1.88,0.632 3.84,1.347 5.85,2.148 20.48,8.133 26.2,30.926 25.47,31.66 -0.32,0.321 -4.42,1.141 -10.38,1.297 1.81,0.703 3.67,1.516 5.56,2.453 18.7,9.285 25.18,30.184 24.21,30.879 -0.42,0.301 -4.22,1.035 -9.75,1.121 4.16,0.91 8.72,2.297 13.5,4.395 20.03,8.769 26.5,27.941 25.64,28.75 -0.38,0.351 -3.77,1.289 -8.87,1.711 3.99,0.886 8.36,2.117 13.02,3.711 19.81,6.765 27.82,25.703 26.64,25.808 -2.68,0.254 -6.36,1.555 -11.14,2.383 5.4,0.352 11.69,1.34 19.57,4.004 21.41,7.238 29,20.117 29.38,25.715 0.02,0.359 -2.56,1.484 -6.73,2.402 4.9,0.887 9.82,2.098 13.89,3.75 19.99,8.094 28.3,27.742 28.96,29.356 3.63,1.187 7.55,2.664 11.65,4.519 2.08,0.949 3.99,1.945 5.75,2.981 0.97,-0.743 2.53,-1.856 4.85,-3.352 3.03,-1.941 4.09,-2.391 2.6,-3.672 -68.02,-57.949 -118.99,-131.133 -141.24,-166.707 -0.62,-0.996 -1.79,-0.82 -3.68,-0.695 -23.82,1.582 -37.33,-26.777 -26.67,-53.36 -1.34,-5.41 -12.65,-15.847 -13.5,-16.601 -0.86,-0.762 -3.14,-4.082 0.73,-3.731 5.57,0.5 12.68,9.415 16.07,13.418 1.42,-1.757 6.65,-6.121 4.13,-8.593 -20.24,-19.871 -40.29,-30.567 -41.85,-31.328 -7.58,-3.7 12.65,-6.258 47.12,24.902 2.03,1.836 4.43,-7.188 7.51,-11.055 -5.92,-19.539 8.67,-57.254 6.4,-69.09 -0.4,-2.074 -1.63,-7.922 -8.52,-8.058 -34.16,-0.703 -37.51,0.859 -54.89,-4.258 -8.11,-2.391 -5.98,-7.742 -0.09,-6.141 6.66,1.805 13.65,4.508 50.64,2.207 9.04,-0.566 19.37,1.825 19.44,17.09 0.06,13.836 -10.94,55.098 -7.23,60.742 4.91,-3.691 8.47,-3.839 10.33,-4.171 -0.49,-13.458 21.18,-56.942 11.54,-80.926 -3.59,-8.907 -19.32,-8.242 -46.23,-5.578 -45.82,4.531 -60.66,-5.371 -61.6,0.117 z m -0.87,-33.1135 c -1.95,7.8984 -1.17,18.7773 1.53,21.6992 5.18,2.5393 14.69,3.5153 14.85,0.4766 0.26,-4.832 -3.27,-16.3086 0.88,-30.6172 -0.96,-2.2422 -13.91,-1.2773 -17.26,8.4414 z m -15.64,139.1875 c 11.57,5.488 28.82,4.172 27.87,3.41 -0.95,-0.754 -5.49,-17.519 -18.52,-24.062 -13.02,-6.535 -21.64,-4.778 -26.31,-3.887 7.01,7.676 5.53,19.102 16.96,24.539 z m -24.03,-21.59 c -3.9,3.699 -12.34,13.016 -13.15,25.028 -0.05,0.597 -0.07,1.164 -0.06,1.75 -0.04,12.91 5.68,25.605 7.09,27.031 1.43,1.414 15.99,-9.914 16.21,-26.153 0.2,-14.082 -6.26,-22.168 -10.09,-27.656 z m -10.62,-16.719 c -0.05,-0.039 -0.09,-0.078 -0.13,-0.117 -32.23,37.969 -49.23,85 -49.23,136.446 0,117.507 95.59,213.105 213.12,213.105 31.01,0 60.8,-6.477 88.68,-19.258 -3.67,-1.711 -7.89,-4.211 -12.24,-7.785 -24.53,10.391 -49.23,15.273 -76.44,15.273 -111.02,0 -201.37,-90.32 -201.37,-201.335 0,-48.157 15.03,-90.469 44.46,-125.977 -1.7,-2.578 -4.09,-6.215 -6.85,-10.352 z m -0.43,-74.464 c -64.79,51.613 -103.56,129.531 -103.56,210.793 0,147.617 120.09,267.734 267.75,267.734 43.07,0 86.28,-10.793 124.2,-30.547 0.76,-0.402 0.88,-1.437 0.23,-2.004 -11.14,-9.726 -26.61,-28.808 -30.5,-34.14 -29.48,13.8 -61.04,20.851 -93.93,20.851 -122.36,0 -221.92,-99.543 -221.92,-221.894 0,-54.602 18.49,-104.407 53.4,-144.375 -2.01,-4.649 -5.57,-14.817 -5.57,-28.274 0,-11.133 2.06,-23.945 9.9,-38.144 z m 198.76,327.257 c -1.57,1.094 12.78,17.149 24.46,21.59 11.43,4.348 23.77,3.547 24.77,2.981 1,-0.567 -7.48,-14.477 -21.27,-20.059 -12.96,-5.254 -26.4,-5.605 -27.96,-4.512 z m -36.33,-29.511 c 0.22,0.855 12.11,17.597 24.36,21.843 11.66,4.036 25.92,1.329 27.45,0.684 1.53,-0.633 -8.25,-15.242 -23.22,-19.746 -13.48,-4.043 -28.79,-3.641 -28.59,-2.781 z m -35.95,-34.121 c -0.79,0.378 10.03,18.816 22.17,23.496 11.62,4.453 23.12,0.418 26.64,0.183 2.86,-0.183 -3.97,-13.543 -19.9,-19.422 -13.28,-4.894 -26.88,-5.265 -28.91,-4.257 z m -32.05,-35.442 c -0.96,0.723 13.21,19.258 25.02,24.727 10.41,4.804 23.99,3.789 25.13,3.039 1.13,-0.762 -5.54,-16.367 -19.25,-22.363 -13.06,-5.723 -29.95,-6.133 -30.9,-5.403 z m -26.73,-35.82 c 0.56,1.387 10.54,19.328 22.27,24.824 11.63,5.449 25.69,4.297 26.64,3.984 0.97,-0.312 -5.34,-16.171 -18.65,-22.773 -13.15,-6.531 -30.83,-7.422 -30.26,-6.035 z m -20.58,-35.344 c 0.86,4.555 8.99,19.633 21.23,25.082 v 0 c 12.27,5.457 26.46,5.059 28.07,4.395 1.61,-0.664 -5.1,-16.739 -17.44,-22.649 -13.81,-6.609 -19.34,-2.754 -31.86,-6.828 z m 1.05,-10.133 c 13.72,5.965 28.7,5.047 29.32,4.461 0.64,-0.578 -4.37,-17.453 -17.71,-24.609 -13.32,-7.137 -28.36,-7.801 -29.72,-6.102 -0.76,0.946 4.38,20.282 18.11,26.25 z m -21.82,37.617 c 5.27,-2.656 11.63,-10.332 12.23,-24.542 0.59,-14.266 -9.62,-26.336 -13.62,-28.243 -2.78,10.899 -8.05,13.184 -7.96,24.004 0.11,11.817 6.11,24.797 9.35,28.781 z m 36.23,18.758 c -0.29,-18.289 -11.78,-29.011 -15.21,-32.41 -2.12,3.633 -6.31,12.957 -6.6,22.742 -0.55,18.86 7.24,25.547 10.62,29.192 1.61,-5.403 11.34,-9.68 11.19,-19.524 z m 25.6,38.379 c 0,-3.535 -0.44,-5.539 -1.45,-8.996 -3.78,-13.004 -11.46,-18.484 -15.62,-24.363 -1.67,3.847 -4.75,9.308 -4.77,17.558 -0.04,15.723 9.54,29.133 15.55,33.36 2.27,0.097 6.29,-9.473 6.29,-17.559 z m 25.11,19.797 c -5.3,-11.555 -8.72,-11.934 -14.88,-19.141 -1.05,-1.23 -5.67,10.997 -1.2,26.356 3.57,12.305 11.81,16.855 15.8,21.027 1.57,1.641 5.93,-15.957 0.28,-28.242 z m 30.91,32.031 c -5.21,-9.101 -9.95,-7.011 -18.63,-19.922 -0.96,-1.425 -3.25,10.68 1.94,27.032 4.01,12.597 16.42,20.429 17.74,20.742 1.99,0.476 5.15,-17.043 -1.05,-27.852 z m 33.18,30.223 c -10.13,-15.117 -10.71,-9.949 -21.8,-24.727 -0.61,-0.82 -0.83,19.289 3.12,28.137 6.25,13.965 17.07,22.176 18.68,22.461 1.62,0.281 5.6,-17.531 0,-25.871 z m 30.36,22.512 c -8.28,-6.719 -12.05,-11.172 -16.88,-19.043 -1.64,-2.676 -5.65,14.902 5.11,31.777 6.59,10.34 19.72,19.617 19.43,18.387 -0.96,-4.121 6.36,-19.754 -7.66,-31.121 z m 27.67,39.043 c 8.54,10.105 23.02,18.242 24.64,17.246 1.66,-1.028 -2.43,-16.641 -11.78,-25.84 -9.44,-9.301 -24.04,-18.34 -25.74,-18.234 -1.7,0.109 5.21,17.726 12.88,26.828 z M 1633.41,250.355 c -4.32,4.973 -8.33,7.708 -8.75,7.415 -1.2,-0.84 -8.2,-12.817 -10.63,-26.79 -13.64,26.075 -21.19,52.442 -22.42,83.665 -4.18,106.082 84.67,191.511 193.08,191.132 24.73,-0.089 45.07,-4.66 67.28,-13.683 -4.97,-6.211 -8.58,-13.66 -11.03,-19.903 -0.11,5.754 -1.62,10.227 -1.2,13.809 0.26,2.219 -15.35,-2.645 -29.23,-24.734 -3.21,-5.11 -5.22,-10.782 -6.46,-15.996 -0.29,8.281 -2.23,14.734 -2.8,14.589 -1.42,-0.39 -17.25,-6.925 -25.51,-26.261 -1.44,-3.387 -2.5,-6.883 -3.28,-10.274 -0.68,5.899 -2.21,9.778 -2.68,9.754 -1.05,-0.035 -17.64,-6.863 -25.81,-26.734 -1.91,-4.621 -2.91,-9.348 -3.38,-13.731 -1.48,6.914 -4.15,11.153 -5,10.078 -5.73,-7.265 -16.92,-10.488 -22.86,-28.8 -1.4,-4.305 -1.96,-8.602 -2.03,-12.606 -2.46,6.192 -5.92,9.766 -6.71,9.598 -1.63,-0.34 -18.53,-16.406 -21.06,-32.598 -1,-6.387 -0.54,-12.312 0.45,-17.293 -3.22,5.211 -7.52,9.043 -9.26,14.356 -2.65,-1.418 -16.97,-14.875 -17.43,-32.11 -0.19,-6.699 0.82,-13 2.2,-18.312 -4.76,8.644 -11.52,12.695 -12.26,12.238 -1.24,-0.754 -11.92,-12.316 -14.4,-33.066 -0.59,-4.864 0.01,-9.524 1.18,-13.743 z m 249.58,234.485 c 10.83,4.871 21.31,4.949 22.43,4.812 2.46,-0.293 -5.47,-14.394 -19.61,-20.457 -14.57,-6.261 -25.45,-7.394 -26.69,-6.777 -1.86,0.918 12.35,17.227 23.87,22.422 z m -96.41,-222.149 c -2.96,0.645 -4.07,6.446 -3.46,8.731 1.33,5.098 9.16,15.625 11.98,19.316 0.7,0.918 2.14,0.067 2.29,-1.035 1.7,-12.226 -0.01,-29.387 -10.81,-27.012 z m 57.72,76.766 c -6.47,-4.383 -15.77,1.563 -13.92,4.219 12,17.121 28,29.043 34.4,33.019 10.28,6.395 11.36,6.844 11.9,3.231 0.33,-2.176 0.44,-13.379 -7.85,-22.473 -6.87,-7.547 -13.76,-6.91 -17.31,-7.703 -2.39,-0.535 -2.24,-6.914 -7.22,-10.293 z m -18.18,-87.195 c -12.05,-7.395 -18.59,6.726 -20.3,9.199 -0.73,1.062 -2.65,4.168 -1.61,9.473 0.83,4.179 1.52,9.851 -1.23,27.859 -1.2,7.922 15.18,27.559 18.87,30.996 3.82,3.566 9.39,-1.777 9.75,-7.578 0.69,-11.023 -5.5,-16.824 -11.81,-21.523 -7.76,-5.782 -9.23,-13.29 -7.76,-15.301 0.58,-0.782 4.06,-0.813 5.59,2.449 4.67,9.941 18.02,14.953 20.14,20.156 3.33,8.125 0.89,13.352 0.57,16.77 -0.28,2.984 2.64,3.738 4.84,3.418 2.84,-0.434 4.1,-4.289 5.54,-8.039 8.63,-22.481 -13.08,-36.075 -16.58,-41.395 -1.62,-2.461 3.36,-20.742 -6.01,-26.484 z m 60.82,136.66 c -0.61,3.601 25.6,12.422 26.51,9.812 1.68,-4.812 -5.41,-17.742 -14.19,-20.976 -9.96,-3.672 -14.11,-2.578 -13.73,-1.153 0.69,2.598 1.99,9.004 1.41,12.317 z m 61.85,16.016 c -3.09,-8.821 -27.46,-16.653 -26.31,-10.461 0.52,2.804 0.06,6.484 1.92,6.796 2.7,0.469 10.41,3.157 22.38,6.223 1.2,0.301 2.77,-0.371 2.01,-2.558 z m -24.62,64.988 c 3.58,2.258 7.42,3.215 9.69,0.976 7.87,-7.773 -8.53,-12.136 -5.12,-18.105 5.6,-9.793 14.51,-19.16 22.36,-25.203 3.71,-2.852 4.24,-9.25 -9.88,-12.18 -14.22,-2.937 -70.82,-17.851 -100.68,-49.492 -37.39,-39.617 -61.15,-90.926 -64.4,-83.875 -3.27,7.109 -10.76,8.25 -9.59,10.273 53.69,92.5 137.83,165.157 157.62,177.606 z M 1663.48,92.4844 c -2.12,-0.418 -8.91,-0.6836 -7.39,8.2426 0.94,5.507 6.92,7.824 9.95,4.687 -0.65,-4.277 -2.12,-8.457 -2.56,-12.9296 z m 305.3,246.2036 c -4.36,9.101 -1.37,15.078 -2.67,21.738 -0.95,4.902 -8.26,21.082 -12.92,32.285 -2.19,5.273 11.28,3.984 1.33,23.035 -0.28,0.567 13.84,5.781 -0.28,16.484 -7.9,5.997 -13.46,13.36 -17.82,20 -0.61,0.918 -1.18,2.747 0.09,3.887 7.98,7.09 8.15,17.305 -0.51,22.531 -6.26,3.77 -13.44,-0.058 -20.05,-4.335 -2.18,-1.418 -3.27,-2.278 -5.55,-1.348 -1.15,0.469 -3.38,2.039 -5.38,3.418 8.15,7.871 9.73,15.652 9.09,16.941 -0.44,0.871 -13.82,3.879 -30.39,-2.976 -0.36,0.203 -0.75,0.418 -1.17,0.644 6.82,11.805 2.99,20.137 2.48,20.703 -0.01,0.008 -0.03,0.02 -0.04,0.02 12.42,17.344 24.76,28.887 36.94,39.969 0,0 0.27,0.293 0.28,0.293 0.79,0.812 1.08,1.699 -0.43,2.648 -1.28,0.809 -1.64,0.996 -3.2,1.855 -40.84,22.735 -87.41,34.688 -134.41,34.688 -152.49,0 -276.53,-124.063 -276.53,-276.523 0,-88.352 44.82,-173.555 118.07,-226.4848 4.89,-3.5274 8.27,-4.875 8.27,-4.875 1.22,-0.418 2.47,-0.4102 3.24,0.5859 l 1.08,1.4258 c 0.7,0.8984 0.97,1.7578 0.97,2.539 0,2.0235 -2.92,3.8282 -6.35,8.9063 -9.9,14.6988 -14.29,31.3988 -14.29,45.3908 0,15.293 4.67,29.219 13.62,40.832 11.04,-11.504 35.11,-32.649 34.59,-51.887 -0.59,-21.609 -20.79,-20.547 -16.44,-36.7499 2.74,-10.164 10.34,-5.9726 11.66,-13.6875 2.28,-13.3711 20.25,-21.9062 28.08,-20.7343 1.89,0.2851 3.5,-1.2891 7.25,-5.0977 5.35,-5.418 18.5,-4.6875 24.34,-3.6211 5.54,1.0156 12.51,-4.0547 24.11,-2.7734 14.51,1.6015 18.21,2.7226 24.41,2.8125 10.48,0.1562 67.53,1.0039 108.1,-5.3555 6.99,-1.0898 9.21,2.0625 6.07,7.5117 -14.69,25.6055 -16.73,47.3442 -8.26,74.7262 14.98,-1.015 36.52,-5.066 64.88,11.985 10.06,6.043 15.69,18.933 15.2,28.535 -0.32,6.23 -3.05,14.117 -1.43,20.195 2.16,8.153 3.75,7.969 6.11,9.617 10.83,7.618 3.01,13.664 1.34,14.278 3.27,1.328 6.86,8.449 3.08,13.742 -1.94,2.059 -7.84,18.641 -1.03,22.09 7.34,3.73 15.71,5.312 24.15,9.012 5.8,2.421 10.43,9.191 7.12,18.164 -3.97,10.793 -26.13,61.543 -26.8,62.961"/>
            <path d="m 1930.33,359.457 c -14.65,-0.547 -31.66,-18.484 -37.21,-20.977 -5.83,-2.617 -3.75,-4.265 -0.37,-3.027 7.3,2.656 17.69,13.801 32.05,18.985 11.33,4.093 10.59,-5.235 14.85,-4.715 1.99,0.23 -0.85,10.047 -9.32,9.734"/>
            <path d="m 1928.24,317.367 c -0.66,-2.734 -16.34,-1.484 -24.87,-0.742 -2.03,0.176 -5.44,0.488 1.06,4.375 5.12,3.059 12.15,8.203 21.36,9.992 0.75,0.137 2.23,-0.097 2.61,-1.816 0.95,-4.309 0.53,-9.004 -0.16,-11.809 z m 5.4,27.727 c -1.2,-0.285 1.28,-6.543 -5.08,-6.934 -13.77,-0.851 -24.68,-13.887 -33.08,-17.793 -8.39,-3.918 -10.14,-3.859 -11.39,-4.191 -1.12,-0.305 -0.7,-1.738 0.23,-1.863 35.11,-4.692 48.6,-3.411 48.9,-2.129 0.57,2.41 -1.95,3.621 -1.43,5.175 1.32,3.914 1.98,11.317 0.48,16.407 -0.65,2.402 5.19,0.8 5.19,4.031 0,1.75 -1.76,7.793 -3.82,7.297"/>
            <path d="m 1974.09,267.359 c -2.68,0.039 -13.49,-4.906 -17.56,-7.492 -2.34,-1.496 -13.34,-8.269 -12.54,2.453 0.27,3.758 2.71,13.086 2.65,15.625 -0.1,3.875 -3.2,2.344 -3.26,0.047 -0.13,-5.379 -1.21,-9.472 -2.31,-15.781 -0.95,-5.398 3.74,-12.078 11.03,-8.191 6.06,3.222 14.32,8.769 21.63,10.164 1.88,0.363 2.21,3.144 0.36,3.175"/>
            <path d="m 1770.71,228.988 c -2.08,0.782 -1.5,-3.504 -4.31,-3.035 -3.68,0.625 -0.59,3.934 -5.38,9.012 -2.39,2.519 -8.38,3.586 -12.8,10.656 -7,11.199 -0.98,36.133 9.24,32.559 5.69,-1.992 4.69,-15.215 2.98,-24.172 -1.04,-5.516 7.54,-8.242 8.31,-6.309 1.31,3.242 -3.15,2.93 -4.18,5.891 -1.56,4.539 10.52,22.742 -5.27,28.008 -11.54,3.847 -19.12,-10.664 -17.74,-26.731 1.18,-13.543 10.18,-19.129 15.34,-21.043 6.95,-2.578 1.68,-12.09 11.05,-12.14 4.15,-0.02 5.01,6.464 2.76,7.304"/>
            <path d="m 1862.97,529.176 c 0.49,-0.176 1.04,-0.031 1.37,0.39 l 19.5,24.668 c 0.51,0.645 0.26,1.582 -0.49,1.895 -1.09,0.449 -2.2,0.887 -3.3,1.316 -0.51,0.196 -1.07,0.039 -1.41,-0.379 l -19.6,-24.777 c -0.51,-0.652 -0.23,-1.621 0.56,-1.902 1.12,-0.391 2.25,-0.801 3.37,-1.211"/>
            <path d="m 1826.78,539.234 c 1.12,-0.214 2.23,-0.441 3.36,-0.675 0.57,-0.118 1.15,0.187 1.37,0.734 l 11.42,28.25 c 0.28,0.703 -0.13,1.484 -0.86,1.652 -1.27,0.282 -2.53,0.547 -3.8,0.809 -0.34,0.078 -0.69,-0.106 -0.82,-0.438 -1.44,-3.586 -9.4,-23.273 -11.58,-28.683 -0.29,-0.723 0.15,-1.512 0.91,-1.649"/>
            <path d="m 1786.56,543.18 c 1.14,-0.012 2.27,-0.032 3.4,-0.059 0.64,-0.019 1.18,0.469 1.24,1.102 l 2.82,29.992 c 0.06,0.703 -0.47,1.316 -1.18,1.336 -1.14,0.031 -2.28,0.058 -3.42,0.09 -0.65,0.007 -1.19,-0.481 -1.25,-1.114 l -2.81,-30.019 c -0.07,-0.715 0.49,-1.32 1.2,-1.328"/>
            <path d="m 1747.48,540.25 c 1.12,0.176 2.24,0.34 3.36,0.508 0.68,0.105 1.15,0.75 1.03,1.433 l -5.73,29.563 c -0.11,0.644 -0.73,1.082 -1.37,0.984 -1.14,-0.164 -2.26,-0.351 -3.38,-0.535 -0.69,-0.117 -1.14,-0.762 -1,-1.437 l 5.7,-29.551 c 0.13,-0.645 0.75,-1.074 1.39,-0.965"/>
            <path d="m 1707.58,531.117 c 0.27,-0.547 0.91,-0.808 1.49,-0.605 1.08,0.371 2.15,0.742 3.24,1.105 0.7,0.235 1.03,1.035 0.7,1.699 l -13.53,27.157 c -0.27,0.558 -0.91,0.812 -1.5,0.617 -1.08,-0.383 -2.17,-0.774 -3.24,-1.164 -0.69,-0.242 -1.01,-1.035 -0.69,-1.688 l 13.53,-27.121"/>
            <path d="m 1670.29,513.883 c 0.39,-0.43 1.02,-0.539 1.53,-0.254 0.99,0.574 2,1.133 3.02,1.687 0.68,0.372 0.84,1.282 0.33,1.868 l -20.24,23.125 c -0.39,0.437 -1.03,0.546 -1.54,0.242 -1,-0.586 -1.99,-1.18 -2.99,-1.778 -0.64,-0.39 -0.78,-1.277 -0.28,-1.843 l 20.17,-23.047"/>
            <path d="m 1635.66,489.418 c 0.44,-0.313 1.05,-0.281 1.47,0.07 0.9,0.75 1.81,1.504 2.71,2.246 0.63,0.516 0.6,1.485 -0.06,1.942 l -25.59,17.773 c -0.46,0.324 -1.08,0.285 -1.5,-0.086 -0.88,-0.773 -1.77,-1.554 -2.64,-2.336 -0.59,-0.527 -0.53,-1.464 0.12,-1.914 l 25.49,-17.695"/>
            <path d="m 1605.45,458.297 c 0.5,-0.188 1.05,-0.039 1.39,0.371 0.74,0.926 1.5,1.844 2.26,2.754 0.54,0.633 0.3,1.609 -0.49,1.914 l -29.4,11.453 c -0.51,0.195 -1.08,0.039 -1.42,-0.391 -0.73,-0.937 -1.44,-1.882 -2.15,-2.832 -0.49,-0.644 -0.22,-1.582 0.53,-1.875 l 29.28,-11.394"/>
            <path d="m 1549.87,426.148 31.53,-4.406 c 0.51,-0.066 1,0.188 1.24,0.637 0.56,1.062 1.15,2.129 1.74,3.184 0.41,0.75 -0.05,1.679 -0.9,1.796 l -31.68,4.414 c -0.53,0.067 -1.04,-0.195 -1.27,-0.664 -0.53,-1.074 -1.07,-2.148 -1.58,-3.222 -0.36,-0.742 0.11,-1.621 0.92,-1.739"/>
            <path d="m 1532.64,378.363 32.14,3.078 c 0.48,0.047 0.89,0.379 1.04,0.848 0.37,1.172 0.74,2.344 1.12,3.508 0.28,0.84 -0.4,1.68 -1.27,1.59 l -32.33,-3.074 c -0.51,-0.051 -0.93,-0.411 -1.06,-0.899 -0.33,-1.172 -0.64,-2.355 -0.95,-3.535 -0.21,-0.82 0.47,-1.602 1.31,-1.516"/>
            <path d="m 1557.02,340.16 c 0.14,1.25 0.3,2.5 0.45,3.75 0.12,0.899 -0.75,1.602 -1.6,1.309 l -31.33,-10.899 c -0.47,-0.156 -0.79,-0.586 -0.82,-1.074 -0.09,-1.23 -0.16,-2.461 -0.23,-3.691 -0.05,-0.867 0.8,-1.504 1.62,-1.219 l 31.11,10.809 c 0.44,0.156 0.75,0.546 0.8,1.015"/>
            <path d="m 1556.24,297.398 c -0.1,1.29 -0.17,2.579 -0.25,3.875 -0.06,0.938 -1.1,1.465 -1.89,0.95 l -28.37,-18.633 c -0.39,-0.254 -0.6,-0.715 -0.54,-1.184 0.16,-1.25 0.33,-2.5 0.51,-3.738 0.13,-0.891 1.14,-1.34 1.89,-0.852 l 28.1,18.477 c 0.38,0.234 0.58,0.664 0.55,1.105"/>
            <path d="m 1563.34,254.645 c -0.34,1.308 -0.66,2.617 -0.99,3.933 -0.22,0.949 -1.42,1.262 -2.09,0.527 l -23.07,-25.41 c -0.3,-0.332 -0.4,-0.8 -0.26,-1.218 0.42,-1.223 0.85,-2.442 1.28,-3.664 0.32,-0.86 1.45,-1.083 2.06,-0.399 l 22.8,25.098 c 0.28,0.301 0.38,0.73 0.27,1.133"/>
            <path d="m 1575.14,216.703 -16.27,-30.965 c -0.21,-0.371 -0.2,-0.82 0.02,-1.183 0.67,-1.153 1.36,-2.313 2.05,-3.457 0.49,-0.809 1.68,-0.77 2.13,0.07 l 16.09,30.633 c 0.19,0.351 0.19,0.762 0.01,1.113 -0.62,1.25 -1.25,2.5 -1.85,3.762 -0.44,0.898 -1.71,0.906 -2.18,0.027"/>
            <path d="m 1598.03,181.898 c -0.61,0.84 -1.93,0.579 -2.17,-0.429 l -8.71,-35.946 c -0.1,-0.39 0,-0.793 0.25,-1.093 0.91,-1.059 1.83,-2.102 2.75,-3.137 0.65,-0.742 1.87,-0.438 2.1,0.52 l 8.61,35.535 c 0.09,0.351 0.01,0.73 -0.2,1.015 -0.89,1.172 -1.77,2.356 -2.63,3.535"/>
        </g>
    </g>
</svg>
