<svg xmlns="http://www.w3.org/2000/svg" viewBox="0 0 580 217.5" height="217.5" width="580">
  <path d="M161.21 75L127.5 63.75V15l33.75 10-.04 50M170 25l33.75-10-.117 48.716L170 75V25m26.875-15.28L165.42 0l-31.045 9.72 31.09 8.335 31.41-8.334M246.21 75L212.5 63.75V15l33.75 10-.04 50M255 25l33.75-10-.117 48.716L255 75V25m26.875-15.28L250.42 0l-31.045 9.72 31.09 8.335 31.41-8.334M33.75 96.25L0 86.25V135l33.71 11.25.04-50m8.75 0l33.75-10-.117 48.717L42.5 146.25v-50m26.875-15.28L37.92 71.25 6.875 80.97l31.09 8.335 31.41-8.334m49.335 65.28L85 135V86.25l33.75 10-.04 50m8.79-50l33.75-10-.117 48.717L127.5 146.25v-50m26.875-15.28l-31.455-9.72-31.045 9.72 31.09 8.335 31.41-8.334M76.21 217.5L42.5 206.25V157.5l33.75 10-.04 50m8.79-50l33.75-10-.117 48.717L85 217.5v-50m26.875-15.28L80.42 142.5l-31.045 9.72 31.09 8.335 31.41-8.334" fill="#f68d11"/>
  <path d="M225.488 174.406l-2.48.01c-.91 0-2.07.614-2.355 1.61l-7.524 26.507-7.45-26.45c-.23-.828-1.01-1.668-2.07-1.668h-2.94c-1.06 0-1.83.85-2.05 1.686l-6.92 26.18-7.16-26.25c-.28-.96-1.47-1.6-2.41-1.6h-3.57c-.76 0-1.47.33-1.85.86-.26.36-.33.77-.21 1.12l11.05 39.12c.24.82.96 1.65 2 1.65h3.55c.96 0 1.8-.7 2.04-1.69l6.8-26.06 7.4 26.09c.22.8.94 1.66 1.98 1.66h3.49c.97 0 1.79-.67 2.03-1.66l10.64-39.09c.12-.38.05-.8-.2-1.15-.38-.52-1.08-.84-1.83-.84m30.68 16.61H237.4c.43-5.26 3.85-10.72 9.635-10.93 6.16.2 8.973 5.53 9.11 10.93zM247 174.16c-12.66 0-18.43 11.2-18.43 21.6 0 12.98 7.17 21.37 18.267 21.37 7.945 0 14-4.01 16.61-11.02.14-.4.1-.83-.12-1.22-.265-.478-.77-.83-1.37-.967l-3.513-.67c-.943-.15-2.024.41-2.38 1.22-1.708 3.897-4.82 6.107-8.727 6.22-3.76-.114-7.21-2.347-8.79-5.683-1.29-2.724-1.48-5.41-1.5-8.14l25.45-.01c.538 0 1.09-.235 1.48-.63.33-.33.507-.735.5-1.14-.06-10.115-4.68-20.92-17.47-20.92m48.78 21.66c0 2.395-.43 14.354-8.93 14.66-2.843-.11-5.72-1.78-7.33-4.26-1.182-1.87-1.873-4.46-2.05-7.66v-7.04c.14-5.39 3.934-11.304 9.36-11.533 8.525.34 8.957 13.24 8.957 15.83zm-7.593-22.02h-.675c-4.21 0-7.51 1.745-10.05 5.324l-.01-16.493c0-.92-.96-1.77-2.02-1.77h-3.66c-.96 0-2.03.76-2.03 1.77v51.48c0 .94.96 1.79 2.01 1.79h1.07c1.014 0 1.74-.82 1.98-1.58l1.145-3.63c2.66 3.78 6.67 6 10.96 6h.65c11.3 0 16.35-10.98 16.35-21.87 0-5.42-1.33-10.6-3.66-14.21-2.69-4.19-7.325-6.79-12.09-6.79M344 194.69c-2.38-1.71-5.25-2.28-8.11-2.85l-5.5-1.02c-3.945-.65-6.227-1.702-6.227-5.182 0-3.68 3.81-5.087 7.04-5.175 3.95.1 6.92 1.86 8.36 4.96.34.73 1.1 1.22 1.89 1.22.133 0 .27-.013.4-.04l3.43-.76c.56-.124 1.083-.507 1.363-1.007.222-.393.27-.825.14-1.21-2.1-6.11-7.43-9.343-15.49-9.343-7.28.012-15.07 3.25-15.07 12.3 0 6.18 3.883 10.11 11.553 11.67l6.15 1.17c3.38.65 6.83 1.8 6.83 5.425 0 5.37-6.247 5.91-8.136 5.95-4.24-.09-9.04-1.98-10.2-5.98-.23-.88-1.34-1.5-2.31-1.3l-3.59.74c-.54.118-1.03.47-1.32.94-.24.398-.31.84-.2 1.24 1.85 6.646 8.26 10.65 17.15 10.718l.2.006c7.93 0 16.412-3.4 16.412-12.94 0-3.89-1.746-7.36-4.79-9.53m36.28-3.57h-18.75c.43-5.268 3.844-10.726 9.63-10.926 6.16.2 8.98 5.53 9.12 10.93zm-9.13-16.89c-12.67 0-18.436 11.193-18.436 21.594 0 12.98 7.17 21.37 18.263 21.37 7.94 0 13.993-4.01 16.61-11.02.14-.4.095-.84-.125-1.23-.265-.474-.77-.83-1.37-.96l-3.52-.67c-.82-.136-1.97.29-2.375 1.22-1.71 3.89-4.825 6.1-8.73 6.22-3.76-.12-7.21-2.355-8.783-5.69-1.29-2.72-1.48-5.407-1.5-8.145l25.45-.01c.53 0 1.08-.23 1.47-.62.33-.33.51-.73.5-1.14-.06-10.113-4.67-20.92-17.46-20.92m41.5.478c-.496-.06-.97-.082-1.437-.082-4.27 0-7.74 2.33-10.143 6.76l.01-3.88c0-.94-.94-1.763-2.01-1.763h-3.18c-1.04 0-1.96.83-1.97 1.78v37.74c0 .95.92 1.78 1.97 1.78h3.71c.96 0 2.05-.76 2.06-1.78V196.2c0-3.134.293-5.5 1.79-8.294 2.143-3.982 5.133-5.936 9.143-5.97 1.01-.005 1.89-.882 1.89-1.876v-3.53c0-.923-.8-1.734-1.82-1.845m38.94-.74h-2.93c-.92 0-2.095.66-2.38 1.63l-9.49 29.832-9.7-29.81c-.28-.99-1.46-1.658-2.39-1.658l-4.18-.01c-.77 0-1.51.34-1.89.87-.25.35-.32.76-.2 1.13l13.27 39.36c.26.78.93 1.69 2 1.69h5.06c.93 0 1.69-.63 2.04-1.69l12.87-39.34c.13-.38.06-.78-.19-1.14-.38-.53-1.12-.88-1.89-.88m9.62-15.13c-2.69 0-4.89 2.2-4.89 4.9s2.2 4.9 4.89 4.9c2.7 0 4.9-2.2 4.9-4.91s-2.193-4.91-4.89-4.91m2.015 14.89h-4.02c-1.097 0-2.09.88-2.09 1.85l-.02 40.07c0 .482.25.963.68 1.32.394.326.9.513 1.41.513l4.044.004h.01c1.11-.01 2.08-.87 2.08-1.84v-40.1c0-.985-.98-1.848-2.1-1.848m37.53 27.172l-3.353.01c-.93 0-1.72.56-2.07 1.54-1.22 5.28-4 8.02-8.2 8.14-8.19-.25-8.83-11.67-8.83-15.16 0-6.97 2.412-14.49 9.15-14.69 4.07.12 7.03 3.04 7.914 7.79.17.97.914 1.7 1.93 1.83l3.59.03c1.07-.12 1.914-.93 1.907-1.94-1.27-8.59-7.23-14.14-15.18-14.14l-.277.01-.31-.01c-11.57 0-16.744 10.8-16.744 21.5 0 9.81 4.37 21.26 16.68 21.26h.59c7.76 0 13.61-5.43 15.29-14.25.04-.42-.11-.84-.405-1.18-.383-.44-1-.72-1.67-.76m33.12-9.77h-18.76c.43-5.27 3.85-10.726 9.64-10.926 6.16.194 8.98 5.524 9.12 10.92zm-9.13-16.89c-12.662 0-18.43 11.193-18.43 21.594 0 12.98 7.17 21.365 18.27 21.365 7.94 0 13.99-4.01 16.61-11.02.138-.41.09-.84-.13-1.23-.27-.48-.76-.83-1.363-.96l-3.513-.68c-.83-.133-1.97.293-2.38 1.224-1.71 3.89-4.83 6.1-8.73 6.22-3.76-.12-7.21-2.35-8.78-5.69-1.29-2.72-1.48-5.41-1.5-8.14h25.45c.54 0 1.09-.24 1.48-.64.33-.33.5-.74.496-1.14-.06-10.11-4.68-20.914-17.47-20.914m49.356 20.46c-2.384-1.71-5.25-2.28-8.11-2.85l-5.5-1.02c-3.94-.64-6.22-1.7-6.22-5.18 0-4.75 5.89-5.15 7.04-5.18 3.95.1 6.92 1.86 8.36 4.96.35.73 1.11 1.22 1.9 1.22.135 0 .27-.013.404-.04l3.43-.76c.56-.124 1.09-.51 1.37-1.01.22-.39.27-.824.14-1.21-2.1-6.114-7.43-9.345-15.49-9.345-7.28.01-15.065 3.25-15.065 12.3 0 6.18 3.89 10.11 11.56 11.67l6.155 1.17c3.372.643 6.83 1.793 6.83 5.42 0 5.37-6.25 5.916-8.14 5.955-3.93-.08-8.96-1.703-10.2-5.98-.23-.88-1.337-1.503-2.32-1.3l-3.58.74c-.55.113-1.04.47-1.33.94-.24.4-.31.837-.2 1.24 1.842 6.64 8.252 10.645 17.14 10.71l.2.004c7.93 0 16.42-3.4 16.42-12.937 0-3.89-1.75-7.36-4.79-9.52" fill="#100f0d"/>
  <path d="M410.894 96.502v-9.1c.005-1.38 1.052-2.306 2.31-2.304l40.77-.002c1.3 0 2.35.95 2.35 2.296v7.804c-.013 1.306-1.116 3.014-3.07 5.727l-21.118 30.15c7.835-.185 16.13.988 23.25 4.99 1.61.903 2.036 2.242 2.168 3.55v9.71c0 1.338-1.465 2.886-3.003 2.08-12.54-6.575-29.2-7.293-43.08.076-1.41.75-2.9-.77-2.9-2.11v-9.23c0-1.47.03-4 1.52-6.26l24.47-35.1-21.3-.01c-1.3 0-2.34-.93-2.36-2.29M262.18 153.3h-12.4c-1.18-.08-2.12-.967-2.21-2.1l.008-63.66c0-1.274 1.073-2.29 2.393-2.29l11.55-.01c1.21.07 2.18.98 2.26 2.14v8.32h.23c3.01-8.04 8.68-11.788 16.32-11.788 7.76 0 12.62 3.74 16.1 11.78 3.02-8.04 9.84-11.786 17.14-11.786 5.22 0 10.88 2.14 14.36 6.96 3.94 5.36 3.13 13.125 3.13 19.96L331.03 151c0 1.27-1.07 2.294-2.39 2.294h-12.39c-1.25-.076-2.23-1.07-2.23-2.286v-33.75c0-2.68.23-9.38-.35-11.92-.93-4.29-3.71-5.49-7.294-5.49-3.01 0-6.14 2.01-7.412 5.22-1.274 3.22-1.156 8.575-1.156 12.19v33.744c0 1.27-1.07 2.294-2.392 2.294h-12.39c-1.24-.08-2.225-1.074-2.225-2.29l-.01-33.75c0-7.103 1.16-17.547-7.63-17.547-8.91 0-8.56 10.18-8.56 17.54l-.01 33.74c.01 1.27-1.07 2.29-2.39 2.29M491.55 96.9c-9.15 0-9.726 12.457-9.726 20.23 0 7.768-.117 24.377 9.613 24.377 9.61 0 10.07-13.394 10.07-21.564 0-5.36-.23-11.79-1.85-16.88-1.4-4.42-4.17-6.164-8.11-6.164zm-.11-12.99c18.406 0 28.365 15.806 28.365 35.89 0 19.43-11.003 34.837-28.365 34.837-18.07 0-27.91-15.81-27.91-35.5 0-19.824 9.95-35.224 27.91-35.224m52.24 69.386H531.3c-1.244-.08-2.225-1.07-2.225-2.29l-.018-63.69c.103-1.16 1.133-2.08 2.378-2.08l11.51-.01c1.084.06 1.974.79 2.2 1.78v9.74h.236c3.47-8.71 8.34-12.86 16.9-12.86 5.56 0 11.01 2 14.48 7.49C580 96.47 580 105.04 580 111.2v40.06c-.14 1.13-1.14 2.005-2.37 2.005h-12.44c-1.15-.077-2.07-.92-2.21-2.01V116.7c0-6.965.82-17.15-7.76-17.15-3.01 0-5.78 2.015-7.17 5.09-1.74 3.885-1.97 7.77-1.97 12.06V151c-.02 1.27-1.09 2.3-2.41 2.3m-152.76-.16c-.82.735-2 .784-2.93.29-4.12-3.42-4.86-5.01-7.11-8.27-6.81 6.94-11.63 9.02-20.44 9.02-10.44 0-18.56-6.448-18.56-19.335 0-10.064 5.45-16.91 13.23-20.27 6.73-2.954 16.13-3.49 23.33-4.3v-1.61c0-2.95.23-6.443-1.51-8.99-1.502-2.28-4.403-3.22-6.96-3.22-4.732 0-8.935 2.425-9.97 7.45-.21 1.115-1.03 2.223-2.154 2.28l-12.02-1.3c-1.02-.23-2.145-1.04-1.85-2.59 2.76-14.59 15.93-19 27.735-19 6.03 0 13.93 1.61 18.68 6.176 6.03 5.65 5.45 13.16 5.45 21.35v19.33c0 5.82 2.42 8.37 4.69 11.5.79 1.13.97 2.47-.04 3.3-2.53 2.12-7.03 6.03-9.5 8.24l-.03-.03zm-12.51-30.23c0 4.834.12 8.865-2.32 13.16-1.97 3.49-5.11 5.64-8.59 5.64-4.75 0-7.53-3.626-7.53-9 0-10.56 9.48-12.483 18.45-12.483v2.684M228.3 153.16c-.82.733-2.006.782-2.934.29-4.118-3.426-4.856-5.013-7.11-8.27-6.805 6.935-11.628 9.015-20.45 9.015-10.442 0-18.565-6.445-18.565-19.332 0-10.065 5.46-16.912 13.23-20.27 6.74-2.955 16.13-3.493 23.33-4.3v-1.61c0-2.95.24-6.444-1.51-8.993-1.5-2.282-4.41-3.22-6.96-3.22-4.73 0-8.94 2.426-9.97 7.45-.21 1.116-1.03 2.224-2.15 2.278l-12.02-1.302c-1.01-.23-2.14-1.04-1.85-2.59 2.76-14.586 15.93-18.996 27.73-18.996 6.04 0 13.93 1.61 18.69 6.176 6.04 5.643 5.46 13.16 5.46 21.35v19.323c0 5.81 2.42 8.36 4.68 11.49.79 1.13.97 2.47-.04 3.29-2.53 2.12-7.03 6.03-9.51 8.24zm-12.5-30.25c0 4.835.114 8.866-2.32 13.16-1.97 3.492-5.107 5.638-8.584 5.638-4.762 0-7.545-3.623-7.545-8.996 0-10.56 9.48-12.484 18.45-12.484v2.683" fill="#100f0d" fill-rule="evenodd"/>
</svg>
