<svg xmlns="http://www.w3.org/2000/svg" viewBox="0 0 200.10001 67.699995" height="67.7" width="200.1">
  <path d="M76.1 37.3c-.4-2.6-2.9-4.6-5.8-4.6-5.2 0-7.2 4.4-7.2 9.1 0 4.4 2 8.9 7.2 8.9 3.6 0 5.6-2.4 6-5.9H82c-.6 6.6-5.1 10.8-11.6 10.8-8.2 0-13-6.1-13-13.7 0-7.9 4.8-14 13-14 5.8 0 10.7 3.4 11.4 9.5h-5.7zm7.9-1.6h5v3.6h.1c1-2.4 3.6-4.1 6.1-4.1.4 0 .8.1 1.1.2v4.9c-.5-.1-1.3-.2-1.9-.2-3.9 0-5.2 2.8-5.2 6.1v8.6H84zm22.4-.5c6 0 9.9 4 9.9 10.1s-3.9 10.1-9.9 10.1-9.9-4-9.9-10.1 3.9-10.1 9.9-10.1zm0 16.2c3.6 0 4.7-3.1 4.7-6.1 0-3.1-1.1-6.1-4.7-6.1s-4.6 3.1-4.6 6.1c0 3.1 1 6.1 4.6 6.1zm16-2.7c0 2.3 2 3.2 4 3.2 1.5 0 3.4-.6 3.4-2.4 0-1.6-2.2-2.1-6-3-3-.7-6.1-1.7-6.1-5.1 0-4.9 4.2-6.1 8.3-6.1 4.2 0 8 1.4 8.4 6.1h-5c-.1-2-1.7-2.6-3.6-2.6-1.2 0-2.9.2-2.9 1.8 0 1.9 3 2.1 6 2.9 3.1.7 6.1 1.8 6.1 5.4 0 5-4.4 6.7-8.7 6.7-4.4 0-8.8-1.7-9-6.7h5.1zm19.2 0c0 2.3 2 3.2 4 3.2 1.5 0 3.4-.6 3.4-2.4 0-1.6-2.2-2.1-6-3-3-.7-6.1-1.7-6.1-5.1 0-4.9 4.2-6.1 8.3-6.1 4.2 0 8 1.4 8.4 6.1h-5c-.1-2-1.7-2.6-3.6-2.6-1.2 0-2.9.2-2.9 1.8 0 1.9 3 2.1 6 2.9 3.1.7 6.1 1.8 6.1 5.4 0 5-4.4 6.7-8.7 6.7-4.4 0-8.8-1.7-9-6.7h5.1zm14.5-13h5v3.6h.1c1-2.4 3.6-4.1 6.1-4.1.4 0 .8.1 1.1.2v4.9c-.5-.1-1.3-.2-1.9-.2-3.9 0-5.2 2.8-5.2 6.1v8.6H156V35.7zm18.1 10.9c.1 3.3 1.8 4.9 4.7 4.9 2.1 0 3.8-1.3 4.1-2.5h4.6c-1.5 4.5-4.6 6.4-9 6.4-6 0-9.8-4.1-9.8-10.1 0-5.7 4-10.1 9.8-10.1 6.5 0 9.7 5.5 9.3 11.4zm8.5-3.3c-.5-2.7-1.6-4.1-4.2-4.1-3.3 0-4.3 2.6-4.4 4.1zm8.2-4h-3.1v-3.5h3.1v-1.5c0-3.4 2.1-5.8 6.4-5.8.9 0 1.9.1 2.8.1v3.9c-.6-.1-1.3-.1-1.9-.1-1.4 0-2 .6-2 2.2v1.1h3.6v3.5h-3.6v15.6h-5.3z" fill="#4f5858"/>
  <path d="M0 67.7V47.2l16.8-5.5 29.8 10.2z" fill="#3eb1c8"/>
  <path d="M29.8 25.9L0 36.2l16.8 5.5 29.8-10.2z" fill="#d8d2c4"/>
  <path d="M16.8 41.7l29.8-10.2v20.4z" fill="#4f5858"/>
  <path d="M46.6 0v20.4l-16.8 5.5L0 15.7z" fill="#ffc72c"/>
  <path d="M29.8 25.9L0 36.2V15.7z" fill="#ef3340"/>
</svg>
