<svg xmlns="http://www.w3.org/2000/svg" viewBox="0 0 879.82666 177.98666" height="177.987" width="879.827">
  <path d="M587.88 95.292s2.308-1.557 3.64-3.057c.5-.272 1.64.46 2.52.4.877-.057 2.96-.845 7.135-.468 2-1.18.886-.254 4.49-2.437 3.604-2.182 4.936-1.442 7.407-2.213 2.47-.77 7.15-3 7.15-3s4.523-.975 5.47-2.592c.95-1.615 4.473-10.916 6.365-14.148.582-2.12.396-4.588.396-4.588l-3.552-.155s-3.943-.074-4.557-3.854c-1.055-.385-1.92-1.788-1.95-3.35-.032-1.56-.014-4.142-.014-4.142s.164-.43 1.255-.87c1.09-.44 3.64-1.89 3.897-2.22.084-.824-.11-4.195 1.59-6.363 1.705-2.168 4.12-5.036 6.722-4.387 2.604.65 2.69.945 5.54.436 2.847-.51 5.207 1.25 5.207 1.25s1.854-.018 4.067 2.857c1.312.106 2.103-.15 2.55.745.45.897 1.46 2.256 1.406 3.52.55-1.388 8.063-11.662 13.92-14.136 5.86-2.475 15.287-1.87 15.287-1.87s9.79-7.763 13.81-17.238C701.65 3.94 694.683.457 694.683.457s1.424-1.342 3.19.587c1.77 1.93 5.953 6.595 4.13 12.657-1.825 6.06-11.543 18.895-11.543 18.895s-.673 2.018.14 3.516c.812 1.498 3.377 7.554 2.99 11.923-.383 4.37-2.942 11.666-2.942 11.666s-.788 3.15.127 6.048c.913 2.9-.448 4.333-.942 6.652-.49 2.318-.384 4.4 1.215 7.98.884 2.118.503 7.884.503 7.884s1.455 3.897 2.247 5.102c.794 1.203-1.237 1.57-2.408 1.585-1.17.016-5.45-.172-6.935-1.925-1.483-1.755 1.257-3.456 1.257-3.456s1.957-1.734 1.05-6.257c-.443-1.774-.14-2.735-.14-2.735s.905-4.38-3.79-17.515c-.52-1.45-1.764-1.246-1.845-5.343-.083-4.097-1.44.263-1.675 1.163-.235.898-3.54 9.657-8.143 13.876.427.667.49.735 1.167 1.544.682.81 1.163 1.674.066 2.992-1.096 1.317-2.896 2.343-3.806 3.863-.912 1.518-3.874 2.43-4.924 2.644-1.05.213-1.84 1.935-2.042 2.12-.202.187-1.315.4-1.315.4s-.412 7.972-.254 8.825c.16.85-.716 1.528-2.42 1.906-1.707.382-8.364 1.067-9.87 4.316-.93 1.908-.963 1.19-1.286 2.674-.324 1.48-1.516 2.013-3.083 2.14-1.564.127-7.005-.24-7.716-1.83-.71-1.59.864-1.913.953-2.493.09-.58 1.006-2.23 3.648-3.222 2.643-.988 3.744-3.928 3.744-3.928s.962-1.193 3.246-1.42c2.283-.224 4.895-1.996 4.492-3.183-.403-1.187-3.356-6.515-3.356-6.515s-.584-1.52-3.23-.466c-2.645 1.055-2.48.283-4.143-.31-1.665-.592-3.52-1.257-5.304.875-1.78 2.13-4.988 5.63-7.707 6.877-2.718 1.246-7.25.855-13.14 3.327-3.598.557-7.535 1.428-7.535 1.428s-2.687 2.027-3.03 2.467c-.345.44-2.47.022-2.47.022s-4.112 1.9-6.323 1.935c-2.21.034-5.64-1.868-6.82-3.026-1.185-1.157-.833-1.434-.833-1.434" fill="#231f20"/>
  <path d="M61.09 155.072l-1.37 21.19H0v-3.598c1.014-.068 2.365-.212 4.055-.432 1.69-.22 2.79-.448 3.296-.683 1.082-.51 1.834-1.168 2.257-1.98.422-.81.633-1.84.633-3.09v-51.71c0-1.117-.185-2.105-.557-2.967-.373-.862-1.15-1.563-2.332-2.104-.912-.44-2.137-.83-3.674-1.168-1.538-.337-2.764-.54-3.676-.607v-3.6h55.665v17.338h-3.803c-.677-2.568-2.138-5.298-4.385-8.187-2.248-2.89-4.386-4.47-6.413-4.74-1.048-.135-2.3-.236-3.75-.305-1.455-.066-3.112-.1-4.97-.1H21.04v28.593h8.11c2.603 0 4.504-.246 5.704-.736 1.2-.49 2.255-1.308 3.168-2.46.743-.98 1.376-2.288 1.9-3.928.525-1.64.87-3.185 1.04-4.64h3.802v28.187h-3.8c-.137-1.622-.5-3.336-1.092-5.144-.59-1.808-1.208-3.12-1.85-3.928-1.047-1.32-2.24-2.18-3.574-2.587-1.336-.407-3.1-.61-5.297-.61h-8.11v21.563c0 2.16.15 3.864.455 5.113.304 1.25.896 2.194 1.774 2.834.878.64 2.078 1.055 3.6 1.24 1.52.186 3.682.278 6.487.278h4.412c1.824 0 3.36-.066 4.612-.2 1.284-.137 2.61-.382 3.98-.737s2.34-.836 2.915-1.444c1.554-1.623 3.184-4.082 4.892-7.38 1.705-3.292 2.796-5.717 3.268-7.272h3.65M103.52 166.58v-29.252c-.27-.88-.708-1.825-1.315-2.84-.607-1.013-1.365-1.942-2.276-2.787-.98-.844-2.126-1.546-3.443-2.103-1.315-.558-2.85-.836-4.603-.836-2.025 0-3.89.525-5.592 1.573-1.703 1.046-3.212 2.55-4.527 4.51-1.25 1.894-2.235 4.302-2.96 7.225-.726 2.925-1.088 6.16-1.088 9.71 0 2.837.27 5.415.81 7.73.54 2.316 1.45 4.47 2.73 6.463 1.18 1.894 2.69 3.417 4.53 4.565 1.838 1.147 4.022 1.724 6.552 1.724 2.697 0 4.932-.593 6.703-1.776 1.772-1.183 3.264-2.484 4.478-3.904zm18.353 8.77l-17.488 1.115-.763-.71v-4.663l-.404-.1c-1.755 1.96-3.925 3.565-6.505 4.813-2.583 1.253-5.24 1.876-7.974 1.876-2.836 0-5.58-.63-8.23-1.9-2.648-1.267-4.952-3.05-6.908-5.346-1.992-2.333-3.57-5.14-4.734-8.418-1.165-3.277-1.747-6.893-1.747-10.848 0-3.615.626-7.046 1.874-10.29 1.248-3.246 2.97-6.085 5.164-8.518 2.06-2.263 4.582-4.073 7.57-5.424 2.985-1.352 6.03-2.03 9.137-2.03 2.328 0 4.614.298 6.86.89 2.243.59 4.176 1.34 5.796 2.255v-17.423c0-1.42-.236-2.716-.71-3.884-.473-1.168-1.13-2.057-1.976-2.667-.946-.645-2.223-1.108-3.827-1.397-1.606-.29-3.338-.5-5.197-.636v-3.142l20.48-1.116.762.76v67.38c0 1.182.228 2.187.684 3.014.456.828 1.123 1.528 2.003 2.1.64.407 1.57.66 2.787.76 1.216.104 2.332.17 3.346.203v3.348M144.636 105.947c0 1.927-.635 3.608-1.9 5.044-1.27 1.44-2.832 2.157-4.69 2.157-1.725 0-3.22-.685-4.487-2.055-1.27-1.367-1.902-2.93-1.902-4.688 0-1.858.633-3.48 1.9-4.867 1.27-1.385 2.763-2.08 4.487-2.08 1.927 0 3.507.652 4.74 1.953 1.234 1.302 1.85 2.815 1.85 4.537zm6.336 70.316h-24.13v-3.347c.777-.067 1.58-.135 2.407-.2.827-.07 1.546-.204 2.154-.407.947-.305 1.648-.835 2.104-1.595.456-.76.684-1.747.684-2.963v-30.837c0-1.08-.245-2.068-.735-2.963-.49-.894-1.175-1.646-2.053-2.252-.642-.405-1.572-.75-2.79-1.038-1.215-.288-2.33-.465-3.345-.533v-3.347l17.642-1.115.71.71v40.76c0 1.184.226 2.163.68 2.94.453.778 1.166 1.35 2.14 1.723.737.305 1.46.552 2.163.736.706.188 1.495.313 2.367.38v3.347M188.03 174.082c-2.197.914-4.275 1.683-6.234 2.31-1.96.62-4.36.936-7.2.936-4.19 0-7.14-1.056-8.845-3.168-1.706-2.112-2.56-5.096-2.56-8.948v-33.867h-9.023v-4.867h9.226v-15.562h9.227v15.562h14.347v4.867H172.72v27.935c0 2.096.077 3.844.23 5.247.15 1.403.514 2.63 1.09 3.676.54.978 1.35 1.722 2.432 2.23 1.083.507 2.536.76 4.36.76.844 0 2.087-.076 3.727-.23 1.637-.15 2.795-.345 3.47-.58v3.7M231.275 150.864c0-2.534-.254-5.212-.762-8.035-.508-2.824-1.27-5.215-2.286-7.174-1.083-2.096-2.506-3.778-4.266-5.046-1.76-1.267-3.91-1.9-6.45-1.9-2.607 0-4.833.642-6.677 1.926-1.846 1.286-3.344 3.04-4.496 5.272-1.082 2.063-1.845 4.41-2.285 7.047-.44 2.637-.66 5.19-.66 7.657 0 3.243.263 6.243.788 8.997.524 2.754 1.363 5.214 2.515 7.375 1.15 2.163 2.597 3.862 4.34 5.095 1.745 1.235 3.904 1.85 6.476 1.85 4.234 0 7.586-2.043 10.057-6.133 2.472-4.09 3.708-9.734 3.708-16.933zm10.494-.1c0 3.515-.56 6.97-1.675 10.365-1.118 3.397-2.707 6.28-4.77 8.643-2.336 2.706-5.042 4.716-8.12 6.032-3.08 1.32-6.532 1.978-10.354 1.978-3.18 0-6.207-.6-9.083-1.8-2.876-1.2-5.43-2.947-7.663-5.247-2.2-2.263-3.95-5.025-5.252-8.288-1.303-3.26-1.955-6.92-1.955-10.976 0-7.807 2.276-14.195 6.827-19.163 4.55-4.97 10.513-7.453 17.888-7.453 7.004 0 12.78 2.357 17.332 7.072 4.55 4.714 6.825 10.993 6.825 18.833M287.244 132.714c0 1.726-.423 3.255-1.268 4.587-.845 1.34-2.147 2.005-3.904 2.005-1.892 0-3.337-.49-4.333-1.47-1-.98-1.497-2.06-1.497-3.244 0-.742.058-1.418.177-2.027.117-.608.228-1.218.33-1.824-1.59 0-3.447.64-5.578 1.925-2.128 1.283-3.937 3.11-5.424 5.475v29.097c0 1.186.228 2.15.685 2.89.456.746 1.174 1.302 2.154 1.674.845.34 1.934.592 3.27.76 1.335.17 2.492.29 3.474.356v3.347H248.97v-3.347c.777-.067 1.58-.135 2.408-.2.828-.07 1.547-.204 2.155-.407.946-.305 1.65-.835 2.105-1.595.456-.76.684-1.747.684-2.963v-30.837c0-1.046-.247-2.076-.736-3.088-.49-1.014-1.175-1.824-2.053-2.432-.64-.405-1.402-.7-2.28-.885-.88-.186-1.826-.313-2.84-.38v-3.347l16.63-1.115.708.71v7.046H266c2.097-2.736 4.43-4.817 7-6.236 2.567-1.42 4.916-2.127 7.045-2.127 2.128 0 3.86.692 5.196 2.077 1.336 1.387 2.004 3.247 2.004 5.577M309.397 105.947c0 1.927-.633 3.608-1.9 5.044-1.268 1.44-2.832 2.157-4.69 2.157-1.723 0-3.22-.685-4.487-2.055-1.267-1.367-1.9-2.93-1.9-4.688 0-1.858.633-3.48 1.9-4.867 1.268-1.385 2.764-2.08 4.487-2.08 1.926 0 3.506.652 4.74 1.953 1.233 1.302 1.85 2.815 1.85 4.537zm6.338 70.316h-24.13v-3.347c.775-.067 1.578-.135 2.406-.2.83-.07 1.547-.204 2.157-.407.945-.305 1.646-.835 2.102-1.595.455-.76.685-1.747.685-2.963v-30.837c0-1.08-.246-2.068-.735-2.963-.492-.894-1.175-1.646-2.053-2.252-.643-.405-1.572-.75-2.79-1.038-1.216-.288-2.332-.465-3.346-.533v-3.347l17.643-1.115.71.71v40.76c0 1.184.228 2.163.68 2.94.453.778 1.166 1.35 2.14 1.723.738.305 1.46.552 2.164.736.705.188 1.494.313 2.368.38v3.347M351.577 148.583c-2.873.846-5.392 1.677-7.554 2.49-2.163.814-4.175 1.828-6.032 3.047-1.69 1.153-3.025 2.516-4.005 4.092-.98 1.573-1.47 3.445-1.47 5.612 0 2.812.736 4.88 2.205 6.2 1.47 1.32 3.337 1.98 5.603 1.98 2.4 0 4.51-.583 6.337-1.753 1.824-1.168 3.363-2.546 4.613-4.14zm17.692 26.768c-1.59.575-2.983 1.04-4.183 1.396-1.2.354-2.56.53-4.082.53-2.636 0-4.738-.616-6.31-1.85-1.572-1.233-2.58-3.034-3.016-5.398h-.305c-2.2 2.432-4.555 4.292-7.072 5.577-2.52 1.283-5.552 1.925-9.102 1.925-3.75 0-6.835-1.148-9.25-3.448-2.417-2.298-3.625-5.305-3.625-9.023 0-1.928.27-3.65.81-5.17.54-1.523 1.353-2.89 2.434-4.11.845-1.012 1.96-1.916 3.346-2.71 1.385-.794 2.687-1.43 3.904-1.902 1.52-.573 4.604-1.64 9.252-3.193 4.647-1.555 7.78-2.77 9.403-3.65v-5.02c0-.438-.094-1.283-.28-2.533-.184-1.252-.582-2.436-1.19-3.55-.676-1.25-1.63-2.34-2.865-3.27-1.233-.93-2.98-1.394-5.247-1.394-1.554 0-3 .26-4.334.785-1.336.525-2.275 1.074-2.815 1.647 0 .677.16 1.675.482 2.993.32 1.317.482 2.533.482 3.65 0 1.183-.534 2.264-1.598 3.246-1.064.977-2.544 1.467-4.436 1.467-1.69 0-2.932-.6-3.727-1.8-.794-1.2-1.19-2.543-1.19-4.03 0-1.554.548-3.042 1.647-4.462 1.097-1.42 2.525-2.686 4.284-3.802 1.52-.945 3.363-1.748 5.526-2.408 2.163-.658 4.276-.988 6.337-.988 2.84 0 5.314.194 7.427.584 2.112.39 4.03 1.225 5.753 2.51 1.724 1.25 3.034 2.95 3.93 5.095.894 2.146 1.342 4.908 1.342 8.29 0 4.833-.05 9.114-.15 12.85-.103 3.733-.154 7.816-.154 12.243 0 1.32.23 2.365.687 3.143.456.778 1.157 1.436 2.104 1.98.507.302 1.31.472 2.41.505 1.097.034 2.22.05 3.37.05v3.246M397.66 176.263h-24.384v-3.347c.776-.067 1.604-.143 2.483-.227.877-.085 1.604-.213 2.18-.382.944-.305 1.655-.836 2.128-1.597.473-.76.71-1.75.71-2.97v-57.935c0-1.217-.262-2.358-.786-3.422-.524-1.067-1.21-1.905-2.053-2.512-.61-.406-1.724-.777-3.347-1.115-1.622-.34-2.924-.542-3.904-.61v-3.243l18.807-1.116.71.76v68.59c0 1.186.22 2.156.66 2.917.438.76 1.148 1.34 2.13 1.748.742.34 1.476.592 2.203.76.727.17 1.547.29 2.46.356v3.347M480.85 163.84c1.894-3.072 3.27-6.555 4.133-10.443.862-3.885 1.293-8.228 1.293-13.026 0-4.934-.48-9.463-1.444-13.587-.964-4.122-2.376-7.636-4.233-10.544-1.86-2.874-4.193-5.113-6.997-6.718-2.807-1.605-6.016-2.408-9.634-2.408-4.057 0-7.503.928-10.342 2.788-2.84 1.86-5.155 4.343-6.947 7.45-1.687 2.977-2.948 6.46-3.776 10.446-.828 3.988-1.24 8.18-1.24 12.573 0 4.866.44 9.26 1.317 13.182.88 3.92 2.265 7.4 4.16 10.444 1.823 2.973 4.12 5.296 6.893 6.968 2.77 1.675 6.083 2.51 9.936 2.51 3.617 0 6.877-.844 9.783-2.534 2.907-1.69 5.274-4.056 7.098-7.1zm7.555-50.998c3.176 3.312 5.66 7.308 7.452 11.99 1.792 4.68 2.687 9.86 2.687 15.54 0 5.71-.913 10.9-2.737 15.562-1.824 4.665-4.36 8.635-7.604 11.913-3.144 3.245-6.795 5.746-10.95 7.504-4.157 1.758-8.586 2.637-13.284 2.637-5.002 0-9.625-.938-13.865-2.815-4.242-1.875-7.884-4.487-10.925-7.832-3.04-3.28-5.433-7.257-7.175-11.94-1.74-4.678-2.61-9.69-2.61-15.03 0-5.846.913-11.06 2.738-15.64 1.824-4.58 4.342-8.542 7.554-11.888 3.176-3.313 6.87-5.847 11.077-7.604 4.208-1.757 8.61-2.636 13.205-2.636 4.763 0 9.258.896 13.483 2.687 4.227 1.79 7.876 4.307 10.952 7.552M543.46 103.87c0 1.52-.404 2.805-1.216 3.85-.81 1.05-2.045 1.574-3.7 1.574-1.047 0-1.97-.22-2.765-.66-.793-.44-1.53-1.03-2.205-1.774-.676-.744-1.3-1.587-1.875-2.535-.576-.946-1.065-1.706-1.472-2.28-2.264.1-4.012 1.677-5.245 4.73-1.235 3.053-1.852 7.917-1.852 14.594v5.108h12.88v4.867h-12.88v35.892c0 1.186.23 2.15.686 2.89.457.746 1.175 1.302 2.155 1.674.81.305 1.893.552 3.246.736 1.35.188 2.516.313 3.5.38v3.347H506.35v-3.347c.776-.067 1.58-.135 2.408-.2.827-.07 1.545-.205 2.155-.408.945-.305 1.646-.836 2.102-1.596.458-.76.686-1.75.686-2.965v-36.402h-9.886v-4.867h9.886v-3.187c0-7.59 1.968-13.737 5.906-18.445 3.935-4.706 8.862-7.06 14.777-7.06 3.006 0 5.273.59 6.793 1.774 1.52 1.183 2.28 2.62 2.28 4.31" fill="#100f0d"/>
  <path d="M577.224 103.87c0 1.52-.405 2.805-1.216 3.85-.81 1.05-2.045 1.574-3.7 1.574-1.048 0-1.97-.22-2.764-.66-.795-.44-1.53-1.03-2.205-1.774-.676-.744-1.303-1.587-1.877-2.535-.575-.946-1.064-1.706-1.47-2.28-2.265.1-4.013 1.677-5.248 4.73-1.234 3.053-1.85 7.917-1.85 14.594v5.108h12.878v4.867h-12.878v35.892c0 1.186.228 2.15.685 2.89.457.746 1.175 1.302 2.153 1.674.812.305 1.892.552 3.247.736 1.352.188 2.517.313 3.497.38v3.347h-26.362v-3.347c.777-.067 1.58-.135 2.408-.2.828-.07 1.546-.205 2.154-.408.947-.305 1.648-.836 2.104-1.596.46-.76.685-1.75.685-2.965v-36.402h-9.885v-4.867h9.885v-3.187c0-7.59 1.97-13.737 5.907-18.445 3.937-4.706 8.863-7.06 14.78-7.06 3.007 0 5.27.59 6.792 1.774 1.52 1.183 2.28 2.62 2.28 4.31" fill="#100f0d"/>
  <path d="M598.01 176.263h-24.13v-3.347c.776-.067 1.577-.135 2.407-.2.828-.07 1.546-.204 2.154-.407.948-.305 1.65-.835 2.107-1.595.454-.76.682-1.747.682-2.963v-30.837c0-1.08-.245-2.068-.734-2.963-.492-.894-1.175-1.646-2.055-2.252-.64-.405-1.57-.75-2.785-1.038-1.218-.288-2.334-.465-3.347-.533v-3.347l17.64-1.115.712.71v40.76c0 1.184.227 2.163.68 2.94.452.778 1.164 1.35 2.14 1.723.737.305 1.46.552 2.163.736.705.188 1.494.313 2.366.38v3.347M627.312 177.58c-7.233 0-12.895-2.4-16.983-7.198-4.09-4.798-6.135-11.237-6.135-19.317 0-3.512.55-6.8 1.646-9.86 1.1-3.057 2.697-5.837 4.793-8.34 1.994-2.398 4.495-4.333 7.503-5.803 3.008-1.47 6.287-2.205 9.836-2.205 4.9 0 8.887 1.175 11.964 3.522 3.075 2.35 4.613 5.552 4.613 9.608 0 1.69-.406 3.184-1.217 4.485-.812 1.303-2.148 1.952-4.005 1.952-1.995 0-3.54-.505-4.64-1.516-1.097-1.01-1.647-2.138-1.647-3.386 0-1.518.204-3.075.61-4.675.406-1.6.64-2.77.71-3.513-.608-1.043-1.51-1.742-2.707-2.097-1.197-.353-2.486-.53-3.868-.53-1.618 0-3.16.345-4.626 1.038-1.47.694-2.892 1.97-4.273 3.828-1.248 1.69-2.26 3.973-3.035 6.846-.776 2.87-1.163 6.302-1.163 10.29 0 6.288 1.39 11.415 4.175 15.387 2.783 3.97 6.436 5.955 10.958 5.955 3.273 0 6.014-.8 8.226-2.395 2.21-1.597 4.258-3.992 6.15-7.187l3.24 2.13c-2.23 3.99-5.172 7.148-8.824 9.48-3.65 2.332-7.417 3.498-11.304 3.498M684.548 145.44c0-1.887-.16-3.91-.483-6.065-.32-2.155-.836-3.96-1.545-5.41-.78-1.548-1.843-2.812-3.193-3.79-1.354-.976-3.094-1.466-5.222-1.466-3.55 0-6.497 1.474-8.846 4.423-2.352 2.947-3.627 7.05-3.83 12.307zm11.204 19.06c-2.096 3.99-4.9 7.167-8.416 9.532-3.515 2.365-7.555 3.55-12.115 3.55-4.023 0-7.547-.71-10.57-2.13-3.026-1.42-5.518-3.347-7.478-5.78-1.96-2.435-3.42-5.272-4.385-8.516-.963-3.245-1.446-6.675-1.446-10.292 0-3.246.517-6.43 1.55-9.556 1.03-3.127 2.54-5.94 4.535-8.442 1.927-2.4 4.318-4.334 7.174-5.804 2.855-1.47 6.057-2.205 9.607-2.205 3.65 0 6.774.574 9.377 1.724 2.603 1.15 4.716 2.72 6.337 4.715 1.556 1.893 2.713 4.123 3.473 6.693.762 2.57 1.142 5.356 1.142 8.364v3.345H661.43c0 3.287.313 6.268.938 8.944.625 2.676 1.615 5.03 2.965 7.064 1.32 1.965 3.043 3.514 5.172 4.648 2.13 1.137 4.664 1.703 7.606 1.703 3.007 0 5.602-.704 7.78-2.115 2.18-1.41 4.286-3.95 6.313-7.618l3.55 2.18M785.635 154.868l-1.52 21.395h-56.222v-3.6c.81-.067 1.986-.184 3.523-.355 1.537-.168 2.61-.387 3.22-.66 1.013-.436 1.748-1.08 2.204-1.924.457-.845.684-1.927.684-3.245V114.97c0-1.15-.193-2.163-.58-3.043-.39-.88-1.16-1.588-2.308-2.13-.78-.405-1.868-.802-3.27-1.19-1.403-.39-2.56-.617-3.473-.685v-3.6h30.367v3.6c-.947.034-2.172.202-3.676.506-1.504.305-2.593.577-3.27.81-1.15.408-1.935 1.102-2.357 2.082-.422.98-.634 2.028-.634 3.142v48.313c0 2.23.11 3.963.33 5.198.22 1.233.736 2.188 1.546 2.862.776.61 1.933 1.007 3.47 1.192 1.54.186 3.694.278 6.466.278 1.25 0 2.552-.032 3.904-.1 1.35-.068 2.635-.205 3.85-.407 1.185-.2 2.275-.48 3.273-.836.997-.353 1.73-.8 2.204-1.342 1.386-1.555 2.998-3.91 4.84-7.07 1.845-3.16 3.12-5.723 3.83-7.684h3.598M820.11 174.082c-2.198.914-4.277 1.683-6.237 2.31-1.96.62-4.36.936-7.198.936-4.19 0-7.14-1.056-8.847-3.168-1.707-2.112-2.56-5.096-2.56-8.948v-33.867h-9.024v-4.867h9.227v-15.562h9.23v15.562h14.345v4.867H804.8v27.935c0 2.096.075 3.844.228 5.247.15 1.403.515 2.63 1.09 3.676.54.978 1.35 1.722 2.433 2.23 1.082.507 2.535.76 4.36.76.846 0 2.087-.076 3.727-.23 1.64-.15 2.796-.345 3.474-.58v3.7M861.477 166.58v-29.252c-.27-.88-.71-1.825-1.314-2.84-.608-1.013-1.368-1.942-2.278-2.787-.978-.844-2.125-1.546-3.44-2.103-1.317-.558-2.85-.836-4.605-.836-2.024 0-3.89.525-5.592 1.573-1.7 1.046-3.212 2.55-4.527 4.51-1.248 1.894-2.233 4.302-2.96 7.225-.724 2.925-1.088 6.16-1.088 9.71 0 2.837.27 5.415.81 7.73.54 2.316 1.45 4.47 2.734 6.463 1.177 1.894 2.688 3.417 4.527 4.565 1.838 1.147 4.022 1.724 6.552 1.724 2.7 0 4.933-.593 6.705-1.776 1.77-1.183 3.263-2.484 4.477-3.904zm18.352 8.77l-17.49 1.115-.76-.71v-4.663l-.407-.1c-1.754 1.96-3.922 3.565-6.506 4.813-2.582 1.253-5.24 1.876-7.972 1.876-2.835 0-5.578-.63-8.228-1.9-2.648-1.267-4.952-3.05-6.91-5.346-1.99-2.333-3.568-5.14-4.733-8.418-1.163-3.277-1.747-6.893-1.747-10.848 0-3.615.624-7.046 1.872-10.29 1.25-3.246 2.97-6.085 5.163-8.518 2.06-2.263 4.583-4.073 7.57-5.424 2.985-1.352 6.033-2.03 9.138-2.03 2.33 0 4.616.298 6.86.89 2.245.59 4.177 1.34 5.797 2.255v-17.423c0-1.42-.236-2.716-.71-3.884-.474-1.168-1.13-2.057-1.978-2.667-.947-.645-2.223-1.108-3.827-1.397-1.606-.29-3.34-.5-5.196-.636v-3.142l20.478-1.116.763.76v67.38c0 1.182.228 2.187.684 3.014.457.828 1.124 1.528 2.003 2.1.64.407 1.572.66 2.79.76 1.216.104 2.33.17 3.344.203v3.348" fill="#100f0d"/>
  <path d="M611.677 112.046c0 4.797-3.89 8.687-8.685 8.687-4.8 0-8.687-3.89-8.687-8.687 0-4.796 3.888-8.686 8.687-8.686 4.796 0 8.685 3.89 8.685 8.686" fill="#ed1d24"/>
</svg>
