<svg xmlns="http://www.w3.org/2000/svg" width="230.283" height="37.296" viewBox="0 0 230.283 37.296">
  <g fill="#B19230">
    <path d="M47.132 27.052c.168 2.45 2.338 3.812 4.425 3.783 1.78 0 2.978-.807 3.673-2.06h3.756c-.723 1.698-1.81 2.98-3.088 3.84-1.28.892-2.783 1.337-4.37 1.337-4.702 0-8.067-3.813-8.067-8.068 0-4.342 3.396-8.153 8.015-8.153 2.28 0 4.285.863 5.704 2.338 1.863 1.92 2.56 4.313 2.253 6.984h-12.3zm8.71-2.782c-.14-1.447-1.67-3.478-4.34-3.45-2.7 0-4.175 1.948-4.314 3.45h8.653zM73.684 25.884c0 2.197-.195 3.506-.64 4.535-.418.86-1.225 1.75-2.06 2.28-1.196.807-2.614 1.17-3.923 1.17-.89 0-5.48-.307-6.343-4.982-.083-.416-.11-.89-.14-1.362h4.425c0 .194.027.362.056.558.306 1.334 1.142 2.143 2.198 2.143 1.14-.028 1.752-.64 2.002-1.336.25-.64.28-1.362.28-2.003V12.89h4.145v12.994zM76.22 25.8c0-3.896 2.867-8.043 8.182-8.043s8.182 4.146 8.182 8.07c0 3.95-2.867 8.096-8.182 8.096s-8.18-4.146-8.18-8.096V25.8zm3.646.056c0 2.67 2.03 4.646 4.535 4.646s4.51-1.976 4.51-4.674c0-2.7-2.003-4.675-4.51-4.675-2.504 0-4.534 1.976-4.534 4.675v.028zM109.48 33.48h-3.423v-2.03c-.64 1.195-2.003 2.53-4.76 2.503-5.007-.027-5.953-3.84-5.953-6.51v-9.238h3.645v8.32c0 2.253.75 4.034 3.338 4.006 2.616 0 3.506-1.724 3.506-3.895v-8.43h3.646V33.48zM113.073 18.205h3.45v2.002c.668-1.363 1.92-2.447 4.23-2.476v3.674h-.17c-2.56 0-3.866 1.196-3.866 3.84v8.236h-3.645V18.205zM122.98 18.205h3.424c0 .668 0 1.307-.028 2.03.668-1.196 2.03-2.532 4.758-2.504 4.98.03 5.928 3.84 5.928 6.54v9.21h-3.645v-8.292c0-2.282-.752-4.035-3.313-4.035-2.588.028-3.48 1.753-3.48 3.896v8.43h-3.645V18.206zM156.378 33.48h-3.646v-2.198c-.974 1.78-3.005 2.67-5.146 2.67-4.897 0-7.766-3.81-7.766-8.124 0-4.814 3.48-8.097 7.766-8.097 2.78 0 4.48 1.477 5.146 2.7v-2.226h3.646V33.48zm-12.91-7.568c0 1.893 1.36 4.646 4.645 4.646 2.03 0 3.367-1.057 4.063-2.448.36-.668.527-1.392.585-2.144.026-.724-.11-1.475-.417-2.143-.642-1.447-2.06-2.7-4.257-2.7-2.95 0-4.62 2.395-4.62 4.76v.03zM160.002 12.888h3.645V33.48h-3.645V12.888z"/>
  </g>
  <g fill="#B19230">
    <path d="M173.108 12.884c2.896 0 4.26.334 5.538 1.308 1.364 1.058 2.2 2.978 2.2 4.897 0 1.948-.864 3.923-2.116 4.897-1.363 1.06-2.756 1.393-5.428 1.393h-3.313v8.1h-2.31V12.88l5.428.002zM169.99 23.35h3.285c1.728 0 2.783-.196 3.813-.864.89-.584 1.53-1.893 1.53-3.34 0-1.475-.642-2.783-1.56-3.368-1.03-.668-2.088-.862-3.84-.862h-3.23l.003 8.433zM183.186 18.505h1.947v2.45c1.086-2.228 3.032-2.812 4.787-2.868v2.033h-.194c-2.896 0-4.51 1.81-4.51 5.204v8.155h-2.03V18.504zM192.008 26.578c.11 3.758 3.313 5.566 5.846 5.54 2.31 0 4.174-1.142 5.148-3.09h2.143c-.695 1.614-1.753 2.84-3.033 3.646-1.252.808-2.728 1.226-4.258 1.226-5.205 0-7.904-4.147-7.904-7.876 0-4.396 3.396-7.932 7.876-7.932 2.115 0 4.063.75 5.483 2.115 1.724 1.67 2.56 3.98 2.337 6.373h-13.64v-.002zm11.606-1.642c-.14-2.616-2.672-5.177-5.76-5.093-3.23 0-5.624 2.365-5.818 5.093h11.578zM215.305 22.263c0-1.586-1.06-2.477-2.563-2.477-1.642 0-2.644 1.113-2.588 2.422.058 1.418 1.143 2.004 2.95 2.532 2.145.584 4.536 1.197 4.647 4.397.11 2.755-2.114 4.76-4.952 4.76-2.422 0-5.096-1.532-5.12-4.678h2.03c.084 2.06 1.612 2.978 3.115 2.978 1.728 0 2.922-1.28 2.896-2.81-.06-1.7-1.17-2.396-3.76-3.147-2.144-.64-3.812-1.502-3.867-3.867 0-2.7 2.144-4.287 4.676-4.287 2.086 0 4.424 1.142 4.562 4.176h-2.027zM227.83 22.263c0-1.586-1.057-2.477-2.56-2.477-1.642 0-2.644 1.113-2.59 2.422.058 1.418 1.143 2.004 2.952 2.532 2.143.584 4.536 1.197 4.646 4.397.11 2.755-2.115 4.76-4.954 4.76-2.422 0-5.094-1.532-5.12-4.678h2.03c.084 2.06 1.615 2.978 3.117 2.978 1.728 0 2.924-1.28 2.896-2.81-.055-1.7-1.168-2.396-3.757-3.147-2.145-.64-3.814-1.502-3.87-3.867 0-2.7 2.146-4.287 4.68-4.287 2.086 0 4.424 1.142 4.562 4.176h-2.03z"/>
  </g>
  <path fill="#B19430" d="M38.233 9.503l-2.88 25.273H7.26l-.347 2.52h30.312l3.168-27.793"/>
  <path fill="#B19430" d="M35.065 5.04l-2.88 25.272H4.09l-.345 2.52h30.383l3.097-27.79"/>
  <path fill="#B19430" d="M3.745 0L0 27.792h30.313L33.48 0"/>
</svg>
