<svg xmlns="http://www.w3.org/2000/svg" width="600.305" height="162.343">
  <defs>
    <clipPath id="a">
      <path d="M0 0h4802v1298.75H0z"/>
    </clipPath>
  </defs>
  <g clip-path="url(#a)" transform="translate(-10 -10)" fill="#161312">
    <path d="M125.622 79.484H75.176c-1.3 0-2.357 1.056-2.357 2.36v24.662c0 1.3 1.05 2.36 2.35 2.36h19.68v30.643s-4.42 1.5-16.64 1.5c-14.42 0-34.55-5.27-34.55-49.54 0-44.28 20.96-50.11 40.64-50.11 17.04 0 24.38 3 29.05 4.44 1.46.45 2.82-1.01 2.82-2.32l5.62-23.83c0-.61-.21-1.35-.9-1.85-1.9-1.35-13.47-7.83-42.7-7.83C44.54 10 10 24.32 10 93.2s39.55 79.14 72.877 79.14c27.595 0 44.336-11.79 44.336-11.79.69-.38.764-1.34.764-1.78V81.85c0-1.304-1.054-2.36-2.355-2.36m259.972-61.233c0-1.313-1.04-2.372-2.34-2.372H354.85c-1.3 0-2.355 1.06-2.355 2.374l.008 54.89H308.23V18.26c0-1.314-1.045-2.373-2.344-2.373h-28.402c-1.293 0-2.346 1.06-2.346 2.372v148.63c0 1.31 1.053 2.37 2.346 2.37h28.402c1.3 0 2.344-1.07 2.344-2.38v-63.57h44.274l-.078 63.57c0 1.31 1.054 2.38 2.353 2.38h28.47c1.3 0 2.34-1.07 2.34-2.38V18.25M179.22 37.758c0-10.227-8.2-18.492-18.316-18.492-10.106 0-18.313 8.265-18.313 18.492 0 10.217 8.21 18.504 18.32 18.504 10.12 0 18.32-8.28 18.32-18.5m-2.03 97.78V66.92c0-1.3-1.05-2.366-2.35-2.366h-28.32c-1.3 0-2.46 1.34-2.46 2.642v98.294c0 2.89 1.8 3.747 4.13 3.747h25.51c2.8 0 3.49-1.373 3.49-3.793V135.53m316.35-70.753h-28.19c-1.29 0-2.34 1.066-2.34 2.377v72.877s-7.16 5.24-17.32 5.24-12.86-4.61-12.86-14.56V67.16c0-1.31-1.05-2.377-2.34-2.377h-28.61c-1.29 0-2.35 1.066-2.35 2.377v68.366c0 29.558 16.48 36.79 39.14 36.79 18.59 0 33.58-10.272 33.58-10.272s.72 5.413 1.04 6.055c.327.64 1.168 1.29 2.077 1.29l18.2-.08c1.29 0 2.347-1.07 2.347-2.38l-.005-99.78c0-1.31-1.054-2.38-2.353-2.38m65.92 80.4c-9.78-.3-16.41-4.74-16.41-4.74V93.38s6.544-4.01 14.57-4.726c10.15-.91 19.93 2.157 19.93 26.37 0 25.532-4.414 30.57-18.09 30.158zM570.6 61.42c-16.01 0-26.897 7.14-26.897 7.14V18.25c0-1.312-1.05-2.37-2.346-2.37h-28.49c-1.29 0-2.34 1.058-2.34 2.37v148.63c0 1.31 1.05 2.378 2.35 2.378h19.77c.89 0 1.57-.46 2.06-1.26s1.2-6.852 1.2-6.852 11.65 11.038 33.7 11.038c25.89 0 40.73-13.13 40.73-58.944s-23.71-51.8-39.73-51.8m-311.75 3.1h-21.31l-.03-28.15c0-1.063-.55-1.596-1.78-1.596h-29.04c-1.13 0-1.735.496-1.735 1.58v29.088s-14.55 3.513-15.533 3.797c-.98.28-1.7 1.18-1.7 2.26V89.8c0 1.314 1.05 2.374 2.344 2.374h14.89v43.972c0 32.67 22.91 35.87 38.37 35.87 7.063 0 15.514-2.26 16.91-2.78.843-.31 1.333-1.18 1.333-2.13l.023-20.11c0-1.31-1.105-2.37-2.352-2.37-1.24 0-4.42.51-7.69.51-10.464 0-14.01-4.86-14.01-11.16V92.19h21.307c1.297 0 2.35-1.06 2.35-2.37v-22.9c0-1.313-1.053-2.37-2.35-2.37"/>
  </g>
</svg>
