<svg xmlns="http://www.w3.org/2000/svg" viewBox="61 -48.7 448.35043 174.19999" width="448.35" height="174.2">
  <path d="M284.913-6.7h-19.3c-1.7 0-3.1 1.4-3.1 3.2v117.6c0 1.7 1.4 3.1 3.1 3.1h19.3c1.7 0 3.1-1.4 3.1-3.1V-3.5c0-1.8-1.4-3.2-3.1-3.2zm123.9 118.7l-26.9-38.8c11.6-4.8 17.5-14.9 17.5-30V27.4c0-23.6-12.3-34.1-39.9-34.1h-47.9c-1.7 0-3.1 1.4-3.1 3.2v117.6c0 1.7 1.4 3.1 3.1 3.1h19.3c1.7 0 3.1-1.4 3.1-3.1V77.2h19.8l26.9 38.7c.6.8 1.6 1.4 2.6 1.4h23.1c1.7 0 3.1-1.4 3.1-3.1 0-.9-.3-1.6-.7-2.2zm-74.8-95.8h24.5c12.7 0 15.2 5 15.2 13v12c0 10-3.8 13.4-15.2 13.4h-24.5z" fill="#205081"/>
  <path d="M472.213-4.5c-.4-1.3-1.6-2.2-3-2.2h-29.4c-1.4 0-2.6.9-3 2.2l-37.1 117.6c-.3 1-.1 2 .5 2.8.6.8 1.5 1.3 2.5 1.3h20.3c1.4 0 2.6-.9 3-2.3l25.5-86.5s.7-2.2 3-2.2c2.4 0 2.9 2.2 2.9 2.2l11.9 41h-16.3c-1.4 0-2.6.9-3 2.3l-4.6 16.2c-.3.9-.1 2 .5 2.8.6.8 1.5 1.2 2.5 1.2h27.5l7.1 22.9c.4 1.3 1.6 2.2 3 2.2h20.2c1 0 1.9-.5 2.5-1.3.6-.8.8-1.9.5-2.8zm-232.6-2.2h-19.6c-1.7 0-3 1.3-3 3v92c0 11.6-8.8 15.4-14.8 15.7-.8 0-1.7.5-2.3 1.3-.5.8-.7 1.7-.4 2.6l4.8 15.5c.4 1.3 1.8 2.1 4 2.1 18.7 0 34.3-14.7 34.3-34.4V-3.7c0-.8-.3-1.6-.9-2.1-.6-.6-1.3-.9-2.1-.9zm-151.5-32.1c-6 0-10.9 4.9-10.9 10.9s4.9 10.9 10.9 10.9 10.9-4.9 10.9-10.9c-.1-6-4.9-10.9-10.9-10.9zm71.4 0c-6 0-10.9 4.9-10.9 10.9s4.9 10.9 10.9 10.9 10.9-4.9 10.9-10.9-4.9-10.9-10.9-10.9zm-35.7-9.9c-6 0-10.9 4.9-10.9 10.9s4.9 10.9 10.9 10.9 10.9-4.9 10.9-10.9c0-6.1-4.9-10.9-10.9-10.9z" fill="#205081"/>
  <g fill="#205081">
    <path d="M185.313-8.4c-.6-.5-1.3-.7-2.1-.7-.4 0-.8.1-1.2.2-7.4 2.8-14.8 5-21.7 6.5-1.4.3-2.5 1.4-3 2.6-5 13.6-17.7 26.6-31 40.2-.5.5-1.3 1.2-2.5 1.2s-2-.6-2.5-1.2c-13.3-13.6-26-26.5-31-40.2-.5-1.2-1.6-2.3-3-2.6-6.8-1.6-14.3-3.8-21.7-6.6-.4-.2-.8-.2-1.2-.2-.7 0-1.5.2-2.1.7-.9.7-1.4 1.9-1.3 3 1.1 11.3 5.6 22.4 13.7 34 7.6 10.9 17.5 21 27.1 30.8 17.6 18 34.3 35 35.8 54.7.1 1.8 1.6 3.2 3.4 3.2h20.7c.9 0 1.8-.4 2.5-1.1.6-.7 1-1.6.9-2.5-.7-13.2-5.6-26.4-15.2-40.4-2-2.9-4.1-5.8-6.4-8.6-.9-1.1-.5-2.5.2-3.3l2.1-2.1c9.6-9.8 19.5-19.9 27.1-30.8 8.1-11.6 12.6-22.6 13.7-34 .1-.9-.4-2.1-1.3-2.8zm-83.8 83.1c-.5-.5-1.2-1-2.4-1-1.5 0-2.5 1.1-2.8 1.6-8.7 13.3-13.2 25.8-13.8 38.4 0 .9.3 1.9.9 2.5.6.7 1.5 1.1 2.5 1.1h20.7c1.8 0 3.3-1.4 3.4-3.2.5-6.1 2.3-12.1 5.8-18.5 1.2-2.2.3-4.3-.4-5.2-3.5-4.5-7.6-9.2-13.9-15.7z"/>
    <path d="M123.813 1.7c6.5 0 10.3-.4 11.6-.4 1.6 0 3.1 1.3 3.1 3.2 0 .5-.1.9-.3 1.3-.9 2.3-4.8 10.6-12.1 17.7-.8.8-1.8.9-2.4.9-.6 0-1.6-.1-2.4-.9-7.3-7.1-11.2-15.4-12.1-17.7-.1-.3-.3-.7-.3-1.3 0-1.8 1.5-3.2 3.1-3.2 1.5 0 5.3.4 11.8.4z"/>
  </g>
</svg>
