<svg xmlns="http://www.w3.org/2000/svg" viewBox="0 0 103 59.900002" width="103" height="59.9">
  <path d="M0 0h103v59.9H0z" fill="#e65e11"/>
  <path d="M43.1 14.4c0 2-1.6 3.6-3.6 3.6s-3.6-1.6-3.6-3.6 1.6-3.6 3.6-3.6 3.6 1.6 3.6 3.6M21.2 47c-6.5 0-9.6-4.3-9.6-4.3l2-3.2s2.6 2.3 6.3 2.3c3.2 0 5.9-1.9 5.9-7.3V12.7h6.7v22.8C32.4 42 28.8 47 21.2 47m58.6 0c5.9 0 8.9-4.3 8.9-4.3l-1.8-2.9s-2.6 2.6-6.4 2.6c-3.9 0-6.9-3-6.9-8.4s3-7.9 6.9-7.9c3.6 0 6.4 2.9 6.4 2.9l2-3s-3.3-4.4-9.1-4.4c-6.2 0-11.7 4.6-11.7 12.6-.2 8.3 5.6 12.8 11.7 12.8m-24.6 0c-3.6 0-8-1.6-9.6-3.4l1.5-3.1c2.8 1.5 5.2 1.9 8.2 1.9 2.6 0 4.1-1 4.1-2.5 0-1.7-1.1-2.4-5-3.4-5.9-1.5-8.4-3.3-8.4-7.7 0-4.2 3.4-7.2 9-7.2 3.2 0 6.8 1.2 8.8 2.4l-1.2 3.4c-2.6-1-5.1-1.4-7.5-1.4-2.3 0-3.4.9-3.4 2.3 0 1.3.9 2 4.6 3 6.4 1.6 8.8 3.4 8.8 8 0 4.9-3.4 7.7-9.9 7.7M36.7 22h5.7v24.5h-5.7z" fill="#fff"/>
</svg>
