<svg width="2500" height="835" viewBox="0 0 512 171" xmlns="http://www.w3.org/2000/svg" preserveAspectRatio="xMidYMid">
  <path d="M123.957 77.015c-.68-3.606-1.835-6.732-3.444-9.39-1.625-2.66-3.776-4.733-6.467-6.227-2.697-1.495-6.076-2.24-10.16-2.24-3.635 0-6.8.676-9.53 2-2.72 1.325-4.96 3.28-6.716 5.837-1.74 2.56-3.046 5.647-3.932 9.235-.876 3.603-1.305 7.71-1.305 12.32 0 4.273.348 8.21 1.066 11.812.705 3.596 1.86 6.738 3.445 9.394 1.593 2.657 3.745 4.72 6.465 6.178 2.73 1.46 6.096 2.19 10.12 2.19 3.685 0 6.892-.67 9.62-2.002 2.73-1.325 4.96-3.25 6.715-5.79 1.752-2.53 3.045-5.585 3.883-9.19.84-3.598 1.264-7.703 1.264-12.303 0-4.288-.346-8.228-1.025-11.825zM138.4 123.86c-3.954 4.41-8.912 7.816-14.87 10.223-5.964 2.4-12.938 3.596-20.906 3.596-7.71 0-14.424-1.067-20.132-3.21-5.708-2.143-10.438-5.26-14.192-9.344-3.77-4.083-6.555-9.103-8.368-15.082-1.815-5.967-2.708-12.778-2.708-20.428 0-7.4.974-14.155 2.956-20.29 1.983-6.128 4.94-11.384 8.895-15.758 3.954-4.382 8.905-7.778 14.832-10.17 5.928-2.4 12.88-3.595 20.846-3.595 7.79 0 14.524 1.046 20.23 3.157 5.707 2.102 10.42 5.21 14.147 9.293 3.733 4.085 6.504 9.115 8.315 15.082 1.815 5.967 2.72 12.82 2.72 20.527 0 7.39-.967 14.145-2.916 20.238-1.947 6.098-4.895 11.35-8.85 15.76zm74-62.852c-2.603-2.588-6.267-3.883-10.99-3.883-2.398 0-4.5.397-6.325 1.214-1.81.807-3.314 1.9-4.522 3.296-1.202 1.405-2.09 3.02-2.68 4.872a19.3 19.3 0 0 0-.863 5.786c0 4.413 1.293 7.9 3.883 10.46 2.6 2.558 6.185 3.843 10.795 3.843 2.462 0 4.605-.386 6.416-1.177 1.813-.765 3.316-1.843 4.522-3.203 1.194-1.356 2.102-2.93 2.72-4.722.617-1.785.926-3.637.926-5.59 0-4.67-1.297-8.297-3.883-10.897zm-28.878 83.295c0 3.23 1.633 5.698 4.904 7.387 3.272 1.682 7.887 2.53 13.86 2.53 3.687 0 6.793-.378 9.326-1.125 2.53-.747 4.57-1.736 6.133-2.97 1.554-1.233 2.652-2.597 3.31-4.134.637-1.52.965-3.125.965-4.807 0-2.928-1.167-5.16-3.498-6.713-2.34-1.566-5.536-2.402-9.62-2.53l-17.414-.49c-1.694 1.235-3.027 2.41-4.03 3.558-1.01 1.125-1.824 2.216-2.44 3.247-.608 1.035-1.018 2.054-1.217 3.027-.19.966-.278 1.975-.278 3.02zM243.99 60.52h-10.206c1.432 1.562 2.452 3.326 3.063 5.307.623 1.974.92 4.036.92 6.18 0 5.057-.837 9.55-2.53 13.476-1.672 3.922-4.092 7.232-7.23 9.91-3.146 2.696-6.952 4.75-11.377 6.134-4.45 1.408-9.382 2.092-14.84 2.092-2.78 0-5.438-.34-7.97-1.017-2.53-.674-4.46-1.47-5.834-2.393-.78.85-1.475 1.853-2.093 3.03-.62 1.168-.918 2.452-.918 3.885 0 1.882.827 3.417 2.483 4.622 1.642 1.206 3.973 1.863 6.942 1.99l21.103.778c4.933.2 9.315.898 13.178 2.094 3.86 1.202 7.095 2.898 9.723 5.057a21.793 21.793 0 0 1 6.026 7.84c1.395 3.046 2.095 6.514 2.095 10.41 0 4.286-.95 8.315-2.823 12.1-1.88 3.796-4.702 7.094-8.465 9.886-3.754 2.785-8.466 4.986-14.142 6.617-5.68 1.616-12.293 2.432-19.883 2.432-7.393 0-13.694-.587-18.906-1.752-5.22-1.166-9.5-2.786-12.837-4.87-3.34-2.07-5.77-4.55-7.29-7.44-1.528-2.88-2.283-6.044-2.283-9.482 0-2.143.27-4.188.815-6.127.547-1.95 1.368-3.81 2.433-5.6 1.074-1.78 2.39-3.484 3.94-5.108 1.555-1.623 3.33-3.175 5.34-4.67-2.787-1.485-4.94-3.515-6.454-6.088-1.532-2.556-2.29-5.368-2.29-8.403 0-3.826.877-7.312 2.63-10.462 1.745-3.144 4.012-5.975 6.804-8.516-2.272-2.27-4.085-5-5.447-8.177-1.356-3.166-2.035-7.13-2.035-11.862 0-5.06.89-9.58 2.67-13.575 1.775-3.986 4.263-7.36 7.43-10.12 3.18-2.75 6.974-4.863 11.387-6.326 4.4-1.455 9.262-2.183 14.58-2.183 2.72 0 5.33.16 7.828.48 2.49.328 4.81.784 6.942 1.366h27.52c1.107 0 1.995.716 2.68 2.14.68 1.434 1.018 3.833 1.018 7.2 0 3.118-.358 5.418-1.068 6.912-.716 1.483-1.59 2.232-2.63 2.232zm64.476.487c-2.594-2.588-6.257-3.883-10.99-3.883-2.403 0-4.513.397-6.324 1.214-1.81.808-3.32 1.902-4.535 3.297a13.854 13.854 0 0 0-2.666 4.872 19.31 19.31 0 0 0-.877 5.786c0 4.413 1.3 7.9 3.89 10.46 2.603 2.558 6.2 3.843 10.8 3.843 2.472 0 4.608-.386 6.42-1.177 1.81-.766 3.326-1.844 4.517-3.204 1.2-1.356 2.11-2.93 2.73-4.722.62-1.785.92-3.637.92-5.59 0-4.67-1.298-8.297-3.884-10.897zm-28.888 83.295c0 3.23 1.637 5.698 4.915 7.387 3.26 1.68 7.89 2.528 13.858 2.528 3.698 0 6.807-.377 9.337-1.124 2.527-.747 4.565-1.736 6.125-2.97 1.557-1.233 2.66-2.597 3.305-4.134a12.1 12.1 0 0 0 .964-4.808c0-2.928-1.15-5.16-3.494-6.713-2.334-1.567-5.548-2.403-9.63-2.53l-17.41-.49c-1.685 1.234-3.03 2.408-4.028 3.557-.998 1.125-1.82 2.216-2.434 3.247-.62 1.035-1.014 2.054-1.216 3.027-.202.967-.29 1.976-.29 3.02zM340.06 60.52h-10.204c1.417 1.562 2.44 3.326 3.06 5.307.62 1.974.926 4.036.926 6.18 0 5.057-.845 9.55-2.528 13.476-1.69 3.922-4.108 7.232-7.256 9.91-3.134 2.696-6.926 4.75-11.372 6.134-4.445 1.408-9.374 2.092-14.818 2.092-2.795 0-5.45-.34-7.974-1.017-2.534-.674-4.484-1.47-5.846-2.393a14.14 14.14 0 0 0-2.086 3.03c-.62 1.168-.925 2.452-.925 3.885 0 1.882.82 3.417 2.48 4.622 1.65 1.206 3.964 1.863 6.96 1.99l21.092.778c4.932.2 9.323.898 13.183 2.094 3.845 1.202 7.1 2.898 9.72 5.057 2.615 2.175 4.628 4.79 6.022 7.84 1.392 3.046 2.092 6.514 2.092 10.41 0 4.286-.934 8.315-2.818 12.1-1.885 3.796-4.695 7.094-8.456 9.886-3.768 2.785-8.48 4.986-14.142 6.617-5.677 1.616-12.306 2.432-19.883 2.432-7.396 0-13.72-.587-18.926-1.752-5.228-1.166-9.497-2.786-12.836-4.87-3.336-2.07-5.77-4.55-7.294-7.44-1.522-2.88-2.278-6.044-2.278-9.482 0-2.143.28-4.188.83-6.127.544-1.95 1.36-3.81 2.413-5.6a29.376 29.376 0 0 1 3.945-5.108c1.564-1.623 3.34-3.175 5.342-4.67-2.785-1.485-4.94-3.515-6.457-6.088-1.534-2.556-2.29-5.368-2.29-8.403 0-3.826.88-7.312 2.63-10.462 1.75-3.144 4.01-5.975 6.804-8.516-2.272-2.27-4.085-5-5.44-8.177-1.364-3.166-2.042-7.13-2.042-11.862 0-5.06.888-9.58 2.67-13.575 1.784-3.986 4.264-7.36 7.437-10.12 3.165-2.75 6.973-4.863 11.38-6.326 4.397-1.455 9.27-2.183 14.584-2.183 2.73 0 5.338.16 7.825.48 2.5.328 4.818.784 6.96 1.366h27.51c1.103 0 1.99.716 2.673 2.14.694 1.434 1.03 3.833 1.03 7.2 0 3.118-.36 5.418-1.08 6.912-.715 1.483-1.593 2.232-2.623 2.232zm170.857-2.79c-.714 1.494-1.595 2.23-2.617 2.23h-7.72l-25.635 75.476-10.5 30.747c-.582 1.62-2.168 2.788-4.76 3.508-1.734.477-4.067.776-6.87.932-.273.12-.564.204-.863.204h-18.44c-1.03 0-1.91-.747-2.63-2.233-.706-1.494-1.06-3.806-1.06-6.916 0-3.365.338-5.775 1.014-7.197.678-1.427 1.58-2.143 2.675-2.143h9.237l6.726-16.9c-.846-.388-1.603-.99-2.28-1.794-.684-.82-1.192-1.68-1.512-2.59L419.09 59.96H409.4c-1.032 0-1.91-.736-2.628-2.23-.708-1.504-1.06-3.792-1.06-6.902 0-3.375.336-5.777 1.02-7.21.678-1.426 1.564-2.144 2.668-2.144h16.438c.417 0 .74-.02 1.172-.02 2.79 0 4.995.05 6.614.14 1.618.1 2.883.34 3.784.728.918.388 1.594.997 2.054 1.802.45.816.902 1.973 1.35 3.458l20.425 58.09h.3l18.668-59.257c.377-1.682.885-2.807 1.506-3.355.604-.548 1.64-.957 3.05-1.214 1.436-.26 3.932-.392 7.49-.392.567 0 1.016.03 1.538.03.02 0 .04-.01.057-.01H508.3c1.103 0 1.99.718 2.667 2.144.694 1.433 1.033 3.835 1.033 7.21 0 3.11-.364 5.398-1.083 6.903zm-114.782 76.05c-.716 1.505-1.594 2.242-2.624 2.242h-37.77c-1.037 0-1.917-.737-2.635-2.242-.716-1.494-1.08-3.784-1.08-6.902 0-3.367.34-5.768 1.032-7.213.68-1.414 1.573-2.13 2.682-2.13h6.75V18.5h-6.75c-1.037 0-1.917-.748-2.635-2.252-.716-1.483-1.08-3.785-1.08-6.903 0-3.367.34-5.777 1.032-7.2C353.737.717 354.63 0 355.74 0h16.438c.04 0 .072.052.113.052.766-.03 1.58-.052 2.44-.052 2.4 0 4.372.1 5.934.29 1.556.21 2.804.477 3.74.835.948.35 1.61.8 1.99 1.315a2.77 2.77 0 0 1 .6 1.746v113.35h6.518c1.103 0 1.997.715 2.673 2.13.674 1.444 1.03 3.845 1.03 7.212 0 3.118-.364 5.408-1.08 6.902zm-352.032 0c-.716 1.505-1.592 2.242-2.618 2.242H3.693c-1.034 0-1.91-.737-2.63-2.242C.37 132.286 0 129.996 0 126.878c0-3.367.348-5.768 1.026-7.213.676-1.414 1.572-2.13 2.667-2.13h6.757V18.5H3.693c-1.034 0-1.91-.748-2.63-2.252C.37 14.764 0 12.462 0 9.344c0-3.367.348-5.777 1.026-7.2C1.702.717 2.598 0 3.693 0H20.15c.04 0 .07.052.11.052C21.027.022 21.824 0 22.7 0c2.39 0 4.37.1 5.935.29 1.555.21 2.79.477 3.748.835.934.35 1.593.8 1.98 1.315.388.518.588 1.095.588 1.746v113.35h6.535c1.098 0 1.993.715 2.67 2.13.678 1.444 1.016 3.845 1.016 7.212 0 3.118-.36 5.408-1.067 6.902z" fill="#0A0B09"/>
</svg>
