<svg xmlns="http://www.w3.org/2000/svg" width="254.759" height="48.836" viewBox="0 0 127.37961 24.418116">
  <g fill="none" fill-rule="evenodd">
    <path d="M22.005 7.018l.018.002.017-.002c2.385 0 4.318 1.93 4.318 4.317 0 1.335-.607 2.528-1.56 3.32-.414.393-.933.68-1.568.827-.376.11-.777.17-1.19.17h-.034c-.412 0-.812-.06-1.19-.17-.633-.147-1.154-.434-1.568-.828-.953-.79-1.56-1.984-1.56-3.32 0-2.385 1.934-4.316 4.318-4.316M3.722 24.385c2.318.292 4.378-1.397 4.597-3.77.07-.802-.08-1.58-.39-2.267-3.25-7.13 12.78-7.293 10.07-.563l-.02.03c-1.28 2.046-.59 4.708 1.54 5.94.78.452 1.65.64 2.49.607.85.034 1.71-.155 2.49-.608 2.13-1.23 2.82-3.893 1.54-5.94l-.02-.03c-2.71-6.73 13.32-6.566 10.07.564-.32.688-.47 1.465-.39 2.266.22 2.374 2.27 4.063 4.59 3.77 1.03-.13 1.94-.628 2.61-1.35 0 0 1.08-.895 1.06-3.18-.02-1.86-1.068-2.89-1.068-2.89-.84-.853-2.04-1.32-3.325-1.184-2.97-.068-3.41-2.396-2.57-6.79.31-.78.44-1.614.416-2.45.08-2.245-1.05-4.46-3.126-5.665-.24-.147-.5-.265-.77-.375-.07-.03-.14-.057-.21-.085-.08-.03-.16-.06-.24-.085-.65-.22-1.34-.337-2.06-.33-2.24.02-4.19 1.218-5.28 2.995-1.5 1.643-2.18 2.642-3.72 2.642-1.47 0-2.22-1-3.72-2.642C17.21 1.218 15.26.02 13.02 0c-.72-.007-1.41.11-2.06.33-.08.024-.164.056-.244.085-.07.028-.15.054-.22.085-.268.11-.53.228-.78.375C7.64 2.08 6.51 4.295 6.59 6.54c-.026.84.11 1.67.418 2.45.84 4.4.4 6.73-2.576 6.79-1.458-.15-2.545.45-3.645 1.55s-1.01 4.05 0 5.33c.73.94 1.72 1.58 2.93 1.73" fill="#323232"/>
    <path d="M64.727 19l-.653-10.886-4.877 11.155L54.84 8.13 54.05 19h-1.4l.94-12.653h1.94l1.747 4.282c.27.67.528 1.33.778 1.97.25.64.47 1.21.662 1.73.192.51.346.93.46 1.26l.193.54c.014-.04.084-.23.212-.56.128-.34.295-.76.5-1.28.204-.52.438-1.1.7-1.72.263-.63.528-1.26.797-1.88l1.9-4.36h1.82L66.22 19zm5.107-4.82c-.025.103-.038.18-.038.23v.25c0 1.063.246 1.88.74 2.45.492.568 1.193.853 2.1.853.257 0 .52-.025.79-.077.267-.05.523-.118.767-.2.243-.084.467-.18.672-.29.204-.108.37-.22.5-.335l.114 1.35c-.39.25-.83.45-1.33.61-.5.16-1.16.24-1.98.24-.55 0-1.07-.1-1.54-.3-.48-.2-.89-.5-1.24-.89s-.63-.86-.84-1.43c-.21-.56-.31-1.21-.31-1.94 0-.74.09-1.4.29-1.97.19-.57.46-1.06.8-1.45.34-.39.75-.68 1.23-.88.47-.2.99-.29 1.55-.29 1.29 0 2.19.34 2.71 1.03.51.69.77 1.71.77 3.08h-5.8zm4.455-1.15c-.03-.385-.11-.69-.23-.913-.13-.224-.3-.397-.5-.52-.21-.12-.44-.197-.7-.23-.27-.03-.54-.047-.82-.047-.21 0-.44.032-.69.096-.26.064-.41.122-.46.173l-.16.14c-.08.07-.16.16-.24.29-.09.12-.17.26-.26.43-.09.16-.16.36-.21.57h4.26zm11 2.86c0 .28-.01.57-.01.864l-.02.97L85.23 19h-1.46c.013-.486.023-.896.03-1.23.006-.332.01-.632.01-.9v-2.94c0-.178-.008-.357-.02-.536-.026-.333-.055-.624-.087-.874-.032-.25-.1-.458-.2-.624-.104-.166-.248-.29-.433-.374-.185-.084-.44-.125-.76-.125-.126 0-.257.01-.39.03-.135.018-.266.037-.394.056-.128.02-.237.045-.326.077l-.19.067c-.052.026-.135.093-.25.202-.115.1-.243.24-.384.39-.14.15-.285.31-.432.48-.147.16-.272.32-.374.46V19h-1.48v-6.278c0-.5-.016-.94-.048-1.325-.032-.384-.067-.75-.105-1.095H79.3l.23 1.287c.37-.44.784-.8 1.24-1.09.453-.29 1.013-.43 1.68-.43.383 0 .74.03 1.064.1.327.07.608.19.845.36.23.17.43.41.57.7.14.29.24.67.28 1.11.04.43.06.86.07 1.29 0 .43.01.86.01 1.29v.94zM94.26 19c-.04-.166-.07-.34-.097-.518l-.077-.52c-.435.462-.85.792-1.248.99-.397.198-.883.298-1.46.298-.524 0-1.01-.11-1.46-.327-.447-.217-.837-.525-1.17-.92-.333-.398-.595-.875-.787-1.432-.19-.55-.28-1.18-.28-1.87 0-1.47.4-2.61 1.19-3.41.8-.8 1.87-1.21 3.23-1.21.4 0 .73.03.99.08s.57.12.91.21V4.99h1.48V16.6c0 .435.01.835.04 1.2s.07.765.12 1.2zm-.27-6.048c0-.358-.03-.643-.096-.854-.064-.212-.173-.375-.327-.49-.153-.115-.36-.19-.624-.22-.262-.033-.592-.05-.988-.05-.14 0-.295.008-.46.02-.168.013-.324.032-.472.058-.147.026-.28.054-.403.086-.122.032-.21.074-.26.125-.064.05-.154.154-.27.307-.114.154-.232.356-.354.605-.122.25-.227.54-.317.88-.09.34-.14.72-.14 1.14 0 .57.07 1.08.23 1.5.15.43.34.78.57 1.06.23.28.48.49.75.62s.52.2.76.2c.25 0 .5-.04.73-.13.23-.09.45-.21.65-.35.2-.14.39-.3.55-.48.16-.18.31-.37.44-.56v-3.49zm5.55 1.23c-.027.1-.04.178-.04.23v.25c0 1.06.247 1.877.74 2.447.492.56 1.193.85 2.102.85.257 0 .52-.03.788-.08.27-.05.525-.12.768-.2s.467-.18.672-.29c.205-.11.37-.22.5-.34l.114 1.34c-.384.24-.825.44-1.324.6-.5.16-1.16.24-1.978.24-.55 0-1.062-.11-1.536-.31-.474-.21-.886-.5-1.238-.89s-.63-.87-.836-1.43c-.204-.57-.307-1.21-.307-1.94 0-.75.096-1.41.288-1.98.193-.58.462-1.06.808-1.45.35-.39.76-.69 1.23-.88.48-.2.99-.3 1.56-.3 1.29 0 2.2.34 2.72 1.03.52.68.78 1.71.78 3.08h-5.8zm4.453-1.153c-.026-.39-.102-.69-.23-.92-.128-.23-.295-.4-.5-.52-.204-.12-.438-.2-.7-.23-.263-.03-.535-.05-.816-.05-.205 0-.436.03-.692.09-.256.06-.41.12-.46.17l-.154.14c-.07.07-.15.16-.24.29-.08.12-.17.26-.26.43-.09.16-.16.36-.21.57H104zm3.57 5.97V4.98h1.48V19h-1.48zm5.435-4.82c-.026.1-.04.18-.04.23v.25c0 1.06.248 1.88.74 2.45.493.56 1.194.85 2.103.85.26 0 .52-.03.79-.08s.53-.12.77-.2.47-.18.67-.29c.21-.11.37-.22.5-.34l.12 1.34c-.38.24-.82.44-1.32.6-.5.16-1.16.24-1.98.24-.55 0-1.06-.11-1.53-.31-.47-.21-.88-.5-1.24-.89s-.63-.87-.83-1.43c-.2-.57-.3-1.21-.3-1.94 0-.75.1-1.41.29-1.98.197-.58.46-1.06.81-1.45.347-.39.757-.69 1.23-.88.47-.2.99-.3 1.55-.3 1.3 0 2.2.34 2.72 1.03.52.68.78 1.71.78 3.08zm4.454-1.15c-.024-.39-.1-.69-.23-.92-.127-.23-.294-.4-.498-.52-.205-.12-.44-.2-.7-.23-.264-.03-.536-.05-.817-.05-.205 0-.435.03-.69.09-.257.06-.41.12-.462.17l-.154.14c-.07.07-.15.16-.24.29-.08.12-.17.26-.26.43-.09.16-.16.36-.21.57h4.26zm6.702 6.37c-.256.73-.528 1.46-.816 2.2-.288.73-.58 1.46-.874 2.18h-1.612c.384-.83.76-1.64 1.132-2.43.372-.79.685-1.54.94-2.26l-3.378-8.8h1.574l2.535 6.68 2.265-6.69h1.46z" fill="#000"/>
  </g>
</svg>
