<svg xmlns="http://www.w3.org/2000/svg" viewBox="0 0 681.02793 551.55085" width="681.028" height="551.551">
  <path d="M676.03 202.826C644.09 55.986 468-30.394 282.7 9.896 97.4 50.186-26.93 201.896 5 348.726c31.93 146.83 208 233.22 393.32 192.93 185.32-40.29 309.63-192 277.71-338.83zM328.1 459.076c-103.41 0-187.2-83.82-187.2-187.22s83.8-187.19 187.2-187.19c103.4 0 187.2 83.81 187.2 187.19s-83.82 187.22-187.2 187.22z" fill="#0097a0"/>
  <path d="M374.76 39.846c-132.32 0-239.61 107.28-239.61 239.6s107.29 239.62 239.61 239.62 239.62-107.29 239.62-239.62c0-132.33-107.3-239.6-239.62-239.6zm-46.66 416.22c-101.75 0-184.19-82.47-184.19-184.21 0-101.74 82.44-184.17 184.19-184.17s184.13 82.45 184.13 184.17c0 101.72-82.42 184.21-184.13 184.21z" fill="#5bc6cc"/>
  <path d="M262.16 253.486l-20.19-42.33c-4.82-10-9.77-21.36-11.46-26.7l-.39.39c.65 7.55.78 17.06.91 25l.52 43.63h-14.71v-90.11h16.93l21.88 44a164.17 164.17 0 0 1 9.25 23.18l.39-.39c-.39-4.56-1.3-17.45-1.3-25.66l-.26-41.15h14.2v90.14zm42.58-29.04v1c0 9.12 3.39 18.75 16.28 18.75 6.12 0 11.46-2.21 16.41-6.51l5.6 8.73a35.59 35.59 0 0 1-23.7 8.73c-18.62 0-30.34-13.41-30.34-34.51 0-11.59 2.47-19.27 8.21-25.79 5.34-6.12 11.85-8.86 20.19-8.86a25.45 25.45 0 0 1 18.1 6.77c5.73 5.21 8.6 13.28 8.6 28.65v3zm12.63-27.61c-8.07 0-12.5 6.38-12.5 17.06h24.36c0-10.68-4.69-17.06-11.85-17.06zm102.86 56.91h-13.39l-8.07-30.34c-2.08-7.81-4.3-18-4.3-18h-.24s-1 6.51-4.3 18.62l-7.94 29.69h-13.44l-18-65.25 14.2-2 7.16 31.91c1.82 8.2 3.39 17.32 3.39 17.32h.39a178.91 178.91 0 0 1 3.78-17.71l8.47-30.47h14.07l7.44 29.77c2.74 10.68 4.17 18.75 4.17 18.75h.39s1.56-10 3.26-17.71l6.77-30.74h14.85zm-169.38 115.74l-7.81-13.94c-6.25-11.07-10.42-17.32-15.37-22.27a7.64 7.64 0 0 0-5.86-2.73v38.94h-14.72v-90.12h27.48c20.19 0 29.3 11.72 29.3 25.79 0 12.89-8.33 24.75-22.4 24.75 3.26 1.69 9.25 10.42 13.93 18l13.28 21.62zm-20.84-78h-8.21v28.52h7.68c7.81 0 12-1 14.72-3.78 2.47-2.47 4-6.25 4-10.94.03-9.12-4.91-13.81-18.19-13.81zm58.34 48.96v1c0 9.12 3.39 18.75 16.28 18.75 6.12 0 11.46-2.21 16.41-6.51l5.6 8.72a35.59 35.59 0 0 1-23.7 8.73c-18.62 0-30.34-13.41-30.34-34.51 0-11.59 2.47-19.28 8.21-25.79 5.34-6.12 11.85-8.86 20.19-8.86a25.45 25.45 0 0 1 18.1 6.77c5.73 5.21 8.6 13.28 8.6 28.65v3zm12.63-27.61c-8.07 0-12.5 6.38-12.5 17.06h24.35c0-10.68-4.68-17.06-11.85-17.06zm53.53 58.08c-14.46 0-14.46-13-14.46-18.62v-56.13a106.72 106.72 0 0 0-1.3-19.27l14.72-3.26c1 4 1.17 9.51 1.17 18.1v55.87c0 8.86.39 10.29 1.43 11.85a4 4 0 0 0 4.69 1l2.34 8.86a22.44 22.44 0 0 1-8.59 1.6zm24.87-77.1a9.34 9.34 0 0 1-9.25-9.53 9.44 9.44 0 1 1 9.25 9.51zm-7.15 75.67v-64.86l14.46-2.6v67.46zm55.46 1.69c-18 0-28-12.63-28-33.86 0-24 14.33-35.42 29-35.42 7.16 0 12.37 1.69 18.23 7.16l-7.16 9.51c-3.91-3.52-7.29-5.08-11.07-5.08a11.2 11.2 0 0 0-10.42 6.64c-2 4-2.73 10.16-2.73 18.36 0 9 1.43 14.72 4.43 18a11.58 11.58 0 0 0 8.76 3.8c4.56 0 9-2.21 13.28-6.51l6.77 8.72c-5.98 5.95-12.23 8.68-21.09 8.68zm33.32-.25a9.67 9.67 0 1 1 9.62-9.64 9.63 9.63 0 0 1-9.62 9.64zm0-17.42a7.78 7.78 0 1 0 7.44 7.75 7.55 7.55 0 0 0-7.44-7.75zm1.9 13.1c-.42-.73-.6-1-1-1.79-1.07-2-1.4-2.5-1.79-2.65a.72.72 0 0 0-.34-.08v4.52h-2.15v-10.84h4a3 3 0 0 1 3.2 3.17 2.78 2.78 0 0 1-2.42 3 2.47 2.47 0 0 1 .44.47c.62.78 2.6 4.21 2.6 4.21zm-1.14-8.94a4.35 4.35 0 0 0-1.22-.16h-.78v2.94h.73c.94 0 1.35-.1 1.64-.36a1.53 1.53 0 0 0 .42-1.09 1.28 1.28 0 0 0-.8-1.33z" fill="#231f20"/>
</svg>
