<svg xmlns="http://www.w3.org/2000/svg" width="188" height="66" viewBox="0 0 188 66">
  <g fill="#3F6165">
    <path d="M85.296 26.442c-3.596 0-6.512-2.916-6.512-6.514 0-3.597 2.916-6.513 6.512-6.513 3.598 0 6.513 2.916 6.513 6.513 0 1.34-.407 2.588-1.102 3.624 4.474.878 8.398 3.283 11.213 6.647 1.848-2.985 2.916-6.504 2.916-10.272 0-10.79-8.75-19.54-19.54-19.54s-19.54 8.75-19.54 19.54c0 10.792 8.75 19.54 19.54 19.54 3.598 0 6.513 2.916 6.513 6.512h.017c-.02 3.58-2.928 6.475-6.512 6.475-3.597 0-6.513-2.916-6.513-6.513 0-1.34.406-2.588 1.1-3.624-4.472-.878-8.398-3.282-11.21-6.648-1.85 2.985-2.916 6.503-2.916 10.272 0 10.79 8.748 19.54 19.54 19.54 10.79 0 19.54-8.75 19.54-19.54l-.022-.013C104.806 35.16 96.07 26.44 85.296 26.44zM128.643.39H105.173v65.22h13.12V39.748h10.35c10.867 0 19.68-8.81 19.68-19.68C148.322 9.2 139.51.39 128.642.39zm.024 26.238h-10.375V13.507h10.35c3.624 0 6.56 2.937 6.56 6.56 0 3.617-2.926 6.548-6.536 6.56zM168.318.39C157.45.39 148.64 9.2 148.64 20.067v45.444h13.12V39.63h11.906c.394.074.798.117 1.214.117v25.72H188v-45.4C188 9.202 179.188.39 168.318.39zm-6.56 19.678c0-3.623 2.937-6.56 6.56-6.56 3.617 0 6.548 2.925 6.562 6.537v6.582c-.277 0-.55.022-.817.056H161.76v-6.615z"/>
  </g>
  <path fill="#48A283" d="M45.9.39c-10.792 0-19.54 8.748-19.54 19.538l-.12 25.86c0 3.622-2.937 6.56-6.56 6.56-3.624 0-6.56-2.938-6.56-6.56V19.638h-.08c.15-3.462 3-6.224 6.498-6.224 1.34 0 2.588.406 3.624 1.1.878-4.472 3.282-8.397 6.648-11.21C26.825 1.455 23.306.39 19.538.39 8.844.39.162 8.984.006 19.64H0v26.147c0 10.868 8.81 19.68 19.68 19.68 10.868 0 19.678-8.812 19.678-19.68l.007-6.157h11.88c.38.07.77.11 1.168.11v25.725h13.025V19.928c0-10.79-8.747-19.54-19.54-19.54zm-6.514 19.538c0-3.596 2.916-6.512 6.513-6.512 3.59 0 6.5 2.903 6.513 6.49v6.777H39.38l.006-6.755z"/>
</svg>
