<svg xmlns="http://www.w3.org/2000/svg" width="516.268" height="147.402" viewBox="0 0 516.26801 147.40199">
  <path d="M283.655 5.6h3.938v141.55h-3.938z" fill="#a7a9ac"/>
  <path d="M17.006 101.744c-2.366-1.252-4.51-1.836-6.764-1.836-4.73 0-8.293 3.59-8.293 8.404 0 4.898 3.53 8.35 8.49 8.35 2.14 0 4.17-.584 6.76-1.947v1.53c-2.2 1.17-4.54 1.78-6.74 1.78-5.79 0-10.11-4.146-10.11-9.713 0-5.816 4.76-9.77 9.96-9.77 2.11 0 4.37.53 6.68 1.588zm8.375 16.282c-3.64 0-6.37-2.783-6.37-6.484 0-3.73 2.73-6.512 6.38-6.512s6.35 2.783 6.35 6.512c0 3.7-2.7 6.484-6.34 6.484zm0-11.69c-2.84 0-4.95 2.2-4.95 5.205 0 2.98 2.12 5.18 4.96 5.18 2.81 0 4.93-2.2 4.93-5.18 0-2.98-2.11-5.2-4.92-5.2zm10.5 1.114h.06c1.17-1.753 2.31-2.42 4.12-2.42 2.67 0 4.65 1.75 4.65 5.12v7.625h-1.34v-7.125c0-2.81-1.19-4.314-3.39-4.314-1.81 0-2.98.863-4.09 2.672v8.768h-1.34V105.28h1.34zm13.6 0h.06c1.17-1.753 2.31-2.42 4.12-2.42 2.67 0 4.65 1.75 4.65 5.12v7.625h-1.34v-7.125c0-2.81-1.19-4.314-3.39-4.314-1.81 0-2.98.863-4.09 2.672v8.768h-1.34V105.28h1.34v2.17zm12.99 3.618c-.39 3.2 2.15 5.65 4.98 5.65 1.67 0 3.04-.557 4.65-1.865v1.502c-1.47 1.143-3 1.67-4.81 1.67-3.61 0-6.23-2.783-6.23-6.65 0-3.674 2.42-6.346 5.73-6.346 2.67 0 5.54 1.86 5.54 6.03h-9.86zm8.27-1.085c-.47-2.45-1.81-3.646-3.95-3.646-2.06 0-3.67 1.365-4.15 3.646h8.1zm13.07-2.868c-1.45-.61-2.2-.78-3.26-.78-2.78 0-4.7 2.116-4.7 5.233 0 3.146 1.87 5.15 4.82 5.15 1.14 0 1.98-.168 3.37-.725v1.393c-1.41.473-2.31.64-3.47.64-3.67 0-6.12-2.532-6.12-6.317 0-3.93 2.51-6.68 6.07-6.68 1.09 0 1.92.16 3.32.61v1.47zm6.04-1.835h3.51v1.085h-3.51v7.43c0 2.145.03 2.924 1.87 2.924.75 0 1.17-.12 2.28-.62v1.28c-.25.14-.66.28-1.14.41-.47.11-1 .22-1.44.22-1.39 0-2.89-.78-2.89-2.67v-8.99h-3.37v-1.09h3.37v-2.98l.92-1.17h.42v4.14zm7.53-4.204h-1.34v-2.28h1.34v2.28zm0 16.7h-1.34V105.28h1.34v12.496zm4.85-10.326h.06c1.17-1.753 2.31-2.42 4.12-2.42 2.67 0 4.65 1.75 4.65 5.12v7.625h-1.34v-7.125c0-2.81-1.19-4.314-3.39-4.314-1.81 0-2.98.863-4.09 2.672v8.768h-1.34V105.28h1.34v2.17zm21.9-1.085h-2.84c1.2 1.113 1.73 2.06 1.73 3.31 0 5.597-7.09 3.76-7.09 6.18 0 2.728 8.18-.612 8.18 4.677 0 2.28-2.09 3.646-5.59 3.646-3.84 0-5.48-1.56-5.48-3.34 0-1.588 1.31-2.672 3.65-3.035v-.055c-1.34-.307-2.03-.918-2.03-1.78 0-1.114 1.03-1.587 2.5-2.032v-.057c-2.5-.73-3.34-2.65-3.34-4.15 0-2.09 1.31-4.46 5.32-4.46h5.01v1.08zm-5.29 12.078c-1.56 0-4.54.223-4.54 2.31 0 1.476 1.53 2.312 4.29 2.312 2.56 0 4.23-.947 4.23-2.422 0-1.754-1.72-2.2-3.98-2.2zm-.47-12.05c-1.87 0-3.29 1.447-3.29 3.256 0 1.86 1.42 3.39 3.32 3.39 1.84 0 3.34-1.51 3.34-3.34s-1.5-3.31-3.37-3.31zm20.84-7.598c4.65 0 6.29 2.365 6.29 4.898 0 2.197-1.2 3.73-3.62 4.62.89.472 1.64 1.558 2.53 2.894l4.29 6.568h-1.72l-3.31-5.205c-2.28-3.59-3-3.896-5.29-3.896h-2.56v9.102h-1.47v-18.98h4.88zm-3.39 8.655h3.15c3.34 0 4.96-1.448 4.96-3.73 0-2.143-1.53-3.7-5.01-3.7h-3.09zm14.62 3.618c-.39 3.2 2.15 5.65 4.98 5.65 1.67 0 3.04-.557 4.65-1.865v1.502c-1.47 1.143-3 1.67-4.81 1.67-3.61 0-6.23-2.783-6.23-6.65 0-3.674 2.43-6.346 5.74-6.346 2.67 0 5.54 1.86 5.54 6.03h-9.85zm8.27-1.085c-.47-2.45-1.81-3.646-3.95-3.646-2.06 0-3.67 1.365-4.15 3.646zm11.02-2.45c-1.39-.918-2.31-1.28-3.42-1.28-1.5 0-2.67.92-2.67 2.116 0 3 6.49 1.86 6.49 6.2 0 1.95-1.78 3.45-4.09 3.45-1.28 0-2.48-.36-3.76-1.14v-1.31c1.65.83 2.73 1.14 3.93 1.14 1.53 0 2.65-.89 2.65-2.17 0-2.98-6.48-2.09-6.48-6.1 0-1.92 1.78-3.43 4.04-3.43 1.09 0 2.09.33 3.34 1.05v1.45zm3.68 3.535c-.39 3.2 2.15 5.65 4.98 5.65 1.67 0 3.04-.557 4.65-1.865v1.502c-1.47 1.143-3 1.67-4.81 1.67-3.62 0-6.23-2.783-6.23-6.65 0-3.674 2.43-6.346 5.74-6.346 2.67 0 5.54 1.86 5.54 6.03h-9.85zm8.27-1.085c-.47-2.45-1.81-3.646-3.95-3.646-2.06 0-3.67 1.365-4.14 3.646h8.1zm14.21 6.737l-.22.165c-1.25.947-1.78 1.14-2.31 1.14-.61 0-.78-.304-.89-1.558-1.39 1.086-2.59 1.56-3.92 1.56-1.9 0-3.37-1.42-3.37-3.173 0-3.256 3.64-4.398 7.29-4.564v-1.586c0-1.67-.92-2.56-2.78-2.56-1.34 0-2.34.472-3.82 1.585v-1.37c1.53-.95 2.67-1.34 4.04-1.34 1.56 0 3.9.64 3.9 3.25v7.79c0 .5.09.64.31.64.31 0 1.12-.59 1.78-1.12v1.11zm-3.42-5.318c-3.26-.14-5.96 1.28-5.96 3.45 0 1.17 1.06 2.06 2.48 2.06 1.2 0 2.17-.445 3.48-1.613v-3.9zm13.27-3.646c-1.19-1.086-1.81-1.42-2.5-1.42-1.22 0-2.64 1.28-4.01 3.592v7.848h-1.33V105.28h1.34v3.283h.05c1.476-2.338 2.98-3.533 4.37-3.533.86 0 1.64.39 2.866 1.475l-.78 1.25zm10.49-.64c-1.45-.61-2.2-.78-3.26-.78-2.78 0-4.7 2.115-4.7 5.232 0 3.146 1.87 5.15 4.82 5.15 1.14 0 1.98-.168 3.37-.725v1.393c-1.42.473-2.31.64-3.48.64-3.67 0-6.12-2.532-6.12-6.317 0-3.93 2.51-6.68 6.07-6.68 1.09 0 1.92.16 3.31.61v1.47zm3.86.334h.06c1.17-1.753 2.31-2.42 4.12-2.42 2.67 0 4.65 1.75 4.65 5.09v7.655h-1.33v-7.125c0-2.7-1-4.314-3.4-4.314-1.84 0-2.95.89-4.09 2.672v8.768h-1.34v-18.98h1.34v8.653zM10.72 146.094l-.222.166c-1.25.947-1.78 1.14-2.31 1.14-.61 0-.78-.304-.89-1.558-1.392 1.086-2.59 1.56-3.925 1.56-1.894 0-3.368-1.42-3.368-3.173 0-3.26 3.65-4.4 7.296-4.57v-1.59c0-1.67-.92-2.57-2.78-2.57-1.33 0-2.34.47-3.81 1.58v-1.37c1.53-.95 2.67-1.34 4.04-1.34 1.56 0 3.9.64 3.9 3.25v7.79c0 .5.09.64.31.64.31 0 1.11-.59 1.78-1.12v1.11zm-3.422-5.317c-3.256-.14-5.955 1.28-5.955 3.45 0 1.17 1.057 2.06 2.476 2.06 1.19 0 2.17-.445 3.48-1.613v-3.897zm6.74-3.953h.055c1.17-1.752 2.31-2.42 4.12-2.42 2.67 0 4.645 1.752 4.645 5.12v7.626H21.52v-7.125c0-2.81-1.197-4.314-3.395-4.314-1.81 0-2.978.87-4.09 2.68v8.77h-1.337v-12.5h1.336v2.17zM36.97 147.15h-1.34v-.974c-1.334.92-2.28 1.225-3.7 1.225-3.562 0-6.317-2.83-6.317-6.51 0-3.73 2.672-6.48 6.318-6.48 1.28 0 2.17.25 3.7 1v-7.23h1.34v18.98zm-1.338-10.27c-1.36-.862-2.336-1.17-3.644-1.17-2.895 0-4.954 2.116-4.954 5.095 0 3.033 2.228 5.29 5.233 5.29 1.252 0 2.088-.28 3.367-1.144v-8.07zm17.84-8.71c4.648 0 6.29 2.365 6.29 4.898 0 2.197-1.196 3.73-3.62 4.62.893.472 1.645 1.558 2.535 2.894l4.286 6.568h-1.725l-3.313-5.205c-2.28-3.59-3.005-3.896-5.286-3.896h-2.56v9.1H48.6v-18.98h4.87zm-3.395 8.654h3.145c3.34 0 4.953-1.447 4.953-3.73 0-2.142-1.53-3.7-5.01-3.7h-3.09v7.43zm14.612 3.62c-.39 3.2 2.14 5.65 4.98 5.65 1.67 0 3.03-.558 4.65-1.866v1.502c-1.48 1.143-3.01 1.67-4.82 1.67-3.62 0-6.24-2.783-6.24-6.65 0-3.674 2.42-6.346 5.73-6.346 2.67 0 5.54 1.863 5.54 6.04h-9.85zm8.26-1.086c-.48-2.45-1.81-3.646-3.96-3.646-2.06 0-3.68 1.365-4.15 3.646h8.1zm11.02-2.45c-1.4-.918-2.31-1.28-3.43-1.28-1.51 0-2.68.92-2.68 2.116 0 3.006 6.48 1.863 6.48 6.205 0 1.94-1.78 3.45-4.09 3.45-1.28 0-2.48-.36-3.76-1.14v-1.31c1.64.83 2.72 1.14 3.92 1.14 1.53 0 2.64-.89 2.64-2.17 0-2.98-6.49-2.09-6.49-6.1 0-1.92 1.78-3.42 4.03-3.42 1.08 0 2.09.33 3.34 1.05v1.44zm3.67 3.535c-.39 3.2 2.14 5.65 4.98 5.65 1.67 0 3.03-.557 4.64-1.865v1.502c-1.48 1.143-3.01 1.67-4.82 1.67-3.62 0-6.24-2.783-6.24-6.65 0-3.674 2.42-6.346 5.73-6.346 2.67 0 5.53 1.863 5.53 6.04h-9.85zm8.26-1.085c-.47-2.45-1.81-3.646-3.95-3.646-2.06 0-3.68 1.365-4.15 3.646zm14.21 6.736l-.23.166c-1.26.947-1.78 1.14-2.31 1.14-.62 0-.78-.304-.89-1.558-1.4 1.086-2.59 1.56-3.93 1.56-1.89 0-3.37-1.42-3.37-3.173 0-3.26 3.64-4.4 7.29-4.57v-1.59c0-1.67-.92-2.57-2.79-2.57-1.34 0-2.34.47-3.82 1.58v-1.37c1.53-.95 2.67-1.34 4.03-1.34 1.55 0 3.89.64 3.89 3.25v7.79c0 .5.09.64.31.64.31 0 1.11-.59 1.78-1.12v1.11zm-3.43-5.317c-3.26-.14-5.96 1.28-5.96 3.45 0 1.17 1.06 2.06 2.48 2.06 1.2 0 2.17-.445 3.48-1.613v-3.897zm13.26-3.647c-1.2-1.085-1.81-1.42-2.51-1.42-1.23 0-2.65 1.282-4.01 3.593v7.848h-1.33v-12.49h1.33v3.29h.05c1.47-2.34 2.98-3.53 4.37-3.53.86 0 1.64.39 2.86 1.48l-.78 1.25zm10.48-.64c-1.45-.61-2.2-.78-3.26-.78-2.78 0-4.71 2.116-4.71 5.233 0 3.146 1.87 5.15 4.82 5.15 1.14 0 1.97-.168 3.36-.725v1.393c-1.42.48-2.31.64-3.48.64-3.67 0-6.12-2.53-6.12-6.31 0-3.92 2.5-6.68 6.06-6.68 1.08 0 1.92.17 3.31.61v1.48zm3.86.334h.05c1.17-1.752 2.31-2.42 4.12-2.42 2.67 0 4.64 1.752 4.64 5.092v7.654h-1.33v-7.125c0-2.7-1-4.314-3.4-4.314-1.84 0-2.95.9-4.09 2.68v8.77h-1.34v-18.98h1.33v8.66zm12.99 3.62c-.39 3.2 2.14 5.65 4.98 5.65 1.67 0 3.03-.558 4.64-1.866v1.502c-1.48 1.143-3.01 1.67-4.82 1.67-3.62 0-6.23-2.783-6.23-6.65 0-3.674 2.42-6.346 5.73-6.346 2.67 0 5.54 1.863 5.54 6.04h-9.85zm8.26-1.086c-.48-2.45-1.81-3.646-3.95-3.646-2.06 0-3.68 1.365-4.15 3.646h8.1zm12.19-2.228c-1.2-1.085-1.81-1.42-2.51-1.42-1.23 0-2.65 1.282-4.01 3.593v7.848h-1.33v-12.49h1.34v3.29h.06c1.47-2.34 2.98-3.53 4.37-3.53.86 0 1.64.39 2.86 1.48l-.78 1.25zm9.08-.222c-1.39-.918-2.31-1.28-3.43-1.28-1.5 0-2.67.92-2.67 2.116 0 3.006 6.49 1.863 6.49 6.205 0 1.94-1.78 3.45-4.09 3.45-1.28 0-2.48-.36-3.76-1.14v-1.31c1.64.83 2.73 1.14 3.92 1.14 1.53 0 2.64-.89 2.64-2.17 0-2.98-6.49-2.09-6.49-6.1 0-1.92 1.78-3.42 4.04-3.42 1.08 0 2.09.33 3.34 1.05v1.44z" fill="#808285"/>
  <path d="M32.054 17.19c19.61 0 31.99 13.948 31.99 30.51 0 16.037-12.03 30.506-32.164 30.506C12.44 78.206.152 63.823.152 47.7c0-16.476 12.638-30.51 31.9-30.51zm0 53.17c13.337 0 23.186-9.676 23.186-22.662 0-13.074-9.85-22.663-23.187-22.663-13.248 0-23.098 9.59-23.098 22.663 0 12.987 9.85 22.66 23.098 22.66zM88.67 17.977c12.026 0 19.522 6.36 19.522 16.647 0 6.886-3.572 12.028-9.936 14.555 5.404 3.57 8.717 9.06 13.25 16.47 2.526 4.09 4.01 6.1 8.104 11.76h-10.2l-7.843-12.21C93.72 53.01 90.15 51.62 85.79 51.62h-3.573v25.8h-8.54V17.978H88.67zM82.22 43.95h5.49c9.152 0 11.766-4.708 11.68-9.676-.088-5.578-3.4-8.978-11.68-8.978h-5.49V43.95zm90.116-12.725c-7.322-4.27-13.598-6.19-20.483-6.19-13.598 0-23.708 9.677-23.708 22.752 0 13.335 9.762 22.573 24.057 22.573 6.712 0 14.034-2.352 20.745-6.71v9.325c-5.84 3.05-12.202 5.23-21.528 5.23-22.32 0-32.08-17.17-32.08-29.636 0-18.14 13.68-31.38 32.6-31.38 6.1 0 12.29 1.48 20.39 4.88v9.15z" fill="#a7a9ac"/>
  <path d="M205.3 17.977h23.1c21.965 0 31.64 15.688 31.64 29.722 0 15.25-11.94 29.72-31.552 29.72H205.3V17.97zm8.544 51.773h13.598c19.35 0 23.796-14.73 23.796-22.052 0-11.942-7.583-22.052-24.23-22.052h-13.162V69.75zm-20.45 7.67h-8.542V17.977h8.544V77.42zm1.33-71.82c0 3.08-2.52 5.6-5.6 5.6-3.08 0-5.6-2.52-5.6-5.6 0-3.08 2.52-5.6 5.6-5.6 3.08 0 5.6 2.52 5.6 5.6z" fill="#a6ce39"/>
  <path d="M333.827 40.92h3.652v27.285h-3.93v-21.23l-8.39 10.547h-.72l-8.49-10.547v21.23h-3.91V40.92h3.7l9.06 11.206zm24.356 18.613h-12.637c.092 1.72.668 3.086 1.73 4.102 1.062 1.016 2.43 1.523 4.11 1.523 2.344 0 4.506-.73 6.484-2.188v3.477c-1.095.73-2.18 1.25-3.253 1.563-1.073.313-2.334.47-3.78.47-1.978 0-3.58-.41-4.804-1.23-1.223-.82-2.203-1.925-2.94-3.312-.733-1.387-1.103-2.99-1.103-4.814 0-2.734.775-4.958 2.324-6.67 1.55-1.712 3.563-2.568 6.035-2.568 2.38 0 4.28.833 5.7 2.5s2.13 3.9 2.13 6.7v.447zm-12.56-2.13h9.044c-.09-1.418-.514-2.512-1.27-3.28-.754-.768-1.77-1.152-3.047-1.152-1.276 0-2.32.39-3.136 1.16-.812.77-1.343 1.86-1.59 3.28zm31.134-2.245v13.047h-3.574v-10c0-1.992-.266-3.382-.8-4.17-.534-.788-1.466-1.182-2.794-1.182-.75 0-1.43.17-2.04.508-.62.34-1.33.94-2.12 1.8v13.05h-3.56V50.24h3.55v2.36c1.81-1.81 3.58-2.716 5.31-2.716 2.28 0 4.04 1.08 5.29 3.242 1.9-2.188 3.88-3.28 5.95-3.28 1.75 0 3.18.637 4.31 1.913 1.12 1.27 1.69 3.22 1.69 5.84v10.6h-3.56V57.56c0-1.496-.31-2.642-.92-3.437-.61-.794-1.49-1.19-2.64-1.19-1.47 0-2.85.74-4.12 2.225zm15.957-14.238h3.555v10.605c1.53-1.12 3.17-1.68 4.92-1.68 2.28 0 4.14.86 5.58 2.578 1.44 1.718 2.17 3.926 2.17 6.62 0 2.892-.86 5.192-2.59 6.905s-4.04 2.568-6.93 2.568c-1.16 0-2.38-.125-3.66-.37-1.28-.25-2.3-.562-3.06-.94V40.92zm3.555 14.004v9.727c1.21.37 2.45.55 3.73.55 1.57 0 2.86-.56 3.85-1.68.99-1.12 1.49-2.56 1.49-4.31 0-1.78-.47-3.23-1.4-4.35-.93-1.12-2.15-1.68-3.65-1.68-1.33 0-2.68.59-4.05 1.76zm31.91 4.61h-12.64c.09 1.72.66 3.085 1.73 4.1 1.06 1.017 2.43 1.524 4.11 1.524 2.34 0 4.5-.73 6.48-2.188v3.477c-1.1.73-2.18 1.25-3.26 1.563-1.08.313-2.34.47-3.78.47-1.98 0-3.58-.41-4.81-1.23-1.23-.82-2.21-1.925-2.94-3.312-.74-1.387-1.11-2.99-1.11-4.814 0-2.734.77-4.958 2.32-6.67 1.55-1.712 3.56-2.568 6.03-2.568 2.38 0 4.28.833 5.7 2.5s2.13 3.9 2.13 6.7v.447zm-12.56-2.13h9.04c-.09-1.42-.52-2.513-1.27-3.28-.76-.77-1.77-1.153-3.05-1.153-1.28 0-2.32.39-3.14 1.16-.81.77-1.35 1.86-1.59 3.28zm20.21-7.168v4.12l.19-.312c1.72-2.773 3.44-4.16 5.15-4.16 1.34 0 2.74.677 4.2 2.03l-1.87 3.126c-1.24-1.172-2.39-1.758-3.44-1.758-1.15 0-2.14.547-2.98 1.64-.84 1.093-1.26 2.39-1.26 3.888v9.395h-3.58v-17.97h3.57zM325.51 88.53c4.22 0 7.73 1.333 10.53 4.003 2.808 2.67 4.21 6.016 4.21 10.04 0 4.024-1.414 7.353-4.244 9.99-2.83 2.637-6.4 3.954-10.71 3.954-4.11 0-7.535-1.318-10.273-3.955-2.74-2.637-4.11-5.94-4.11-9.912 0-4.076 1.38-7.447 4.14-10.117 2.756-2.67 6.245-4.004 10.46-4.004zm.16 3.71c-3.12 0-5.69.977-7.697 2.93-2.01 1.953-3.016 4.447-3.016 7.48 0 2.943 1 5.39 3.02 7.344 2.01 1.953 4.54 2.93 7.57 2.93 3.04 0 5.58-.996 7.62-2.988 2.03-1.992 3.05-4.473 3.05-7.44 0-2.892-1.02-5.323-3.054-7.296-2.036-1.973-4.536-2.96-7.503-2.96zm22.705 5.996v4.12l.195-.312c1.72-2.773 3.438-4.16 5.156-4.16 1.34 0 2.74.678 4.2 2.03l-1.878 3.126c-1.23-1.172-2.38-1.758-3.43-1.758-1.145 0-2.14.547-2.98 1.64-.84 1.093-1.26 2.39-1.26 3.888v9.395h-3.58v-17.97h3.578zm11.113 6.21c0-1.913.7-3.427 2.1-4.54 1.4-1.113 3.31-1.67 5.734-1.67h7.402v2.773h-3.634c.71.71 1.2 1.36 1.47 1.95.28.58.41 1.25.41 2.01 0 .94-.26 1.86-.8 2.76-.53.9-1.22 1.6-2.06 2.08-.84.48-2.214.86-4.13 1.15-1.34.19-2.01.65-2.01 1.38 0 .41.253.76.753 1.02.5.27 1.41.54 2.725.83 2.2.48 3.618.86 4.25 1.13.632.27 1.2.66 1.71 1.17.857.86 1.287 1.94 1.287 3.24 0 1.7-.76 3.06-2.274 4.08-1.51 1.01-3.54 1.52-6.08 1.52-2.56 0-4.61-.51-6.14-1.53-1.53-1.03-2.29-2.4-2.29-4.11 0-2.44 1.51-4.01 4.51-4.71-1.2-.77-1.8-1.53-1.8-2.29 0-.57.26-1.1.77-1.56.52-.47 1.21-.81 2.08-1.04-2.64-1.17-3.96-3.07-3.96-5.69zm5.84 12.6c-1.195 0-2.176.253-2.94.76-.76.51-1.14 1.16-1.14 1.954 0 1.848 1.668 2.773 5 2.773 1.576 0 2.797-.232 3.66-.693.87-.463 1.3-1.117 1.3-1.963 0-.834-.546-1.514-1.64-2.04-1.094-.526-2.506-.792-4.24-.792zm.84-15.724c-.96 0-1.78.326-2.46.977-.675.65-1.015 1.43-1.015 2.34 0 .92.332 1.69.996 2.29.66.6 1.5.91 2.52.91 1 0 1.84-.31 2.51-.93.67-.62 1-1.39 1-2.32 0-.94-.34-1.72-1.02-2.35-.68-.63-1.53-.94-2.54-.94zm22.6 4.082v7.637c0 .62.21.92.625.92.43 0 1.102-.32 2.012-.95v2.17c-.807.52-1.455.88-1.943 1.07-.488.19-.998.29-1.533.29-1.53 0-2.42-.6-2.7-1.79-1.51 1.18-3.12 1.76-4.83 1.76-1.25 0-2.29-.41-3.13-1.24-.83-.82-1.25-1.86-1.25-3.11 0-1.13.41-2.14 1.22-3.03.81-.89 1.97-1.59 3.47-2.12l4.55-1.56v-.95c0-2.16-1.08-3.24-3.24-3.24-1.94 0-3.83 1-5.67 3.01v-3.89c1.38-1.62 3.36-2.44 5.95-2.44 1.94 0 3.5.51 4.67 1.52.39.33.74.76 1.05 1.3.31.54.51 1.08.59 1.62.08.54.12 1.57.12 3.08zm-3.497 7.247v-5.33l-2.38.92c-1.21.48-2.06.97-2.56 1.46s-.75 1.1-.75 1.83c0 .74.24 1.35.72 1.82s1.1.71 1.85.71c1.14 0 2.19-.46 3.15-1.38zm12.84-14.41v2.29c1.59-1.75 3.4-2.63 5.41-2.63 1.12 0 2.16.29 3.13.87.96.58 1.69 1.37 2.19 2.38.5 1.01.75 2.61.75 4.8v10.28h-3.55v-10.24c0-1.83-.28-3.15-.84-3.93-.56-.78-1.49-1.18-2.81-1.18-1.68 0-3.1.84-4.28 2.52v12.84h-3.63v-18h3.64zm18.28-7.56c.59 0 1.09.2 1.51.61.42.41.63.9.63 1.49 0 .57-.21 1.07-.62 1.49-.42.42-.92.63-1.51.63-.55 0-1.03-.21-1.45-.63-.41-.42-.62-.91-.62-1.47 0-.55.21-1.03.63-1.46.42-.42.9-.63 1.45-.63zm-1.76 7.56h3.56v17.97h-3.55zm7.01 0h15.35l-9.51 14.65H437v3.32h-15.74l9.444-14.65h-9.055v-3.32zm29.65 7.17v7.64c0 .62.21.92.63.92.43 0 1.1-.32 2.01-.95v2.17c-.8.52-1.45.88-1.94 1.07-.48.19-.99.29-1.53.29-1.52 0-2.42-.6-2.69-1.79-1.51 1.18-3.11 1.76-4.82 1.76-1.25 0-2.29-.41-3.12-1.24-.83-.82-1.25-1.86-1.25-3.11 0-1.13.41-2.14 1.22-3.03.82-.89 1.97-1.6 3.47-2.12l4.55-1.56v-.96c0-2.16-1.08-3.24-3.24-3.24-1.94 0-3.83 1-5.66 3.01v-3.89c1.38-1.63 3.37-2.44 5.96-2.44 1.94 0 3.5.51 4.67 1.52.39.33.74.76 1.06 1.3.31.54.51 1.08.6 1.62.08.54.12 1.57.12 3.08zm-3.49 7.25v-5.33l-2.38.92c-1.21.48-2.06.97-2.57 1.46-.5.49-.75 1.1-.75 1.83 0 .74.24 1.35.71 1.82.48.47 1.1.71 1.85.71 1.13 0 2.18-.46 3.15-1.38zm6.76-11.56l6.68-6.56v3.71h5.69v3.21h-5.68v8.8c0 2.06.86 3.08 2.56 3.08 1.28 0 2.63-.42 4.05-1.27v3.32c-1.36.77-2.85 1.16-4.47 1.16-1.62 0-2.98-.47-4.06-1.43-.34-.29-.62-.61-.84-.97-.22-.35-.41-.82-.56-1.4-.15-.58-.23-1.68-.23-3.31v-7.97h-3.12v-.35zm17.68-10.41c.59 0 1.09.2 1.51.61.42.41.63.9.63 1.49 0 .57-.2 1.07-.62 1.49-.42.42-.92.63-1.51.63-.54 0-1.02-.21-1.44-.63-.42-.42-.63-.91-.63-1.47 0-.54.21-1.03.63-1.45.42-.42.9-.63 1.45-.63zm-1.76 7.56h3.56v17.97h-3.55zm17.29-.04c2.74 0 5.01.89 6.82 2.65 1.81 1.77 2.72 3.98 2.72 6.65 0 2.6-.91 4.75-2.75 6.46-1.83 1.71-4.14 2.57-6.93 2.57-2.69 0-4.95-.87-6.76-2.61-1.81-1.74-2.71-3.91-2.71-6.51 0-2.63.92-4.82 2.75-6.57s4.13-2.62 6.89-2.62zm-.19 3.21c-1.7 0-3.1.57-4.2 1.68-1.09 1.12-1.64 2.55-1.64 4.28 0 1.72.56 3.12 1.68 4.21 1.12 1.09 2.56 1.63 4.32 1.63 1.75 0 3.18-.55 4.29-1.65 1.11-1.1 1.67-2.51 1.67-4.23 0-1.7-.58-3.12-1.74-4.24-1.16-1.12-2.62-1.68-4.37-1.68zm17.23-3.16v2.29c1.59-1.75 3.4-2.63 5.41-2.63 1.12 0 2.16.29 3.13.87.97.58 1.7 1.37 2.2 2.38.5 1.01.75 2.61.75 4.8v10.28h-3.55V106c0-1.84-.28-3.15-.84-3.94-.56-.787-1.49-1.18-2.81-1.18-1.68 0-3.11.84-4.28 2.52v12.83h-3.63V98.24h3.63z" fill="#a7a9ac"/>
</svg>
