<svg xmlns="http://www.w3.org/2000/svg" width="1946.275" height="783">
  <path d="M0 0h1026.213v413.58H0z" fill="none"/>
  <path d="M137.61 1h410.18c3.28.53 5.58 3.64 5.21 6.93.01 68.67-.01 137.33.01 206-3.35-1.55-6.93-.01-10.27.7-4.5 1.14-9.16.74-13.74.79-20 .01-40-.01-60 .01-2.12.23-5.57-.03-6.06 2.66-.5 4.23-.36 8.55-.13 12.81.18 1.57 1.91 1.92 3.09 2.5 5.88 7.91 13.74 14.05 20.38 21.3 2.56 2.77 5.29 5.42 8.53 7.41.82 20.05.24 40.14.2 60.2-11.6-10.84-22.49-22.42-33.83-33.53-13.31-13.33-26.69-26.6-39.93-40.01-1.09-1.2-2.61-1.78-4.14-2.16-12.44-15.71-28.87-29.04-48.46-34.41-29.44-8.14-62.07-.42-86.08 18.06-6.33-6.12-12.06-12.91-19.02-18.33-1.22-1.31-2.4-3.27-4.5-2.94-5.22.1-10.07 2.3-14.82 4.24-20.47 8.9-40.87 17.94-61.33 26.83-2.16 1.03-4.86 1.56-6.24 3.71-.45 2.88-.42 5.87-.03 8.76 1.24 2.84 4.33 4.14 6.84 5.67.78 3.52 3.91 5.63 6.28 8.06 7.34 6.94 14.04 14.52 21.64 21.17.21 2.19.28 4.39.29 6.6-.02 80.34.01 160.69-.02 241.03-.52 10.15.14 20.39-1.49 30.46-.84 4.74-3.56 10.04-8.74 10.98-7.76.6-15.59-.29-23.34.4-2.07.08-2.8 2.33-2.67 4.07.02 4.62-.13 9.25.08 13.88-.01 1.27 1.37 1.87 2.08 2.74 9.5 10.43 19.9 19.99 29.72 30.1 41.34 41.34 82.69 82.67 124.02 124.01 10.25 10.51 20.98 20.56 30.99 31.3H6.13c-2.53-.51-4.37-2.42-5.13-4.82V137.7l.31-.75c42.93.11 85.87.02 128.8.05 3.93.52 7.41-3.03 6.89-6.94-.02-42.92.05-85.84-.04-128.75z" fill="#c2d1e0"/>
  <path d="M133.95 3.91c.95-.92 1.96-1.78 3.01-2.6.09 42.91.02 85.83.04 128.75.52 3.91-2.96 7.46-6.89 6.94-42.93-.03-85.87.06-128.8-.05 1.96-2.55 4.33-4.72 6.59-6.99C49.91 87.94 91.93 45.93 133.95 3.91zm687.64 50.55c6.22-3.07 12.24-7.96 19.57-7.47 2.54.09 4.56 2.4 4.75 4.87-2.15 61.64-3.4 123.32-3.42 185.02 12.44-12.1 28.63-19.77 45.3-24.08 17.99-4.36 37.22-5.47 55.13-.14 21.92 6.26 40.9 21.06 53.63 39.82 8.98 12.8 13.49 28.16 15.85 43.47 1.83 12.87 2.53 25.95 1.47 38.92-3.37 31.83-19.33 61.71-42.24 83.82-20.04 19.25-46.6 32.57-74.67 33.54-25.4.46-51.55-2.79-74.53-14.23-7.42 4.37-14.78 8.83-22.25 13.12-4.39 2.42-9.35.44-13.78-.74-1.49-.42-2.88-1.8-2.66-3.44 1.83-27.94 1.19-55.95 1.77-83.92-.1-19.35-.4-38.68-.25-58.03-.48-15.32-.18-30.66-.25-45.99-.51-15-.17-30.01-.25-45.01-.64-18.98.12-37.99-.52-56.97.02-11.71.35-23.59-2.31-35.08-1.35-5.95-4.25-11.9-9.44-15.4-5.26-3.67-11.6-5.13-17.57-7.17-2.84-1.05-6.69-.73-8.55-3.52.08-3.51-1.57-8.78 2.71-10.44 24.77-8.82 48.84-19.53 72.51-30.95m20.91 204.31c0 31.11-.01 62.21.01 93.31.74 18.39.5 37.5 7.69 54.8 7.67 15.25 24.72 25.36 41.81 24.64 16.94.14 33.98-7.62 44.23-21.26 10.81-14.46 16.77-32.23 18.2-50.14 1.51-18.87.89-38.03-3.13-56.57-3.96-17.88-11.83-35.81-26.24-47.7-23.31-19.29-60.56-17.66-82.57 2.92zm286.67-211.56c2.21-.53 5.03-1.09 6.8.8 2.4 2.71 1.96 6.65 2.05 10.01-1.21 47.67-1.5 95.35-2.02 143.03-.01 55.97.02 111.95-.01 167.92.41 12.98.2 25.97.92 38.94.45 4.75.77 9.77 3.2 14.01 2 3.33 6.04 4.83 9.79 4.83 7.43.04 14.87-.08 22.31.05 1.91.2 4.05.02 5.71 1.21 1.49 1.98.93 4.69 1.09 7.01-.22 3.64.58 7.53-.88 10.98-.93 2.03-3.43 1.42-5.18 1.5-41.62-2.21-83.34-2.34-124.97-.3-3.28.07-6.57.55-9.83.18-2.41-.55-2.95-3.29-2.9-5.37.02-3.99-.1-7.98.07-11.95.07-1.89 1.96-2.87 3.65-2.95 9.1-.87 18.28.03 27.4-.51 8.14-1.85 11.39-10.98 11.36-18.47.05-62.39 0-124.78.02-187.16-.42-27.27-.57-54.54-1.93-81.78-.16-9.62-1.76-20.04-8.75-27.23-8.36-8.65-20.59-10.98-31.57-14.57-3.7-1.04-2.23-5.59-2.52-8.41-.55-2.96 1.11-6 4.09-6.79 16.13-4.96 32.17-10.22 47.96-16.2 11.05-4.21 22.08-8.63 32.46-14.36 3.55-2.25 7.69-3.22 11.68-4.42zM244.23 213.23c4.75-1.94 9.6-4.14 14.82-4.24 2.1-.33 3.28 1.63 4.5 2.94 2.38 10.43 3.01 21.18 5.04 31.69 4.24-4.87 8.82-9.45 13.98-13.36 24.01-18.48 56.64-26.2 86.08-18.06 19.59 5.37 36.02 18.7 48.46 34.41 5.22 6.79 9.89 14.09 13.15 22.04 5.88 13.98 7.68 29.29 7.75 44.35.38 21.85-3.36 43.89-11.85 64.08-10.72 25.76-29.7 48.42-54.43 61.7-19.63 10.77-42.56 15.17-64.81 13.03-12.81-1.13-25.58-3.89-37.34-9.19.1 28.42.53 56.83.84 85.24.47 12.78-.46 25.73 2.06 38.35.85 3.37 1.95 7.21 5.11 9.13 3.17 1.77 6.95 1.26 10.43 1.35 5.98.06 11.96-.21 17.94.1 1.9 0 4.13 1.04 4.17 3.23.33 4.93.39 9.94-.04 14.88-.48 2.75-3.9 2.72-6.07 2.71-27.63-1.67-55.33-2.16-83.01-1.62-14.48.17-28.95 1.22-43.43 1.6-.71-.87-2.09-1.47-2.08-2.74-.21-4.63-.06-9.26-.08-13.88-.13-1.74.6-3.99 2.67-4.07 7.75-.69 15.58.2 23.34-.4 5.18-.94 7.9-6.24 8.74-10.98 1.63-10.07.97-20.31 1.49-30.46.03-80.34 0-160.69.02-241.03-.01-2.21-.08-4.41-.29-6.6-.47-6.62-3.22-13.2-8.42-17.48-5.79-4.99-12.9-8.04-19.5-11.75-2.51-1.53-5.6-2.83-6.84-5.67-.39-2.89-.42-5.88.03-8.76 1.38-2.15 4.08-2.68 6.24-3.71 20.46-8.89 40.86-17.93 61.33-26.83m65.38 28.57c-15.65 2.15-30.65 10.52-39.88 23.46-.35 40.89-.03 81.81-.16 122.71-.13 9.39 2.43 19.38 9.32 26.12 8.05 6.95 17.6 12.36 28.12 14.44 13.55 2.69 28.54 3.54 41.02-3.41 14.79-7.92 23.72-23.44 28.13-39.15 7.01-25.25 5.61-52.06.59-77.54-4.2-19.39-11.36-39.2-25.86-53.33-10.7-10.59-26.42-15.48-41.28-13.3zm992.99-32.01c19.78-1.92 40.12-.18 58.85 6.72 17.07 6.26 32.68 16.64 44.82 30.2 14.16 15.28 25.1 33.85 29.9 54.22 4.9 20.92 4.18 43.25-2.73 63.65-5.61 17.24-15.13 33.1-27.09 46.69-10.21 11.79-22.85 21.47-36.9 28.26-20.49 10.08-43.71 13.89-66.41 12.51-19.66-.93-39.42-6.21-55.88-17.25-16.87-11.24-30.1-27.28-40.35-44.62-12.48-21.47-14.91-47.04-13.55-71.38 3.74-36.3 24.86-70.12 55.26-90.15 16.04-10.78 34.89-17.04 54.08-18.85m3.99 22.03c-9.05 1.07-17.62 5.21-24.12 11.59-9.06 9.04-15.78 20.33-19.8 32.46-6.89 21.63-6.99 44.67-6.4 67.13.45 18.47 3.29 37.34 12.13 53.81 4.68 8.83 10.18 17.67 18.46 23.58 8.65 6.26 19.55 8.68 30.11 8.38 8.28.21 16.46-2.71 23.13-7.54 7-5.07 12.32-12.13 16.45-19.65 8.47-15.81 12.3-33.64 14.18-51.35 2.38-25.03 1.46-51.07-8.05-74.66-6.24-15.55-16.09-30.5-30.79-39.17-7.54-4.56-16.64-6.12-25.3-4.58zm234.28-18.25c3.63-1.64 7.03-4.13 11.08-4.59 4.06-.36 6.73 3.58 7.18 7.19 1.46 9.35 2.9 18.7 4.31 28.06.79 0 2.38 0 3.17.01 11.42-13.61 27-22.94 43.25-29.68 10.82-4.26 22.56-6.17 34.18-5.4 11.89.45 24.04 2.31 34.76 7.75 4.57 2.27 8.49 5.56 12.54 8.61 9.5 7.6 18.1 16.98 22.24 28.61 3.14 8.23 3.7 17.1 3.89 25.81.07 41.74.16 83.48-.63 125.19-.18 6.54-.8 14.61 4.87 19.19 4.58 3.75 10.86 2.06 16.3 2.43 4.42.35 9.6-.99 13.48 1.64 1.51 4.93.53 10.34.67 15.46.36 3.55-3.54 3.97-6.13 3.66-36.96-2.27-74.06-2.45-111.02 0-2.5.46-5.17-.85-5.38-3.58-.29-4.62-.11-9.26-.1-13.89-.2-1.48 1.14-2.62 2.5-2.81 5.55-.93 11.2-.22 16.8-.55 5.23-1.1 7.24-6.91 7.98-11.59 2.65-21.91 2.42-44.03 2.44-66.06 0-18.35-.01-36.7.01-55.04-.32-9.37-.4-19-3.7-27.91-3.1-8.57-9.92-15.32-17.61-19.94-8.43-5.03-18.6-5.06-28.1-4.85-11.42.45-22.46 5.08-31.09 12.51-7.51 6.08-10.84 15.74-12.4 24.97-1.53 7.99-1.05 16.14-1.11 24.22v98.97c.16 6.62-.82 13.65 2.13 19.85 1.43 3.26 4.97 5.4 8.56 4.95 4.65.34 9.79-.95 14.11 1.21 1.92 3.23.52 7.41.96 11.02.13 3.14.49 8.43-3.95 8.52-35.64-2.37-71.42-2.29-107.06 0-2.54.48-3.89-2.18-3.89-4.31-.18-4.45-.25-8.94.05-13.38.44-3.28 4.36-2.92 6.85-3.07 6.28-.4 13.07 1.21 18.89-1.86 3.63-1.77 5.31-5.96 5.1-9.82-.02-41.36.03-82.73-.02-124.08-.12-8.33-3.59-16.53-9.81-22.12-5.7-5.36-12.9-8.59-19.81-12.04-3.45-2.09-2.22-6.63-2.3-9.95.78-3.34 4.49-4.27 7.18-5.62 19.57-9.18 39.1-18.43 58.63-27.69zm313.67-3.79c23.32-2.22 48.02.33 68.71 12.05 3.51 2.13 8.06 4.17 9.06 8.58 2.45 12.47 4.75 24.97 7.21 37.44.36 2.19 1 4.65-.19 6.71-2.7 1.7-5.73 2.78-8.54 4.25-1.61.77-3.78 1.98-5.37.63-9.19-10.71-18.69-21.17-28.07-31.72-6.04-6.85-13.54-12.83-22.47-15.29-11.17-3.14-23.6-1.84-33.8 3.7-7.46 4.01-13.52 11-15.35 19.38-1.94 8.84-.36 18.98 5.95 25.79 5.58 5.97 13.27 9.26 20.8 12.04 19.47 6.96 40.6 9.64 58.67 20.26 8.34 4.74 15.45 11.33 21.79 18.47 6.43 7.25 10.58 16.38 12.15 25.92 2.92 17.79.57 36.8-8.47 52.58-9.38 16.75-25.62 28.99-43.58 35.29-22.05 7.85-46.27 7.98-69.01 3.22-9.45-2.13-18.91-4.81-27.4-9.58-3.25-2.02-6.47-5.07-6.91-9.05-2.38-15.08-4.76-30.17-7.17-45.24-.42-4.07-1.81-8.1-1.43-12.21 2.01-2.41 5.68-2.31 8.44-3.55 2.62-.59 6.21-2.86 8.41-.3 6.77 11.23 13.3 22.61 20.06 33.85 4.72 7.66 10.2 15.22 17.86 20.19 7.07 4.65 15.49 6.79 23.87 7.25 12.05.87 24.87-2.33 33.77-10.83 10-9.4 12.13-25.32 6.35-37.52-3.5-7.21-10.23-12.11-17.12-15.81-18.68-9.93-40.24-12.42-59.05-22.05-14.24-6.78-27.69-16.93-34.8-31.37-6.99-13.81-7.36-30.04-4.47-44.98 2.88-14.97 11.21-28.75 23.19-38.18 13.63-10.39 29.69-18.2 46.91-19.92zm-1311.8 4.85c3.34-.71 6.92-2.25 10.27-.7 1.47 1.72 2.82 3.74 2.7 6.12-.6 12.97-1.46 25.94-1.77 38.93-.72 19.33-.36 38.68-.44 58.03.2 16.04-1.22 32.09-.03 48.12 1.17 16.19 4.12 33.62 15.32 46.13 5.76 6.72 14.66 9.98 23.38 9.84 15.3 1.61 30.63-4.89 41.32-15.68 6.02-5.81 9.92-13.92 10.5-22.27.03-43.39-.01-86.79.02-130.18.18-5.23-1.88-10.69-6.33-13.69-6.58-4.49-14.86-4.18-22.41-5.43-2.03-.54-5.12-.63-5.82-2.99-.27-4.41-.58-8.97.28-13.33 1.14-2.16 4.13-1.91 6.24-2.04 23.34.02 46.67.01 70.01.01 5.38.01 10.48-2.36 15.86-2.19 3.8.84 4 5.46 3.54 8.59-3.97 34.87-3.01 70.01-3.13 105.04.07 20.99-.28 41.99.58 62.97.3 6.6.89 13.41 3.71 19.49 1.35 3.03 3.9 6.03 7.44 6.29 6.69.33 13.4-.14 20.02-1.08 1.88-.19 4.63-.46 5.5 1.7.87 3.86 1.81 7.77 2 11.73.18 1.57-1.37 2.56-2.69 2.87-24.51 6.97-49.12 13.62-73.61 20.66-3.41.74-7.2 1.32-10.48-.19-2.44-1.08-3.32-3.85-3.55-6.29-1.14-10.12-2.16-20.25-3.26-30.37-.76.02-2.26.04-3.02.05-10.64 16.28-28.15 26.88-46.25 33.05-14.63 5.06-30.4 5.21-45.64 3.66-12.75-1.42-24.38-8.27-32.92-17.68-12.01-12.99-20.75-29.31-23.47-46.9-2.6-16.49-1.79-33.25-1.94-49.89-.15-4.9.26-9.8.34-14.7.04-20.06.62-40.15-.2-60.2-.37-5.68-.67-11.55-3.12-16.79-2.2-4.7-6.51-8.3-11.5-9.68-4.66-1.29-9.55-1.38-14.29-2.24-1.18-.58-2.91-.93-3.09-2.5-.23-4.26-.37-8.58.13-12.81.49-2.69 3.94-2.43 6.06-2.66 20-.02 40 0 60-.01 4.58-.05 9.24.35 13.74-.79z" fill="#369"/>
  <g fill="#aebcc9">
    <path d="M263.55 211.93c6.96 5.42 12.69 12.21 19.02 18.33-5.16 3.91-9.74 8.49-13.98 13.36-2.03-10.51-2.66-21.26-5.04-31.69zM465.9 233.4c4.74.86 9.63.95 14.29 2.24 4.99 1.38 9.3 4.98 11.5 9.68 2.45 5.24 2.75 11.11 3.12 16.79-3.24-1.99-5.97-4.64-8.53-7.41-6.64-7.25-14.5-13.39-20.38-21.3zm-156.29 8.4c14.86-2.18 30.58 2.71 41.28 13.3 14.5 14.13 21.66 33.94 25.86 53.33 5.02 25.48 6.42 52.29-.59 77.54-4.41 15.71-13.34 31.23-28.13 39.15-12.48 6.95-27.47 6.1-41.02 3.41-10.52-2.08-20.07-7.49-28.12-14.44-6.89-6.74-9.45-16.73-9.32-26.12.13-40.9-.19-81.82.16-122.71 9.23-12.94 24.23-21.31 39.88-23.46z"/>
    <path d="M417.11 246.61c1.53.38 3.05.96 4.14 2.16 13.24 13.41 26.62 26.68 39.93 40.01 11.34 11.11 22.23 22.69 33.83 33.53-.08 4.9-.49 9.8-.34 14.7.15 16.64-.66 33.4 1.94 49.89 2.72 17.59 11.46 33.91 23.47 46.9 8.54 9.41 20.17 16.26 32.92 17.68.01 108.2-.02 216.4.01 324.6.38 3.17-1.75 6.02-4.74 6.92H362.31c-10.01-10.74-20.74-20.79-30.99-31.3-41.33-41.34-82.68-82.67-124.02-124.01-9.82-10.11-20.22-19.67-29.72-30.1 14.48-.38 28.95-1.43 43.43-1.6 27.68-.54 55.38-.05 83.01 1.62 2.17.01 5.59.04 6.07-2.71.43-4.94.37-9.95.04-14.88-.04-2.19-2.27-3.23-4.17-3.23-5.98-.31-11.96-.04-17.94-.1-3.48-.09-7.26.42-10.43-1.35-3.16-1.92-4.26-5.76-5.11-9.13-2.52-12.62-1.59-25.57-2.06-38.35-.31-28.41-.74-56.82-.84-85.24 11.76 5.3 24.53 8.06 37.34 9.19 22.25 2.14 45.18-2.26 64.81-13.03 24.73-13.28 43.71-35.94 54.43-61.7 8.49-20.19 12.23-42.23 11.85-64.08-.07-15.06-1.87-30.37-7.75-44.35-3.26-7.95-7.93-15.25-13.15-22.04zm-227.36 19.65c-2.37-2.43-5.5-4.54-6.28-8.06 6.6 3.71 13.71 6.76 19.5 11.75 5.2 4.28 7.95 10.86 8.42 17.48-7.6-6.65-14.3-14.23-21.64-21.17z"/>
  </g>
</svg>
