<svg xmlns="http://www.w3.org/2000/svg" viewBox="0 0 580 217.5" height="217.5" width="580">
  <path d="M161.21 75L127.5 63.75V15l33.75 10-.04 50M170 25l33.75-10-.117 48.716L170 75V25M196.875 9.72L165.42 0l-31.045 9.72 31.09 8.335 31.41-8.334M246.21 75L212.5 63.75V15l33.75 10-.04 50M255 25l33.75-10-.117 48.716L255 75V25M281.875 9.72L250.42 0l-31.045 9.72 31.09 8.335 31.41-8.334M33.75 96.25L0 86.25V135l33.71 11.25.04-50M42.5 96.25l33.75-10-.117 48.717L42.5 146.25v-50M69.375 80.97L37.92 71.25 6.875 80.97l31.09 8.335 31.41-8.334M118.71 146.25L85 135V86.25l33.75 10-.04 50M127.5 96.25l33.75-10-.117 48.717L127.5 146.25v-50M154.375 80.97l-31.455-9.72-31.045 9.72 31.09 8.335 31.41-8.334M76.21 217.5L42.5 206.25V157.5l33.75 10-.04 50M85 167.5l33.75-10-.117 48.717L85 217.5v-50M111.875 152.22L80.42 142.5l-31.045 9.72 31.09 8.335 31.41-8.334" fill="#f68d11"/>
  <path d="M225.488 174.406l-2.48.01c-.91 0-2.07.614-2.355 1.61l-7.524 26.507-7.442-26.45c-.224-.828-1.005-1.668-2.068-1.668h-2.936c-1.058 0-1.83.85-2.043 1.686l-6.92 26.175-7.154-26.255c-.282-.96-1.47-1.605-2.403-1.605l-3.57-.006c-.762 0-1.47.326-1.85.854-.258.357-.33.762-.21 1.115l11.05 39.12c.243.82.956 1.65 1.998 1.65h3.55c.96 0 1.8-.7 2.04-1.69l6.803-26.06 7.4 26.09c.223.8.94 1.66 1.987 1.66h3.49c.973 0 1.79-.675 2.03-1.664l10.636-39.09c.125-.377.053-.796-.2-1.148-.375-.52-1.075-.842-1.828-.842M256.173 191.015h-18.748c.43-5.26 3.848-10.716 9.635-10.926 6.16.2 8.976 5.53 9.113 10.925zm-9.127-16.888c-12.663 0-18.43 11.195-18.43 21.597 0 12.98 7.17 21.368 18.265 21.368 7.943 0 13.996-4.012 16.61-11.022.14-.4.098-.836-.12-1.226-.267-.474-.772-.83-1.37-.963l-3.515-.67c-.944-.15-2.025.41-2.382 1.22-1.708 3.896-4.82 6.106-8.727 6.22-3.758-.115-7.21-2.348-8.79-5.684-1.286-2.725-1.476-5.41-1.497-8.142l25.45-.01c.534 0 1.086-.234 1.476-.63.327-.327.504-.734.5-1.14-.062-10.114-4.683-20.917-17.47-20.917M295.827 195.786c0 2.395-.433 14.354-8.93 14.66-2.847-.11-5.725-1.782-7.332-4.257-1.184-1.873-1.875-4.46-2.053-7.66v-7.037c.14-5.39 3.933-11.305 9.358-11.534 8.525.335 8.957 13.24 8.957 15.826zm-7.597-22.022h-.674c-4.204 0-7.507 1.746-10.044 5.325l-.003-16.492c0-.927-.958-1.77-2.014-1.77h-3.66c-.956 0-2.026.757-2.03 1.77v51.48c.005.935.96 1.784 2.016 1.784l1.075-.006c1.015 0 1.738-.817 1.982-1.577l1.144-3.635c2.66 3.777 6.666 5.996 10.953 5.996h.657c11.293 0 16.348-10.984 16.348-21.87 0-5.42-1.336-10.6-3.665-14.215-2.69-4.19-7.323-6.79-12.087-6.79M344.06 194.627c-2.38-1.71-5.243-2.28-8.11-2.853l-5.495-1.02c-3.944-.647-6.226-1.705-6.226-5.185 0-3.68 3.81-5.086 7.044-5.174 3.947.1 6.916 1.86 8.357 4.96.344.73 1.103 1.22 1.89 1.22.136 0 .274-.015.404-.043l3.43-.758c.56-.124 1.082-.507 1.362-1.007.224-.396.273-.828.14-1.214-2.1-6.114-7.428-9.345-15.49-9.345-7.283.015-15.067 3.254-15.067 12.3 0 6.182 3.884 10.11 11.554 11.67l6.152 1.173c3.378.647 6.832 1.797 6.832 5.423 0 5.37-6.248 5.916-8.137 5.955-4.236-.09-9.034-1.98-10.2-5.983-.232-.88-1.34-1.502-2.31-1.3l-3.59.74c-.54.114-1.032.465-1.32.94-.24.394-.31.837-.2 1.24 1.853 6.642 8.264 10.647 17.15 10.714l.2.003c7.936 0 16.417-3.4 16.417-12.934 0-3.882-1.746-7.353-4.788-9.523M380.344 191.054H361.59c.43-5.266 3.846-10.724 9.634-10.924 6.156.195 8.977 5.525 9.12 10.924zm-9.13-16.89c-12.666 0-18.435 11.195-18.435 21.596 0 12.98 7.17 21.366 18.268 21.366 7.942 0 13.996-4.012 16.613-11.02.14-.402.096-.838-.124-1.23-.266-.474-.772-.83-1.37-.96l-3.518-.672c-.824-.134-1.973.292-2.378 1.223-1.71 3.893-4.822 6.103-8.725 6.223-3.763-.12-7.213-2.353-8.787-5.688-1.288-2.718-1.48-5.407-1.498-8.145l25.45-.006c.53 0 1.078-.232 1.468-.625.327-.33.505-.736.5-1.146-.058-10.113-4.675-20.917-17.464-20.917M412.71 174.64c-.495-.056-.972-.082-1.436-.082-4.27 0-7.74 2.322-10.148 6.758l.01-3.885c-.005-.94-.943-1.766-2.01-1.766h-3.178c-1.043 0-1.963.83-1.97 1.782l-.005 37.74c0 .95.92 1.78 1.97 1.78h3.708c.966 0 2.053-.758 2.06-1.78l.004-19.026c0-3.138.292-5.5 1.79-8.298 2.142-3.983 5.132-5.937 9.142-5.97 1.005-.006 1.888-.883 1.888-1.877v-3.53c0-.924-.8-1.735-1.823-1.846M451.65 173.898h-2.93c-.916 0-2.093.66-2.378 1.626l-9.493 29.838-9.696-29.808c-.286-.99-1.465-1.655-2.388-1.655l-4.182-.005c-.768 0-1.51.342-1.89.87-.255.355-.325.757-.2 1.13l13.27 39.362c.255.78.93 1.69 2 1.69h5.062c.93 0 1.69-.633 2.04-1.693l12.87-39.345c.128-.375.06-.778-.195-1.133-.38-.533-1.123-.88-1.89-.88M461.272 158.768c-2.697 0-4.89 2.2-4.89 4.906 0 2.706 2.193 4.905 4.89 4.905 2.7 0 4.895-2.2 4.895-4.906 0-2.707-2.196-4.906-4.895-4.906M463.286 173.658l-4.016-.004c-1.093 0-2.087.884-2.087 1.852l-.02 40.074c0 .485.25.966.682 1.324.396.325.902.512 1.41.512l4.046.006h.004c1.11-.01 2.082-.87 2.082-1.84v-40.076c0-.985-.982-1.848-2.1-1.848M500.82 200.833l-3.354.012c-.936 0-1.72.563-2.07 1.54-1.225 5.285-4 8.024-8.207 8.145-8.196-.244-8.832-11.666-8.832-15.16 0-6.97 2.413-14.492 9.152-14.69 4.067.124 7.026 3.04 7.914 7.793.167.97.912 1.703 1.93 1.83l3.59.036c1.07-.117 1.912-.93 1.905-1.935-1.27-8.59-7.223-14.14-15.176-14.14l-.275.008-.312-.008c-11.568 0-16.747 10.796-16.747 21.495 0 9.81 4.368 21.262 16.683 21.262h.59c7.755 0 13.608-5.436 15.285-14.25.037-.42-.108-.84-.405-1.18-.385-.443-1-.727-1.673-.76M533.942 191.054h-18.755c.43-5.268 3.847-10.724 9.638-10.924 6.157.195 8.977 5.525 9.117 10.924zm-9.13-16.89c-12.665 0-18.432 11.195-18.432 21.596 0 12.98 7.17 21.366 18.27 21.366 7.937 0 13.99-4.01 16.61-11.02.135-.403.09-.84-.13-1.23-.27-.477-.76-.826-1.366-.96l-3.515-.672c-.83-.134-1.974.292-2.38 1.223-1.713 3.893-4.828 6.103-8.73 6.224-3.76-.12-7.21-2.353-8.784-5.688-1.29-2.722-1.48-5.41-1.5-8.145l25.45-.003c.536 0 1.09-.236 1.48-.633.325-.33.5-.738.494-1.14-.06-10.113-4.678-20.917-17.468-20.917M574.164 194.627c-2.384-1.71-5.25-2.282-8.11-2.853l-5.496-1.02c-3.94-.647-6.222-1.705-6.222-5.185 0-4.746 5.89-5.143 7.038-5.174 3.95.1 6.92 1.86 8.358 4.96.345.73 1.107 1.22 1.897 1.22.135 0 .27-.015.404-.043l3.427-.758c.56-.124 1.082-.51 1.362-1.007.223-.397.272-.828.138-1.214-2.096-6.114-7.426-9.345-15.49-9.345-7.283.015-15.064 3.254-15.064 12.3 0 6.184 3.884 10.11 11.553 11.67l6.154 1.174c3.377.646 6.83 1.796 6.83 5.422 0 5.37-6.247 5.916-8.135 5.955-3.93-.083-8.96-1.705-10.2-5.977-.228-.885-1.334-1.507-2.323-1.306l-3.58.74c-.543.116-1.038.47-1.326.944-.238.397-.306.836-.194 1.238 1.846 6.64 8.256 10.646 17.145 10.713l.2.003c7.937 0 16.42-3.4 16.42-12.934 0-3.885-1.745-7.356-4.786-9.523" fill="#100f0d"/>
  <path d="M410.894 96.502v-9.1c.005-1.38 1.052-2.306 2.31-2.304l40.769-.002c1.3 0 2.35.95 2.35 2.296v7.804c-.012 1.306-1.115 3.014-3.07 5.727l-21.117 30.15c7.835-.185 16.13.988 23.25 4.99 1.61.903 2.036 2.242 2.168 3.55v9.71c0 1.338-1.465 2.886-3.003 2.08-12.547-6.575-29.2-7.293-43.08.076-1.416.755-2.9-.77-2.9-2.107v-9.227c0-1.472.03-4 1.515-6.253l24.47-35.098-21.302-.005c-1.304 0-2.347-.928-2.36-2.287M262.18 153.317h-12.405c-1.18-.077-2.123-.966-2.216-2.1l.007-63.66c0-1.273 1.073-2.29 2.393-2.29l11.55-.007c1.21.068 2.18.98 2.26 2.138v8.317h.23c3.01-8.04 8.682-11.786 16.322-11.786 7.757 0 12.62 3.744 16.094 11.785 3.013-8.04 9.84-11.786 17.14-11.786 5.212 0 10.878 2.14 14.352 6.96 3.936 5.36 3.125 13.125 3.125 19.96l-.008 40.174c0 1.27-1.07 2.293-2.39 2.293h-12.387c-1.248-.077-2.23-1.072-2.23-2.287v-33.75c0-2.68.23-9.38-.348-11.923-.93-4.29-3.71-5.49-7.292-5.49-3.014 0-6.142 2.01-7.415 5.22-1.273 3.22-1.155 8.577-1.155 12.192v33.744c0 1.27-1.072 2.293-2.393 2.293h-12.39c-1.24-.077-2.225-1.072-2.225-2.287l-.016-33.75c0-7.102 1.16-17.546-7.636-17.546-8.915 0-8.568 10.178-8.568 17.545l-.007 33.744c.005 1.27-1.068 2.293-2.392 2.293M491.536 96.918c-9.15 0-9.727 12.457-9.727 20.23 0 7.768-.116 24.377 9.614 24.377 9.61 0 10.072-13.396 10.072-21.566 0-5.36-.23-11.787-1.85-16.878-1.394-4.422-4.17-6.164-8.11-6.164zm-.112-12.99c18.407 0 28.366 15.806 28.366 35.892 0 19.43-11.004 34.835-28.366 34.835-18.064 0-27.908-15.81-27.908-35.5 0-19.826 9.955-35.226 27.908-35.226M543.665 153.317h-12.36c-1.244-.077-2.225-1.072-2.225-2.287l-.018-63.69c.103-1.16 1.133-2.074 2.378-2.074l11.51-.006c1.084.06 1.974.797 2.2 1.784v9.74h.236c3.47-8.708 8.335-12.855 16.9-12.855 5.558 0 11.003 2.003 14.474 7.496 3.24 5.09 3.24 13.66 3.24 19.823v40.06c-.14 1.13-1.145 2.007-2.37 2.007h-12.44c-1.148-.074-2.07-.922-2.21-2.007v-34.567c0-6.965.814-17.148-7.758-17.148-3.008 0-5.783 2.014-7.175 5.09-1.738 3.884-1.968 7.77-1.968 12.058v34.28c-.023 1.27-1.095 2.294-2.415 2.294M390.9 153.156c-.824.734-2 .783-2.93.29-4.118-3.425-4.858-5.012-7.11-8.27-6.808 6.936-11.63 9.016-20.445 9.016-10.446 0-18.566-6.445-18.566-19.332 0-10.066 5.45-16.913 13.224-20.272 6.73-2.954 16.13-3.492 23.322-4.3v-1.61c0-2.95.23-6.443-1.51-8.992-1.505-2.282-4.406-3.22-6.962-3.22-4.732 0-8.935 2.426-9.97 7.45-.21 1.116-1.03 2.224-2.154 2.278l-12.02-1.302c-1.016-.23-2.143-1.04-1.85-2.59 2.764-14.587 15.934-18.995 27.737-18.995 6.03 0 13.924 1.61 18.682 6.174 6.03 5.642 5.45 13.16 5.45 21.35v19.322c0 5.813 2.415 8.364 4.686 11.497.786 1.13.964 2.468-.046 3.296-2.533 2.123-7.034 6.03-9.508 8.238l-.033-.028zm-12.504-30.245c0 4.835.115 8.866-2.322 13.16-1.973 3.492-5.108 5.638-8.59 5.638-4.75 0-7.535-3.623-7.535-8.996 0-10.56 9.476-12.484 18.446-12.484v2.683M228.306 153.156c-.82.734-2.006.783-2.934.29-4.118-3.425-4.856-5.012-7.11-8.27-6.805 6.936-11.628 9.016-20.45 9.016-10.442 0-18.565-6.445-18.565-19.332 0-10.066 5.457-16.913 13.23-20.272 6.732-2.954 16.13-3.492 23.323-4.3v-1.61c0-2.95.234-6.443-1.51-8.992-1.506-2.282-4.41-3.22-6.96-3.22-4.73 0-8.94 2.426-9.97 7.45-.215 1.116-1.03 2.224-2.154 2.278l-12.024-1.302c-1.015-.23-2.142-1.04-1.85-2.59 2.762-14.587 15.933-18.995 27.735-18.995 6.038 0 13.925 1.61 18.684 6.174 6.035 5.642 5.452 13.16 5.452 21.35v19.322c0 5.813 2.418 8.364 4.683 11.497.79 1.13.97 2.468-.04 3.296-2.534 2.123-7.038 6.03-9.51 8.238l-.03-.028zM215.8 122.91c0 4.835.114 8.866-2.32 13.16-1.97 3.492-5.107 5.638-8.584 5.638-4.762 0-7.545-3.623-7.545-8.996 0-10.56 9.476-12.484 18.45-12.484v2.683" fill="#100f0d" fill-rule="evenodd"/>
</svg>
