<svg xmlns="http://www.w3.org/2000/svg" viewBox="0 0 96 96" height="96" width="96">
  <path d="M95.997 96H0V.006h95.997V96" fill="#827460"/>
  <path d="M6.258 91.412v-30.63h4.56v26.63h5.807v4H6.258M22.647 65.73c0-1.548.473-1.893 1.42-1.893.903 0 1.376.345 1.376 1.894v20.735c0 1.548-.473 1.892-1.376 1.892-.947 0-1.42-.344-1.42-1.892zm-4.56 21.122c0 4 3.14 5.163 5.936 5.163 2.84 0 5.98-1.162 5.98-5.163v-21.51c0-4-3.14-5.16-5.98-5.16-2.795 0-5.936 1.16-5.936 5.16v21.51M40.628 71.967V65.73c0-1.548-.473-1.893-1.376-1.893-.947 0-1.42.345-1.42 1.894v20.735c0 1.548.473 1.892 1.42 1.892.903 0 1.376-.344 1.376-1.892V79.84h4.56v7.012c0 4-3.14 5.163-5.98 5.163-2.795 0-5.936-1.162-5.936-5.163v-21.51c0-4 3.14-5.16 5.936-5.16 2.84 0 5.98 1.16 5.98 5.16v6.625h-4.56M48.586 91.412v-30.63h4.56v13.81h.13l3.483-13.81h4.43l-3.484 13.98 3.57 16.65h-4.69l-3.31-15.53h-.13v15.53h-4.56M68.202 86.465c0 1.548.473 1.892 1.42 1.892.903 0 1.375-.344 1.375-1.892V83.24c0-4.304-7.355-8.52-7.355-13.51v-4.387c0-4 3.14-5.16 5.936-5.16 2.84 0 5.98 1.16 5.98 5.16v6.452h-4.56V65.73c0-1.548-.473-1.893-1.377-1.893-.945 0-1.418.345-1.418 1.894v3.786c0 2.194 7.355 8.818 7.355 11.916v5.42c0 4-3.14 5.163-5.98 5.163-2.794 0-5.935-1.162-5.935-5.163v-7.055h4.56v6.668M83.387 86.465c0 1.548.472 1.892 1.42 1.892.903 0 1.375-.344 1.375-1.892V83.24c0-4.304-7.355-8.52-7.355-13.51v-4.387c0-4 3.14-5.16 5.936-5.16 2.84 0 5.98 1.16 5.98 5.16v6.452h-4.56V65.73c0-1.548-.473-1.893-1.376-1.893-.948 0-1.42.345-1.42 1.894v3.786c0 2.194 7.355 8.818 7.355 11.916v5.42c0 4-3.14 5.163-5.98 5.163-2.794 0-5.935-1.162-5.935-5.163v-7.055h4.56v6.668" fill="#231f20"/>
  <path d="M30.03 57.49c-.238.703.128 1.466.822 1.722 1.277.47 7.795 2.728 10.838 1.048.86-.475 1.42-1.22 1.62-2.154.87-4.107-.21-9.158-4.637-10.543-4.454-1.39-7.743 7.246-8.644 9.927M66.622 49.378c-2.863 1.927-3.7 8.398-3.84 9.677-.07.64.317 1.244.93 1.448 2.034.674 8.87 2.73 11.43.845.732-.538 1.124-1.347 1.107-2.28-.077-4.103-2.216-8.83-6.82-10.14-.983-.282-1.952-.124-2.808.45" fill="#fff"/>
  <path d="M90.942 37.63c-.017-.2-.177-.357-.378-.37-.2-.012-.378.125-.418.322-.047.23-1.195 5.47-8.115 4.37-1.306-14.164-13.117-25.074-28.212-25.41-14.343-.316-26.145 9.037-28.943 22.057-.407-.01-.86-.084-1.295-.29-.82-.387-1.43-1.16-1.81-2.297-1.447-4.312-6.674-5.068-9.662-5.134-2.89-.065-4.682.424-5.635 1.536-1.132 1.32-.793 3.23-.465 5.075l.057.327c.423 2.415 1.65 2.267 3.072 2.098.953-.116 2.14-.26 3.687.136 2.082.53 2.316 1.733 2.612 3.257.22 1.127.47 2.404 1.592 3.383 1.59 1.386 5.47 1.443 7.126 1.4l-.022.99c-.026 1.183.91 2.163 2.093 2.188 1.183.027 2.162-.91 2.19-2.093l.113-5.15c.293-13.315 11.363-23.505 25.195-23.2 13.834.307 24.438 10.977 24.144 24.293l-.114 5.15c-.026 1.18.913 2.16 2.095 2.187 1.182.027 2.162-.91 2.188-2.093l.054-2.43c1.422-.024 4.393-.348 6.532-2.46 1.807-1.785 2.588-4.424 2.32-7.843" fill="#fff"/>
  <path d="M14.198 34.732c-.017.67-.59 1.2-1.287 1.184-.695-.015-1.246-.57-1.23-1.24.014-.67.587-1.2 1.285-1.183.696.013 1.248.57 1.233 1.24" fill="#231f20"/>
</svg>
