<svg width="256" height="50" viewBox="0 0 128 25" xmlns="http://www.w3.org/2000/svg">
  <title>
    logo-full
  </title>
  <g fill="none" fill-rule="evenodd">
    <path d="M22.006 7.018l.018.002.017-.002c2.385 0 4.318 1.93 4.318 4.317 0 1.335-.607 2.528-1.56 3.32-.414.393-.933.68-1.568.827-.376.11-.777.17-1.19.17h-.034c-.412 0-.812-.06-1.19-.17-.633-.147-1.154-.434-1.568-.828-.953-.79-1.56-1.984-1.56-3.32 0-2.385 1.934-4.316 4.318-4.316M3.723 24.385c2.318.292 4.378-1.397 4.597-3.77.073-.802-.078-1.58-.39-2.267-3.25-7.13 12.78-7.293 10.072-.563l-.018.03c-1.28 2.046-.587 4.708 1.543 5.94.783.452 1.65.64 2.497.607.848.034 1.715-.155 2.497-.608 2.13-1.23 2.824-3.893 1.543-5.94-.006-.012-.013-.02-.02-.03-2.706-6.73 13.325-6.566 10.074.564-.314.688-.462 1.465-.39 2.266.22 2.374 2.278 4.063 4.598 3.77 1.03-.13 1.94-.628 2.613-1.35 0 0 1.08-.895 1.062-3.18-.015-1.86-1.062-2.89-1.062-2.89-.842-.853-2.042-1.32-3.326-1.184-2.976-.068-3.417-2.396-2.577-6.79.308-.78.442-1.614.414-2.45.082-2.245-1.048-4.46-3.127-5.665-.254-.147-.515-.266-.78-.375-.07-.03-.144-.057-.216-.085-.082-.03-.162-.06-.245-.085-.648-.22-1.34-.337-2.06-.33-2.238.02-4.188 1.218-5.28 2.995-1.5 1.643-2.177 2.642-3.718 2.642-1.465 0-2.22-1-3.718-2.642C17.213 1.218 15.263.02 13.024 0c-.72-.007-1.41.11-2.058.33-.083.024-.165.056-.245.085-.072.028-.144.054-.217.085-.263.11-.525.228-.777.375-2.082 1.205-3.21 3.42-3.13 5.666-.027.836.11 1.67.417 2.45.84 4.394.398 6.722-2.576 6.79-1.458-.157-2.545.443-3.645 1.544-1.1 1.1-1.01 4.044 0 5.33.733.934 1.727 1.58 2.93 1.73" fill="#323232"/>
    <path d="M64.728 19l-.653-10.886-4.877 11.155L54.84 8.132 54.053 19H52.65l.942-12.653h1.94l1.746 4.282c.27.677.528 1.336.778 1.976.25.64.47 1.216.662 1.728.192.512.346.932.46 1.258l.193.547c.014-.04.084-.225.212-.558.128-.332.295-.758.5-1.276.204-.52.438-1.092.7-1.72.263-.626.528-1.253.797-1.88l1.9-4.36h1.824L66.226 19h-1.498zm5.107-4.82c-.025.103-.038.18-.038.23v.25c0 1.063.246 1.88.74 2.45.492.568 1.193.853 2.1.853.257 0 .52-.025.79-.077.267-.05.523-.118.767-.2.243-.084.467-.18.672-.29.204-.108.37-.22.5-.335l.114 1.345c-.384.243-.826.445-1.325.605-.5.16-1.158.24-1.977.24-.55 0-1.063-.103-1.536-.308-.474-.204-.887-.502-1.24-.892-.35-.39-.63-.868-.834-1.43-.205-.564-.307-1.21-.307-1.94 0-.742.097-1.402.29-1.978.19-.576.46-1.06.805-1.45.346-.39.755-.684 1.23-.882.473-.2.99-.298 1.554-.298 1.292 0 2.198.342 2.716 1.027.518.684.778 1.71.778 3.08h-5.8zm4.455-1.15c-.026-.385-.103-.69-.23-.913-.13-.224-.295-.397-.5-.52-.205-.12-.438-.197-.7-.23-.263-.03-.535-.047-.817-.047-.205 0-.435.032-.69.096-.257.064-.41.122-.462.173-.024.024-.076.072-.152.143-.077.07-.157.166-.24.288-.084.122-.17.266-.26.433-.09.166-.16.358-.21.576h4.262zm11 2.86c0 .28-.002.57-.008.864l-.02.97c-.006.35-.016.777-.028 1.276h-1.46c.013-.486.023-.896.03-1.23.006-.332.01-.632.01-.9v-2.94c0-.178-.008-.357-.02-.536-.026-.333-.055-.624-.087-.874-.032-.25-.1-.458-.2-.624-.104-.166-.248-.29-.433-.374-.186-.084-.44-.125-.76-.125-.127 0-.258.01-.392.03-.135.018-.266.037-.394.056-.128.02-.237.045-.326.077l-.192.067c-.052.026-.135.093-.25.202-.115.108-.243.24-.384.392-.14.154-.285.314-.432.48-.147.167-.272.32-.374.46V19h-1.48v-6.278c0-.5-.015-.94-.047-1.325-.032-.384-.067-.75-.105-1.095H79.3l.23 1.287c.372-.436.785-.798 1.24-1.086.454-.288 1.014-.432 1.68-.432.384 0 .74.035 1.065.106.327.07.608.192.845.364.237.173.43.407.576.7.147.296.24.667.278 1.115.04.435.06.867.068 1.296.006.43.01.86.01 1.296v.94zM94.26 19c-.04-.166-.07-.34-.096-.518l-.077-.52c-.435.462-.85.792-1.248.99-.397.198-.883.298-1.46.298-.524 0-1.01-.11-1.46-.327-.447-.217-.837-.525-1.17-.92-.333-.398-.595-.875-.787-1.432-.192-.556-.288-1.18-.288-1.87 0-1.473.397-2.612 1.19-3.418.794-.807 1.87-1.21 3.226-1.21.397 0 .726.026.99.077.26.05.565.12.91.21V4.984h1.48V16.6c0 .435.012.835.038 1.2.025.365.064.765.115 1.2H94.26zm-.27-6.048c0-.358-.03-.643-.095-.854-.064-.212-.173-.375-.327-.49-.153-.115-.36-.19-.624-.22-.262-.033-.592-.05-.988-.05-.14 0-.295.008-.46.02-.168.013-.324.032-.472.058-.147.026-.28.054-.403.086-.122.032-.21.074-.26.125-.064.05-.154.154-.27.307-.114.154-.232.356-.354.605-.122.25-.227.543-.317.882-.09.34-.135.72-.135 1.143 0 .576.077 1.078.23 1.507.154.43.346.784.576 1.066.232.28.48.49.75.624s.525.2.768.2c.256 0 .5-.044.73-.133.23-.09.448-.206.652-.347.205-.14.39-.3.557-.48.167-.18.314-.365.442-.557v-3.494zm5.55 1.23c-.026.1-.04.178-.04.23v.25c0 1.06.248 1.877.74 2.447.493.568 1.194.853 2.103.853.257 0 .52-.025.788-.077.27-.05.525-.118.768-.2.243-.084.467-.18.672-.29.205-.108.37-.22.5-.335l.114 1.345c-.384.243-.825.445-1.324.605-.5.16-1.16.24-1.978.24-.55 0-1.062-.103-1.536-.308-.474-.204-.886-.502-1.238-.892s-.63-.868-.836-1.43c-.204-.564-.307-1.21-.307-1.94 0-.742.096-1.402.288-1.978.193-.576.462-1.06.808-1.45.345-.39.755-.684 1.228-.882.474-.2.992-.298 1.556-.298 1.292 0 2.198.342 2.716 1.027.52.684.778 1.71.778 3.08h-5.798zm4.454-1.153c-.026-.385-.102-.69-.23-.913-.128-.224-.295-.397-.5-.52-.204-.12-.438-.197-.7-.23-.263-.03-.535-.047-.816-.047-.205 0-.436.032-.692.096-.256.064-.41.122-.46.173l-.154.143c-.077.07-.157.166-.24.288-.083.122-.17.266-.26.433-.09.166-.16.358-.21.576h4.262zm3.57 5.97V4.984h1.48V19h-1.48zm5.435-4.82c-.026.103-.04.18-.04.23v.25c0 1.063.248 1.88.74 2.45.493.568 1.194.853 2.103.853.256 0 .518-.025.787-.077.27-.05.525-.118.768-.2.243-.084.467-.18.672-.29.205-.108.37-.22.5-.335l.115 1.345c-.384.243-.826.445-1.325.605-.5.16-1.16.24-1.978.24-.55 0-1.063-.103-1.537-.308-.473-.204-.886-.502-1.238-.892s-.63-.868-.835-1.43c-.205-.564-.308-1.21-.308-1.94 0-.742.096-1.402.288-1.978.192-.576.46-1.06.807-1.45.345-.39.755-.684 1.23-.882.472-.2.99-.298 1.554-.298 1.294 0 2.2.342 2.718 1.027.518.684.777 1.71.777 3.08h-5.798zm4.454-1.15c-.024-.385-.1-.69-.23-.913-.127-.224-.294-.397-.498-.52-.205-.12-.44-.197-.7-.23-.264-.03-.536-.047-.817-.047-.205 0-.435.032-.69.096-.257.064-.41.122-.462.173l-.154.143c-.078.07-.158.166-.24.288-.084.122-.17.266-.26.433-.09.166-.16.358-.21.576h4.26zm6.702 6.373c-.256.73-.528 1.463-.816 2.2-.288.735-.58 1.46-.874 2.178h-1.612c.384-.83.76-1.64 1.132-2.428.372-.787.685-1.54.94-2.256l-3.378-8.794h1.574l2.535 6.682 2.265-6.682h1.46l-3.226 9.1z" fill="#000"/>
  </g>
</svg>
