<svg xmlns="http://www.w3.org/2000/svg" width="542" height="165.332" viewBox="0 0 542 165.332">
  <path fill="#A7A9AC" d="M297.864 12.22h3.938v141.55h-3.938z"/>
  <g fill="#808285">
    <path d="M31.215 108.364c-2.366-1.252-4.51-1.836-6.764-1.836-4.73 0-8.293 3.59-8.293 8.404 0 4.898 3.534 8.35 8.49 8.35 2.142 0 4.173-.584 6.762-1.947v1.53c-2.2 1.17-4.537 1.78-6.736 1.78-5.79 0-10.104-4.146-10.104-9.713 0-5.816 4.76-9.77 9.965-9.77 2.115 0 4.37.53 6.68 1.588v1.614zM39.59 124.646c-3.647 0-6.374-2.783-6.374-6.484 0-3.73 2.728-6.512 6.373-6.512s6.345 2.783 6.345 6.512c0 3.7-2.7 6.484-6.346 6.484zm0-11.69c-2.84 0-4.955 2.2-4.955 5.205 0 2.98 2.115 5.18 4.954 5.18 2.81 0 4.926-2.2 4.926-5.18s-2.116-5.204-4.927-5.204zM50.09 114.07h.057c1.17-1.753 2.31-2.42 4.12-2.42 2.67 0 4.646 1.75 4.646 5.12v7.625h-1.336v-7.125c0-2.81-1.196-4.314-3.395-4.314-1.81 0-2.98.863-4.092 2.672v8.768h-1.336V111.9h1.336v2.17zM63.685 114.07h.057c1.168-1.753 2.31-2.42 4.12-2.42 2.67 0 4.646 1.75 4.646 5.12v7.625h-1.336v-7.125c0-2.81-1.196-4.314-3.396-4.314-1.81 0-2.98.863-4.092 2.672v8.768h-1.336V111.9h1.336v2.17zM76.675 117.688c-.39 3.2 2.144 5.65 4.982 5.65 1.67 0 3.033-.557 4.648-1.865v1.502c-1.476 1.143-3.006 1.67-4.815 1.67-3.618 0-6.234-2.783-6.234-6.65 0-3.674 2.42-6.346 5.733-6.346 2.67 0 5.538 1.862 5.538 6.038h-9.853zm8.266-1.085c-.473-2.45-1.81-3.646-3.95-3.646-2.06 0-3.675 1.365-4.148 3.646h8.1zM98.01 113.735c-1.448-.61-2.2-.78-3.257-.78-2.783 0-4.703 2.116-4.703 5.233 0 3.146 1.864 5.15 4.814 5.15 1.14 0 1.977-.168 3.367-.725v1.393c-1.418.473-2.31.64-3.478.64-3.674 0-6.123-2.532-6.123-6.317 0-3.927 2.504-6.68 6.066-6.68 1.085 0 1.92.165 3.312.61v1.475zM104.044 111.9h3.508v1.085h-3.508v7.43c0 2.145.028 2.924 1.865 2.924.75 0 1.168-.112 2.28-.614v1.28c-.25.14-.667.278-1.14.417-.474.11-1.003.223-1.448.223-1.39 0-2.895-.78-2.895-2.672v-8.988H99.34V111.9h3.367v-2.98l.92-1.167h.416v4.146zM111.575 107.696h-1.336v-2.28h1.335v2.28zm0 16.7h-1.336V111.9h1.335v12.496zM116.42 114.07h.055c1.17-1.753 2.31-2.42 4.12-2.42 2.67 0 4.646 1.75 4.646 5.12v7.625h-1.335v-7.125c0-2.81-1.196-4.314-3.395-4.314-1.81 0-2.98.863-4.092 2.672v8.768h-1.336V111.9h1.336v2.17zM138.313 112.985h-2.84c1.198 1.113 1.727 2.06 1.727 3.31 0 5.597-7.097 3.76-7.097 6.18 0 2.728 8.182-.612 8.182 4.677 0 2.28-2.087 3.646-5.594 3.646-3.84 0-5.48-1.56-5.48-3.34 0-1.588 1.307-2.672 3.645-3.035v-.055c-1.336-.307-2.032-.918-2.032-1.78 0-1.114 1.03-1.587 2.506-2.032v-.057c-2.507-.724-3.34-2.646-3.34-4.147 0-2.088 1.307-4.453 5.314-4.453h5.01v1.085zm-5.29 12.078c-1.558 0-4.536.223-4.536 2.31 0 1.476 1.53 2.312 4.287 2.312 2.56 0 4.23-.947 4.23-2.422 0-1.754-1.726-2.2-3.98-2.2zm-.47-12.05c-1.866 0-3.286 1.447-3.286 3.256 0 1.864 1.42 3.395 3.313 3.395 1.837 0 3.34-1.504 3.34-3.34 0-1.838-1.504-3.312-3.368-3.312zM153.396 105.415c4.647 0 6.29 2.365 6.29 4.898 0 2.197-1.198 3.73-3.618 4.62.89.472 1.642 1.558 2.532 2.894l4.286 6.568h-1.726l-3.312-5.205c-2.283-3.59-3.007-3.896-5.29-3.896H150v9.102h-1.475v-18.98h4.873zM150 114.07h3.145c3.34 0 4.954-1.448 4.954-3.73 0-2.143-1.532-3.7-5.01-3.7H150v7.43zM164.612 117.688c-.39 3.2 2.143 5.65 4.982 5.65 1.67 0 3.033-.557 4.647-1.865v1.502c-1.475 1.143-3.005 1.67-4.814 1.67-3.617 0-6.234-2.783-6.234-6.65 0-3.674 2.422-6.346 5.734-6.346 2.672 0 5.538 1.862 5.538 6.038h-9.852zm8.266-1.085c-.473-2.45-1.81-3.646-3.95-3.646-2.062 0-3.675 1.365-4.148 3.646h8.098zM183.897 114.153c-1.39-.918-2.31-1.28-3.423-1.28-1.503 0-2.672.92-2.672 2.116 0 3.005 6.485 1.862 6.485 6.204 0 1.95-1.78 3.45-4.092 3.45-1.28 0-2.477-.36-3.758-1.14v-1.31c1.643.837 2.73 1.144 3.924 1.144 1.532 0 2.646-.89 2.646-2.172 0-2.98-6.484-2.088-6.484-6.096 0-1.92 1.78-3.422 4.035-3.422 1.086 0 2.088.334 3.34 1.057v1.448zM187.57 117.688c-.39 3.2 2.144 5.65 4.98 5.65 1.67 0 3.035-.557 4.65-1.865v1.502c-1.476 1.143-3.007 1.67-4.815 1.67-3.62 0-6.234-2.783-6.234-6.65 0-3.674 2.422-6.346 5.733-6.346 2.672 0 5.54 1.862 5.54 6.038h-9.853zm8.267-1.085c-.475-2.45-1.81-3.646-3.953-3.646-2.06 0-3.674 1.365-4.146 3.646h8.1zM210.046 123.34l-.223.165c-1.253.947-1.78 1.14-2.31 1.14-.613 0-.78-.304-.892-1.558-1.39 1.086-2.587 1.56-3.923 1.56-1.893 0-3.368-1.42-3.368-3.173 0-3.256 3.645-4.398 7.29-4.564v-1.586c0-1.67-.917-2.56-2.782-2.56-1.336 0-2.338.472-3.813 1.585v-1.364c1.53-.947 2.672-1.336 4.035-1.336 1.56 0 3.896.64 3.896 3.256v7.793c0 .5.084.64.307.64.306 0 1.113-.586 1.78-1.113v1.112zm-3.424-5.318c-3.256-.14-5.956 1.28-5.956 3.45 0 1.17 1.058 2.06 2.478 2.06 1.196 0 2.17-.445 3.48-1.613v-3.898zM219.888 114.376c-1.196-1.086-1.81-1.42-2.505-1.42-1.224 0-2.644 1.28-4.007 3.592v7.848h-1.336V111.9h1.336v3.283h.055c1.477-2.338 2.98-3.533 4.37-3.533.863 0 1.643.39 2.867 1.475l-.78 1.25zM230.376 113.735c-1.447-.61-2.198-.78-3.256-.78-2.783 0-4.703 2.116-4.703 5.233 0 3.146 1.864 5.15 4.814 5.15 1.142 0 1.978-.168 3.368-.725v1.393c-1.42.473-2.31.64-3.48.64-3.673 0-6.122-2.532-6.122-6.317 0-3.927 2.505-6.68 6.067-6.68 1.085 0 1.92.165 3.312.61v1.475zM234.24 114.07h.056c1.17-1.753 2.31-2.42 4.12-2.42 2.67 0 4.647 1.75 4.647 5.09v7.655h-1.336v-7.125c0-2.7-1.002-4.314-3.396-4.314-1.836 0-2.95.89-4.09 2.672v8.768h-1.336v-18.98h1.336v8.653zM24.924 152.714l-.223.166c-1.25.947-1.78 1.14-2.31 1.14-.61 0-.78-.304-.89-1.558-1.392 1.086-2.59 1.56-3.925 1.56-1.893 0-3.367-1.42-3.367-3.173 0-3.257 3.646-4.4 7.292-4.565V144.7c0-1.67-.92-2.562-2.783-2.562-1.336 0-2.338.473-3.813 1.586v-1.363c1.53-.946 2.672-1.335 4.036-1.335 1.56 0 3.896.64 3.896 3.256v7.794c0 .5.083.64.306.64.307 0 1.113-.585 1.78-1.112v1.112zm-3.423-5.317c-3.256-.14-5.955 1.28-5.955 3.45 0 1.17 1.058 2.06 2.477 2.06 1.197 0 2.172-.445 3.48-1.613v-3.897zM28.24 143.444h.056c1.17-1.752 2.31-2.42 4.12-2.42 2.67 0 4.646 1.752 4.646 5.12v7.626h-1.336v-7.125c0-2.81-1.197-4.314-3.395-4.314-1.81 0-2.978.864-4.09 2.673v8.768h-1.337v-12.495h1.336v2.17zM51.177 153.77H49.84v-.974c-1.335.92-2.28 1.225-3.7 1.225-3.563 0-6.318-2.837-6.318-6.51 0-3.73 2.672-6.485 6.318-6.485 1.28 0 2.17.25 3.7 1.002v-7.236h1.337v18.98zM49.84 143.5c-1.362-.862-2.337-1.17-3.645-1.17-2.895 0-4.954 2.116-4.954 5.095 0 3.033 2.228 5.29 5.233 5.29 1.252 0 2.088-.28 3.367-1.144v-8.07zM67.68 134.79c4.647 0 6.29 2.365 6.29 4.898 0 2.197-1.197 3.73-3.62 4.62.892.472 1.644 1.558 2.534 2.894l4.286 6.568h-1.726l-3.313-5.205c-2.28-3.59-3.005-3.896-5.286-3.896h-2.56v9.1h-1.477v-18.98h4.872zm-3.396 8.654h3.145c3.34 0 4.953-1.447 4.953-3.73 0-2.142-1.53-3.7-5.01-3.7h-3.09v7.43zM78.896 147.063c-.39 3.2 2.144 5.65 4.98 5.65 1.67 0 3.035-.557 4.65-1.865v1.502c-1.476 1.143-3.007 1.67-4.815 1.67-3.618 0-6.233-2.783-6.233-6.65 0-3.674 2.42-6.346 5.732-6.346 2.67 0 5.538 1.863 5.538 6.04h-9.852zm8.267-1.085c-.474-2.45-1.81-3.646-3.953-3.646-2.06 0-3.674 1.365-4.146 3.646h8.1zM98.183 143.528c-1.393-.918-2.31-1.28-3.424-1.28-1.504 0-2.673.92-2.673 2.116 0 3.006 6.484 1.863 6.484 6.205 0 1.948-1.78 3.45-4.09 3.45-1.28 0-2.478-.36-3.757-1.14v-1.31c1.642.836 2.727 1.143 3.924 1.143 1.53 0 2.645-.89 2.645-2.172 0-2.978-6.485-2.087-6.485-6.095 0-1.92 1.78-3.422 4.035-3.422 1.086 0 2.088.334 3.34 1.057v1.448zM101.854 147.063c-.39 3.2 2.143 5.65 4.982 5.65 1.67 0 3.033-.557 4.647-1.865v1.502c-1.476 1.143-3.006 1.67-4.815 1.67-3.617 0-6.234-2.783-6.234-6.65 0-3.674 2.422-6.346 5.734-6.346 2.672 0 5.538 1.863 5.538 6.04h-9.852zm8.266-1.085c-.473-2.45-1.81-3.646-3.95-3.646-2.062 0-3.675 1.365-4.148 3.646h8.098zM124.33 152.714l-.224.166c-1.252.947-1.78 1.14-2.31 1.14-.612 0-.78-.304-.89-1.558-1.393 1.086-2.59 1.56-3.926 1.56-1.893 0-3.367-1.42-3.367-3.173 0-3.257 3.646-4.4 7.292-4.565V144.7c0-1.67-.92-2.562-2.783-2.562-1.336 0-2.338.473-3.813 1.586v-1.363c1.53-.946 2.67-1.335 4.035-1.335 1.558 0 3.896.64 3.896 3.256v7.794c0 .5.084.64.307.64.307 0 1.113-.585 1.78-1.112v1.112zm-3.424-5.317c-3.257-.14-5.956 1.28-5.956 3.45 0 1.17 1.058 2.06 2.477 2.06 1.197 0 2.172-.445 3.48-1.613v-3.897zM134.172 143.75c-1.196-1.085-1.81-1.42-2.505-1.42-1.225 0-2.645 1.282-4.008 3.593v7.848h-1.337v-12.495h1.336v3.283h.055c1.476-2.338 2.978-3.533 4.37-3.533.862 0 1.642.39 2.866 1.475l-.778 1.25zM144.66 143.11c-1.446-.61-2.198-.78-3.257-.78-2.782 0-4.703 2.116-4.703 5.233 0 3.146 1.865 5.15 4.815 5.15 1.142 0 1.976-.168 3.367-.725v1.393c-1.42.474-2.31.64-3.48.64-3.672 0-6.12-2.53-6.12-6.316 0-3.926 2.504-6.68 6.066-6.68 1.086 0 1.92.166 3.313.61v1.476zM148.524 143.444h.057c1.17-1.752 2.31-2.42 4.12-2.42 2.672 0 4.647 1.752 4.647 5.092v7.654h-1.336v-7.125c0-2.7-1-4.314-3.395-4.314-1.837 0-2.95.892-4.092 2.673v8.768h-1.336v-18.98h1.336v8.654zM161.515 147.063c-.39 3.2 2.144 5.65 4.982 5.65 1.67 0 3.033-.557 4.648-1.865v1.502c-1.476 1.143-3.006 1.67-4.815 1.67-3.618 0-6.234-2.783-6.234-6.65 0-3.674 2.42-6.346 5.733-6.346 2.67 0 5.538 1.863 5.538 6.04h-9.853zm8.266-1.085c-.473-2.45-1.81-3.646-3.95-3.646-2.06 0-3.675 1.365-4.147 3.646h8.098zM181.973 143.75c-1.196-1.085-1.81-1.42-2.505-1.42-1.225 0-2.645 1.282-4.008 3.593v7.848h-1.336v-12.495h1.336v3.283h.056c1.476-2.338 2.978-3.533 4.37-3.533.862 0 1.642.39 2.866 1.475l-.78 1.25zM191.056 143.528c-1.392-.918-2.31-1.28-3.424-1.28-1.502 0-2.672.92-2.672 2.116 0 3.006 6.485 1.863 6.485 6.205 0 1.948-1.78 3.45-4.09 3.45-1.282 0-2.48-.36-3.76-1.14v-1.31c1.644.836 2.73 1.143 3.925 1.143 1.53 0 2.645-.89 2.645-2.172 0-2.978-6.484-2.087-6.484-6.095 0-1.92 1.782-3.422 4.036-3.422 1.086 0 2.088.334 3.34 1.057v1.448z"/>
  </g>
  <path fill="#A7A9AC" d="M46.263 23.81c19.61 0 31.99 13.948 31.99 30.51 0 16.037-12.03 30.506-32.164 30.506-19.44 0-31.728-14.383-31.728-30.507 0-16.475 12.638-30.51 31.9-30.51zm0 53.17c13.337 0 23.186-9.676 23.186-22.662 0-13.074-9.85-22.663-23.187-22.663-13.248 0-23.098 9.59-23.098 22.663 0 12.987 9.85 22.66 23.098 22.66zM102.878 24.597c12.027 0 19.523 6.36 19.523 16.647 0 6.886-3.572 12.028-9.936 14.555 5.404 3.573 8.717 9.064 13.25 16.475 2.526 4.096 4.01 6.102 8.104 11.766H123.62l-7.844-12.202C107.93 59.638 104.358 58.24 100 58.24h-3.574v25.8h-8.54V24.598h14.992zm-6.45 25.972h5.49c9.153 0 11.767-4.707 11.68-9.675-.087-5.578-3.4-8.978-11.68-8.978h-5.49V50.57zM186.545 37.845c-7.322-4.27-13.598-6.19-20.483-6.19-13.598 0-23.708 9.677-23.708 22.752 0 13.335 9.762 22.573 24.057 22.573 6.712 0 14.034-2.352 20.745-6.71v9.325c-5.84 3.05-12.202 5.23-21.528 5.23-22.314 0-32.076-17.17-32.076-29.636 0-18.132 13.686-31.38 32.6-31.38 6.102 0 12.29 1.483 20.396 4.882v9.153z"/>
  <path fill="#A6CE39" d="M219.51 24.597h23.1c21.964 0 31.64 15.688 31.64 29.722 0 15.252-11.94 29.72-31.553 29.72H219.51V24.598zm8.543 51.773h13.598c19.35 0 23.796-14.73 23.796-22.052 0-11.942-7.583-22.052-24.23-22.052h-13.162V76.37z"/>
  <g fill="#A6CE39">
    <path d="M207.604 84.04h-8.543V24.597h8.544V84.04zM208.933 12.22c0 3.08-2.52 5.6-5.6 5.6s-5.6-2.52-5.6-5.6 2.52-5.6 5.6-5.6 5.6 2.52 5.6 5.6z"/>
  </g>
  <g fill="#A7A9AC">
    <path d="M348.036 47.54h3.652v27.285h-3.926v-21.23l-8.39 10.547h-.722l-8.486-10.547v21.23h-3.906V47.54h3.7l9.065 11.206 9.013-11.206zM372.392 66.153h-12.637c.092 1.72.668 3.086 1.73 4.102 1.062 1.016 2.43 1.523 4.11 1.523 2.344 0 4.506-.73 6.484-2.188v3.477c-1.095.73-2.18 1.25-3.253 1.563s-2.334.47-3.78.47c-1.978 0-3.58-.41-4.804-1.23-1.223-.82-2.203-1.925-2.94-3.312-.733-1.387-1.103-2.99-1.103-4.814 0-2.734.775-4.958 2.324-6.67 1.55-1.712 3.563-2.568 6.035-2.568 2.382 0 4.284.833 5.702 2.5 1.42 1.667 2.13 3.9 2.13 6.7v.447zm-12.56-2.13h9.044c-.09-1.418-.514-2.512-1.27-3.28-.754-.768-1.77-1.152-3.047-1.152-1.276 0-2.32.385-3.136 1.153-.812.77-1.343 1.862-1.59 3.28zM390.966 61.778v13.047h-3.574v-10c0-1.992-.266-3.382-.8-4.17-.534-.788-1.466-1.182-2.794-1.182-.742 0-1.422.17-2.04.508-.618.34-1.325.94-2.12 1.798v13.047h-3.555v-17.97h3.555v2.364c1.81-1.81 3.582-2.716 5.313-2.716 2.28 0 4.044 1.08 5.294 3.242 1.902-2.188 3.887-3.28 5.957-3.28 1.747 0 3.183.637 4.308 1.913 1.127 1.275 1.69 3.222 1.69 5.84v10.604h-3.556V64.18c0-1.496-.305-2.642-.918-3.437-.61-.794-1.49-1.19-2.637-1.19-1.47 0-2.844.74-4.12 2.225zM406.923 47.54h3.555v10.605c1.537-1.12 3.178-1.68 4.922-1.68 2.28 0 4.14.86 5.586 2.578s2.168 3.926 2.168 6.62c0 2.892-.86 5.192-2.588 6.905-1.725 1.713-4.033 2.568-6.924 2.568-1.158 0-2.38-.125-3.662-.37-1.28-.25-2.3-.562-3.057-.94V47.54zm3.555 14.004v9.727c1.21.366 2.455.548 3.73.548 1.576 0 2.86-.56 3.857-1.68s1.494-2.56 1.494-4.316c0-1.784-.466-3.235-1.397-4.355-.93-1.12-2.145-1.68-3.643-1.68-1.328 0-2.675.585-4.042 1.757zM442.392 66.153h-12.637c.092 1.72.668 3.086 1.73 4.102 1.062 1.016 2.43 1.523 4.11 1.523 2.344 0 4.506-.73 6.484-2.188v3.477c-1.095.73-2.18 1.25-3.253 1.563s-2.334.47-3.78.47c-1.978 0-3.58-.41-4.804-1.23-1.223-.82-2.203-1.925-2.94-3.312-.733-1.387-1.103-2.99-1.103-4.814 0-2.734.775-4.958 2.324-6.67 1.55-1.712 3.563-2.568 6.035-2.568 2.382 0 4.284.833 5.702 2.5 1.42 1.667 2.13 3.9 2.13 6.7v.447zm-12.56-2.13h9.044c-.09-1.418-.514-2.512-1.27-3.28-.754-.768-1.77-1.152-3.047-1.152-1.276 0-2.32.385-3.136 1.153-.812.77-1.343 1.862-1.59 3.28zM450.048 56.856v4.12l.195-.312c1.72-2.773 3.438-4.16 5.156-4.16 1.34 0 2.74.677 4.198 2.03l-1.875 3.126c-1.236-1.172-2.383-1.758-3.438-1.758-1.145 0-2.14.547-2.98 1.64s-1.26 2.39-1.26 3.888v9.395h-3.573v-17.97h3.576zM339.726 95.15c4.217 0 7.727 1.333 10.53 4.003 2.804 2.67 4.206 6.016 4.206 10.04s-1.414 7.353-4.244 9.99-6.398 3.954-10.707 3.954c-4.11 0-7.536-1.318-10.274-3.955-2.74-2.637-4.11-5.94-4.11-9.912 0-4.076 1.38-7.447 4.14-10.117 2.756-2.67 6.245-4.004 10.46-4.004zm.156 3.71c-3.12 0-5.688.977-7.697 2.93s-3.016 4.447-3.016 7.48c0 2.943 1.007 5.39 3.024 7.344 2.016 1.953 4.54 2.93 7.57 2.93 3.045 0 5.584-.996 7.62-2.988 2.036-1.992 3.054-4.473 3.054-7.44 0-2.892-1.018-5.323-3.053-7.296-2.036-1.973-4.536-2.96-7.503-2.96zM362.587 104.856v4.12l.195-.312c1.72-2.773 3.438-4.16 5.156-4.16 1.342 0 2.742.678 4.2 2.03l-1.876 3.126c-1.236-1.172-2.383-1.758-3.438-1.758-1.145 0-2.14.547-2.98 1.64s-1.26 2.39-1.26 3.888v9.395h-3.573v-17.97h3.577zM373.7 111.067c0-1.914.7-3.428 2.1-4.54 1.4-1.114 3.31-1.67 5.732-1.67h7.402v2.772H385.3c.704.716 1.192 1.366 1.466 1.952s.41 1.256.41 2.012c0 .938-.266 1.86-.8 2.764-.534.904-1.222 1.598-2.062 2.08s-2.217.865-4.13 1.152c-1.34.195-2.013.658-2.013 1.387 0 .416.253.758.753 1.025.502.268 1.41.543 2.725.83 2.2.482 3.617.86 4.248 1.133.633.273 1.2.664 1.71 1.172.858.86 1.288 1.94 1.288 3.242 0 1.704-.758 3.065-2.275 4.08-1.517 1.017-3.546 1.524-6.085 1.524-2.564 0-4.61-.512-6.143-1.533-1.53-1.022-2.295-2.392-2.295-4.11 0-2.436 1.504-4.004 4.512-4.707-1.198-.768-1.798-1.53-1.798-2.285 0-.572.258-1.094.77-1.563.517-.47 1.21-.814 2.08-1.035-2.64-1.17-3.962-3.065-3.962-5.683zm5.84 12.598c-1.197 0-2.178.254-2.94.762s-1.142 1.158-1.142 1.953c0 1.848 1.668 2.773 5 2.773 1.576 0 2.797-.232 3.662-.693.867-.463 1.3-1.117 1.3-1.963 0-.834-.548-1.514-1.642-2.04s-2.506-.792-4.238-.792zm.84-15.723c-.963 0-1.783.326-2.46.977-.677.65-1.017 1.43-1.017 2.343 0 .924.332 1.69.996 2.295s1.503.908 2.52.908c1.003 0 1.84-.31 2.51-.928.67-.62 1.005-1.39 1.005-2.314 0-.938-.338-1.72-1.016-2.344-.677-.625-1.524-.938-2.54-.938zM402.978 112.024v7.637c0 .612.21.92.625.92.43 0 1.102-.32 2.012-.958v2.168c-.807.52-1.455.875-1.943 1.064-.488.188-.998.283-1.533.283-1.524 0-2.423-.6-2.696-1.797-1.51 1.172-3.117 1.758-4.824 1.758-1.25 0-2.29-.414-3.125-1.24-.832-.826-1.25-1.865-1.25-3.115 0-1.133.408-2.145 1.22-3.037.815-.893 1.972-1.598 3.468-2.12l4.55-1.562v-.957c0-2.162-1.08-3.242-3.24-3.242-1.94 0-3.83 1.002-5.665 3.008v-3.887c1.38-1.627 3.367-2.44 5.957-2.44 1.94 0 3.496.507 4.668 1.522.39.326.742.758 1.055 1.3s.512 1.08.596 1.62c.083.54.124 1.567.124 3.076zm-3.497 7.247v-5.33l-2.382.917c-1.21.482-2.066.967-2.568 1.455-.5.488-.752 1.098-.752 1.826 0 .742.238 1.348.713 1.816.478.47 1.093.703 1.847.703 1.133 0 2.182-.463 3.144-1.386zM412.313 104.856v2.285c1.59-1.757 3.393-2.636 5.41-2.636 1.12 0 2.162.29 3.125.87.965.58 1.697 1.372 2.197 2.382.502 1.01.752 2.607.752 4.795v10.274h-3.555V112.59c0-1.836-.28-3.148-.84-3.936-.56-.787-1.496-1.182-2.813-1.182-1.68 0-3.106.84-4.278 2.52v12.832h-3.633v-17.97h3.633zM430.595 97.298c.586 0 1.088.2 1.504.605.417.404.624.898.624 1.484 0 .572-.207 1.068-.625 1.484-.417.417-.92.626-1.505.626-.547 0-1.027-.21-1.445-.635-.416-.423-.625-.913-.625-1.474 0-.547.21-1.03.625-1.455.417-.42.898-.632 1.445-.632zm-1.758 7.558h3.555v17.97h-3.555v-17.97zM435.85 104.856h15.35l-9.516 14.648h9.516v3.32h-15.742l9.445-14.648h-9.055v-3.32zM465.497 112.024v7.637c0 .612.21.92.625.92.43 0 1.102-.32 2.012-.958v2.168c-.807.52-1.455.875-1.943 1.064-.487.188-.997.283-1.532.283-1.523 0-2.422-.6-2.695-1.797-1.51 1.172-3.117 1.758-4.824 1.758-1.25 0-2.292-.414-3.126-1.24-.832-.826-1.25-1.865-1.25-3.115 0-1.133.408-2.145 1.22-3.037.815-.893 1.972-1.598 3.468-2.12l4.55-1.562v-.957c0-2.162-1.08-3.242-3.24-3.242-1.94 0-3.83 1.002-5.665 3.008v-3.887c1.38-1.627 3.367-2.44 5.957-2.44 1.94 0 3.496.507 4.668 1.522.39.326.742.758 1.055 1.3s.512 1.08.596 1.62c.083.54.124 1.567.124 3.076zM462 119.27v-5.33l-2.382.917c-1.21.482-2.066.967-2.568 1.455-.5.488-.752 1.098-.752 1.826 0 .742.238 1.348.713 1.816.478.47 1.093.703 1.847.703 1.132 0 2.18-.463 3.144-1.386zM468.76 107.708l6.68-6.563v3.71h5.683v3.204h-5.684v8.794c0 2.053.853 3.08 2.558 3.08 1.277 0 2.625-.424 4.043-1.27v3.32c-1.366.768-2.856 1.152-4.472 1.152-1.627 0-2.98-.475-4.063-1.426-.338-.287-.617-.61-.84-.967-.22-.357-.406-.826-.557-1.406-.148-.58-.225-1.684-.225-3.31v-7.97h-3.125v-.35zM486.435 97.298c.586 0 1.088.2 1.504.605.417.404.624.898.624 1.484 0 .572-.207 1.068-.625 1.484-.417.417-.92.626-1.505.626-.547 0-1.027-.21-1.445-.635-.416-.423-.625-.913-.625-1.474 0-.547.21-1.03.625-1.455.417-.42.898-.632 1.445-.632zm-1.758 7.558h3.555v17.97h-3.555v-17.97zM501.962 104.817c2.734 0 5.008.883 6.816 2.646 1.81 1.764 2.715 3.98 2.715 6.65 0 2.592-.918 4.742-2.754 6.455s-4.147 2.568-6.935 2.568c-2.695 0-4.947-.87-6.758-2.607-1.81-1.74-2.715-3.91-2.715-6.515 0-2.63.916-4.82 2.744-6.572 1.83-1.75 4.126-2.626 6.886-2.626zm-.195 3.204c-1.705 0-3.105.562-4.2 1.68s-1.64 2.546-1.64 4.278c0 1.72.56 3.12 1.68 4.21 1.12 1.087 2.56 1.63 4.316 1.63 1.746 0 3.174-.55 4.287-1.65s1.67-2.51 1.67-4.23c0-1.704-.578-3.118-1.738-4.237-1.16-1.12-2.618-1.68-4.375-1.68zM518.993 104.856v2.285c1.59-1.757 3.393-2.636 5.41-2.636 1.12 0 2.162.29 3.125.87.965.58 1.697 1.372 2.197 2.382.502 1.01.752 2.607.752 4.795v10.274h-3.555V112.59c0-1.836-.28-3.148-.84-3.936-.56-.787-1.496-1.182-2.813-1.182-1.68 0-3.106.84-4.278 2.52v12.832h-3.633v-17.97h3.633z"/>
  </g>
</svg>
