<svg xmlns="http://www.w3.org/2000/svg" viewBox="0 0 600 173.33333" height="173.333" width="600">
  <path d="M250.256 129.615c0 3.36 1.24 5.037 3.72 5.037 2.453 0 3.68-1.678 3.68-5.037 0-3.32-1.233-4.984-3.705-4.984-1.29 0-2.23.43-2.82 1.29-.58.86-.87 2.09-.87 3.7zm10.584 0c0 2.375-.61 4.23-1.828 5.565-1.216 1.332-2.913 1.997-5.09 1.997-1.357 0-2.56-.31-3.6-.922-1.047-.612-1.847-1.492-2.407-2.64-.562-1.15-.843-2.482-.843-4 0-2.36.604-4.2 1.817-5.523 1.2-1.324 2.91-1.985 5.11-1.985 2.1 0 3.77.674 4.99 2.03 1.22 1.354 1.84 3.182 1.84 5.478m9.89-4.985c-1.23 0-2.13.362-2.69 1.08-.57.717-.85 1.867-.85 3.445v.46c0 1.77.28 3.054.84 3.846.56.8 1.47 1.2 2.75 1.2 1.07 0 1.89-.44 2.47-1.31.58-.87.87-2.12.87-3.75s-.29-2.86-.87-3.7c-.57-.83-1.42-1.25-2.53-1.25zm.75 12.547c-1.84 0-3.27-.66-4.29-1.986H267c.125 1.23.186 1.98.186 2.24v5.96h-3.09v-21.02h2.497c.068.27.212.92.435 1.95h.156c.963-1.47 2.41-2.21 4.34-2.21 1.812 0 3.226.66 4.24 1.97 1.012 1.32 1.52 3.17 1.52 5.54s-.516 4.23-1.546 5.57c-1.034 1.34-2.454 2-4.268 2m15.065-12.73c-.98 0-1.764.31-2.356.94-.6.63-.95 1.53-1.06 2.73h6.6c-.02-1.2-.31-2.11-.87-2.73-.56-.62-1.33-.92-2.32-.92zm.567 12.73c-2.26 0-4.025-.65-5.304-1.98-1.274-1.31-1.914-3.13-1.914-5.45 0-2.37.59-4.24 1.776-5.6 1.183-1.36 2.81-2.03 4.877-2.03 1.922 0 3.437.59 4.55 1.75 1.11 1.17 1.67 2.77 1.67 4.82v1.67h-9.692c.045 1.41.425 2.49 1.144 3.25.71.76 1.73 1.14 3.03 1.14.86 0 1.66-.08 2.4-.24.74-.16 1.54-.43 2.38-.8v2.51c-.76.36-1.52.61-2.29.76-.77.15-1.65.23-2.64.23m21.76-.26h-3.11V128c0-1.12-.23-1.957-.68-2.51-.46-.55-1.17-.83-2.15-.83-1.31 0-2.27.39-2.87 1.16-.61.77-.91 2.065-.91 3.88v7.25h-3.09V122.4h2.42l.43 1.905h.16c.44-.69 1.06-1.23 1.87-1.6.8-.38 1.7-.564 2.68-.564 3.49 0 5.23 1.78 5.23 5.33v9.48m20.8-4.14c0 1.42-.52 2.51-1.55 3.27-1.03.77-2.51 1.14-4.45 1.14s-3.49-.29-4.67-.88v-2.67c1.71.79 3.3 1.19 4.77 1.19 1.9 0 2.85-.57 2.85-1.72 0-.37-.11-.68-.32-.92-.21-.25-.56-.5-1.04-.76s-1.15-.56-2.01-.89c-1.68-.65-2.81-1.3-3.4-1.95-.59-.65-.89-1.49-.89-2.52 0-1.24.5-2.21 1.5-2.9 1-.68 2.37-1.03 4.09-1.03 1.71 0 3.32.35 4.85 1.04l-1 2.33c-1.57-.65-2.89-.97-3.96-.97-1.64 0-2.45.47-2.45 1.4 0 .46.21.84.64 1.16.42.32 1.35.75 2.78 1.3 1.2.47 2.07.89 2.61 1.28.55.39.95.83 1.21 1.33.26.51.39 1.11.39 1.81m9.01 4.41c-2.2 0-3.88-.64-5.02-1.93-1.14-1.28-1.72-3.12-1.72-5.52 0-2.45.59-4.33 1.79-5.64 1.19-1.31 2.92-1.97 5.19-1.97 1.53 0 2.91.29 4.14.86l-.94 2.49c-1.31-.51-2.38-.76-3.23-.76-2.52 0-3.78 1.67-3.78 5.01 0 1.63.31 2.86.94 3.67.62.82 1.54 1.24 2.75 1.24 1.38 0 2.68-.34 3.9-1.03v2.7c-.55.32-1.14.56-1.77.7-.62.14-1.38.21-2.28.21m10.16-.26h-3.09V122.4h3.09zm-3.27-18.4c0-.55.15-.98.45-1.27.31-.3.74-.45 1.3-.45.55 0 .97.15 1.27.44.3.3.45.73.45 1.28 0 .53-.16.94-.46 1.24-.31.3-.73.45-1.27.45-.56 0-.99-.15-1.3-.45-.31-.3-.45-.72-.45-1.24m13.15 5.93c-.98 0-1.77.31-2.36.93-.59.63-.94 1.53-1.06 2.73h6.6c-.01-1.2-.3-2.11-.87-2.73-.55-.62-1.33-.92-2.31-.92zm.56 12.73c-2.27 0-4.03-.66-5.31-1.98-1.28-1.32-1.918-3.13-1.918-5.45 0-2.37.59-4.24 1.78-5.6 1.19-1.36 2.81-2.03 4.88-2.03 1.92 0 3.44.59 4.55 1.75 1.11 1.17 1.67 2.77 1.67 4.82v1.67h-9.69c.05 1.41.43 2.49 1.146 3.25.71.76 1.73 1.14 3.03 1.14.86 0 1.66-.09 2.4-.25s1.53-.43 2.38-.8v2.51c-.756.36-1.52.61-2.29.76-.77.15-1.65.23-2.646.23m21.76-.26h-3.1V128c0-1.12-.226-1.958-.68-2.51-.45-.55-1.166-.83-2.15-.83-1.305 0-2.26.387-2.865 1.16-.6.77-.9 2.064-.9 3.877v7.246h-3.09V122.4h2.42l.43 1.91h.16c.43-.693 1.06-1.23 1.86-1.604.81-.377 1.7-.564 2.687-.564 3.49 0 5.236 1.775 5.236 5.324v9.485m9.9.26c-2.2 0-3.87-.64-5.02-1.93-1.14-1.28-1.71-3.13-1.71-5.53 0-2.44.59-4.32 1.79-5.64 1.19-1.31 2.922-1.97 5.19-1.97 1.532 0 2.92.28 4.14.85l-.93 2.49c-1.31-.51-2.39-.76-3.238-.76-2.52 0-3.78 1.67-3.78 5.01 0 1.63.312 2.86.94 3.68.624.82 1.544 1.24 2.76 1.24 1.37 0 2.672-.34 3.903-1.03v2.7c-.56.33-1.15.56-1.77.7-.62.14-1.38.21-2.28.21m12.81-12.73c-.98 0-1.77.31-2.36.93-.6.63-.95 1.53-1.06 2.73h6.6c-.02-1.2-.31-2.11-.87-2.73-.56-.62-1.33-.92-2.31-.92zm.57 12.73c-2.27 0-4.04-.66-5.31-1.98-1.28-1.32-1.92-3.13-1.92-5.45 0-2.37.59-4.24 1.77-5.6 1.19-1.36 2.81-2.03 4.88-2.03 1.92 0 3.44.58 4.55 1.75 1.11 1.17 1.67 2.77 1.67 4.81v1.67h-9.69c.04 1.41.42 2.49 1.14 3.25.72.76 1.73 1.14 3.04 1.14.86 0 1.66-.08 2.4-.25.74-.16 1.54-.43 2.39-.8v2.51c-.75.36-1.51.61-2.28.76-.77.15-1.65.23-2.64.23m20.39-2.36c1.12 0 2.03-.31 2.71-.94.68-.62 1.02-1.5 1.02-2.63V130l-1.87.08c-1.46.05-2.52.29-3.18.73-.66.43-.99 1.097-.99 1.99 0 .648.2 1.15.58 1.505.39.357.96.533 1.74.533zm4.61 2.11l-.62-2.03h-.1c-.7.89-1.41 1.49-2.12 1.81-.71.33-1.62.49-2.74.49-1.43 0-2.54-.38-3.35-1.15-.8-.77-1.2-1.86-1.2-3.28 0-1.5.56-2.63 1.67-3.39 1.12-.76 2.82-1.18 5.09-1.25l2.52-.08v-.77c0-.92-.22-1.62-.65-2.08-.43-.45-1.106-.68-2.017-.68-.75 0-1.46.11-2.15.33-.68.22-1.34.48-1.97.77l-.993-2.21c.79-.41 1.65-.72 2.59-.94.94-.21 1.83-.32 2.66-.32 1.85 0 3.25.4 4.19 1.21.94.81 1.41 2.08 1.41 3.8v9.8h-2.21m8.42-9.84c0 .92.24 1.61.7 2.11.47.5 1.15.74 2.02.74 1.79 0 2.68-.95 2.68-2.87 0-.95-.22-1.68-.66-2.19-.44-.51-1.11-.77-2.01-.77-.89 0-1.57.26-2.03.76-.46.51-.69 1.25-.69 2.23zm-1.33 12.1c0 .67.3 1.18.9 1.54.6.36 1.45.54 2.53.54 1.69 0 2.94-.24 3.76-.72.83-.48 1.24-1.12 1.24-1.92 0-.63-.22-1.08-.67-1.35-.45-.27-1.29-.4-2.516-.4h-2.34c-.89 0-1.59.21-2.12.62-.52.42-.78.98-.78 1.69zm11.43-16.81v1.69l-2.48.46c.23.31.42.69.567 1.14.15.45.23.92.23 1.42 0 1.5-.518 2.68-1.55 3.54-1.04.86-2.46 1.29-4.28 1.29-.47 0-.89-.03-1.26-.1-.67.41-1 .89-1 1.45 0 .34.15.59.46.75.31.17.88.25 1.72.25h2.53c1.605 0 2.82.34 3.655 1.03.83.68 1.25 1.67 1.25 2.96 0 1.65-.68 2.92-2.04 3.81-1.36.9-3.32 1.34-5.89 1.34-1.98 0-3.49-.35-4.54-1.05-1.04-.7-1.56-1.7-1.56-3 0-.89.283-1.64.85-2.25.57-.61 1.36-1.03 2.373-1.27-.42-.18-.758-.46-1.02-.85-.27-.39-.4-.8-.4-1.23 0-.55.15-1.01.46-1.38.3-.38.76-.75 1.362-1.12-.75-.33-1.36-.85-1.83-1.59-.467-.73-.7-1.59-.7-2.57 0-1.58.496-2.8 1.49-3.67.996-.87 2.414-1.3 4.256-1.3.42 0 .85.03 1.3.08.46.06.8.12 1.02.18h5.04m5.52 4.71c0 .91.23 1.61.7 2.11s1.14.74 2.02.74c1.79 0 2.68-.96 2.68-2.87 0-.95-.22-1.68-.66-2.19-.44-.51-1.11-.77-2.02-.77-.89 0-1.56.25-2.03.76-.46.51-.69 1.25-.69 2.22zM452 139.2c0 .664.3 1.18.9 1.54.6.36 1.44.533 2.53.533 1.68 0 2.935-.237 3.76-.72.822-.48 1.234-1.124 1.234-1.92 0-.63-.225-1.085-.68-1.35-.45-.267-1.29-.4-2.52-.4h-2.34c-.884 0-1.59.21-2.11.62-.52.42-.78.98-.78 1.695zm11.426-16.81v1.692l-2.482.46c.225.31.413.687.562 1.134.15.45.224.92.224 1.42 0 1.5-.52 2.68-1.56 3.54-1.03.86-2.456 1.29-4.27 1.29-.46 0-.88-.036-1.26-.106-.67.41-1 .894-1 1.446 0 .334.16.583.47.75.31.165.88.25 1.713.25h2.54c1.604 0 2.824.34 3.654 1.026.836.685 1.256 1.67 1.256 2.96 0 1.647-.68 2.92-2.04 3.813-1.357.892-3.32 1.34-5.89 1.34-1.984 0-3.495-.35-4.54-1.055-1.043-.7-1.566-1.7-1.566-3 0-.89.28-1.64.845-2.253.57-.607 1.36-1.03 2.377-1.27-.41-.176-.75-.457-1.02-.85-.27-.39-.4-.8-.4-1.227 0-.545.15-1.005.46-1.38.3-.378.76-.75 1.36-1.12-.76-.323-1.37-.852-1.84-1.586-.47-.73-.71-1.59-.71-2.57 0-1.58.5-2.8 1.49-3.668.99-.87 2.41-1.3 4.25-1.3.41 0 .84.026 1.29.08.45.06.79.12 1.02.18h5.04m9.84-.26c.62 0 1.14.044 1.54.13l-.3 2.88c-.44-.105-.9-.16-1.37-.16-1.24 0-2.24.4-3 1.21-.77.807-1.15 1.85-1.15 3.14v7.6h-3.09v-14.54h2.41l.41 2.567h.16c.48-.87 1.11-1.56 1.88-2.065.77-.51 1.61-.763 2.5-.763m9.67 2.34c-.98 0-1.77.31-2.36.932-.59.623-.95 1.53-1.06 2.722h6.6c-.02-1.2-.31-2.12-.87-2.73-.57-.62-1.34-.93-2.32-.93zm.56 12.73c-2.27 0-4.03-.66-5.31-1.98-1.28-1.32-1.92-3.135-1.92-5.45 0-2.376.59-4.244 1.77-5.604 1.18-1.36 2.81-2.03 4.88-2.03 1.92 0 3.44.58 4.55 1.74 1.12 1.17 1.67 2.77 1.67 4.82v1.67h-9.69c.04 1.41.43 2.5 1.15 3.25.71.76 1.72 1.14 3.03 1.14.86 0 1.66-.08 2.41-.24.74-.16 1.53-.43 2.38-.8v2.51c-.75.36-1.52.62-2.29.77-.77.15-1.65.22-2.64.22m11.16-10.1c0 .92.23 1.62.7 2.11.47.49 1.14.74 2.02.74 1.78 0 2.68-.96 2.68-2.87 0-.95-.22-1.68-.67-2.19-.44-.52-1.12-.77-2.02-.77-.89 0-1.57.25-2.03.76-.46.51-.69 1.25-.69 2.22zm-1.33 12.1c0 .67.3 1.18.9 1.54.6.36 1.44.54 2.53.54 1.68 0 2.93-.24 3.76-.72.82-.48 1.23-1.12 1.23-1.92 0-.63-.23-1.08-.68-1.35-.45-.27-1.29-.4-2.52-.4h-2.34c-.88 0-1.59.21-2.11.62-.52.42-.78.98-.78 1.69zm11.43-16.8v1.7l-2.49.46c.23.31.42.68.57 1.13.15.44.23.92.23 1.42 0 1.49-.52 2.67-1.56 3.53-1.04.86-2.46 1.29-4.28 1.29-.46 0-.88-.03-1.26-.1-.66.41-1 .89-1 1.44 0 .34.16.58.47.75.31.17.88.25 1.72.25h2.53c1.61 0 2.83.34 3.66 1.03.83.69 1.25 1.67 1.25 2.96 0 1.65-.68 2.92-2.04 3.81-1.36.9-3.32 1.34-5.89 1.34-1.98 0-3.5-.35-4.54-1.05-1.04-.7-1.56-1.7-1.56-3 0-.89.28-1.64.85-2.25.56-.6 1.35-1.03 2.37-1.26-.41-.18-.75-.46-1.02-.85-.27-.39-.4-.8-.4-1.23 0-.54.15-1 .46-1.38.3-.37.76-.75 1.37-1.12-.76-.32-1.37-.85-1.84-1.58-.47-.73-.7-1.59-.7-2.57 0-1.58.49-2.8 1.49-3.67 1-.87 2.41-1.31 4.26-1.31.41 0 .84.03 1.29.09.45.06.79.12 1.02.18h5.03m6.72 12.44c1.12 0 2.02-.31 2.7-.94.68-.62 1.02-1.5 1.02-2.63V130l-1.87.07c-1.45.055-2.51.295-3.17.73-.66.43-.99 1.1-.99 1.99 0 .65.2 1.15.58 1.51.39.36.97.53 1.74.53zm4.6 2.11l-.62-2.02h-.1c-.7.89-1.41 1.49-2.12 1.81-.71.33-1.62.48-2.73.48-1.43 0-2.55-.38-3.35-1.15-.8-.77-1.2-1.86-1.2-3.27 0-1.5.55-2.63 1.67-3.39 1.11-.76 2.81-1.17 5.09-1.25l2.51-.08v-.77c0-.93-.22-1.62-.65-2.08-.43-.46-1.11-.68-2.02-.68-.74 0-1.46.11-2.14.33-.69.22-1.34.48-1.98.78l-1-2.21c.79-.41 1.66-.72 2.59-.94.93-.21 1.82-.32 2.65-.32 1.85 0 3.25.4 4.19 1.21.94.81 1.41 2.07 1.41 3.8v9.8h-2.2m11.6-2.24c.75 0 1.51-.12 2.26-.35v2.32c-.34.15-.788.28-1.32.38-.54.1-1.1.15-1.68.15-2.93 0-4.39-1.55-4.39-4.63v-7.84h-1.98v-1.37l2.13-1.13 1.05-3.08h1.91v3.23h4.15v2.34h-4.15v7.79c0 .74.18 1.29.56 1.64.37.36.86.54 1.46.54m10.56-10.24c-.99 0-1.77.31-2.37.93-.59.63-.94 1.53-1.05 2.72h6.6c-.02-1.2-.31-2.11-.87-2.73-.56-.62-1.33-.93-2.31-.93zm.56 12.73c-2.26 0-4.03-.66-5.31-1.98-1.27-1.32-1.91-3.13-1.91-5.45 0-2.38.594-4.24 1.78-5.6 1.18-1.36 2.81-2.04 4.88-2.04 1.92 0 3.44.58 4.55 1.748 1.11 1.17 1.67 2.77 1.67 4.815v1.67h-9.69c.043 1.41.43 2.49 1.143 3.25.72.76 1.73 1.14 3.04 1.14.86 0 1.66-.086 2.4-.25.74-.16 1.53-.43 2.39-.8v2.51c-.76.36-1.52.61-2.29.76-.77.15-1.65.22-2.65.22m14.81-2.5c1.27 0 2.2-.36 2.77-1.08.58-.71.88-1.87.9-3.47v-.44c0-1.83-.3-3.13-.9-3.9-.6-.78-1.53-1.16-2.8-1.16-1.09 0-1.93.44-2.52 1.32-.59.88-.89 2.14-.89 3.77 0 1.61.29 2.84.86 3.69.57.84 1.424 1.27 2.564 1.27zm-.83 2.496c-1.82 0-3.23-.655-4.25-1.97-1.02-1.316-1.53-3.16-1.53-5.54 0-2.385.51-4.24 1.54-5.57s2.45-1.99 4.28-1.99c1.91 0 3.36.705 4.36 2.12h.16c-.15-1.04-.22-1.87-.22-2.47v-5.3h3.11v20.46h-2.42l-.53-1.93h-.146c-.99 1.45-2.44 2.17-4.35 2.17M275.8 65.8c0 4.572-.803 8.107-2.383 10.502-1.482 2.244-3.544 3.34-6.294 3.34-3.382 0-5.716-.982-7.146-3.002-1.512-2.138-2.277-5.76-2.277-10.763V64.5c0-4.404.76-7.602 2.256-9.507 1.45-1.83 3.74-2.718 7.01-2.718 2.9 0 5.02 1.04 6.49 3.182 1.56 2.272 2.35 5.752 2.35 10.345zm-6.43-23.796c-5.35 0-9.6 1.784-12.69 5.31-.39-1.753-.65-2.91-.8-3.51-.16-.596-.69-1.01-1.31-1.01h-7.5c-.75 0-1.35.6-1.35 1.345v63.04c0 .74.604 1.34 1.35 1.34h9.27c.744 0 1.347-.6 1.347-1.35V89.31c0-.555-.08-1.724-.244-3.54 3.078 2.75 7.02 4.138 11.76 4.138 5.856 0 10.525-2.19 13.866-6.514 3.26-4.223 4.92-10.114 4.92-17.513 0-7.39-1.63-13.26-4.84-17.43-3.3-4.27-7.93-6.44-13.79-6.44m50.11 26.35v2.39c0 3.03-.86 5.3-2.62 6.92-1.8 1.66-4.16 2.47-7.2 2.47-1.95 0-3.4-.42-4.3-1.24-.88-.8-1.3-1.95-1.3-3.52 0-2.22.77-3.8 2.37-4.85 1.77-1.15 4.74-1.82 8.84-1.97zm7.25-22.39c-3.07-2.62-7.59-3.95-13.44-3.95-2.59 0-5.37.34-8.27 1-2.92.67-5.64 1.66-8.1 2.94-.63.33-.9 1.1-.6 1.75l3 6.63c.15.33.42.59.76.71.34.13.71.11 1.04-.04 1.83-.86 3.77-1.62 5.75-2.26 1.91-.61 3.93-.92 6.02-.92 2.33 0 4.04.56 5.07 1.65 1.05 1.12 1.58 2.91 1.58 5.33v1.03l-6.23.19c-7.07.22-12.45 1.56-15.99 3.98-3.71 2.55-5.6 6.35-5.6 11.29 0 4.6 1.35 8.23 4.02 10.8 2.65 2.55 6.35 3.85 10.98 3.85 3.51 0 6.46-.52 8.75-1.56 1.84-.83 3.67-2.23 5.46-4.18l1.22 4c.17.57.7.96 1.29.96h6.62c.74 0 1.35-.6 1.35-1.34V58.4c0-5.567-1.59-9.75-4.71-12.425M369.3 65.8c0 4.574-.8 8.11-2.38 10.504-1.483 2.244-3.543 3.34-6.292 3.34-3.384 0-5.72-.982-7.15-3.002-1.51-2.138-2.28-5.76-2.28-10.763V64.5c0-4.404.76-7.602 2.258-9.507 1.44-1.83 3.732-2.718 7.008-2.718 2.893 0 5.015 1.04 6.484 3.182 1.56 2.272 2.35 5.752 2.35 10.345zm-6.424-23.794c-5.346 0-9.603 1.784-12.69 5.31-.384-1.753-.648-2.91-.8-3.51-.154-.596-.69-1.01-1.305-1.01h-7.49c-.74 0-1.35.6-1.35 1.345v63.05c0 .75.61 1.35 1.35 1.35h9.27c.74 0 1.35-.6 1.35-1.34V89.32c0-.56-.08-1.728-.24-3.54 3.08 2.746 7.02 4.134 11.76 4.134 5.86 0 10.53-2.19 13.87-6.51 3.27-4.223 4.92-10.114 4.92-17.513 0-7.39-1.63-13.26-4.83-17.43-3.29-4.27-7.93-6.44-13.79-6.44m44.94 9.72c2.58 0 4.52.77 5.95 2.34 1.24 1.37 1.97 3.36 2.19 5.94H399.1c.43-2.53 1.305-4.51 2.615-5.89 1.525-1.6 3.52-2.38 6.105-2.38zm0-9.71c-6.58 0-11.85 2.21-15.65 6.58-3.75 4.31-5.66 10.26-5.66 17.69 0 7.27 2.06 13.09 6.12 17.29 4.07 4.22 9.75 6.35 16.89 6.35 3.04 0 5.8-.23 8.18-.69 2.42-.46 4.84-1.27 7.19-2.39.47-.22.77-.69.77-1.21V78.1c0-.453-.23-.88-.61-1.126-.38-.25-.87-.29-1.29-.1-2.45 1.09-4.77 1.878-6.9 2.34-2.11.466-4.43.7-6.91.7-3.56 0-6.22-.975-8.13-2.99-1.67-1.77-2.67-4.284-2.97-7.49h27.64c.75 0 1.35-.604 1.35-1.35v-5.01c0-6.455-1.81-11.63-5.38-15.37-3.59-3.76-8.51-5.66-14.62-5.66m55.37.42c-1.3-.283-2.95-.424-4.9-.424-2.93 0-5.71.845-8.25 2.51-1.72 1.13-3.24 2.55-4.52 4.24l-.76-4.82c-.11-.655-.67-1.135-1.33-1.135h-7.26c-.74 0-1.35.6-1.35 1.347V87.8c0 .745.61 1.348 1.35 1.348h9.27c.75 0 1.35-.604 1.35-1.35V64.97c0-3.543 1.01-6.324 3.08-8.502 2.06-2.16 4.68-3.21 8.04-3.21 1.3 0 2.58.15 3.79.44.38.09.77.013 1.09-.21.32-.225.52-.575.56-.96l.91-8.64c.07-.68-.38-1.31-1.05-1.456" fill="#3a6b8d"/>
  <path d="M475.135 23.373c-2.044 0-3.667.582-4.83 1.728-1.17 1.16-1.765 2.77-1.765 4.79 0 1.94.592 3.52 1.756 4.68 1.167 1.17 2.792 1.76 4.84 1.76 1.99 0 3.593-.59 4.76-1.75 1.163-1.16 1.753-2.74 1.753-4.68 0-2.02-.6-3.63-1.77-4.79-1.17-1.14-2.77-1.72-4.75-1.72" fill="#dec84c"/>
  <path d="M479.71 42.796h-9.27c-.745 0-1.348.6-1.348 1.346v43.634c0 .745.603 1.348 1.347 1.348h9.27c.74 0 1.34-.603 1.34-1.348V44.142c0-.745-.6-1.346-1.35-1.346m35.28 35.924c-2.12.663-4.27 1.003-6.39 1.003-1.47 0-2.61-.403-3.47-1.228-.84-.794-1.26-2.133-1.26-3.974V52.51h11.08c.74 0 1.34-.6 1.34-1.346v-7.022c0-.745-.61-1.346-1.35-1.346h-11.08v-8.36c0-.743-.61-1.345-1.35-1.345h-5.72c-.58 0-1.09.37-1.28.91l-2.99 8.73-5.92 3.15c-.44.23-.72.69-.72 1.19v4.1c0 .75.6 1.35 1.35 1.35h4.61v22.16c0 9.97 5.02 15.24 14.52 15.24 1.8 0 3.58-.15 5.27-.47 1.71-.32 3.15-.72 4.26-1.21.49-.21.81-.7.81-1.23v-6.99c0-.43-.2-.83-.55-1.08-.35-.25-.79-.33-1.2-.2m50.69-35.34c-.25-.37-.67-.58-1.11-.58H554.5c-.572 0-1.084.36-1.27.9-6.02 17.46-9.4 27.37-10.04 29.46l-.09.3c-.45-1.64-1-3.33-1.654-5.04l-8.86-24.75c-.19-.53-.7-.89-1.268-.89h-10.1c-.45 0-.867.22-1.116.59-.25.37-.3.84-.13 1.26l17.32 43.14-1.44 3.65c-1.62 4.63-4.29 6.87-8.16 6.87-1.68 0-3.19-.15-4.48-.44-.4-.09-.82.01-1.13.26-.33.26-.51.65-.51 1.06v7.34c0 .63.43 1.17 1.04 1.31 2.04.47 4.15.71 6.3.71 8.5 0 14.63-4.87 18.22-14.48l18.66-49.44c.16-.41.1-.87-.15-1.24m-449-10.34L60.62 55.47l3.79 1.74 56.05-22.663-3.8-1.517m9.13 3.642l-56.06 22.98 3.88 1.782 56.06-23.217-3.88-1.55m18.88 7.545L88.66 68.345l4.082 1.88 56.01-24.373-4.065-1.627m9.77 3.905l-55.98 24.73 4.183 1.924L158.62 49.8l-4.163-1.664m20.255 8.09L118.875 82.23l4.4 2.023 55.797-26.285-4.36-1.745" fill="#3a6b8d"/>
  <path d="M137.305 96.484l-90.34-42.13 67.272-26.398 89.787 35.41zm-23.098-73.11l-80.12 30.962L137.78 103.55l79.355-40.165-102.928-40.012" fill="#3a6b8d"/>
  <path d="M135.14 40.41L79.09 63.957l3.972 1.823 56.04-23.785-3.963-1.584m29.33 11.72l-55.92 25.36 4.28 1.97 55.89-25.62-4.26-1.7m20.74 8.29L129.47 87.1l4.523 2.08L189.68 62.2l-4.472-1.784" fill="#3a6b8d"/>
  <path d="M207.31 76.094l-69.442 35.15L44.394 66.88l-8.454 3.266 101.828 48.333 77.57-39.27-8.027-3.12" fill="#dec84c"/>
  <path d="M207.31 91.836l-69.442 35.146-93.474-44.36-8.454 3.266 101.828 48.328 77.57-39.264-8.027-3.116" fill="#dec84c"/>
  <path d="M44.394 98.36l-8.454 3.268 101.828 48.332 77.57-39.267-8.027-3.12-69.44 35.154L44.4 98.36" fill="#dec84c"/>
</svg>
