<svg xmlns="http://www.w3.org/2000/svg" viewBox="0 0 480 383.37332" height="383.373" width="480">
  <path d="M105.28 61.22c-4.663-4.26-11.893-3.93-16.15.732-41.204 45.117-41.204 118.53 0 163.65 2.255 2.47 5.344 3.722 8.445 3.722 2.752 0 5.512-.988 7.706-2.99 4.67-4.258 4.99-11.49.74-16.15-33.44-36.62-33.44-96.2 0-132.815 4.26-4.67 3.93-11.9-.73-16.15m285.59.7c-4.25-4.66-11.48-4.99-16.15-.73-4.66 4.25-4.99 11.49-.73 16.15 33.44 36.61 33.44 96.19 0 132.81-4.26 4.66-3.93 11.89.73 16.15 2.2 2 4.96 2.99 7.71 2.99 3.1 0 6.19-1.26 8.45-3.73 41.21-45.12 41.21-118.53 0-163.65" fill="#46b8ea"/>
  <path d="M131.29 86.892c-4.653-4.267-11.884-3.952-16.15.703-28.397 30.978-28.397 81.384 0 112.362 2.255 2.46 5.337 3.708 8.43 3.708 2.76 0 5.527-.994 7.72-3.005 4.655-4.267 4.97-11.497.703-16.152-20.588-22.46-20.588-59.004 0-81.464 4.267-4.655 3.952-11.885-.702-16.152m233.57.673c-4.26-4.653-11.49-4.966-16.15-.7-4.65 4.264-4.97 11.496-.7 16.15 20.59 22.46 20.59 59.005 0 81.464-4.26 4.65-3.95 11.88.7 16.15 2.2 2.01 4.96 3 7.72 3 3.1 0 6.18-1.25 8.43-3.71 28.4-30.98 28.4-81.39 0-112.37" fill="#90d3f2"/>
  <path d="M298.323 194.077c-18.02 0-31.995-9.866-40.94-17.288-4.86-4.04-5.53-11.24-1.5-16.1 4.033-4.86 11.24-5.53 16.098-1.5 10.02 8.31 18.15 12.02 26.35 12.02 16.21 0 27.98-11.49 27.98-27.32 0-16.85-10.03-27.32-26.17-27.32-17.08 0-28.82 11.76-43.68 26.65l-16.67 17.2c-16.41 16.44-33.34 33.4-59.9 33.4-28.87 0-49.03-20.64-49.03-50.18 0-28.61 21.86-50.19 50.84-50.19 18 0 31.96 9.85 40.89 17.25 4.87 4.03 5.54 11.24 1.51 16.1-4.03 4.86-11.23 5.53-16.09 1.5-10-8.29-18.11-11.99-26.3-11.99-16.21 0-27.97 11.49-27.97 27.32 0 16.85 10.03 27.32 26.17 27.32 17.09 0 28.82-11.76 43.68-26.65l16.67-17.21c16.41-16.445 33.34-33.403 59.9-33.403 28.87 0 49.037 20.63 49.037 50.174 0 28.61-21.856 50.184-50.84 50.184m-84.63 50.876c-2.764 0-5.003 2.24-5.003 5v70.19c0 2.767 2.24 5 5 5s5-2.24 5-5v-70.19c0-2.76-2.24-5-5-5m-11.64 35.098H191.2v-30.09c0-2.762-2.24-5-5-5s-5 2.238-5 5v70.19c0 2.76 2.24 5 5 5 2.763 0 5.002-2.24 5.002-5v-30.09h10.87c2.76 0 5-2.24 5-5s-2.24-5-5-5m51.25-35.092h-18.45c-5.26 0-9.54 4.275-9.54 9.534v65.66c0 2.77 2.24 5 5 5s5.005-2.24 5.005-5v-30.09h10.87c2.76 0 5-2.24 5-5s-2.24-5-5-5h-10.88v-25.1h17.52v65.19c0 2.765 2.24 5 5 5s5-2.24 5-5v-65.66c0-5.255-4.278-9.53-9.537-9.53m41.23 47.393c-.3-.714-.03-1.285.15-1.56.18-.275.61-.738 1.38-.738 5.26 0 9.53-4.278 9.53-9.537v-26.03c0-5.26-4.276-9.535-9.53-9.535H279c-5.26 0-9.537 4.28-9.537 9.54v65.66c0 2.77 2.24 5 5 5s5-2.24 5-5v-65.19h16.14v25.1c-3.723.15-7.147 2.06-9.23 5.17-2.17 3.25-2.574 7.34-1.085 10.94l10.7 25.89c.8 1.93 2.66 3.1 4.625 3.1.64 0 1.285-.128 1.91-.38 2.553-1.06 3.766-3.98 2.713-6.538l-10.69-25.88m50.21 22.792h-22.52v-25.09h13.216c2.77 0 5.01-2.24 5.01-5s-2.24-5-5-5h-13.22v-25.1h22.52c2.76 0 5-2.24 5-5 0-2.768-2.24-5-5-5h-22.99c-5.258 0-9.537 4.27-9.537 9.53v61.12c0 5.26 4.28 9.54 9.537 9.54h22.98c2.76 0 5-2.24 5-5s-2.24-5-5-5M164.27 276.5c2.357 1.442 5.437.698 6.877-1.66 2.29-3.745 3.4-7.416 3.4-11.222 0-11.11-8.27-19.485-19.25-19.485-11.33 0-19.25 7.74-19.25 18.823 0 10.1 6.355 16.44 12.57 22.64l6.27 6.075c5.93 5.92 9.56 9.84 9.56 15.5 0 5.53-3.45 8.82-9.24 8.82-5.445 0-9.246-3.9-9.246-9.48 0-1.99.65-3.96 2.05-6.19 1.47-2.34.76-5.42-1.58-6.89-2.34-1.46-5.42-.75-6.89 1.59-2.4 3.84-3.56 7.6-3.56 11.5 0 11.11 8.276 19.49 19.248 19.49 11.33 0 19.244-7.74 19.244-18.82 0-10.09-6.353-16.44-12.57-22.64l-6.27-6.07c-5.93-5.91-9.565-9.83-9.565-15.49 0-5.52 3.455-8.82 9.243-8.82 5.44 0 9.244 3.9 9.244 9.49 0 1.91-.63 3.88-1.94 6.01-1.44 2.36-.695 5.43 1.66 6.87" fill="#535652"/>
</svg>
