<?xml version="1.0" encoding="UTF-8"?>
<svg width="180px" height="60px" viewBox="0 0 180 60" version="1.1" xmlns="http://www.w3.org/2000/svg" xmlns:xlink="http://www.w3.org/1999/xlink">
    <title>C4DISC</title>
    <g id="C4DISC" stroke="none" stroke-width="1" fill="none" fill-rule="evenodd">
        <rect id="Rectangle" x="0" y="0" width="180" height="60"></rect>
        <path d="M43.2915039,42.3320312 C45.7485352,42.3320312 47.9731445,41.9169922 49.965332,41.0869141 L49.965332,41.0869141 L49.965332,36.7705078 C47.5415039,37.6227214 45.4773763,38.0488281 43.7729492,38.0488281 C39.7111003,38.0488281 37.6801758,35.3427734 37.6801758,29.9306641 C37.6801758,27.3297526 38.2114258,25.3015951 39.2739258,23.8461914 C40.3364258,22.3907878 41.8361003,21.6630859 43.7729492,21.6630859 C44.6583659,21.6630859 45.5603841,21.8235677 46.4790039,22.1445312 C47.3976237,22.4654948 48.3107096,22.8417969 49.2182617,23.2734375 L49.2182617,23.2734375 L50.878418,19.0898438 C48.4988607,17.9498698 46.1303711,17.3798828 43.7729492,17.3798828 C41.4597982,17.3798828 39.4427083,17.8862305 37.7216797,18.8989258 C36.000651,19.9116211 34.6808268,21.3670247 33.762207,23.2651367 C32.8435872,25.1632487 32.3842773,27.3740234 32.3842773,29.8974609 C32.3842773,33.9039714 33.3194987,36.9780273 35.1899414,39.1196289 C37.0603841,41.2612305 39.7609049,42.3320312 43.2915039,42.3320312 Z M67.1645508,42 L67.1645508,36.9697266 L70.0864258,36.9697266 L70.0864258,32.9853516 L67.1645508,32.9853516 L67.1645508,17.7285156 L62.449707,17.7285156 L52.1401367,33.4003906 L52.1401367,36.9697266 L62.1674805,36.9697266 L62.1674805,42 L67.1645508,42 Z M62.1674805,32.9853516 L56.6557617,32.9853516 L60.706543,26.8427734 C61.0275065,26.3225911 61.3125,25.8024089 61.5615234,25.2822266 C61.8105469,24.7620443 62.034668,24.2695312 62.2338867,23.8046875 L62.2338867,23.8046875 L62.3833008,23.8046875 C62.3722331,23.9153646 62.3583984,24.0952148 62.3417969,24.3442383 C62.3251953,24.5932617 62.3085938,24.8837891 62.2919922,25.2158203 C62.2753906,25.5478516 62.2587891,25.8964844 62.2421875,26.2617188 C62.2255859,26.6269531 62.2117513,26.9811198 62.2006836,27.3242188 C62.1896159,27.6673177 62.1813151,27.9744466 62.1757812,28.2456055 C62.1702474,28.5167643 62.1674805,28.7242839 62.1674805,28.8681641 L62.1674805,32.9853516 Z M80.7280273,42 C85.0222982,42 88.3066406,40.9375 90.5810547,38.8125 C92.8554688,36.6875 93.9926758,33.6272786 93.9926758,29.6318359 C93.9926758,25.8798828 92.8969727,22.9580078 90.7055664,20.8662109 C88.5141602,18.7744141 85.4373372,17.7285156 81.4750977,17.7285156 L81.4750977,17.7285156 L73.8549805,17.7285156 L73.8549805,42 L80.7280273,42 Z M81.2094727,37.75 L79.0014648,37.75 L79.0014648,21.9453125 L81.7407227,21.9453125 C86.3448893,21.9453125 88.6469727,24.5517578 88.6469727,29.7646484 C88.6469727,35.0882161 86.167806,37.75 81.2094727,37.75 L81.2094727,37.75 Z M108.104004,42 L108.104004,39.078125 L105.148926,37.7167969 L105.148926,22.0117188 L108.104004,20.6503906 L108.104004,17.7285156 L97.0639648,17.7285156 L97.0639648,20.6503906 L100.019043,22.0117188 L100.019043,37.7167969 L97.0639648,39.078125 L97.0639648,42 L108.104004,42 Z M117.633301,42.3320312 C120.444499,42.3320312 122.638672,41.7011719 124.21582,40.4394531 C125.792969,39.1777344 126.581543,37.4511719 126.581543,35.2597656 C126.581543,33.6770833 126.16097,32.3406576 125.319824,31.2504883 C124.478678,30.160319 122.923665,29.0729167 120.654785,27.9882812 C118.93929,27.1692708 117.851888,26.6020508 117.392578,26.2866211 C116.933268,25.9711914 116.59847,25.644694 116.388184,25.3071289 C116.177897,24.9695638 116.072754,24.5738932 116.072754,24.1201172 C116.072754,23.3896484 116.332845,22.797526 116.853027,22.34375 C117.37321,21.889974 118.12028,21.6630859 119.094238,21.6630859 C119.913249,21.6630859 120.746094,21.7682292 121.592773,21.9785156 C122.439453,22.1888021 123.510254,22.5595703 124.805176,23.0908203 L124.805176,23.0908203 L126.465332,19.0898438 C125.214681,18.547526 124.016602,18.1269531 122.871094,17.828125 C121.725586,17.5292969 120.521973,17.3798828 119.260254,17.3798828 C116.692546,17.3798828 114.68099,17.9941406 113.225586,19.2226562 C111.770182,20.4511719 111.04248,22.1389974 111.04248,24.2861328 C111.04248,25.4261068 111.263835,26.4222005 111.706543,27.2744141 C112.149251,28.1266276 112.741374,28.8736979 113.48291,29.515625 C114.224447,30.1575521 115.336751,30.8271484 116.819824,31.5244141 C118.402507,32.2770182 119.451172,32.8248698 119.96582,33.1679688 C120.480469,33.5110677 120.870605,33.8680013 121.13623,34.2387695 C121.401855,34.6095378 121.534668,35.0328776 121.534668,35.5087891 C121.534668,36.3610026 121.233073,37.0029297 120.629883,37.4345703 C120.026693,37.8662109 119.160645,38.0820312 118.031738,38.0820312 C117.090983,38.0820312 116.053385,37.9326172 114.918945,37.6337891 C113.784505,37.3349609 112.398275,36.8203125 110.760254,36.0898438 L110.760254,36.0898438 L110.760254,40.8710938 C112.752441,41.8450521 115.043457,42.3320312 117.633301,42.3320312 Z M140.809082,42.3320312 C143.266113,42.3320312 145.490723,41.9169922 147.48291,41.0869141 L147.48291,41.0869141 L147.48291,36.7705078 C145.059082,37.6227214 142.994954,38.0488281 141.290527,38.0488281 C137.228678,38.0488281 135.197754,35.3427734 135.197754,29.9306641 C135.197754,27.3297526 135.729004,25.3015951 136.791504,23.8461914 C137.854004,22.3907878 139.353678,21.6630859 141.290527,21.6630859 C142.175944,21.6630859 143.077962,21.8235677 143.996582,22.1445312 C144.915202,22.4654948 145.828288,22.8417969 146.73584,23.2734375 L146.73584,23.2734375 L148.395996,19.0898438 C146.016439,17.9498698 143.647949,17.3798828 141.290527,17.3798828 C138.977376,17.3798828 136.960286,17.8862305 135.239258,18.8989258 C133.518229,19.9116211 132.198405,21.3670247 131.279785,23.2651367 C130.361165,25.1632487 129.901855,27.3740234 129.901855,29.8974609 C129.901855,33.9039714 130.837077,36.9780273 132.70752,39.1196289 C134.577962,41.2612305 137.278483,42.3320312 140.809082,42.3320312 Z" fill="#353535" fill-rule="nonzero"></path>
    </g>
</svg>