<svg xmlns="http://www.w3.org/2000/svg" width="224.3" height="224.3">
    <path fill="#4f5858" d="M0 0h224.3v224.3H0z"/>
    <path d="M179.4 86.2c3.5 0 5 1.9 5.7 5.5h-11.6c.1-1.5.8-3.8 3-4.9l-9.7 4.1c-.3 1.1-.4 2.3-.4 3.6 0 8 5.1 13.7 13.3 13.7 5.9 0 10.1-2.6 12.2-8.7h-6.3c-.5 1.6-2.8 3.4-5.6 3.4-4 0-6.2-2.1-6.4-6.6h18.7c.4-5.6-1.6-10.9-5.9-13.6l-9.6 4c.7-.3 1.6-.5 2.6-.5zm-23.1 9.6v-.5l-7.2 3v9.1h7.1V95.8zm40.1-16.3v2h-4.3v4.8h4.3v21.2h7.1V86.3h4.9v-4.8h-4.9V80c0-2.2.8-3 2.7-3 .9 0 1.8.1 2.6.2v-3.9l-12.4 5.2v1zm-49.7 19.9l-18.3 7.7c1.9.8 4.2 1.1 6.4 1.1 5.9 0 11.7-2.2 11.9-8.8z"
          fill="#3eb1c8"/>
    <path d="M122.2 61.3c-.1-1.1-.2-2.2-.2-3.4V44.3c0-1.6-.4-2.9-1.1-3.8-.7-1-1.6-1.7-2.7-2.3-1.1-.5-2.3-.9-3.7-1.1-1.3-.2-2.7-.3-4-.3-1.5 0-2.9.1-4.3.4-1.4.3-2.7.8-3.9 1.4-1.1.7-2.1 1.6-2.8 2.7-.7 1.1-1.2 2.5-1.3 4.2h7.2c.1-1.4.6-2.4 1.4-3 .8-.6 1.9-.9 3.3-.9.6 0 1.2 0 1.8.1.6.1 1 .3 1.5.5.4.3.8.6 1 1.1.3.5.4 1.1.4 1.8s-.2 1.3-.7 1.7c-.5.4-1.1.7-1.9.9-.8.2-1.7.4-2.8.5-1 .1-2.1.2-3.2.4s-2.2.4-3.2.7c-1.1.3-2 .7-2.8 1.3-.8.6-1.5 1.3-2 2.3-.5 1-.8 2.2-.8 3.7 0 1.3.2 2.5.7 3.5.5 1 1.1 1.8 1.9 2.4.8.6 1.8 1.1 2.8 1.4 1.1.3 2.2.5 3.5.5 1.6 0 3.2-.2 4.8-.7 1.6-.5 2.9-1.3 4-2.5 0 .4.1.9.2 1.3l.3 1.2h7.3c-.3-.5-.6-1.3-.7-2.4zm-7.4-7.7c0 .4 0 .9-.1 1.6-.1.7-.3 1.3-.7 2-.4.7-.9 1.2-1.7 1.7-.8.5-1.9.7-3.3.7-.6 0-1.1-.1-1.7-.2-.5-.1-1-.3-1.4-.5-.4-.3-.7-.6-1-1-.2-.4-.4-1-.4-1.6 0-.7.1-1.2.4-1.7.2-.4.5-.8.9-1.1.4-.3.8-.5 1.4-.7.5-.2 1.1-.3 1.6-.4.6-.1 1.1-.2 1.7-.3.6-.1 1.1-.2 1.6-.3.5-.1 1-.2 1.5-.4s.8-.4 1.1-.6v2.8zm7.8 45.4c0 .5.1.9.1 1.3l.7-1.3h-.8zm26.3-61.1c-1.6.7-3 1.7-4.2 2.9-1.2 1.2-2.1 2.7-2.7 4.4-.6 1.7-1 3.5-1 5.5s.3 3.9.9 5.6c.6 1.7 1.5 3.1 2.7 4.4.1.1.2.2.3.2l3.6-6.4c-.1-.6-.2-1.3-.3-2.1h1.4l2.5-4.6h-4c0-.5.1-1.1.3-1.7.2-.6.5-1.2 1-1.8.5-.6 1.1-1.1 1.8-1.4.8-.4 1.7-.6 2.9-.6.4 0 .7 0 1.1.1l2.8-5c-1.1-.3-2.3-.5-3.7-.5-2 0-3.8.3-5.4 1zm-25.7 51.3c0 2.5 1.2 4 3 5.1l7.5-13.4c-5.3.1-10.5 2-10.5 8.3zm1.2-51.6v26.2h7.2V52c0-1.2.1-2.3.4-3.3.2-1 .6-1.9 1.2-2.7.6-.8 1.3-1.4 2.2-1.8.9-.4 2-.7 3.3-.7.4 0 .9 0 1.4.1.5.1.9.1 1.2.2v-6.7c-.6-.2-1.1-.3-1.6-.3-.9 0-1.8.1-2.6.4-.8.3-1.6.6-2.4 1.1-.7.5-1.4 1.1-2 1.8-.6.7-1 1.4-1.4 2.3h-.1v-4.9h-6.8zm-12 54.3c-4.1-1-8.1-1.3-8.1-3.9 0-2.1 2.4-2.4 4-2.4 2.6 0 4.7.8 4.9 3.5h6.8c-.6-6.4-5.8-8.3-11.5-8.3-5.6 0-11.3 1.7-11.3 8.3 0 4.6 4.1 6 8.2 6.9 5.1 1.1 8.1 1.9 8.1 4 0 2.5-2.6 3.3-4.7 3.3-2.8 0-5.4-1.3-5.5-4.4h-6.8c.3 6.9 6.2 9.1 12.2 9.1 5.9 0 11.9-2.2 11.9-9 0-4.7-4-6.2-8.2-7.1zm-30.8 16.3c8.2 0 13.5-5.4 13.5-13.7 0-8.3-5.3-13.7-13.5-13.7-2.5 0-4.7.5-6.6 1.5l-6.8 12.2v.1c0 8.2 5.3 13.6 13.4 13.6zm0-22c4.9 0 6.3 4.2 6.3 8.3 0 4.1-1.5 8.3-6.3 8.3s-6.3-4.2-6.3-8.3c0-4.1 1.5-8.3 6.3-8.3z"
          fill="#d8d2c4"/>
    <path d="M208.8 73.2v-1.4c-1.2-.1-2.5-.2-3.8-.2-5.3 0-8.2 2.8-8.6 6.8l12.4-5.2zm-45.4 14.2c.9 0 1.9.1 2.6.3v-6.6c-.5-.2-1.1-.3-1.6-.3-3.5 0-7 2.3-8.3 5.5h-.1v-4.8h-6.8v16.8l7.2-3c.1-4.3 1.9-7.9 7-7.9zm3.4 3.5l9.7-4.1c.1 0 .2-.1.2-.1l9.6-4c-1.8-1.2-4.1-1.9-6.7-1.9-6.6 0-11.4 4.2-12.8 10.1zm-20.1 8.2c0-4.8-4.1-6.3-8.2-7.3s-8.1-1.3-8.1-3.9c0-2.1 2.4-2.4 4-2.4 2.6 0 4.7.8 4.9 3.5h6.8c-.6-6.4-5.8-8.3-11.5-8.3h-.8l-7.5 13.4c1.5.9 3.4 1.5 5.3 1.9 5.1 1.1 8.1 1.9 8.1 4 0 2.5-2.6 3.3-4.7 3.3-2.8 0-5.4-1.3-5.5-4.4h-5.9l-.7 1.3c.6 3.5 2.8 5.6 5.6 6.8l18.3-7.7c-.1 0-.1-.1-.1-.2zm2-35.7c1.7.7 3.5 1 5.6 1 3 0 5.5-.7 7.6-2 2.1-1.3 3.6-3.6 4.7-6.7h-6.3c-.2.8-.9 1.6-1.9 2.3-1 .7-2.3 1.1-3.7 1.1-2 0-3.6-.5-4.7-1.6-.7-.7-1.2-1.7-1.5-3l-3.6 6.4c1 1 2.3 1.9 3.8 2.5zm9.3-19.7c.9.9 1.5 2.3 1.8 4.1h-7.7l-2.5 4.6H167c.1-2 0-4-.5-5.8-.5-1.9-1.2-3.5-2.3-5-1.1-1.4-2.4-2.6-4.1-3.5-.7-.3-1.4-.6-2.1-.8l-2.8 5c1.2.2 2.2.7 2.8 1.4zM62.4 27.6h-7.8l-3.4 14.3 8.3-3.5zm-39.5 0h-8L22 54.2l6.4-2.7zm15.7 11.6h.1l1.8 7.3 5.9-2.6-4-16.3H35l-6.1 23.7 7.4-3.1z"
          fill="#ffc72c"/>
    <path d="M48.3 93.7h-7.6c-.6 4.7-3.3 8-8.1 8-7.1 0-9.7-6-9.7-12 0-6.3 2.7-12.3 9.7-12.3 3.9 0 7.3 2.7 7.8 6.3H48c-1-8.3-7.6-12.9-15.5-12.9-11.1 0-17.6 8.3-17.6 18.9 0 10.3 6.5 18.6 17.6 18.6 8.8 0 15-5.7 15.8-14.6zm-3.5-29.9h7.9l6.8-25.4-8.3 3.5-2.5 10.6h-.1l-2.2-8.6-5.9 2.6zm-12.3 0l3.8-15.6-7.4 3.1-.2.9h-.1l-.2-.7-6.4 2.7 2.5 9.6zm35.7 30.6L75 82.3c-4.2 2.1-6.8 6.4-6.8 12.1zM51.3 81.5v26h7.1V95.8c0-4.6 1.8-8.3 7-8.3.9 0 1.9.1 2.6.3v-6.6c-.5-.2-1.1-.3-1.6-.3-3.5 0-7 2.3-8.3 5.5H58v-4.8h-6.7zm28.9-19.1c2.1-1.3 3.6-3.6 4.7-6.7h-6.3c-.2.8-.9 1.6-1.9 2.3-1 .7-2.3 1.1-3.7 1.1-2 0-3.6-.5-4.7-1.6-1.1-1-1.7-2.7-1.8-5.1h18.9c.1-2 0-4-.5-5.8-.5-1.9-1.2-3.5-2.3-5-1.1-1.4-2.4-2.6-4.1-3.5s-3.6-1.3-5.8-1.3c-2 0-3.8.4-5.4 1.1-1.6.7-3 1.7-4.2 2.9-1.2 1.2-2.1 2.7-2.7 4.4-.6 1.7-1 3.5-1 5.5s.3 3.9.9 5.6c.6 1.7 1.5 3.1 2.7 4.4 1.1 1.2 2.5 2.2 4.2 2.8 1.7.7 3.5 1 5.6 1 2.7-.1 5.3-.8 7.4-2.1zM66.7 46.1c.2-.6.5-1.2 1-1.8.5-.6 1.1-1.1 1.8-1.4.8-.4 1.7-.6 2.9-.6 1.8 0 3.1.5 3.9 1.4.9.9 1.5 2.3 1.8 4.1H66.4c0-.4.1-1 .3-1.7z"
          fill="#ef3340"/>
    <path d="M23.8 172.2l5.4 16h.1l5.2-16h7.2v23.3h-4.8V179h-.1l-5.7 16.5h-3.9l-5.7-16.3h-.1v16.3h-4.8v-23.3h7.2zm26.1 19.2c.7.7 1.7 1 3 1 .9 0 1.7-.2 2.4-.7.7-.5 1.1-1 1.2-1.5h4.1c-.7 2-1.7 3.5-3 4.3-1.3.9-3 1.3-4.9 1.3-1.3 0-2.5-.2-3.6-.6-1.1-.4-2-1-2.7-1.8-.7-.8-1.3-1.7-1.7-2.8-.4-1.1-.6-2.3-.6-3.6 0-1.3.2-2.4.6-3.5.4-1.1 1-2 1.8-2.8.8-.8 1.7-1.4 2.7-1.9 1.1-.5 2.2-.7 3.5-.7 1.4 0 2.7.3 3.7.8 1.1.6 1.9 1.3 2.6 2.2.7.9 1.2 2 1.5 3.2.3 1.2.4 2.4.3 3.7h-12c.1 1.7.4 2.8 1.1 3.4zm5.3-8.8c-.6-.6-1.4-.9-2.5-.9-.7 0-1.4.1-1.8.4-.5.3-.9.6-1.2.9-.3.4-.5.8-.6 1.2-.1.4-.2.8-.2 1.1h7.5c-.3-1.2-.7-2.1-1.2-2.7zm12.4-4v2.3h.1c.6-.9 1.3-1.5 2.2-2 .9-.5 1.8-.7 3-.7 1.1 0 2 .2 2.9.6.9.4 1.5 1.1 2 2.2.5-.7 1.2-1.4 2-2 .9-.6 1.9-.8 3-.8.9 0 1.7.1 2.5.3.8.2 1.4.6 2 1 .5.5 1 1.1 1.3 1.9s.5 1.7.5 2.8v11.3h-4.6v-9.6c0-.6 0-1.1-.1-1.6 0-.5-.2-.9-.4-1.3s-.5-.7-.9-.9c-.4-.2-.9-.3-1.5-.3-.7 0-1.2.1-1.6.4-.4.3-.7.6-.9 1-.2.4-.4.9-.5 1.4-.1.5-.1 1-.1 1.5v9.4h-4.6v-11c0-.5-.1-.9-.3-1.4-.2-.4-.4-.7-.8-1-.4-.3-.9-.4-1.7-.4-.2 0-.5.1-.9.1-.4.1-.7.3-1 .6-.3.3-.6.7-.9 1.2s-.4 1.2-.4 2v9.8h-4.6v-16.9h4.3zm29-6.4v8.5h.1c.6-.9 1.3-1.5 2.3-1.9 1-.4 2-.6 3-.6.8 0 1.7.2 2.5.5s1.6.9 2.2 1.6c.7.7 1.2 1.6 1.6 2.8.4 1.1.6 2.5.6 4s-.2 2.9-.6 4c-.4 1.1-1 2-1.6 2.8-.7.7-1.4 1.2-2.2 1.6-.8.3-1.7.5-2.5.5-1.2 0-2.3-.2-3.3-.6-1-.4-1.7-1.1-2.2-2h-.1v2.2H92v-23.3h4.6zm7.5 12.8c-.2-.7-.4-1.2-.7-1.7-.3-.5-.7-.9-1.2-1.2-.5-.3-1.1-.4-1.8-.4s-1.3.1-1.8.4c-.5.3-.9.7-1.2 1.2-.3.5-.6 1.1-.7 1.7s-.2 1.3-.2 2.1c0 .7.1 1.4.2 2s.4 1.2.7 1.7c.3.5.7.9 1.2 1.2.5.3 1.1.4 1.8.4s1.3-.1 1.8-.4c.5-.3.9-.7 1.2-1.2.3-.5.6-1.1.7-1.7.2-.7.2-1.3.2-2s-.1-1.4-.2-2.1zm12.1 6.4c.7.7 1.7 1 3 1 .9 0 1.7-.2 2.4-.7.7-.5 1.1-1 1.2-1.5h4.1c-.7 2-1.7 3.5-3 4.3-1.3.9-3 1.3-4.9 1.3-1.3 0-2.5-.2-3.6-.6-1.1-.4-2-1-2.7-1.8-.7-.8-1.3-1.7-1.7-2.8-.4-1.1-.6-2.3-.6-3.6 0-1.3.2-2.4.6-3.5.4-1.1 1-2 1.8-2.8.8-.8 1.7-1.4 2.7-1.9 1.1-.5 2.2-.7 3.5-.7 1.4 0 2.7.3 3.7.8 1.1.6 1.9 1.3 2.6 2.2.7.9 1.2 2 1.5 3.2.3 1.2.4 2.4.3 3.7H115c.1 1.7.5 2.8 1.2 3.4zm5.2-8.8c-.6-.6-1.4-.9-2.5-.9-.7 0-1.4.1-1.8.4-.5.3-.9.6-1.2.9-.3.4-.5.8-.6 1.2-.1.4-.2.8-.2 1.1h7.5c-.3-1.2-.6-2.1-1.2-2.7zm12.3-4v3.1h.1c.2-.5.5-1 .9-1.5.4-.4.8-.8 1.3-1.1.5-.3 1-.6 1.5-.7.5-.2 1.1-.3 1.7-.3.3 0 .6.1 1 .2v4.3c-.2 0-.5-.1-.8-.1-.3 0-.6-.1-.9-.1-.8 0-1.6.1-2.2.4-.6.3-1.1.7-1.4 1.2-.4.5-.6 1.1-.8 1.7-.2.7-.2 1.4-.2 2.1v7.6h-4.6v-16.9h4.4z"
          fill="#fff"/>
</svg>
