<?xml version="1.0" encoding="UTF-8"?>
<svg width="494px" height="175px" viewBox="0 0 494 175" version="1.1" xmlns="http://www.w3.org/2000/svg" xmlns:xlink="http://www.w3.org/1999/xlink">
    <title>doaj-seal-svg</title>
    <g id="doaj-seal-svg" stroke="none" stroke-width="1" fill="none" fill-rule="evenodd">
        <g id="Group">
            <path d="M175.000008,0 C126.675008,0 87.500008,39.175 87.500008,87.5 L87.500008,175 C135.825008,175 175.000008,135.825 175.000008,87.5 L175.000008,0 Z" id="Path" fill="#982E0A" fill-rule="nonzero"></path>
            <path d="M7.10542736e-15,0 C48.326008,0 87.5,39.175 87.5,87.5 L87.5,175 C39.175008,175 7.10542736e-15,135.825 7.10542736e-15,87.5 L7.10542736e-15,0 Z" id="Path" fill="#FD5A3B" fill-rule="nonzero"></path>
            <path d="M234.458008,2.06071 L234.458008,80.0964 L261.213008,80.0964 C282.171008,80.0964 293.319008,69.7288 293.319008,48.4362 L293.319008,33.7209 C293.319008,12.4283 282.171008,2.06071 261.213008,2.06071 L234.458008,2.06071 Z M249.173008,15.4383 L261.436008,15.4383 C274.033008,15.4383 278.604008,21.9041 278.604008,33.275 L278.604008,48.8822 C278.604008,60.2531 274.033008,66.7189 261.436008,66.7189 L249.173008,66.7189 L249.173008,15.4383 Z" id="Shape" fill="#282624" fill-rule="nonzero"></path>
            <path d="M302.261008,32.8291 L302.261008,49.3281 C302.261008,69.8403 314.412008,81.6572 334.367008,81.6572 C354.322008,81.6572 366.473008,69.8403 366.473008,49.3281 L366.473008,32.8291 C366.473008,12.8742 354.322008,0.5 334.367008,0.5 C314.412008,0.5 302.261008,12.8742 302.261008,32.8291 Z M316.976008,32.1602 C316.976008,21.5696 323.108008,13.6546 334.367008,13.6546 C345.292008,13.6546 351.758008,21.1237 351.758008,32.1602 L351.758008,49.9969 C351.758008,60.8105 346.518008,68.5026 334.367008,68.5026 C322.550008,68.5026 316.976008,61.2564 316.976008,49.9969 L316.976008,32.1602 Z" id="Shape" fill="#282624" fill-rule="nonzero"></path>
            <path d="M392.236008,2.06071 L370.609008,80.0964 L385.770008,80.0964 L390.452008,62.7056 L417.653008,62.7056 L422.335008,80.0964 L437.496008,80.0964 L415.869008,2.06071 L392.236008,2.06071 Z M393.908008,49.3281 L403.384008,14.3235 L404.721008,14.3235 L414.197008,49.3281 L393.908008,49.3281 Z" id="Shape" fill="#282624" fill-rule="nonzero"></path>
            <path d="M493.628008,2.06071 L478.913008,2.06071 L478.913008,56.6857 C478.913008,64.0434 475.122008,68.2796 468.545008,68.2796 C461.522008,68.2796 457.509008,63.9319 457.509008,56.6857 L457.509008,49.3281 L442.793008,49.3281 L442.793008,56.6857 C442.793008,72.4043 452.938008,81.6572 468.991008,81.6572 C484.264008,81.6572 493.628008,72.8503 493.628008,56.6857 L493.628008,2.06071 Z" id="Path" fill="#282624" fill-rule="nonzero"></path>
            <path d="M265.539008,175 C239.865008,175 234.856008,159.345 234.856008,151.831 L251.763008,151.831 C251.763008,151.831 251.763008,163.103 265.539008,163.103 C274.932008,163.103 277.436008,158.719 277.436008,154.962 C277.436008,149.096 269.943008,147.658 261.337008,146.007 C249.733008,143.78 236.108008,141.166 236.108008,126.784 C236.108008,115.513 246.753008,106.12 264.287008,106.12 C289.334008,106.12 293.091008,120.522 293.091008,126.784 L276.184008,126.784 C276.184008,126.784 276.184008,118.017 264.287008,118.017 C257.399008,118.017 253.641008,121.524 253.641008,125.532 C253.641008,130.091 260.405008,131.474 268.459008,133.121 C280.316008,135.545 294.970008,138.542 294.970008,153.084 C294.970008,165.607 284.324008,175 265.539008,175 Z M333.574008,175 C311.657008,175 301.012008,159.596 301.012008,140.56 C301.012008,121.524 312.158008,106.12 333.574008,106.12 C354.989008,106.12 364.883008,121.524 364.883008,140.56 C364.883008,142.063 364.758008,144.317 364.758008,144.317 L318.671008,144.317 C319.422008,154.336 323.680008,161.85 334.200008,161.85 C344.845008,161.85 346.724008,151.831 346.724008,151.831 L364.257008,151.831 C364.257008,151.831 360.500008,175 333.574008,175 Z M346.849008,133.046 C345.722008,125.031 342.215008,119.27 333.574008,119.27 C324.932008,119.27 320.674008,125.031 319.172008,133.046 L346.849008,133.046 Z M391.810008,128.036 C392.061008,121.023 396.194008,118.017 403.708008,118.017 C410.596008,118.017 414.353008,121.023 414.353008,126.158 C414.353008,132.214 407.214008,133.83 398.525008,135.797 C396.793008,136.189 394.999008,136.595 393.188008,137.053 C382.418008,139.809 372.399008,145.319 372.399008,157.467 C372.399008,169.49 381.165008,175 393.063008,175 C409.719008,175 413.727008,160.598 413.727008,160.598 L414.353008,160.598 L414.353008,173.122 L431.886008,173.122 L431.886008,128.662 C431.886008,111.756 419.362008,106.12 403.708008,106.12 C388.679008,106.12 375.279008,111.38 374.277008,128.036 L391.810008,128.036 Z M414.353008,140.31 C414.353008,149.953 411.222008,163.729 399.325008,163.729 C393.689008,163.729 390.182008,160.598 390.182008,155.588 C390.182008,149.828 394.941008,146.947 400.577008,145.569 L401.251008,145.401 C406.104008,144.192 411.601008,142.822 414.353008,140.31 Z M462.092008,159.345 L494.027008,159.345 L494.027008,173.122 L444.559008,173.122 L444.559008,107.998 L462.092008,107.998 L462.092008,159.345 Z" id="Shape" fill="#982E0A"></path>
        </g>
    </g>
</svg>