<svg xmlns="http://www.w3.org/2000/svg" width="212.6" height="62.36">
    <path d="M0 0v62.362h194.993c9.725 0 17.605-7.833 17.605-17.5V0H0z" fill="#f18700"/>
    <path d="M3.141 2.953v55.912h190.475c9.069 0 15.854-6.594 15.854-15.689V2.953H3.141z" fill="#fff"/>
    <g fill="#f18700">
        <path d="M74.825 37.713h15.096l-7.549-21.225z"/>
        <path d="M5.883 5.854v50.038H110.85c7.756 0 14.041-6.285 14.041-14.042V5.854H5.883zM37.31 34.976a25.503 25.503 0 0 1-.405 4 18.252 18.252 0 0 1-1.064 3.649 9.096 9.096 0 0 1-1.977 2.99c-2.194 2.191-5.199 3.289-9.015 3.289H12.743V12.841H24.85c3.816 0 6.821 1.098 9.015 3.292a9.772 9.772 0 0 1 1.977 3.014 17.69 17.69 0 0 1 1.064 3.649 26.1 26.1 0 0 1 .405 4c.033 1.367.051 2.729.051 4.078a177.497 177.497 0 0 1-.052 4.102zm28.601 1.445c-.068 1.501-.22 2.809-.454 3.925-.238 1.115-.593 2.086-1.065 2.912-.473.828-1.132 1.665-1.975 2.507a11.65 11.65 0 0 1-3.825 2.535c-1.469.604-3.116.91-4.938.91s-3.471-.306-4.939-.91c-1.468-.61-2.744-1.453-3.823-2.535-.845-.842-1.503-1.679-1.975-2.507-.474-.826-.829-1.797-1.064-2.912-.237-1.116-.388-2.424-.456-3.925a126.026 126.026 0 0 1-.102-5.547c0-2.194.034-4.044.102-5.547s.219-2.811.456-3.926c.235-1.114.59-2.084 1.064-2.913.472-.826 1.13-1.663 1.975-2.507a11.627 11.627 0 0 1 3.823-2.531c1.468-.609 3.117-.912 4.939-.912s3.469.303 4.938.912a11.635 11.635 0 0 1 3.825 2.531c.843.844 1.502 1.681 1.975 2.507.472.829.827 1.799 1.065 2.913.234 1.116.386 2.423.454 3.926.069 1.503.102 3.354.102 5.547a127.606 127.606 0 0 1-.102 5.547zm28.01 12.483l-3.14-8.761H73.965l-3.141 8.761h-2.937l13.271-36.063h2.429l13.274 36.063h-2.94zm24.112-10.634c0 1.654-.254 3.147-.764 4.481-.504 1.335-1.223 2.482-2.152 3.445-.928.962-2.059 1.704-3.393 2.228-1.336.524-2.811.786-4.432.786-3.208 0-5.843-1.032-7.902-3.09l1.875-1.874a11.049 11.049 0 0 0 2.33 1.772c.878.507 2.11.76 3.697.76 2.633 0 4.625-.776 5.977-2.331 1.35-1.553 2.025-3.799 2.025-6.734V12.841h2.738V38.27z"/>
        <path d="M34.271 23.756a16.403 16.403 0 0 0-.785-3.166 7.165 7.165 0 0 0-1.544-2.531c-1.047-1.082-2.238-1.814-3.572-2.204s-2.727-.583-4.178-.583h-8.713v31.204h8.713c1.451 0 2.843-.196 4.178-.583 1.334-.388 2.525-1.124 3.572-2.204a7.153 7.153 0 0 0 1.544-2.535 16.3 16.3 0 0 0 .785-3.163c.169-1.132.27-2.306.304-3.521a128.568 128.568 0 0 0 0-7.192 29.43 29.43 0 0 0-.304-3.522zm28.576-1.318c-.185-.994-.464-1.865-.836-2.607a8.027 8.027 0 0 0-1.519-2.078c-1.857-1.856-4.137-2.785-6.838-2.785-2.702 0-4.981.928-6.838 2.785a7.998 7.998 0 0 0-1.519 2.078c-.373.742-.651 1.613-.836 2.607-.186.998-.305 2.18-.354 3.547a133.901 133.901 0 0 0-.076 4.889c0 1.89.025 3.519.076 4.887.05 1.367.168 2.553.354 3.545.186.998.464 1.868.836 2.61a7.94 7.94 0 0 0 1.519 2.076c1.857 1.858 4.137 2.786 6.838 2.786 2.701 0 4.98-.928 6.838-2.786a8.002 8.002 0 0 0 1.519-2.076c.372-.742.651-1.612.836-2.61.186-.992.303-2.178.355-3.545.049-1.368.077-2.997.077-4.887 0-1.891-.028-3.521-.077-4.889-.052-1.367-.17-2.548-.355-3.547z"/>
    </g>
    <path d="M134.303 9.481h3.693c.801 0 1.502.1 2.289.715.615.472 1.102 1.331 1.102 2.433 0 1.446-1.102 3.063-3.191 3.063h-2.348v3.979h-1.545V9.481zm1.545 4.751h2.291c1.145 0 1.703-.844 1.703-1.646 0-.687-.271-1.102-.658-1.359-.344-.229-.658-.287-1.104-.287h-2.232v3.292zm11.677 3.164h-3.865l-.787 2.276h-1.631l3.707-10.19h1.287l3.707 10.19h-1.631l-.787-2.276zm-.445-1.375l-1.473-4.451h-.029l-1.475 4.451h2.977zm5.193-5.166h-2.791V9.481h7.127v1.374h-2.791v8.816h-1.545v-8.816zm5.995-1.374h3.98c.857 0 1.531.2 2.074.672a2.873 2.873 0 0 1 1.016 2.176c0 1.316-.744 2.39-1.975 2.819l2.361 4.523h-1.832l-2.104-4.351h-1.975v4.351h-1.547V9.481zm1.546 4.465h2.332c1.16 0 1.732-.759 1.732-1.617 0-.53-.201-.931-.516-1.16-.285-.214-.602-.314-1.131-.314h-2.418v3.091zm7.854-2.719a3.62 3.62 0 0 1 3.191-1.832c1.604 0 2.705.944 3.191 1.832.33.601.445.901.445 3.349 0 2.447-.115 2.748-.445 3.349a3.62 3.62 0 0 1-3.191 1.832 3.62 3.62 0 0 1-3.191-1.832c-.328-.601-.443-.902-.443-3.349 0-2.448.115-2.748.443-3.349zm1.617 6.24c.314.401.846.744 1.574.744.73 0 1.26-.343 1.574-.744.402-.515.516-.802.516-2.891 0-2.09-.113-2.376-.516-2.891a1.959 1.959 0 0 0-1.574-.745 1.96 1.96 0 0 0-1.574.745c-.4.515-.516.801-.516 2.891.001 2.09.116 2.376.516 2.891zm7.582-7.986h1.461l4.607 7.242h.029V9.481h1.547v10.19h-1.461l-4.609-7.242h-.027v7.242h-1.547V9.481zM133.688 34.65l3.979-4.981c.314-.401.371-.715.371-1.016 0-.716-.529-1.445-1.402-1.445-.787 0-1.416.558-1.488 1.474h-1.459c.014-1.661 1.303-2.934 2.834-2.934 1.703 0 2.977 1.302 2.977 2.919 0 .673-.186 1.26-.615 1.789l-3.277 4.108h3.893v1.459h-5.811V34.65zm8.242-5.968c0-1.875 1.389-2.934 2.891-2.934s2.891 1.059 2.891 2.934v4.494c0 1.875-1.389 2.934-2.891 2.934s-2.891-1.059-2.891-2.934v-4.494zm4.322.086c0-.988-.572-1.56-1.432-1.56s-1.432.572-1.432 1.56v4.322c0 .988.572 1.561 1.432 1.561s1.432-.572 1.432-1.561v-4.322zm5.35-1.389l-1.445 1.059v-1.545l1.445-1.059h1.461v10.19h-1.461v-8.645zm5.765 3.378c-.6-.544-1.016-1.174-1.016-2.061 0-1.646 1.273-2.948 2.92-2.948s2.92 1.302 2.92 2.948c0 .887-.416 1.517-1.016 2.061.771.515 1.201 1.331 1.201 2.29 0 1.803-1.416 3.062-3.105 3.062s-3.105-1.26-3.105-3.062c0-.959.43-1.775 1.201-2.29zm1.904 3.893c.873 0 1.646-.688 1.646-1.617 0-.932-.773-1.618-1.646-1.618s-1.646.687-1.646 1.618c0 .93.773 1.617 1.646 1.617zm0-4.523c.744 0 1.459-.501 1.459-1.46s-.715-1.459-1.459-1.459-1.459.5-1.459 1.459.715 1.46 1.459 1.46z"
          fill="#1d1d1b"/>
</svg>
