<svg width="466" height="160" xmlns="http://www.w3.org/2000/svg">
    <g fill="none">
        <path d="M112.5 48h41.2c-8.1-18.4-22.8-33.2-41.2-41.2V48z" fill="#E06694"/>
        <path d="M80.5 36l30.1-30.1C101.3 2.1 91.2 0 80.5 0 69.8 0 59.7 2.2 50.4 5.9L80.5 36z" fill="#CC004C"/>
        <path d="M48.5 48V6.8C30.1 14.8 15.3 29.6 7.3 48h41.2z" fill="#F37021"/>
        <path d="M124.5 80l30.1 30.1c3.8-9.3 5.9-19.4 5.9-30.1 0-10.7-2.2-20.8-5.9-30.1L124.5 80z" fill="#0089D0"/>
        <path d="M80.5 124l-30.1 30.1c9.3 3.8 19.4 5.9 30.1 5.9 10.7 0 20.8-2.2 30.1-5.9L80.5 124z" fill="#0DB14B"/>
        <path d="M36.5 80L6.4 49.9C2.6 59.2.5 69.3.5 80c0 10.7 2.2 20.8 5.9 30.1L36.5 80z" fill="#FCB711"/>
        <path d="M112.5 112v41.2c18.4-8.1 33.2-22.8 41.2-41.2h-41.2z" fill="#29BDE2"/>
        <path d="M48.5 112H7.3c8.1 18.4 22.8 33.2 41.2 41.2V112z" fill="#8CC63F"/>
        <path d="M210.6 47.9c4.3 0 8.5.8 12.4 2.5 3.8 1.6 7.2 3.9 10.1 6.8 3 3 5.3 6.4 6.9 10.2 1.7 3.9 2.5 8.1 2.5 12.4 0 4.4-.8 8.6-2.5 12.5-1.6 3.8-3.8 7.2-6.9 10.1-2.9 2.9-6.3 5.3-10.1 6.9-3.9 1.7-8.1 2.6-12.4 2.6h-12.9v-.1h-5.2V47.9h18.1zm0 51.3c10.6 0 19.2-8.7 19.2-19.3 0-10.6-8.6-19.2-19.2-19.2h-5.3v38.4h5.3v.1zm111.3-19.3c0 18.3-14.9 33.1-33.1 33.1-18.3 0-33.2-14.9-33.2-33.1 0-18.3 14.9-33.1 33.2-33.1 18.2 0 33.1 14.8 33.1 33.1zm-53.1 0c0 11 9 20 20 20s20-8.9 20-20-8.9-20-20-20-20 9-20 20zM374.7 112l-12-25.7h-13.5v25.6h-12.8v-64h31.2c10.6 0 19.2 8.7 19.2 19.3 0 7.8-4.6 14.4-11.2 17.4l12.7 27.4h-13.6zm-25.5-51.4v12.9h18.4c3.6 0 6.4-2.8 6.4-6.4 0-3.6-2.8-6.5-6.4-6.5h-18.4zm95.5 39.5h-26.5l-6 11.9h-14.3l32.6-64h3.7l30.2 64h-14.2l-5.5-11.9zm-6-12.8L432 73.1l-7.2 14.2h13.9z"
              fill="#333"/>
        <circle fill="gray" cx="80.5" cy="80" r="16"/>
    </g>
</svg>
