<svg xmlns="http://www.w3.org/2000/svg" viewBox="0 0 879.82898 177.98504" height="177.985" width="879.829">
  <path d="M587.88 95.29s2.308-1.558 3.64-3.058c.5-.272 1.64.46 2.52.4.877-.057 2.96-.845 7.135-.468 2-1.18.886-.254 4.49-2.437 3.604-2.182 4.936-1.442 7.407-2.213 2.47-.77 7.15-3 7.15-3s4.523-.975 5.47-2.592c.95-1.615 4.473-10.916 6.365-14.148.582-2.12.396-4.588.396-4.588l-3.552-.155s-3.94-.07-4.55-3.85c-1.05-.38-1.92-1.79-1.95-3.35-.03-1.56-.01-4.14-.01-4.14s.17-.43 1.26-.87 3.64-1.89 3.9-2.22c.09-.82-.11-4.19 1.59-6.36 1.71-2.17 4.12-5.03 6.72-4.38 2.61.65 2.69.95 5.54.44s5.21 1.25 5.21 1.25 1.86-.01 4.07 2.86c1.31.11 2.1-.15 2.55.75.45.9 1.46 2.26 1.41 3.52.55-1.39 8.06-11.66 13.92-14.14 5.86-2.47 15.29-1.87 15.29-1.87s9.79-7.76 13.81-17.24c4-9.49-2.96-12.97-2.96-12.97s1.43-1.34 3.19.59c1.77 1.93 5.96 6.6 4.13 12.66-1.82 6.06-11.54 18.9-11.54 18.9s-.67 2.01.14 3.51 3.38 7.56 2.99 11.93c-.38 4.37-2.94 11.67-2.94 11.67s-.78 3.15.13 6.05c.92 2.9-.45 4.34-.94 6.65-.49 2.32-.38 4.4 1.22 7.98.89 2.12.5 7.89.5 7.89s1.46 3.9 2.25 5.1c.8 1.21-1.23 1.57-2.41 1.59-1.17.02-5.45-.17-6.93-1.92s1.26-3.45 1.26-3.45 1.96-1.73 1.05-6.26c-.44-1.77-.14-2.73-.14-2.73s.91-4.38-3.79-17.51c-.52-1.45-1.76-1.24-1.84-5.34-.08-4.09-1.44.27-1.67 1.17-.23.9-3.54 9.66-8.14 13.88.43.67.49.74 1.17 1.55.68.81 1.16 1.67.07 2.99-1.09 1.32-2.89 2.35-3.8 3.87-.91 1.52-3.87 2.43-4.92 2.64-1.05.21-1.84 1.93-2.04 2.12-.2.18-1.31.4-1.31.4s-.41 7.97-.25 8.82c.16.85-.71 1.53-2.42 1.91-1.71.38-8.36 1.07-9.87 4.32-.93 1.91-.96 1.19-1.28 2.68-.33 1.48-1.52 2.02-3.08 2.14-1.56.13-7.01-.24-7.72-1.83s.87-1.91.96-2.49c.09-.58 1.01-2.23 3.65-3.22 2.65-.99 3.75-3.93 3.75-3.93s.97-1.19 3.25-1.42c2.29-.23 4.9-2 4.5-3.18-.41-1.18-3.36-6.51-3.36-6.51s-.58-1.52-3.23-.47c-2.64 1.06-2.48.28-4.14-.31-1.67-.59-3.52-1.26-5.3.88-1.78 2.13-4.99 5.63-7.71 6.88-2.72 1.25-7.25.86-13.14 3.33-3.6.56-7.53 1.43-7.53 1.43s-2.68 2.025-3.03 2.465c-.34.44-2.47.02-2.47.02s-4.11 1.9-6.32 1.93c-2.21.03-5.64-1.87-6.82-3.03-1.18-1.16-.83-1.43-.83-1.43" fill="#231f20"/>
  <path d="M61.09 155.07l-1.37 21.19H0v-3.6c1.014-.067 2.365-.21 4.055-.43 1.69-.22 2.79-.45 3.296-.684 1.09-.51 1.84-1.168 2.26-1.98.42-.81.64-1.84.64-3.09v-51.71c0-1.117-.18-2.105-.55-2.967-.37-.87-1.15-1.57-2.33-2.11-.91-.44-2.13-.83-3.67-1.17-1.53-.34-2.76-.54-3.67-.61v-3.6h55.66v17.33h-3.81c-.67-2.57-2.14-5.3-4.38-8.19-2.25-2.89-4.38-4.47-6.41-4.74-1.05-.14-2.3-.24-3.75-.31-1.45-.07-3.11-.1-4.97-.1H21.04v28.6h8.11c2.603 0 4.504-.25 5.704-.74 1.2-.49 2.255-1.31 3.168-2.46.743-.98 1.376-2.29 1.9-3.93.525-1.64.87-3.19 1.04-4.64h3.802v28.19h-3.8c-.137-1.62-.5-3.34-1.092-5.15-.59-1.81-1.208-3.12-1.85-3.93-1.047-1.32-2.24-2.18-3.574-2.59-1.336-.41-3.1-.61-5.297-.61h-8.11v21.56c0 2.16.15 3.86.46 5.11.31 1.25.9 2.19 1.78 2.83.88.64 2.08 1.05 3.6 1.24 1.52.18 3.69.28 6.49.28h4.42c1.83 0 3.36-.07 4.61-.2 1.29-.14 2.61-.38 3.98-.74s2.34-.84 2.92-1.44c1.56-1.63 3.19-4.09 4.89-7.38 1.71-3.3 2.8-5.72 3.27-7.28h3.65m42.44 11.51V137.3c-.27-.88-.71-1.827-1.31-2.84-.6-1.015-1.36-1.94-2.27-2.79-.98-.843-2.12-1.545-3.44-2.1-1.32-.558-2.85-.836-4.61-.836-2.02 0-3.89.52-5.59 1.57-1.7 1.043-3.21 2.55-4.52 4.51-1.25 1.89-2.23 4.3-2.96 7.222-.72 2.924-1.09 6.16-1.09 9.71 0 2.836.27 5.414.81 7.73.54 2.315 1.45 4.47 2.73 6.462 1.18 1.893 2.69 3.416 4.53 4.564 1.84 1.15 4.03 1.72 6.56 1.72 2.7 0 4.93-.6 6.7-1.78 1.78-1.187 3.27-2.488 4.48-3.908zm18.35 8.77l-17.49 1.11-.76-.71v-4.66l-.4-.1c-1.75 1.96-3.92 3.56-6.5 4.81-2.58 1.25-5.24 1.87-7.97 1.87-2.83 0-5.58-.63-8.23-1.9-2.65-1.27-4.95-3.05-6.91-5.35-1.99-2.33-3.57-5.14-4.73-8.42-1.16-3.28-1.74-6.89-1.74-10.85 0-3.61.63-7.04 1.88-10.29 1.25-3.24 2.97-6.08 5.17-8.52 2.06-2.26 4.58-4.07 7.57-5.42 2.99-1.35 6.03-2.03 9.14-2.03 2.33 0 4.62.3 6.86.89 2.24.59 4.18 1.34 5.8 2.26v-17.4c0-1.42-.23-2.72-.71-3.88-.47-1.17-1.13-2.06-1.97-2.67-.95-.65-2.22-1.11-3.83-1.4-1.61-.29-3.34-.5-5.2-.64v-3.1l20.48-1.12.77.76v67.38c0 1.18.23 2.18.69 3.01.46.83 1.13 1.53 2.01 2.1.64.4 1.57.66 2.79.76 1.22.1 2.33.17 3.35.2v3.35m22.76-69.4c0 1.93-.63 3.61-1.9 5.05s-2.83 2.16-4.69 2.16c-1.72 0-3.22-.68-4.49-2.05-1.27-1.36-1.9-2.93-1.9-4.68 0-1.86.63-3.48 1.9-4.86 1.27-1.38 2.76-2.08 4.49-2.08 1.92 0 3.5.65 4.74 1.96 1.23 1.3 1.85 2.82 1.85 4.54zm6.34 70.32H126.9v-3.34l2.41-.2c.828-.07 1.547-.2 2.155-.4.95-.3 1.65-.83 2.107-1.59.45-.76.68-1.74.68-2.96v-30.84c0-1.08-.243-2.07-.733-2.96-.49-.89-1.18-1.64-2.05-2.25-.64-.4-1.57-.75-2.79-1.04-1.21-.28-2.33-.46-3.34-.53v-3.35l17.64-1.11.71.71v40.76c0 1.19.22 2.17.68 2.94.45.78 1.16 1.35 2.14 1.73.74.31 1.46.55 2.16.74.71.19 1.49.31 2.37.38v3.35m37.06-2.18c-2.2.91-4.28 1.68-6.23 2.31-1.96.62-4.36.94-7.2.94-4.19 0-7.14-1.06-8.84-3.17-1.71-2.12-2.56-5.1-2.56-8.95v-33.87h-9.03v-4.87h9.22v-15.57h9.23v15.56H187v4.86h-14.25v27.93c0 2.1.076 3.84.23 5.25.15 1.4.513 2.63 1.09 3.67.54.98 1.35 1.72 2.43 2.23 1.084.5 2.537.76 4.36.76.845 0 2.09-.08 3.73-.23 1.633-.15 2.79-.35 3.47-.58v3.7m43.242-23.22c0-2.54-.255-5.21-.763-8.04-.51-2.82-1.27-5.22-2.29-7.17-1.09-2.1-2.51-3.78-4.27-5.05-1.76-1.27-3.91-1.9-6.45-1.9-2.61 0-4.83.64-6.68 1.92-1.85 1.28-3.34 3.04-4.5 5.27-1.08 2.06-1.85 4.41-2.29 7.04-.44 2.63-.66 5.19-.66 7.65 0 3.24.26 6.24.78 8.99s1.36 5.21 2.51 7.37c1.15 2.16 2.6 3.86 4.34 5.09 1.74 1.24 3.9 1.85 6.48 1.85 4.23 0 7.58-2.04 10.05-6.13 2.47-4.09 3.71-9.73 3.71-16.93zm10.493-.1c0 3.51-.56 6.97-1.675 10.36-1.118 3.4-2.707 6.28-4.77 8.64-2.336 2.7-5.04 4.71-8.12 6.03-3.08 1.32-6.53 1.98-10.354 1.98-3.18 0-6.204-.6-9.08-1.8-2.876-1.2-5.43-2.95-7.663-5.25-2.2-2.27-3.95-5.03-5.25-8.29-1.303-3.26-1.955-6.92-1.955-10.98 0-7.81 2.275-14.2 6.826-19.16 4.55-4.97 10.51-7.45 17.886-7.45 7.005 0 12.78 2.35 17.333 7.07 4.55 4.71 6.823 10.99 6.823 18.83m45.472-18.05c0 1.73-.42 3.26-1.266 4.59-.846 1.34-2.148 2.01-3.905 2.01-1.895 0-3.34-.49-4.336-1.47-1-.98-1.5-2.06-1.5-3.25 0-.74.06-1.42.18-2.03.12-.61.23-1.22.33-1.83-1.59 0-3.45.64-5.58 1.92-2.12 1.28-3.93 3.11-5.42 5.47v29.1c0 1.18.23 2.15.69 2.89.46.74 1.18 1.3 2.16 1.67.85.34 1.94.59 3.27.76 1.34.17 2.49.29 3.48.36v3.34H249v-3.35l2.404-.2c.83-.07 1.55-.2 2.155-.41.94-.31 1.65-.84 2.1-1.6.45-.76.68-1.75.68-2.97v-30.8c0-1.05-.25-2.08-.74-3.09-.49-1.02-1.18-1.83-2.05-2.43-.64-.41-1.4-.7-2.28-.89-.88-.19-1.83-.31-2.84-.38v-3.35l16.63-1.11.71.71v7.043h.25c2.1-2.74 4.43-4.82 7-6.24 2.57-1.42 4.92-2.127 7.05-2.127s3.86.69 5.19 2.075c1.34 1.387 2 3.247 2 5.577m22.15-26.77c0 1.93-.63 3.61-1.9 5.045-1.27 1.44-2.83 2.16-4.69 2.16-1.72 0-3.22-.68-4.49-2.05-1.27-1.36-1.9-2.93-1.9-4.69 0-1.86.63-3.48 1.9-4.87 1.27-1.38 2.76-2.08 4.48-2.08 1.93 0 3.51.65 4.74 1.96 1.23 1.3 1.85 2.82 1.85 4.54zm6.34 70.317h-24.13v-3.34c.77-.07 1.58-.137 2.4-.2.83-.07 1.55-.206 2.16-.41.94-.306 1.65-.836 2.1-1.596.45-.76.68-1.745.68-2.96V136.9c0-1.08-.25-2.067-.74-2.962-.5-.894-1.18-1.646-2.06-2.25-.64-.4-1.57-.75-2.79-1.03-1.21-.29-2.33-.46-3.34-.53v-3.34l17.64-1.11.71.71v40.76c0 1.19.23 2.17.68 2.94.45.78 1.17 1.35 2.14 1.73.74.31 1.46.56 2.16.74.7.19 1.49.32 2.37.38v3.35m35.84-27.68c-2.87.85-5.39 1.68-7.56 2.49-2.16.81-4.17 1.83-6.03 3.05-1.69 1.16-3.02 2.52-4 4.09-.98 1.58-1.47 3.45-1.47 5.61 0 2.82.74 4.88 2.21 6.2 1.47 1.32 3.34 1.98 5.6 1.98 2.4 0 4.51-.58 6.34-1.75 1.82-1.17 3.36-2.54 4.61-4.14zm17.69 26.77c-1.59.58-2.99 1.04-4.19 1.4-1.2.36-2.56.53-4.08.53-2.64 0-4.74-.61-6.31-1.85-1.57-1.23-2.58-3.03-3.02-5.4h-.31c-2.2 2.43-4.56 4.29-7.07 5.58-2.52 1.28-5.55 1.92-9.1 1.92-3.75 0-6.84-1.15-9.25-3.45-2.42-2.3-3.63-5.3-3.63-9.02 0-1.92.27-3.65.81-5.17s1.35-2.89 2.43-4.11c.85-1.01 1.96-1.91 3.35-2.71 1.38-.79 2.68-1.43 3.9-1.9 1.52-.57 4.6-1.64 9.25-3.19s7.78-2.77 9.4-3.65v-5.02c0-.44-.09-1.28-.28-2.53-.18-1.25-.58-2.43-1.19-3.55-.67-1.25-1.63-2.34-2.86-3.27-1.23-.93-2.98-1.39-5.25-1.39-1.55 0-3 .26-4.33.79s-2.27 1.07-2.81 1.65c0 .68.16 1.67.48 2.99.32 1.32.48 2.53.48 3.65 0 1.18-.54 2.27-1.6 3.25-1.06.97-2.54 1.46-4.44 1.46-1.69 0-2.93-.6-3.73-1.8-.8-1.2-1.19-2.54-1.19-4.03 0-1.55.54-3.04 1.64-4.46 1.1-1.42 2.52-2.69 4.28-3.8 1.52-.95 3.36-1.75 5.52-2.41 2.16-.66 4.27-.99 6.33-.99 2.84 0 5.31.2 7.422.59 2.11.39 4.03 1.23 5.75 2.51 1.73 1.25 3.04 2.95 3.93 5.1.9 2.15 1.34 4.91 1.34 8.29 0 4.83-.05 9.11-.15 12.85-.1 3.73-.15 7.82-.15 12.24 0 1.32.23 2.37.69 3.15.457.78 1.16 1.44 2.1 1.98.51.3 1.31.47 2.41.51 1.1.04 2.22.05 3.37.05v3.25m28.4.91h-24.4v-3.35c.776-.06 1.6-.14 2.48-.22.88-.08 1.61-.21 2.18-.38.95-.3 1.66-.83 2.13-1.59.475-.76.71-1.75.71-2.97v-58c0-1.22-.26-2.36-.784-3.42-.52-1.066-1.21-1.904-2.05-2.51-.61-.405-1.72-.776-3.35-1.114-1.62-.34-2.93-.54-3.91-.61V98.9l18.81-1.116.71.76v68.59c0 1.186.22 2.156.66 2.917.44.76 1.15 1.34 2.13 1.75.75.34 1.48.59 2.21.76.73.17 1.55.29 2.46.36v3.35m83.19-12.42c1.89-3.07 3.27-6.55 4.13-10.44.86-3.88 1.29-8.23 1.29-13.02 0-4.93-.48-9.46-1.44-13.58-.96-4.12-2.38-7.63-4.23-10.54-1.86-2.88-4.2-5.12-7-6.72-2.81-1.61-6.02-2.41-9.64-2.41-4.06 0-7.5.93-10.34 2.79-2.84 1.86-5.156 4.34-6.95 7.45-1.69 2.98-2.95 6.46-3.78 10.44-.83 3.99-1.24 8.18-1.24 12.58 0 4.87.44 9.26 1.32 13.18.88 3.92 2.263 7.4 4.16 10.45 1.82 2.97 4.12 5.3 6.89 6.97 2.77 1.68 6.08 2.51 9.934 2.51 3.615 0 6.875-.84 9.78-2.53 2.91-1.69 5.275-4.05 7.1-7.1zm7.55-51c3.18 3.31 5.66 7.31 7.45 11.99 1.8 4.68 2.69 9.86 2.69 15.54 0 5.71-.91 10.9-2.73 15.56-1.825 4.67-4.36 8.64-7.605 11.92-3.15 3.25-6.8 5.75-10.95 7.51-4.16 1.76-8.59 2.64-13.29 2.64-5 0-9.62-.94-13.86-2.81-4.25-1.87-7.89-4.49-10.93-7.83-3.04-3.28-5.44-7.26-7.18-11.94-1.74-4.68-2.61-9.69-2.61-15.03 0-5.85.91-11.06 2.74-15.64 1.82-4.58 4.34-8.54 7.55-11.89 3.18-3.31 6.87-5.85 11.08-7.6 4.21-1.76 8.61-2.63 13.21-2.63 4.76 0 9.26.9 13.48 2.69 4.23 1.79 7.88 4.31 10.955 7.55m55.06-8.97c0 1.52-.4 2.81-1.21 3.85-.81 1.05-2.05 1.58-3.7 1.58-1.05 0-1.97-.22-2.77-.66-.793-.44-1.53-1.03-2.21-1.77-.673-.74-1.3-1.58-1.872-2.53-.574-.94-1.063-1.7-1.47-2.28-2.264.1-4.01 1.68-5.25 4.73-1.23 3.06-1.85 7.92-1.85 14.6v5.11H536v4.87h-12.88v35.89c0 1.19.23 2.15.69 2.89.453.75 1.17 1.3 2.15 1.68.81.3 1.894.55 3.247.73 1.35.19 2.516.31 3.5.38v3.35h-26.37v-3.34c.777-.07 1.58-.14 2.41-.2.83-.07 1.543-.21 2.153-.41.947-.31 1.65-.84 2.104-1.6.46-.76.682-1.75.682-2.97V131.4h-9.884v-4.87h9.883v-3.19c0-7.59 1.97-13.734 5.905-18.44 3.93-4.71 8.86-7.06 14.772-7.06 3 0 5.27.59 6.79 1.77 1.52 1.18 2.28 2.62 2.28 4.31" fill="#100f0d"/>
  <path d="M577.224 103.867c0 1.52-.405 2.805-1.216 3.85-.81 1.05-2.045 1.574-3.7 1.574-1.048 0-1.97-.22-2.764-.66-.795-.44-1.53-1.03-2.205-1.77-.68-.74-1.31-1.58-1.88-2.53-.58-.94-1.07-1.7-1.47-2.28-2.27.1-4.02 1.68-5.25 4.73-1.24 3.06-1.85 7.92-1.85 14.6v5.11h12.88v4.87h-12.88v35.9c0 1.19.22 2.15.68 2.89.45.75 1.17 1.31 2.15 1.68.81.31 1.89.55 3.24.74 1.35.19 2.51.32 3.49.38v3.35H540.1v-3.34c.78-.07 1.58-.14 2.41-.2.828-.07 1.546-.21 2.154-.41.947-.31 1.65-.84 2.104-1.6.46-.76.685-1.75.685-2.96v-36.41h-9.886v-4.87h9.884v-3.19c0-7.59 1.97-13.74 5.91-18.44 3.94-4.7 8.86-7.06 14.78-7.06 3.01 0 5.27.59 6.79 1.78 1.52 1.19 2.28 2.62 2.28 4.31" fill="#100f0d"/>
  <path d="M598.01 176.26h-24.13v-3.347c.776-.067 1.577-.135 2.407-.2.828-.07 1.546-.204 2.154-.407.95-.305 1.65-.835 2.11-1.595.46-.76.68-1.74.68-2.96v-30.84c0-1.08-.24-2.06-.73-2.96-.49-.89-1.17-1.64-2.05-2.25-.64-.4-1.57-.75-2.78-1.04-1.22-.29-2.33-.46-3.34-.53v-3.34l17.64-1.11.71.71v40.76c0 1.19.23 2.17.68 2.94.46.78 1.17 1.35 2.14 1.73.74.31 1.46.55 2.17.74.71.19 1.5.32 2.37.38v3.35m29.31 1.32c-7.23 0-12.89-2.4-16.98-7.2-4.09-4.8-6.14-11.24-6.14-19.32 0-3.51.55-6.8 1.65-9.86 1.1-3.05 2.7-5.83 4.79-8.34 2-2.4 4.5-4.33 7.5-5.8 3.01-1.47 6.29-2.2 9.84-2.2 4.9 0 8.89 1.18 11.96 3.53 3.08 2.35 4.61 5.55 4.61 9.61 0 1.69-.4 3.19-1.22 4.49-.81 1.3-2.14 1.95-4 1.95-1.99 0-3.54-.5-4.64-1.51-1.09-1.01-1.64-2.13-1.64-3.38 0-1.52.2-3.07.61-4.67s.64-2.77.71-3.51c-.61-1.04-1.51-1.74-2.71-2.09-1.19-.35-2.48-.53-3.87-.53-1.62 0-3.16.35-4.62 1.04-1.47.7-2.89 1.97-4.27 3.83-1.24 1.69-2.26 3.97-3.03 6.85-.78 2.87-1.16 6.3-1.16 10.29 0 6.29 1.39 11.41 4.17 15.39 2.79 3.97 6.44 5.96 10.96 5.96 3.28 0 6.02-.8 8.23-2.39 2.21-1.59 4.26-3.99 6.15-7.18l3.24 2.13c-2.23 3.99-5.17 7.15-8.82 9.48-3.65 2.33-7.41 3.5-11.3 3.5m57.24-32.13c0-1.89-.16-3.91-.48-6.06-.32-2.15-.83-3.96-1.54-5.41-.78-1.55-1.84-2.81-3.19-3.79-1.35-.98-3.09-1.47-5.22-1.47-3.55 0-6.49 1.47-8.84 4.42-2.35 2.95-3.63 7.05-3.83 12.31zm11.21 19.06c-2.1 3.99-4.9 7.17-8.42 9.53-3.51 2.37-7.55 3.55-12.11 3.55-4.02 0-7.54-.71-10.57-2.13-3.02-1.42-5.51-3.35-7.47-5.78s-3.42-5.27-4.38-8.51-1.44-6.67-1.44-10.29c0-3.24.51-6.43 1.55-9.55 1.03-3.12 2.54-5.94 4.53-8.44 1.93-2.4 4.32-4.33 7.18-5.8 2.86-1.47 6.06-2.2 9.61-2.2 3.65 0 6.77.57 9.37 1.72 2.61 1.15 4.72 2.72 6.34 4.72 1.56 1.89 2.71 4.12 3.47 6.69.77 2.57 1.15 5.36 1.15 8.37v3.35H661.5c0 3.29.31 6.27.94 8.95.62 2.68 1.61 5.03 2.96 7.06 1.32 1.96 3.04 3.51 5.17 4.64 2.13 1.14 4.666 1.71 7.608 1.71 3.01 0 5.608-.71 7.78-2.12 2.18-1.41 4.29-3.95 6.32-7.62l3.55 2.18m89.88-9.63l-1.52 21.4h-56.22v-3.6c.81-.07 1.99-.19 3.53-.36 1.54-.17 2.61-.39 3.22-.66 1.01-.44 1.75-1.08 2.206-1.93.46-.84.68-1.922.68-3.24V115c0-1.15-.19-2.16-.58-3.04-.39-.88-1.16-1.59-2.302-2.13-.78-.406-1.87-.803-3.27-1.19-1.402-.39-2.56-.62-3.472-.686v-3.6h30.36v3.6c-.943.032-2.17.2-3.67.504s-2.596.574-3.27.81c-1.15.405-1.938 1.1-2.36 2.08-.42.98-.64 2.03-.64 3.14V162.8c0 2.23.11 3.96.33 5.196.22 1.235.736 2.19 1.546 2.864.78.61 1.936 1.007 3.47 1.19 1.54.187 3.697.28 6.47.28 1.25 0 2.55-.03 3.904-.1 1.35-.068 2.636-.205 3.85-.407 1.186-.2 2.276-.48 3.27-.835 1-.355 1.73-.8 2.21-1.344 1.384-1.557 3-3.91 4.84-7.07 1.843-3.16 3.12-5.725 3.83-7.686h3.6m34.47 19.212c-2.2.915-4.28 1.684-6.24 2.31-1.96.62-4.36.937-7.2.937-4.19 0-7.14-1.056-8.85-3.17-1.707-2.113-2.56-5.1-2.56-8.95v-33.86h-9.03V126.5h9.224v-15.56h9.23v15.56h14.35v4.866h-14.3V159.3c0 2.094.075 3.842.228 5.245.15 1.405.516 2.63 1.09 3.68.54.98 1.35 1.72 2.434 2.23 1.09.506 2.54.76 4.36.76.85 0 2.09-.077 3.73-.23 1.64-.15 2.8-.346 3.48-.58v3.7m41.37-7.504v-29.27c-.27-.88-.71-1.82-1.31-2.84-.61-1.01-1.37-1.94-2.28-2.78-.97-.84-2.12-1.54-3.44-2.1-1.31-.56-2.85-.83-4.6-.83-2.02 0-3.89.53-5.59 1.57-1.7 1.05-3.21 2.55-4.53 4.51-1.24 1.9-2.23 4.3-2.96 7.23-.72 2.93-1.08 6.16-1.08 9.71 0 2.84.27 5.42.81 7.73.54 2.32 1.45 4.47 2.74 6.47 1.18 1.9 2.69 3.42 4.53 4.57 1.84 1.15 4.02 1.73 6.55 1.73 2.7 0 4.93-.59 6.71-1.77 1.77-1.18 3.27-2.48 4.48-3.9zm18.35 8.77l-17.49 1.12-.76-.71v-4.66l-.4-.1c-1.75 1.96-3.92 3.57-6.5 4.81-2.58 1.25-5.24 1.88-7.97 1.88-2.83 0-5.58-.63-8.23-1.9-2.64-1.26-4.95-3.05-6.91-5.34-1.99-2.33-3.56-5.14-4.73-8.42-1.16-3.28-1.74-6.89-1.74-10.85 0-3.61.63-7.04 1.88-10.29 1.25-3.24 2.97-6.08 5.16-8.51 2.06-2.26 4.59-4.07 7.57-5.42 2.99-1.35 6.04-2.03 9.14-2.03 2.33 0 4.62.3 6.86.89 2.25.59 4.18 1.34 5.8 2.26v-17.43c0-1.42-.23-2.71-.71-3.88-.47-1.17-1.13-2.05-1.98-2.66-.94-.64-2.22-1.11-3.82-1.4-1.6-.29-3.34-.5-5.19-.63v-3.2l20.48-1.11.76.76v67.38c0 1.18.23 2.19.69 3.02.46.83 1.13 1.53 2.01 2.1.64.41 1.57.66 2.79.76 1.22.11 2.33.17 3.35.21v3.35" fill="#100f0d"/>
  <path d="M611.677 112.043c0 4.797-3.89 8.687-8.685 8.687-4.8 0-8.687-3.89-8.687-8.687 0-4.796 3.888-8.686 8.687-8.686 4.796 0 8.685 3.89 8.685 8.686" fill="#ed1d24"/>
</svg>
