<svg xmlns="http://www.w3.org/2000/svg" viewBox="0 0 780.99999 213.7" width="781" height="213.7">
  <path d="M137.5 28.4c-.4 0-.7.3-1 .8l-13.8 24 29.7 51.4c.4.6.5 1.4.5 2.3 0 .9-.2 1.7-.5 2.3l-29.7 51.4 13.8 24c.3.5.7.8 1 .8.3 0 .7-.3 1-.8l43.7-75.6c.3-.5.5-1.3.5-2s-.2-1.5-.5-2l-43.7-75.6c-.2-.7-.6-1-1-1zm-15.9 78.5c0-.8-.2-1.5-.5-2L107 80.3l-14.2 24.5c-.3.5-.5 1.3-.5 2s.2 1.5.5 2l14.2 24.5 14.2-24.5c.3-.4.4-1.2.4-1.9zM91.3 53.2l-13.8-24c-.3-.5-.7-.8-1-.8-.3 0-.7.3-1 .8l-43.7 75.6c-.3.5-.5 1.3-.5 2s.2 1.5.5 2l43.7 75.6c.3.5.7.8 1 .8.3 0 .7-.3 1-.8l13.8-24L61.6 109c-.4-.6-.5-1.4-.5-2.3 0-.9.2-1.7.5-2.3z" fill="none"/>
  <path d="M77.5 184.5L61.3 213c.7.4 1.5.7 2.3.7h25.8c1.5 0 3.2-1 4-2.3l13.7-23.7-15.7-27.2zm75.9-77.4h-31.3c0 .8-.2 1.5-.5 2l-14.2 24.5 15.7 27.2 29.7-51.4c.4-.6.6-1.4.6-2.3z" fill="#2980b9"/>
  <path d="M76.5 185.3c-.4 0-.7-.3-1-.8l-43.7-75.6c-.3-.5-.5-1.3-.5-2H0c0 .9.2 1.7.5 2.3l59.1 102.3c.4.6 1 1.2 1.7 1.6l16.2-28.5c-.3.4-.7.7-1 .7z" fill="#1f4579"/>
  <path d="M31.8 104.8l43.7-75.6c.3-.5.7-.8 1-.8.3 0 .7.3 1 .8L61.1.8c-.6.4-1.2.9-1.5 1.5L.5 104.6c-.3.6-.5 1.4-.5 2.3h31.3c0-.8.1-1.5.5-2.1z" fill="#33aba2"/>
  <path d="M137.5 185.3c-.4 0-.7-.3-1-.8l-13.8-24-15.7-27.1-14.2-24.5c-.3-.5-.5-1.3-.5-2H61.1c0 .9.2 1.7.5 2.3l29.7 51.4 15.7 27.2 13.7 23.7c.4.6 1 1.2 1.7 1.6l16.2-28.5c-.3.4-.7.7-1.1.7z" fill="#1f4579"/>
  <path d="M182.2 108.9l-43.7 75.6-16.1 28.5c.7.4 1.5.7 2.3.7h25.8c1.5 0 3.2-1 4-2.3l59.1-102.3c.4-.6.5-1.4.5-2.3h-31.3c-.1.8-.3 1.6-.6 2.1z" fill="#2980b9"/>
  <path d="M154.4 2.3c-.7-1.3-2.5-2.3-4-2.3h-25.8c-.8 0-1.7.3-2.5.8l16.4 28.4 43.7 75.6c.3.5.5 1.3.5 2H214c0-.9-.2-1.7-.5-2.3z" fill="#1f7777"/>
  <path d="M136.5 29.2c.3-.5.7-.8 1-.8.3 0 .7.3 1 .8L122.2.8c-.6.4-1.2.9-1.5 1.5L107 26l15.7 27.2zM107 80.3L91.3 53.2l-29.7 51.4c-.4.6-.5 1.4-.5 2.3h31.3c0-.8.2-1.5.5-2z" fill="#33aba2"/>
  <path d="M91.3 53.2L107 80.3l14.2 24.5c.3.5.5 1.5.5 2.3H153c0-.9-.2-1.9-.5-2.5l-29.7-51.4L107 26 93.3 2.3C92.6 1 90.8 0 89.3 0H63.6c-.8 0-1.7.3-2.5.8l16.4 28.4z" fill="#1f7777"/>
  <path d="M333.8 39.1c-1.1-2-2.5-3.7-4.3-5.2-1.8-1.5-4-2.7-6.7-3.6-2.6-.9-5.8-1.6-9.3-2.1-3.6-.4-7.7-.7-12.5-.7h-25.1c-5.8 0-10.7.4-14.7 1.1-4 .7-7.4 1.8-10.1 3.3-2.7 1.5-4.8 3.4-6.3 5.8-1.5 2.3-2.5 4.9-3.2 8-.6 3-1 6.3-1.1 10-.1 3.6-.1 7.7-.1 12.1 0 4.4 0 8.5.1 12.1.1 3.7.5 7.1 1.1 10 .7 3 1.7 5.7 3.2 8 1.5 2.3 3.6 4.3 6.3 5.8 2.6 1.5 6 2.6 10.1 3.3 4 .7 8.9 1.1 14.7 1.1H301c4.7 0 8.9-.2 12.5-.7 3.6-.4 6.7-1.2 9.4-2.1 2.7-1 4.9-2.2 6.7-3.8 1.8-1.5 3.2-3.4 4.3-5.5 1-2.1 1.8-4.5 2.2-7.1.4-2.6.6-5.5.6-8.7V66.6h-49.5v10.3h37.6v3.4c0 2.5-.1 4.8-.3 6.7-.2 1.8-.6 3.3-1.2 4.6-.5 1.2-1.3 2.2-2.3 3-1 .8-2.4 1.4-4 1.9-1.8.5-4 .8-6.5 1-2.6.2-5.7.3-9.3.3h-25.1c-4.1 0-7.6-.1-10.4-.4-2.7-.2-5-.7-6.7-1.4-1.6-.7-2.9-1.6-3.7-2.8-.9-1.2-1.5-3-2-5.1-.4-2.2-.7-5-.8-8.3-.1-3.3-.1-7.4-.1-12.1 0-4.7 0-8.7.1-12.1.1-3.3.3-6.1.8-8.3.4-2.1 1.1-3.8 2-5.1.9-1.2 2.1-2.1 3.8-2.8 1.7-.7 4-1.2 6.7-1.4 2.8-.2 6.3-.4 10.4-.4H301c4.6 0 8.6.2 11.7.5 3 .3 5.4 1 7.2 2.1 1.7 1 2.9 2.5 3.7 4.5.8 2.1 1.2 5.1 1.2 8.8V55h11.9v-1.2c0-2.9-.2-5.6-.6-8-.5-2.5-1.3-4.8-2.3-6.7zm20.9-10h11.9v77.5h-11.9zM449 60.9c-.9-2-2.1-4-3.6-5.8-1.5-1.9-3.6-3.5-6-4.8-2.4-1.3-5.4-2.3-8.7-3-3.3-.7-7.3-1-11.8-1-6.3 0-11.8.5-16.2 1.4-4.5 1-8.3 2.8-11.2 5.3-2.9 2.5-5 5.9-6.3 10.2-1.3 4.1-1.9 9.4-1.9 15.6 0 5.5.6 10.1 1.9 13.8 1.3 3.8 3.5 6.8 6.4 9.1 2.9 2.2 6.6 3.8 11.2 4.7 4.4.9 9.9 1.3 16.2 1.3 5.9 0 10.9-.3 15-.9 4.1-.6 7.5-1.6 10.1-3 2.7-1.4 4.6-3.4 5.8-5.7 1.1-2.3 1.7-5.1 1.7-8.3v-1.2h-11.9v1.2c0 1.6-.3 2.9-.8 3.9-.5.9-1.5 1.6-2.9 2.2-1.5.6-3.7 1-6.4 1.2-2.8.2-6.3.3-10.6.3-4.6 0-8.6-.2-11.7-.5-3-.3-5.4-1-7.2-2.2-1.7-1.1-2.9-2.8-3.7-5.2-.7-2.3-1.1-5.2-1.2-8.7h56.2l.1-4.2v-.2c0-2.9-.2-5.8-.5-8.4-.5-2.7-1.1-5.1-2-7.1zM395 72c0-2.3.2-4.2.5-5.9.3-1.8.9-3.3 1.5-4.2.7-1 1.6-1.9 2.8-2.6 1.2-.8 2.6-1.3 4.3-1.7 1.8-.4 3.8-.7 6.2-.8 2.4-.1 5.2-.2 8.3-.2 3.8 0 7.1.3 9.8.8 2.6.5 4.7 1.4 6.2 2.6 1.6 1.3 2.7 2.9 3.5 4.8.7 1.8 1 4.2 1.1 7.3H395zm137.6-12.9c-.7-2.1-1.8-4-3.2-5.6-1.4-1.6-3.2-3-5.5-4.1-2.2-1.1-4.9-1.9-8-2.4-3.1-.5-6.8-.8-11-.8-1.4 0-3.1.1-4.8.1-1.8.1-3.6.3-5.5.6s-3.8.7-5.7 1.2c-1.9.5-3.8 1.2-5.4 2.1-1.7.9-3.2 1.9-4.6 3.1-.3.3-.6.5-.8.8v-6.4h-11.9v58.7h11.9V71c0-2.2.3-4.2 1-6 .6-1.7 1.8-3.1 3.4-4.4 1.7-1.3 4.1-2.3 7.2-3 3.1-.7 7.2-1.1 12.2-1.1 4.6 0 8.3.3 11.1.9 2.6.6 4.7 1.6 6.1 2.9 1.4 1.3 2.3 3 2.8 5.1.5 2.3.8 5.2.8 8.5v32.5h11.9l.1-32.5c0-2.9-.1-5.6-.3-8.1-.5-2.3-1-4.6-1.8-6.7zm76.6-8c-2.5-1.7-5.9-2.9-10-3.7-4.1-.8-9.4-1.2-15.7-1.2-4.7 0-8.9.2-12.4.6-3.6.4-6.7 1.1-9.4 2-2.7 1-5 2.2-6.7 3.8-1.8 1.6-3.3 3.6-4.3 5.9-1 2.3-1.8 5-2.2 8.1-.4 3-.6 6.5-.6 10.4 0 3.9.2 7.3.6 10.3.4 3 1.1 5.7 2.2 8s2.5 4.3 4.3 5.9c1.8 1.6 4.1 2.9 6.8 3.8 2.6.9 5.8 1.6 9.4 2 3.6.4 7.7.6 12.4.6 6.3 0 11.6-.4 15.7-1.2 4.2-.8 7.6-2.1 10-3.8 2.6-1.8 4.4-4 5.4-6.8 1-2.6 1.4-5.8 1.4-9.3v-1.2h-11.9v1.2c0 1.2 0 2.4-.1 3.4-.1.9-.3 1.8-.6 2.5s-.8 1.3-1.6 1.9c-.8.6-1.9 1.1-3.3 1.5-1.5.4-3.6.8-6 1-2.4.2-5.5.4-9.1.4-4.1 0-7.6-.1-10.4-.4-2.7-.3-5-.7-6.8-1.4-1.7-.6-2.9-1.4-3.8-2.3-.9-.9-1.5-2.1-1.9-3.5-.4-1.5-.7-3.3-.8-5.3-.1-2.1-.1-4.6-.1-7.3 0-2.8 0-5.3.1-7.5.1-2.1.3-3.9.8-5.4.4-1.4 1-2.6 1.9-3.6.9-1 2.1-1.7 3.8-2.3 1.8-.6 4-1.1 6.8-1.4 2.8-.3 6.3-.4 10.4-.4 3.6 0 6.7.1 9.1.3 2.4.2 4.4.6 6 1 1.5.4 2.6.9 3.3 1.5.7.5 1.2 1.2 1.6 1.8.3.7.5 1.5.6 2.4.1 1 .1 2.1.1 3.3v1.2h11.9v-1.2c0-3.5-.5-6.6-1.4-9.1-1.1-2.6-2.9-4.8-5.5-6.5zm83.3 1.4c-2.9-2.3-6.6-4-11.2-4.9-4.4-.9-9.9-1.4-16.2-1.4-6.3 0-11.7.5-16.2 1.4-4.5.9-8.3 2.6-11.2 4.9-2.9 2.3-5.1 5.5-6.4 9.5-1.3 3.9-1.9 8.8-1.9 14.6 0 5.9.6 10.9 1.9 14.9 1.3 4.1 3.4 7.3 6.3 9.7 2.9 2.4 6.6 4.1 11.2 5.1 4.4.9 9.9 1.4 16.2 1.4 6.3 0 11.8-.5 16.2-1.4 4.5-1 8.3-2.7 11.2-5.1 2.9-2.4 5-5.7 6.3-9.7 1.3-3.9 1.9-8.9 1.9-14.9 0-5.8-.6-10.7-1.9-14.6-1.2-4-3.3-7.2-6.2-9.5zM688.3 85c-.4 2.3-.9 4.2-1.6 5.7-.7 1.4-1.6 2.6-2.8 3.4-1.2.9-2.6 1.5-4.3 2-1.7.5-3.8.8-6.2.9-2.4.1-5.2.2-8.3.2-3.6 0-6.7-.1-9.3-.3-2.5-.2-4.7-.6-6.5-1.2-1.7-.6-3-1.3-4-2.2-1-.9-1.8-2.1-2.3-3.5-.6-1.5-1-3.4-1.2-5.6-.2-2.2-.3-4.9-.3-7.9 0-3.2.2-6 .5-8.3.4-2.2.9-4 1.6-5.5.7-1.4 1.6-2.5 2.8-3.3 1.2-.8 2.6-1.5 4.3-1.9 1.8-.4 3.8-.7 6.2-.9 2.4-.1 5.2-.2 8.3-.2 3.1 0 5.9.1 8.3.2 2.4.1 4.5.4 6.2.9 1.7.4 3.1 1.1 4.3 1.9 1.1.8 2.1 1.9 2.8 3.3.7 1.5 1.3 3.3 1.6 5.5.4 2.3.5 5 .5 8.3 0 3.4-.2 6.2-.6 8.5zm92.4-8.4v-.2c0-2.9-.2-5.8-.5-8.4-.3-2.7-.9-5.1-1.8-7.2-.9-2-2.1-4-3.6-5.8-1.5-1.9-3.6-3.5-6-4.8-2.4-1.3-5.4-2.3-8.7-3-3.3-.7-7.3-1-11.8-1-6.3 0-11.8.5-16.2 1.4-4.5 1-8.3 2.8-11.2 5.3-2.9 2.5-5 5.9-6.3 10.2-1.3 4.1-1.9 9.4-1.9 15.6 0 5.5.6 10.1 1.9 13.8 1.3 3.8 3.5 6.8 6.4 9.1 2.9 2.2 6.6 3.8 11.2 4.7 4.4.9 9.9 1.3 16.2 1.3 5.9 0 10.9-.3 15-.9 4.1-.6 7.5-1.6 10.1-3 2.7-1.4 4.6-3.4 5.8-5.7 1.1-2.3 1.7-5.1 1.7-8.3v-1.2h-11.9v1.2c0 1.6-.3 2.9-.8 3.9-.5.9-1.5 1.6-2.9 2.2-1.5.6-3.7 1-6.4 1.2-2.8.2-6.3.3-10.6.3-4.6 0-8.6-.2-11.7-.5-3-.3-5.4-1-7.2-2.2-1.7-1.1-2.9-2.8-3.7-5.2-.7-2.3-1.1-5.2-1.2-8.7h56.2zM724.5 72c0-2.3.2-4.2.5-5.9.3-1.8.9-3.3 1.5-4.2.7-1 1.6-1.9 2.8-2.6 1.2-.8 2.6-1.3 4.3-1.7 1.8-.4 3.8-.7 6.2-.8 2.4-.1 5.2-.2 8.3-.2 3.8 0 7.1.3 9.8.8 2.6.5 4.7 1.4 6.2 2.6 1.6 1.3 2.7 2.9 3.5 4.8.7 1.8 1 4.2 1.1 7.3h-44.2z" fill="#e6e7e8"/>
  <path d="M288.2 137.8c-.5-.7-1.2-1.4-2-1.9s-1.7-.9-2.9-1.2c-1.1-.3-2.4-.5-3.9-.7-1.4-.1-3.1-.2-5-.2h-3.8c-2.3 0-4.4.1-6.1.3-1.8.2-3.3.4-4.6.8-1.3.4-2.4.8-3.3 1.4-.9.6-1.6 1.3-2.2 2-.5.8-.9 1.6-1.1 2.6-.2.9-.3 1.8-.3 2.8 0 .9.1 1.8.2 2.6.1.9.4 1.7.8 2.5s1.1 1.5 1.9 2c.8.6 1.8 1 3 1.4 1.2.3 2.6.6 4.3.8 1.7.2 3.7.3 6 .3h5.2c2 0 3.7.1 4.9.3 1.1.2 2 .4 2.5.7.5.3.7.6.9 1 .2.6.3 1.3.3 2.3 0 .9-.1 1.6-.4 2.2-.2.5-.7.9-1.3 1.2-.7.4-1.8.7-3 .9-1.4.2-3.2.3-5.3.3h-5c-1.8 0-3.4 0-4.6-.1-1.1-.1-2-.3-2.7-.5-.5-.2-.9-.5-1.1-.9-.2-.3-.4-1-.4-2.2v-1.2H253v1.2c0 1 .1 2 .3 2.8.2.9.5 1.8 1 2.5s1.1 1.4 1.9 1.9c.8.5 1.7 1 2.9 1.3 1.1.3 2.4.5 3.9.7 1.4.1 3.1.2 5 .2h5c2.1 0 4-.1 5.6-.3 1.6-.2 3.1-.5 4.2-.9 1.2-.4 2.3-.9 3.1-1.5.8-.6 1.5-1.3 2-2.1s.8-1.7 1-2.6c.2-.9.3-1.8.3-2.8 0-1-.1-1.9-.2-2.7-.1-.9-.4-1.8-.8-2.5-.4-.8-1-1.5-1.7-2.1-.7-.6-1.7-1.1-2.8-1.5-1.1-.4-2.4-.6-4-.8-1.5-.2-3.3-.3-5.4-.3h-5.2c-1.6 0-3.1 0-4.2-.1s-2.1-.2-2.9-.3c-.7-.1-1.3-.3-1.7-.5-.3-.2-.6-.4-.7-.6-.2-.2-.3-.5-.3-.8-.1-.4-.1-.9-.1-1.5 0-.8.1-1.5.4-2.1.2-.4.7-.8 1.4-1.1.8-.4 2-.6 3.5-.8 1.6-.2 3.6-.3 6-.3h3.8c1.8 0 3.4 0 4.6.1 1.1.1 2 .3 2.7.5.5.2.9.5 1.1.9.2.3.4 1 .4 2.2v1.2h6.2v-1.2c0-1-.1-2-.3-2.8.1-1.2-.3-2-.8-2.8zm69.7 3.8c-.3-1.3-.7-2.5-1.4-3.4-.7-1-1.6-1.9-2.8-2.6-1.1-.6-2.6-1.1-4.3-1.4-1.6-.3-3.7-.4-6-.4h-11.3c-2.4 0-4.4.1-6 .4-1.7.3-3.1.8-4.3 1.4-1.2.7-2.1 1.5-2.8 2.6-.6 1-1.1 2.1-1.4 3.4-.3 1.2-.4 2.6-.5 4.2 0 1.5-.1 3.1-.1 4.9 0 1.8 0 3.4.1 4.9 0 1.5.2 2.9.5 4.2.3 1.3.7 2.5 1.4 3.4.7 1 1.6 1.9 2.8 2.6 1.1.6 2.6 1.1 4.3 1.4 1.6.3 3.7.4 6 .4h11.3c2.4 0 4.4-.1 6-.4 1.7-.3 3.1-.8 4.3-1.4 1.2-.7 2.1-1.5 2.8-2.6.6-1 1.1-2.1 1.4-3.4.3-1.2.4-2.6.5-4.2 0-1.5.1-3.1.1-4.9 0-1.8 0-3.4-.1-4.9 0-1.6-.2-3-.5-4.2zm-14.4 20.3h-11.3c-1.6 0-3 0-4.1-.1-1-.1-1.8-.3-2.5-.5-.5-.2-.9-.5-1.2-.9-.3-.4-.5-1-.7-1.7-.2-.9-.3-1.9-.3-3.2v-9.6c0-1.3.1-2.3.3-3.2.1-.7.4-1.3.7-1.7.3-.4.6-.6 1.2-.9.6-.3 1.5-.4 2.5-.5 1.1-.1 2.5-.1 4.1-.1h11.3c1.6 0 3 0 4.1.1 1 .1 1.8.3 2.4.5.5.2.9.5 1.2.9.3.4.5 1 .7 1.7.2.9.3 1.9.3 3.2v9.6c0 1.3-.1 2.3-.3 3.2-.1.7-.4 1.3-.7 1.7-.3.4-.6.6-1.2.9-.6.3-1.5.4-2.5.5-1 0-2.4.1-4 .1zm43.9 5h6.3v-13.8h23.7v-5.6h-23.7V140h25v-5.6h-31.3m57.7 5.6h15v26.9h6.3V140h15v-5.6h-36.3m110.2 25.1l-11.4-25.1h-6l-11.4 25.2-12.3-25.2h-7.1l15.9 32.5h6.9l11-24.5 11.1 24.5h6.6l14.4-32.5h-6.6m49.3 0l-18.5 32.5h7.2l3.9-6.9h22l3.9 6.9h6.8l-18.5-32.5zm-4.2 20l7.8-13.7 7.8 13.7zm93.6-15.3c-.3-.8-.8-1.6-1.6-2.2-.7-.6-1.6-1.1-2.8-1.5-1.1-.3-2.5-.6-4.1-.8-1.6-.2-3.6-.3-5.9-.3h-22.5v32.5h6.2V155H690c1.6 0 3 0 4.1.1 1.1.1 2 .2 2.6.3.7.1 1.1.3 1.3.5.2.1.4.3.5.6.1.3.2.8.2 1.3v9.2h6.2v-7c0-1.1-.1-2.2-.2-3.1-.1-1-.4-1.9-.8-2.7-.4-.7-.9-1.2-1.5-1.7.7-.5 1.3-1.1 1.7-1.8.5-.8.9-1.8 1.1-2.8.2-1 .3-2.2.3-3.5 0-1 0-1.9-.1-2.7.2-1 0-1.9-.3-2.6zm-14.4 10.3h-16.2V140h16.2c1.6 0 3 0 4.2.1 1.1 0 2 .1 2.6.2.7.1 1.1.3 1.3.4.2.1.3.3.4.4.1.3.2.6.2 1.1v4.4c0 .5-.1.9-.2 1.3-.1.2-.2.4-.5.6-.2.1-.5.3-1.3.5-.7.1-1.6.2-2.6.3-1.1 0-2.5.1-4.1.1zm76.5-9.4v-5.6h-32.5v32.5h32.5v-5.6h-26.3v-8.2h25v-5.6h-25V140" fill="#33aba2"/>
</svg>
