<svg width="220" height="73" xmlns="http://www.w3.org/2000/svg">
    <path d="M2 2.435v7h16.145v54.654H2v7h39.291v-7H25.145V9.435h16.146v-7zM70.954 2l-19.59 46.407v5.673H79.8v17.01h7.71V54.08h8.909v-7.708h-8.91V28.655h-7.71v17.717H60.01L77.311 4.93zM211.33 60.032c-3.46 2.654-7.438 4.057-11.505 4.057-12.131 0-21.291-12.26-21.291-27.327 0-15.068 9.16-27.327 21.29-27.327 4.068 0 8.047 1.403 11.507 4.056l2.777 2.13 4.26-6.263-2.777-2.13c-4.693-3.6-10.145-4.793-15.766-4.793-15.991 0-29.71 15.399-29.71 34.327 0 18.928 13.719 34.327 29.71 34.327 5.62 0 11.073-1.194 15.766-4.793l2.777-2.13-4.26-6.263-2.777 2.13zm-77.842 5.174c-11.335 0-15.986-12.735-15.986-28.445 0-15.709 4.65-28.444 15.986-28.444 11.337 0 15.987 12.735 15.987 28.444 0 15.71-4.65 28.445-15.987 28.445m0-62.77c-17.445 0-24.602 15.367-24.602 34.325 0 18.96 7.157 34.327 24.602 34.327 17.446 0 24.602-15.368 24.602-34.327 0-18.958-7.156-34.326-24.602-34.326"
          fill-rule="evenodd"/>
</svg>
