<?xml version="1.0" encoding="UTF-8"?>
<svg width="180px" height="60px" viewBox="0 0 180 60" version="1.1" xmlns="http://www.w3.org/2000/svg" xmlns:xlink="http://www.w3.org/1999/xlink">
    <title>JISC</title>
    <g id="JISC" stroke="none" stroke-width="1" fill="none" fill-rule="evenodd">
        <rect id="Rectangle" x="0" y="0" width="180" height="60"></rect>
        <path d="M7.0703125,26.6191406 C8.71028646,26.6191406 9.94921875,26.1393229 10.7871094,25.1796875 C11.625,24.2200521 12.0439453,22.8235677 12.0439453,20.9902344 L12.0439453,20.9902344 L12.0439453,6.29492188 L8.71386719,6.29492188 L8.71386719,21.0117188 C8.71386719,21.9785156 8.5563151,22.6892904 8.24121094,23.144043 C7.92610677,23.5987956 7.40332031,23.8261719 6.67285156,23.8261719 C6.20019531,23.8261719 5.67740885,23.7545573 5.10449219,23.6113281 L5.10449219,23.6113281 L5.10449219,26.3828125 C5.66308594,26.5403646 6.31835938,26.6191406 7.0703125,26.6191406 Z M17.3828125,8.49707031 C17.9772135,8.49707031 18.4230143,8.35563151 18.7202148,8.07275391 C19.0174154,7.7898763 19.1660156,7.39420573 19.1660156,6.88574219 C19.1660156,5.8186849 18.5716146,5.28515625 17.3828125,5.28515625 C16.1940104,5.28515625 15.5996094,5.8186849 15.5996094,6.88574219 C15.5996094,7.95996094 16.1940104,8.49707031 17.3828125,8.49707031 Z M19.015625,22 L19.015625,9.99023438 L15.7392578,9.99023438 L15.7392578,22 L19.015625,22 Z M25.7080078,22.2148438 C27.4124349,22.2148438 28.6925456,21.8925781 29.5483398,21.2480469 C30.4041341,20.6035156 30.8320312,19.6653646 30.8320312,18.4335938 C30.8320312,17.8391927 30.7281901,17.3271484 30.5205078,16.8974609 C30.3128255,16.4677734 29.9905599,16.0882161 29.5537109,15.7587891 C29.116862,15.429362 28.429362,15.0748698 27.4912109,14.6953125 C26.4384766,14.2727865 25.7563477,13.9541016 25.4448242,13.7392578 C25.1333008,13.5244141 24.9775391,13.2701823 24.9775391,12.9765625 C24.9775391,12.453776 25.4609375,12.1923828 26.4277344,12.1923828 C26.9720052,12.1923828 27.5055339,12.2747396 28.0283203,12.4394531 C28.5511068,12.6041667 29.1132812,12.8154297 29.7148438,13.0732422 L29.7148438,13.0732422 L30.703125,10.7099609 C29.3352865,10.0797526 27.9280599,9.76464844 26.4814453,9.76464844 C24.9632161,9.76464844 23.7905273,10.0564779 22.9633789,10.6401367 C22.1362305,11.2237956 21.7226562,12.0491536 21.7226562,13.1162109 C21.7226562,13.7392578 21.8211263,14.2638346 22.0180664,14.6899414 C22.2150065,15.1160482 22.5301107,15.4938151 22.9633789,15.8232422 C23.3966471,16.1526693 24.0751953,16.5107422 24.9990234,16.8974609 C25.6435547,17.1695964 26.1591797,17.4077148 26.5458984,17.6118164 C26.9326172,17.815918 27.2047526,17.9985352 27.3623047,18.159668 C27.5198568,18.3208008 27.5986328,18.5302734 27.5986328,18.7880859 C27.5986328,19.4755859 27.0042318,19.8193359 25.8154297,19.8193359 C25.2353516,19.8193359 24.5639648,19.7226562 23.8012695,19.5292969 C23.0385742,19.3359375 22.3528646,19.0960286 21.7441406,18.8095703 L21.7441406,18.8095703 L21.7441406,21.5166016 C22.28125,21.7457682 22.8577474,21.9194336 23.4736328,22.0375977 C24.0895182,22.1557617 24.8343099,22.2148438 25.7080078,22.2148438 Z M38.265625,22.2148438 C39.0891927,22.2148438 39.7713216,22.1503906 40.3120117,22.0214844 C40.8527018,21.8925781 41.3880208,21.6598307 41.9179688,21.3232422 L41.9179688,21.3232422 L41.9179688,18.5195312 C41.3808594,18.8776042 40.84375,19.1407878 40.3066406,19.309082 C39.7695312,19.4773763 39.1858724,19.5615234 38.5556641,19.5615234 C36.851237,19.5615234 35.9990234,18.3870443 35.9990234,16.0380859 C35.9990234,13.617513 36.851237,12.4072266 38.5556641,12.4072266 C38.9996745,12.4072266 39.4436849,12.4734701 39.8876953,12.605957 C40.3317057,12.738444 40.8115234,12.9085286 41.3271484,13.1162109 L41.3271484,13.1162109 L42.2939453,10.5810547 C41.1910807,10.0367839 39.944987,9.76464844 38.5556641,9.76464844 C36.6578776,9.76464844 35.2005208,10.3035482 34.1835938,11.3813477 C33.1666667,12.4591471 32.6582031,14.0185547 32.6582031,16.0595703 C32.6582031,20.1630859 34.5273438,22.2148438 38.265625,22.2148438 Z M54.0029297,22 L54.0029297,16.4140625 L55.4316406,16.4140625 C57.3795573,16.4140625 58.8816732,15.9664714 59.9379883,15.0712891 C60.9943034,14.1761068 61.5224609,12.8834635 61.5224609,11.1933594 C61.5224609,9.56770833 61.0265299,8.34488932 60.034668,7.52490234 C59.042806,6.70491536 57.594401,6.29492188 55.6894531,6.29492188 L55.6894531,6.29492188 L50.6728516,6.29492188 L50.6728516,22 L54.0029297,22 Z M55.0986328,13.6855469 L54.0029297,13.6855469 L54.0029297,9.0234375 L55.5175781,9.0234375 C56.4270833,9.0234375 57.0948893,9.20963542 57.5209961,9.58203125 C57.9471029,9.95442708 58.1601562,10.5309245 58.1601562,11.3115234 C58.1601562,12.0849609 57.9059245,12.6739909 57.3974609,13.0786133 C56.8889974,13.4832357 56.1227214,13.6855469 55.0986328,13.6855469 L55.0986328,13.6855469 Z M68.4296875,22.2148438 C69.2532552,22.2148438 69.9873047,22.0626628 70.6318359,21.7583008 C71.2763672,21.4539388 71.7740885,21.0224609 72.125,20.4638672 L72.125,20.4638672 L72.296875,20.4638672 L72.7373047,22 L75.2509766,22 L75.2509766,9.99023438 L71.9746094,9.99023438 L71.9746094,15.640625 C71.9746094,17.0585938 71.7705078,18.0737305 71.3623047,18.6860352 C70.9541016,19.2983398 70.2916667,19.6044922 69.375,19.6044922 C68.7018229,19.6044922 68.211263,19.3878581 67.9033203,18.9545898 C67.5953776,18.5213216 67.4414062,17.8714193 67.4414062,17.0048828 L67.4414062,17.0048828 L67.4414062,9.99023438 L64.1650391,9.99023438 L64.1650391,17.8212891 C64.1650391,19.2392578 64.523112,20.3260091 65.2392578,21.081543 C65.9554036,21.8370768 67.0188802,22.2148438 68.4296875,22.2148438 Z M85.2841797,22.2148438 C86.7093099,22.2148438 87.8354492,21.6705729 88.6625977,20.5820312 C89.4897461,19.4934896 89.9033203,17.9573568 89.9033203,15.9736328 C89.9033203,14.0472005 89.5022786,12.5307617 88.7001953,11.4243164 C87.898112,10.3178711 86.7880859,9.76464844 85.3701172,9.76464844 C83.8662109,9.76464844 82.7311198,10.3590495 81.9648438,11.5478516 L81.9648438,11.5478516 L81.8359375,11.5478516 C81.921875,10.4593099 81.9648438,9.66796875 81.9648438,9.17382812 L81.9648438,9.17382812 L81.9648438,5.28515625 L78.6884766,5.28515625 L78.6884766,22 L81.1914062,22 L81.7392578,20.6787109 L81.9648438,20.6787109 C82.7669271,21.7027995 83.8733724,22.2148438 85.2841797,22.2148438 Z M84.3603516,19.5615234 C83.5296224,19.5615234 82.9226888,19.2822266 82.5395508,18.7236328 C82.1564128,18.1650391 81.9648438,17.2412109 81.9648438,15.9521484 L81.9648438,15.9521484 L81.9648438,15.5976562 C81.9791667,14.4518229 82.172526,13.6300456 82.5449219,13.1323242 C82.9173177,12.6346029 83.508138,12.3857422 84.3173828,12.3857422 C85.0120443,12.3857422 85.5598958,12.6811523 85.9609375,13.2719727 C86.3619792,13.862793 86.5625,14.7490234 86.5625,15.9306641 C86.5625,17.1123047 86.3637695,18.0128581 85.9663086,18.6323242 C85.5688477,19.2517904 85.0335286,19.5615234 84.3603516,19.5615234 Z M95.8867188,22 L95.8867188,5.28515625 L92.6103516,5.28515625 L92.6103516,22 L95.8867188,22 Z M100.967773,8.49707031 C101.562174,8.49707031 102.007975,8.35563151 102.305176,8.07275391 C102.602376,7.7898763 102.750977,7.39420573 102.750977,6.88574219 C102.750977,5.8186849 102.156576,5.28515625 100.967773,5.28515625 C99.7789714,5.28515625 99.1845703,5.8186849 99.1845703,6.88574219 C99.1845703,7.95996094 99.7789714,8.49707031 100.967773,8.49707031 Z M102.600586,22 L102.600586,9.99023438 L99.3242188,9.99023438 L99.3242188,22 L102.600586,22 Z M110.915039,22.2148438 C111.738607,22.2148438 112.420736,22.1503906 112.961426,22.0214844 C113.502116,21.8925781 114.037435,21.6598307 114.567383,21.3232422 L114.567383,21.3232422 L114.567383,18.5195312 C114.030273,18.8776042 113.493164,19.1407878 112.956055,19.309082 C112.418945,19.4773763 111.835286,19.5615234 111.205078,19.5615234 C109.500651,19.5615234 108.648438,18.3870443 108.648438,16.0380859 C108.648438,13.617513 109.500651,12.4072266 111.205078,12.4072266 C111.649089,12.4072266 112.093099,12.4734701 112.537109,12.605957 C112.98112,12.738444 113.460938,12.9085286 113.976562,13.1162109 L113.976562,13.1162109 L114.943359,10.5810547 C113.840495,10.0367839 112.594401,9.76464844 111.205078,9.76464844 C109.307292,9.76464844 107.849935,10.3035482 106.833008,11.3813477 C105.816081,12.4591471 105.307617,14.0185547 105.307617,16.0595703 C105.307617,20.1630859 107.176758,22.2148438 110.915039,22.2148438 Z M120.271484,22.2148438 C121.209635,22.2148438 121.97054,22.0805664 122.554199,21.8120117 C123.137858,21.543457 123.705404,21.061849 124.256836,20.3671875 L124.256836,20.3671875 L124.342773,20.3671875 L124.976562,22 L127.264648,22 L127.264648,13.9970703 C127.264648,12.5647786 126.834961,11.4977214 125.975586,10.7958984 C125.116211,10.0940755 123.880859,9.74316406 122.269531,9.74316406 C120.586589,9.74316406 119.054036,10.1048177 117.671875,10.828125 L117.671875,10.828125 L118.756836,13.0410156 C120.05306,12.4609375 121.18099,12.1708984 122.140625,12.1708984 C123.386719,12.1708984 124.009766,12.7796224 124.009766,13.9970703 L124.009766,13.9970703 L124.009766,14.5234375 L121.925781,14.5878906 C120.128255,14.6523438 118.783691,14.9871419 117.89209,15.5922852 C117.000488,16.1974284 116.554688,17.1373698 116.554688,18.4121094 C116.554688,19.6295573 116.885905,20.5677083 117.54834,21.2265625 C118.210775,21.8854167 119.11849,22.2148438 120.271484,22.2148438 Z M121.506836,19.8193359 C120.44694,19.8193359 119.916992,19.3574219 119.916992,18.4335938 C119.916992,17.7890625 120.14974,17.3092448 120.615234,16.9941406 C121.080729,16.6790365 121.789714,16.5071615 122.742188,16.4785156 L122.742188,16.4785156 L124.009766,16.4355469 L124.009766,17.4238281 C124.009766,18.1471354 123.782389,18.7272135 123.327637,19.1640625 C122.872884,19.6009115 122.265951,19.8193359 121.506836,19.8193359 Z M134.751953,22.2148438 C135.940755,22.2148438 136.943359,22.0322266 137.759766,21.6669922 L137.759766,21.6669922 L137.759766,19.2285156 C136.957682,19.4791667 136.270182,19.6044922 135.697266,19.6044922 C135.267578,19.6044922 134.922038,19.4934896 134.660645,19.2714844 C134.399251,19.0494792 134.268555,18.7057292 134.268555,18.2402344 L134.268555,18.2402344 L134.268555,12.4501953 L137.630859,12.4501953 L137.630859,9.99023438 L134.268555,9.99023438 L134.268555,7.43359375 L132.173828,7.43359375 L131.228516,9.96875 L129.423828,11.0644531 L129.423828,12.4501953 L130.992188,12.4501953 L130.992188,18.2402344 C130.992188,19.5651042 131.291178,20.5587565 131.88916,21.2211914 C132.487142,21.8836263 133.441406,22.2148438 134.751953,22.2148438 Z M141.831055,8.49707031 C142.425456,8.49707031 142.871257,8.35563151 143.168457,8.07275391 C143.465658,7.7898763 143.614258,7.39420573 143.614258,6.88574219 C143.614258,5.8186849 143.019857,5.28515625 141.831055,5.28515625 C140.642253,5.28515625 140.047852,5.8186849 140.047852,6.88574219 C140.047852,7.95996094 140.642253,8.49707031 141.831055,8.49707031 Z M143.463867,22 L143.463867,9.99023438 L140.1875,9.99023438 L140.1875,22 L143.463867,22 Z M151.960938,22.2148438 C153.801432,22.2148438 155.237305,21.6634115 156.268555,20.5605469 C157.299805,19.4576823 157.81543,17.9287109 157.81543,15.9736328 C157.81543,14.7132161 157.579102,13.6139323 157.106445,12.6757812 C156.633789,11.7376302 155.957031,11.0179036 155.076172,10.5166016 C154.195312,10.0152995 153.178385,9.76464844 152.025391,9.76464844 C150.170573,9.76464844 148.73112,10.3089193 147.707031,11.3974609 C146.682943,12.4860026 146.170898,14.0113932 146.170898,15.9736328 C146.170898,17.2340495 146.407227,18.3369141 146.879883,19.2822266 C147.352539,20.2275391 148.029297,20.9526367 148.910156,21.4575195 C149.791016,21.9624023 150.807943,22.2148438 151.960938,22.2148438 Z M152.003906,19.5830078 C151.123047,19.5830078 150.487467,19.2786458 150.097168,18.6699219 C149.706868,18.0611979 149.511719,17.1624349 149.511719,15.9736328 C149.511719,14.7776693 149.705078,13.8842773 150.091797,13.293457 C150.478516,12.7026367 151.108724,12.4072266 151.982422,12.4072266 C152.863281,12.4072266 153.49707,12.7044271 153.883789,13.2988281 C154.270508,13.8932292 154.463867,14.7848307 154.463867,15.9736328 C154.463867,17.1695964 154.272298,18.0701497 153.88916,18.675293 C153.506022,19.2804362 152.877604,19.5830078 152.003906,19.5830078 Z M163.798828,22 L163.798828,16.3496094 C163.798828,14.9316406 164.00293,13.9165039 164.411133,13.3041992 C164.819336,12.6918945 165.481771,12.3857422 166.398438,12.3857422 C167.071615,12.3857422 167.562174,12.6023763 167.870117,13.0356445 C168.17806,13.4689128 168.332031,14.1188151 168.332031,14.9853516 L168.332031,14.9853516 L168.332031,22 L171.608398,22 L171.608398,14.1689453 C171.608398,12.7438151 171.246745,11.6534831 170.523438,10.8979492 C169.80013,10.1424154 168.740234,9.76464844 167.34375,9.76464844 C166.527344,9.76464844 165.798665,9.9132487 165.157715,10.2104492 C164.516764,10.5076497 164.013672,10.9462891 163.648438,11.5263672 L163.648438,11.5263672 L163.46582,11.5263672 L163.025391,9.99023438 L160.522461,9.99023438 L160.522461,22 L163.798828,22 Z M57.7358398,54 L57.7358398,47.9736328 L59.5083008,47.9736328 L63.2573242,54 L66.9526367,54 L62.3334961,47.1572266 C63.2644857,46.7490234 63.9842122,46.1850586 64.4926758,45.465332 C65.0011393,44.7456055 65.2553711,43.9238281 65.2553711,43 C65.2553711,41.4173177 64.7433268,40.2374674 63.7192383,39.4604492 C62.6951497,38.683431 61.1160482,38.2949219 58.9819336,38.2949219 L58.9819336,38.2949219 L54.4057617,38.2949219 L54.4057617,54 L57.7358398,54 Z M58.8100586,45.2666016 L57.7358398,45.2666016 L57.7358398,41.0234375 L58.7456055,41.0234375 C59.8198242,41.0234375 60.6129557,41.1809896 61.125,41.4960938 C61.6370443,41.8111979 61.8930664,42.3411458 61.8930664,43.0859375 C61.8930664,43.8378906 61.6424154,44.3893229 61.1411133,44.7402344 C60.6398112,45.0911458 59.862793,45.2666016 58.8100586,45.2666016 L58.8100586,45.2666016 Z M73.730957,54.2148438 C75.5714518,54.2148438 77.0073242,53.6634115 78.0385742,52.5605469 C79.0698242,51.4576823 79.5854492,49.9287109 79.5854492,47.9736328 C79.5854492,46.7132161 79.3491211,45.6139323 78.8764648,44.6757812 C78.4038086,43.7376302 77.7270508,43.0179036 76.8461914,42.5166016 C75.965332,42.0152995 74.9484049,41.7646484 73.7954102,41.7646484 C71.9405924,41.7646484 70.5011393,42.3089193 69.4770508,43.3974609 C68.4529622,44.4860026 67.940918,46.0113932 67.940918,47.9736328 C67.940918,49.2340495 68.1772461,50.3369141 68.6499023,51.2822266 C69.1225586,52.2275391 69.7993164,52.9526367 70.6801758,53.4575195 C71.5610352,53.9624023 72.5779622,54.2148438 73.730957,54.2148438 Z M73.7739258,51.5830078 C72.8930664,51.5830078 72.257487,51.2786458 71.8671875,50.6699219 C71.476888,50.0611979 71.2817383,49.1624349 71.2817383,47.9736328 C71.2817383,46.7776693 71.4750977,45.8842773 71.8618164,45.293457 C72.2485352,44.7026367 72.8787435,44.4072266 73.7524414,44.4072266 C74.6333008,44.4072266 75.2670898,44.7044271 75.6538086,45.2988281 C76.0405273,45.8932292 76.2338867,46.7848307 76.2338867,47.9736328 C76.2338867,49.1695964 76.0423177,50.0701497 75.6591797,50.675293 C75.2760417,51.2804362 74.6476237,51.5830078 73.7739258,51.5830078 Z M86.4926758,54.2148438 C87.3162435,54.2148438 88.050293,54.0626628 88.6948242,53.7583008 C89.3393555,53.4539388 89.8370768,53.0224609 90.1879883,52.4638672 L90.1879883,52.4638672 L90.3598633,52.4638672 L90.800293,54 L93.3139648,54 L93.3139648,41.9902344 L90.0375977,41.9902344 L90.0375977,47.640625 C90.0375977,49.0585938 89.8334961,50.0737305 89.425293,50.6860352 C89.0170898,51.2983398 88.3546549,51.6044922 87.4379883,51.6044922 C86.7648112,51.6044922 86.2742513,51.3878581 85.9663086,50.9545898 C85.6583659,50.5213216 85.5043945,49.8714193 85.5043945,49.0048828 L85.5043945,49.0048828 L85.5043945,41.9902344 L82.2280273,41.9902344 L82.2280273,49.8212891 C82.2280273,51.2392578 82.5861003,52.3260091 83.3022461,53.081543 C84.0183919,53.8370768 85.0818685,54.2148438 86.4926758,54.2148438 Z M100.865723,54.2148438 C102.054525,54.2148438 103.057129,54.0322266 103.873535,53.6669922 L103.873535,53.6669922 L103.873535,51.2285156 C103.071452,51.4791667 102.383952,51.6044922 101.811035,51.6044922 C101.381348,51.6044922 101.035807,51.4934896 100.774414,51.2714844 C100.513021,51.0494792 100.382324,50.7057292 100.382324,50.2402344 L100.382324,50.2402344 L100.382324,44.4501953 L103.744629,44.4501953 L103.744629,41.9902344 L100.382324,41.9902344 L100.382324,39.4335938 L98.2875977,39.4335938 L97.3422852,41.96875 L95.5375977,43.0644531 L95.5375977,44.4501953 L97.105957,44.4501953 L97.105957,50.2402344 C97.105957,51.5651042 97.4049479,52.5587565 98.0029297,53.2211914 C98.6009115,53.8836263 99.5551758,54.2148438 100.865723,54.2148438 Z M111.736816,54.2148438 C112.674967,54.2148438 113.469889,54.1450195 114.121582,54.0053711 C114.773275,53.8657227 115.385579,53.6526693 115.958496,53.3662109 L115.958496,53.3662109 L115.958496,50.8310547 C115.256673,51.1604818 114.583496,51.4003906 113.938965,51.5507812 C113.294434,51.7011719 112.610514,51.7763672 111.887207,51.7763672 C110.956217,51.7763672 110.23291,51.514974 109.717285,50.9921875 C109.20166,50.469401 108.925944,49.742513 108.890137,48.8115234 L108.890137,48.8115234 L116.635254,48.8115234 L116.635254,47.2216797 C116.635254,45.5172526 116.162598,44.1816406 115.217285,43.2148438 C114.271973,42.2480469 112.950684,41.7646484 111.253418,41.7646484 C109.477376,41.7646484 108.086263,42.3142904 107.080078,43.4135742 C106.073893,44.5128581 105.570801,46.0686849 105.570801,48.0810547 C105.570801,50.0361328 106.115072,51.5472005 107.203613,52.6142578 C108.292155,53.6813151 109.803223,54.2148438 111.736816,54.2148438 Z M113.562988,46.6308594 L108.965332,46.6308594 C109.022624,45.8216146 109.24821,45.1967773 109.64209,44.7563477 C110.03597,44.315918 110.580241,44.0957031 111.274902,44.0957031 C111.969564,44.0957031 112.520996,44.315918 112.929199,44.7563477 C113.337402,45.1967773 113.548665,45.8216146 113.562988,46.6308594 L113.562988,46.6308594 Z M122.575684,54 L122.575684,47.8876953 C122.575684,46.9208984 122.867513,46.1689453 123.451172,45.6318359 C124.034831,45.0947266 124.849447,44.8261719 125.89502,44.8261719 C126.274577,44.8261719 126.596842,44.8619792 126.861816,44.9335938 L126.861816,44.9335938 L127.108887,41.8613281 C126.815267,41.796875 126.446452,41.7646484 126.002441,41.7646484 C125.25765,41.7646484 124.568359,41.9705404 123.93457,42.3823242 C123.300781,42.7941081 122.797689,43.3365885 122.425293,44.0097656 L122.425293,44.0097656 L122.26416,44.0097656 L121.780762,41.9902344 L119.299316,41.9902344 L119.299316,54 L122.575684,54 Z" id="JiscPublicationRouter" fill="#353535" fill-rule="nonzero"></path>
    </g>
</svg>