<?xml version="1.0" encoding="UTF-8"?>
<svg width="180px" height="60px" viewBox="0 0 180 60" version="1.1" xmlns="http://www.w3.org/2000/svg" xmlns:xlink="http://www.w3.org/1999/xlink">
    <title>JISC</title>
    <g id="JISC" stroke="none" stroke-width="1" fill="none" fill-rule="evenodd">
        <rect id="Rectangle" x="0" y="0" width="180" height="60"></rect>
        <path d="M4.20214844,26.6191406 C5.8421224,26.6191406 7.08105469,26.1393229 7.91894531,25.1796875 C8.75683594,24.2200521 9.17578125,22.8235677 9.17578125,20.9902344 L9.17578125,20.9902344 L9.17578125,6.29492188 L5.84570312,6.29492188 L5.84570312,21.0117188 C5.84570312,21.9785156 5.68815104,22.6892904 5.37304688,23.144043 C5.05794271,23.5987956 4.53515625,23.8261719 3.8046875,23.8261719 C3.33203125,23.8261719 2.80924479,23.7545573 2.23632812,23.6113281 L2.23632812,23.6113281 L2.23632812,26.3828125 C2.79492188,26.5403646 3.45019531,26.6191406 4.20214844,26.6191406 Z M19.0048828,22 L19.0048828,20.109375 L17.0927734,19.2285156 L17.0927734,9.06640625 L19.0048828,8.18554688 L19.0048828,6.29492188 L11.8613281,6.29492188 L11.8613281,8.18554688 L13.7734375,9.06640625 L13.7734375,19.2285156 L11.8613281,20.109375 L11.8613281,22 L19.0048828,22 Z M25.1708984,22.2148438 C26.9899089,22.2148438 28.409668,21.8066406 29.4301758,20.9902344 C30.4506836,20.1738281 30.9609375,19.0566406 30.9609375,17.6386719 C30.9609375,16.6145833 30.6888021,15.7498372 30.1445312,15.0444336 C29.6002604,14.3390299 28.5940755,13.6354167 27.1259766,12.9335938 C26.0159505,12.4036458 25.3123372,12.0366211 25.0151367,11.8325195 C24.7179362,11.628418 24.5013021,11.4171549 24.3652344,11.1987305 C24.2291667,10.980306 24.1611328,10.7242839 24.1611328,10.4306641 C24.1611328,9.95800781 24.3294271,9.57486979 24.6660156,9.28125 C25.0026042,8.98763021 25.4860026,8.84082031 26.1162109,8.84082031 C26.6461589,8.84082031 27.1850586,8.90885417 27.7329102,9.04492188 C28.2807617,9.18098958 28.9736328,9.42089844 29.8115234,9.76464844 L29.8115234,9.76464844 L30.8857422,7.17578125 C30.0764974,6.82486979 29.3012695,6.55273438 28.5600586,6.359375 C27.8188477,6.16601562 27.0400391,6.06933594 26.2236328,6.06933594 C24.5621745,6.06933594 23.2605794,6.46679688 22.3188477,7.26171875 C21.3771159,8.05664062 20.90625,9.14876302 20.90625,10.5380859 C20.90625,11.2757161 21.0494792,11.9202474 21.3359375,12.4716797 C21.6223958,13.023112 22.0055339,13.5065104 22.4853516,13.921875 C22.9651693,14.3372396 23.6848958,14.7705078 24.6445312,15.2216797 C25.6686198,15.7086589 26.347168,16.063151 26.6801758,16.2851562 C27.0131836,16.5071615 27.265625,16.7381185 27.4375,16.9780273 C27.609375,17.2179362 27.6953125,17.491862 27.6953125,17.7998047 C27.6953125,18.351237 27.5001628,18.7666016 27.1098633,19.0458984 C26.7195638,19.3251953 26.1591797,19.4648438 25.4287109,19.4648438 C24.819987,19.4648438 24.1486003,19.3681641 23.4145508,19.1748047 C22.6805013,18.9814453 21.7835286,18.6484375 20.7236328,18.1757812 L20.7236328,18.1757812 L20.7236328,21.2695312 C22.0126953,21.8997396 23.4951172,22.2148438 25.1708984,22.2148438 Z M40.1669922,22.2148438 C41.7568359,22.2148438 43.1962891,21.9462891 44.4853516,21.4091797 L44.4853516,21.4091797 L44.4853516,18.6162109 C42.9169922,19.1676432 41.5813802,19.4433594 40.4785156,19.4433594 C37.8502604,19.4433594 36.5361328,17.6923828 36.5361328,14.1904297 C36.5361328,12.507487 36.8798828,11.1951497 37.5673828,10.253418 C38.2548828,9.3116862 39.2252604,8.84082031 40.4785156,8.84082031 C41.0514323,8.84082031 41.6350911,8.94466146 42.2294922,9.15234375 C42.8238932,9.36002604 43.4147135,9.60351562 44.0019531,9.8828125 L44.0019531,9.8828125 L45.0761719,7.17578125 C43.5364583,6.43815104 42.0039062,6.06933594 40.4785156,6.06933594 C38.9817708,6.06933594 37.6765951,6.39697266 36.5629883,7.05224609 C35.4493815,7.70751953 34.5953776,8.6492513 34.0009766,9.87744141 C33.4065755,11.1056315 33.109375,12.5361328 33.109375,14.1689453 C33.109375,16.7613932 33.7145182,18.7504883 34.9248047,20.1362305 C36.1350911,21.5219727 37.882487,22.2148438 40.1669922,22.2148438 Z M56.8710938,22 L56.8710938,16.4140625 L58.2998047,16.4140625 C60.2477214,16.4140625 61.7498372,15.9664714 62.8061523,15.0712891 C63.8624674,14.1761068 64.390625,12.8834635 64.390625,11.1933594 C64.390625,9.56770833 63.894694,8.34488932 62.902832,7.52490234 C61.9109701,6.70491536 60.4625651,6.29492188 58.5576172,6.29492188 L58.5576172,6.29492188 L53.5410156,6.29492188 L53.5410156,22 L56.8710938,22 Z M57.9667969,13.6855469 L56.8710938,13.6855469 L56.8710938,9.0234375 L58.3857422,9.0234375 C59.2952474,9.0234375 59.9630534,9.20963542 60.3891602,9.58203125 C60.8152669,9.95442708 61.0283203,10.5309245 61.0283203,11.3115234 C61.0283203,12.0849609 60.7740885,12.6739909 60.265625,13.0786133 C59.7571615,13.4832357 58.9908854,13.6855469 57.9667969,13.6855469 L57.9667969,13.6855469 Z M71.2978516,22.2148438 C72.1214193,22.2148438 72.8554688,22.0626628 73.5,21.7583008 C74.1445312,21.4539388 74.6422526,21.0224609 74.9931641,20.4638672 L74.9931641,20.4638672 L75.1650391,20.4638672 L75.6054688,22 L78.1191406,22 L78.1191406,9.99023438 L74.8427734,9.99023438 L74.8427734,15.640625 C74.8427734,17.0585938 74.6386719,18.0737305 74.2304688,18.6860352 C73.8222656,19.2983398 73.1598307,19.6044922 72.2431641,19.6044922 C71.569987,19.6044922 71.0794271,19.3878581 70.7714844,18.9545898 C70.4635417,18.5213216 70.3095703,17.8714193 70.3095703,17.0048828 L70.3095703,17.0048828 L70.3095703,9.99023438 L67.0332031,9.99023438 L67.0332031,17.8212891 C67.0332031,19.2392578 67.391276,20.3260091 68.1074219,21.081543 C68.8235677,21.8370768 69.8870443,22.2148438 71.2978516,22.2148438 Z M88.1523438,22.2148438 C89.577474,22.2148438 90.7036133,21.6705729 91.5307617,20.5820312 C92.3579102,19.4934896 92.7714844,17.9573568 92.7714844,15.9736328 C92.7714844,14.0472005 92.3704427,12.5307617 91.5683594,11.4243164 C90.766276,10.3178711 89.65625,9.76464844 88.2382812,9.76464844 C86.734375,9.76464844 85.5992839,10.3590495 84.8330078,11.5478516 L84.8330078,11.5478516 L84.7041016,11.5478516 C84.7900391,10.4593099 84.8330078,9.66796875 84.8330078,9.17382812 L84.8330078,9.17382812 L84.8330078,5.28515625 L81.5566406,5.28515625 L81.5566406,22 L84.0595703,22 L84.6074219,20.6787109 L84.8330078,20.6787109 C85.6350911,21.7027995 86.7415365,22.2148438 88.1523438,22.2148438 Z M87.2285156,19.5615234 C86.3977865,19.5615234 85.7908529,19.2822266 85.4077148,18.7236328 C85.0245768,18.1650391 84.8330078,17.2412109 84.8330078,15.9521484 L84.8330078,15.9521484 L84.8330078,15.5976562 C84.8473307,14.4518229 85.0406901,13.6300456 85.4130859,13.1323242 C85.7854818,12.6346029 86.3763021,12.3857422 87.1855469,12.3857422 C87.8802083,12.3857422 88.4280599,12.6811523 88.8291016,13.2719727 C89.2301432,13.862793 89.4306641,14.7490234 89.4306641,15.9306641 C89.4306641,17.1123047 89.2319336,18.0128581 88.8344727,18.6323242 C88.4370117,19.2517904 87.9016927,19.5615234 87.2285156,19.5615234 Z M98.7548828,22 L98.7548828,5.28515625 L95.4785156,5.28515625 L95.4785156,22 L98.7548828,22 Z M103.835938,8.49707031 C104.430339,8.49707031 104.876139,8.35563151 105.17334,8.07275391 C105.47054,7.7898763 105.619141,7.39420573 105.619141,6.88574219 C105.619141,5.8186849 105.02474,5.28515625 103.835938,5.28515625 C102.647135,5.28515625 102.052734,5.8186849 102.052734,6.88574219 C102.052734,7.95996094 102.647135,8.49707031 103.835938,8.49707031 Z M105.46875,22 L105.46875,9.99023438 L102.192383,9.99023438 L102.192383,22 L105.46875,22 Z M113.783203,22.2148438 C114.606771,22.2148438 115.2889,22.1503906 115.82959,22.0214844 C116.37028,21.8925781 116.905599,21.6598307 117.435547,21.3232422 L117.435547,21.3232422 L117.435547,18.5195312 C116.898438,18.8776042 116.361328,19.1407878 115.824219,19.309082 C115.287109,19.4773763 114.703451,19.5615234 114.073242,19.5615234 C112.368815,19.5615234 111.516602,18.3870443 111.516602,16.0380859 C111.516602,13.617513 112.368815,12.4072266 114.073242,12.4072266 C114.517253,12.4072266 114.961263,12.4734701 115.405273,12.605957 C115.849284,12.738444 116.329102,12.9085286 116.844727,13.1162109 L116.844727,13.1162109 L117.811523,10.5810547 C116.708659,10.0367839 115.462565,9.76464844 114.073242,9.76464844 C112.175456,9.76464844 110.718099,10.3035482 109.701172,11.3813477 C108.684245,12.4591471 108.175781,14.0185547 108.175781,16.0595703 C108.175781,20.1630859 110.044922,22.2148438 113.783203,22.2148438 Z M123.139648,22.2148438 C124.077799,22.2148438 124.838704,22.0805664 125.422363,21.8120117 C126.006022,21.543457 126.573568,21.061849 127.125,20.3671875 L127.125,20.3671875 L127.210938,20.3671875 L127.844727,22 L130.132812,22 L130.132812,13.9970703 C130.132812,12.5647786 129.703125,11.4977214 128.84375,10.7958984 C127.984375,10.0940755 126.749023,9.74316406 125.137695,9.74316406 C123.454753,9.74316406 121.922201,10.1048177 120.540039,10.828125 L120.540039,10.828125 L121.625,13.0410156 C122.921224,12.4609375 124.049154,12.1708984 125.008789,12.1708984 C126.254883,12.1708984 126.87793,12.7796224 126.87793,13.9970703 L126.87793,13.9970703 L126.87793,14.5234375 L124.793945,14.5878906 C122.996419,14.6523438 121.651855,14.9871419 120.760254,15.5922852 C119.868652,16.1974284 119.422852,17.1373698 119.422852,18.4121094 C119.422852,19.6295573 119.754069,20.5677083 120.416504,21.2265625 C121.078939,21.8854167 121.986654,22.2148438 123.139648,22.2148438 Z M124.375,19.8193359 C123.315104,19.8193359 122.785156,19.3574219 122.785156,18.4335938 C122.785156,17.7890625 123.017904,17.3092448 123.483398,16.9941406 C123.948893,16.6790365 124.657878,16.5071615 125.610352,16.4785156 L125.610352,16.4785156 L126.87793,16.4355469 L126.87793,17.4238281 C126.87793,18.1471354 126.650553,18.7272135 126.195801,19.1640625 C125.741048,19.6009115 125.134115,19.8193359 124.375,19.8193359 Z M137.620117,22.2148438 C138.808919,22.2148438 139.811523,22.0322266 140.62793,21.6669922 L140.62793,21.6669922 L140.62793,19.2285156 C139.825846,19.4791667 139.138346,19.6044922 138.56543,19.6044922 C138.135742,19.6044922 137.790202,19.4934896 137.528809,19.2714844 C137.267415,19.0494792 137.136719,18.7057292 137.136719,18.2402344 L137.136719,18.2402344 L137.136719,12.4501953 L140.499023,12.4501953 L140.499023,9.99023438 L137.136719,9.99023438 L137.136719,7.43359375 L135.041992,7.43359375 L134.09668,9.96875 L132.291992,11.0644531 L132.291992,12.4501953 L133.860352,12.4501953 L133.860352,18.2402344 C133.860352,19.5651042 134.159342,20.5587565 134.757324,21.2211914 C135.355306,21.8836263 136.30957,22.2148438 137.620117,22.2148438 Z M144.699219,8.49707031 C145.29362,8.49707031 145.739421,8.35563151 146.036621,8.07275391 C146.333822,7.7898763 146.482422,7.39420573 146.482422,6.88574219 C146.482422,5.8186849 145.888021,5.28515625 144.699219,5.28515625 C143.510417,5.28515625 142.916016,5.8186849 142.916016,6.88574219 C142.916016,7.95996094 143.510417,8.49707031 144.699219,8.49707031 Z M146.332031,22 L146.332031,9.99023438 L143.055664,9.99023438 L143.055664,22 L146.332031,22 Z M154.829102,22.2148438 C156.669596,22.2148438 158.105469,21.6634115 159.136719,20.5605469 C160.167969,19.4576823 160.683594,17.9287109 160.683594,15.9736328 C160.683594,14.7132161 160.447266,13.6139323 159.974609,12.6757812 C159.501953,11.7376302 158.825195,11.0179036 157.944336,10.5166016 C157.063477,10.0152995 156.046549,9.76464844 154.893555,9.76464844 C153.038737,9.76464844 151.599284,10.3089193 150.575195,11.3974609 C149.551107,12.4860026 149.039062,14.0113932 149.039062,15.9736328 C149.039062,17.2340495 149.275391,18.3369141 149.748047,19.2822266 C150.220703,20.2275391 150.897461,20.9526367 151.77832,21.4575195 C152.65918,21.9624023 153.676107,22.2148438 154.829102,22.2148438 Z M154.87207,19.5830078 C153.991211,19.5830078 153.355632,19.2786458 152.965332,18.6699219 C152.575033,18.0611979 152.379883,17.1624349 152.379883,15.9736328 C152.379883,14.7776693 152.573242,13.8842773 152.959961,13.293457 C153.34668,12.7026367 153.976888,12.4072266 154.850586,12.4072266 C155.731445,12.4072266 156.365234,12.7044271 156.751953,13.2988281 C157.138672,13.8932292 157.332031,14.7848307 157.332031,15.9736328 C157.332031,17.1695964 157.140462,18.0701497 156.757324,18.675293 C156.374186,19.2804362 155.745768,19.5830078 154.87207,19.5830078 Z M166.666992,22 L166.666992,16.3496094 C166.666992,14.9316406 166.871094,13.9165039 167.279297,13.3041992 C167.6875,12.6918945 168.349935,12.3857422 169.266602,12.3857422 C169.939779,12.3857422 170.430339,12.6023763 170.738281,13.0356445 C171.046224,13.4689128 171.200195,14.1188151 171.200195,14.9853516 L171.200195,14.9853516 L171.200195,22 L174.476562,22 L174.476562,14.1689453 C174.476562,12.7438151 174.114909,11.6534831 173.391602,10.8979492 C172.668294,10.1424154 171.608398,9.76464844 170.211914,9.76464844 C169.395508,9.76464844 168.666829,9.9132487 168.025879,10.2104492 C167.384928,10.5076497 166.881836,10.9462891 166.516602,11.5263672 L166.516602,11.5263672 L166.333984,11.5263672 L165.893555,9.99023438 L163.390625,9.99023438 L163.390625,22 L166.666992,22 Z M57.7358398,54 L57.7358398,47.9736328 L59.5083008,47.9736328 L63.2573242,54 L66.9526367,54 L62.3334961,47.1572266 C63.2644857,46.7490234 63.9842122,46.1850586 64.4926758,45.465332 C65.0011393,44.7456055 65.2553711,43.9238281 65.2553711,43 C65.2553711,41.4173177 64.7433268,40.2374674 63.7192383,39.4604492 C62.6951497,38.683431 61.1160482,38.2949219 58.9819336,38.2949219 L58.9819336,38.2949219 L54.4057617,38.2949219 L54.4057617,54 L57.7358398,54 Z M58.8100586,45.2666016 L57.7358398,45.2666016 L57.7358398,41.0234375 L58.7456055,41.0234375 C59.8198242,41.0234375 60.6129557,41.1809896 61.125,41.4960938 C61.6370443,41.8111979 61.8930664,42.3411458 61.8930664,43.0859375 C61.8930664,43.8378906 61.6424154,44.3893229 61.1411133,44.7402344 C60.6398112,45.0911458 59.862793,45.2666016 58.8100586,45.2666016 L58.8100586,45.2666016 Z M73.730957,54.2148438 C75.5714518,54.2148438 77.0073242,53.6634115 78.0385742,52.5605469 C79.0698242,51.4576823 79.5854492,49.9287109 79.5854492,47.9736328 C79.5854492,46.7132161 79.3491211,45.6139323 78.8764648,44.6757812 C78.4038086,43.7376302 77.7270508,43.0179036 76.8461914,42.5166016 C75.965332,42.0152995 74.9484049,41.7646484 73.7954102,41.7646484 C71.9405924,41.7646484 70.5011393,42.3089193 69.4770508,43.3974609 C68.4529622,44.4860026 67.940918,46.0113932 67.940918,47.9736328 C67.940918,49.2340495 68.1772461,50.3369141 68.6499023,51.2822266 C69.1225586,52.2275391 69.7993164,52.9526367 70.6801758,53.4575195 C71.5610352,53.9624023 72.5779622,54.2148438 73.730957,54.2148438 Z M73.7739258,51.5830078 C72.8930664,51.5830078 72.257487,51.2786458 71.8671875,50.6699219 C71.476888,50.0611979 71.2817383,49.1624349 71.2817383,47.9736328 C71.2817383,46.7776693 71.4750977,45.8842773 71.8618164,45.293457 C72.2485352,44.7026367 72.8787435,44.4072266 73.7524414,44.4072266 C74.6333008,44.4072266 75.2670898,44.7044271 75.6538086,45.2988281 C76.0405273,45.8932292 76.2338867,46.7848307 76.2338867,47.9736328 C76.2338867,49.1695964 76.0423177,50.0701497 75.6591797,50.675293 C75.2760417,51.2804362 74.6476237,51.5830078 73.7739258,51.5830078 Z M86.4926758,54.2148438 C87.3162435,54.2148438 88.050293,54.0626628 88.6948242,53.7583008 C89.3393555,53.4539388 89.8370768,53.0224609 90.1879883,52.4638672 L90.1879883,52.4638672 L90.3598633,52.4638672 L90.800293,54 L93.3139648,54 L93.3139648,41.9902344 L90.0375977,41.9902344 L90.0375977,47.640625 C90.0375977,49.0585938 89.8334961,50.0737305 89.425293,50.6860352 C89.0170898,51.2983398 88.3546549,51.6044922 87.4379883,51.6044922 C86.7648112,51.6044922 86.2742513,51.3878581 85.9663086,50.9545898 C85.6583659,50.5213216 85.5043945,49.8714193 85.5043945,49.0048828 L85.5043945,49.0048828 L85.5043945,41.9902344 L82.2280273,41.9902344 L82.2280273,49.8212891 C82.2280273,51.2392578 82.5861003,52.3260091 83.3022461,53.081543 C84.0183919,53.8370768 85.0818685,54.2148438 86.4926758,54.2148438 Z M100.865723,54.2148438 C102.054525,54.2148438 103.057129,54.0322266 103.873535,53.6669922 L103.873535,53.6669922 L103.873535,51.2285156 C103.071452,51.4791667 102.383952,51.6044922 101.811035,51.6044922 C101.381348,51.6044922 101.035807,51.4934896 100.774414,51.2714844 C100.513021,51.0494792 100.382324,50.7057292 100.382324,50.2402344 L100.382324,50.2402344 L100.382324,44.4501953 L103.744629,44.4501953 L103.744629,41.9902344 L100.382324,41.9902344 L100.382324,39.4335938 L98.2875977,39.4335938 L97.3422852,41.96875 L95.5375977,43.0644531 L95.5375977,44.4501953 L97.105957,44.4501953 L97.105957,50.2402344 C97.105957,51.5651042 97.4049479,52.5587565 98.0029297,53.2211914 C98.6009115,53.8836263 99.5551758,54.2148438 100.865723,54.2148438 Z M111.736816,54.2148438 C112.674967,54.2148438 113.469889,54.1450195 114.121582,54.0053711 C114.773275,53.8657227 115.385579,53.6526693 115.958496,53.3662109 L115.958496,53.3662109 L115.958496,50.8310547 C115.256673,51.1604818 114.583496,51.4003906 113.938965,51.5507812 C113.294434,51.7011719 112.610514,51.7763672 111.887207,51.7763672 C110.956217,51.7763672 110.23291,51.514974 109.717285,50.9921875 C109.20166,50.469401 108.925944,49.742513 108.890137,48.8115234 L108.890137,48.8115234 L116.635254,48.8115234 L116.635254,47.2216797 C116.635254,45.5172526 116.162598,44.1816406 115.217285,43.2148438 C114.271973,42.2480469 112.950684,41.7646484 111.253418,41.7646484 C109.477376,41.7646484 108.086263,42.3142904 107.080078,43.4135742 C106.073893,44.5128581 105.570801,46.0686849 105.570801,48.0810547 C105.570801,50.0361328 106.115072,51.5472005 107.203613,52.6142578 C108.292155,53.6813151 109.803223,54.2148438 111.736816,54.2148438 Z M113.562988,46.6308594 L108.965332,46.6308594 C109.022624,45.8216146 109.24821,45.1967773 109.64209,44.7563477 C110.03597,44.315918 110.580241,44.0957031 111.274902,44.0957031 C111.969564,44.0957031 112.520996,44.315918 112.929199,44.7563477 C113.337402,45.1967773 113.548665,45.8216146 113.562988,46.6308594 L113.562988,46.6308594 Z M122.575684,54 L122.575684,47.8876953 C122.575684,46.9208984 122.867513,46.1689453 123.451172,45.6318359 C124.034831,45.0947266 124.849447,44.8261719 125.89502,44.8261719 C126.274577,44.8261719 126.596842,44.8619792 126.861816,44.9335938 L126.861816,44.9335938 L127.108887,41.8613281 C126.815267,41.796875 126.446452,41.7646484 126.002441,41.7646484 C125.25765,41.7646484 124.568359,41.9705404 123.93457,42.3823242 C123.300781,42.7941081 122.797689,43.3365885 122.425293,44.0097656 L122.425293,44.0097656 L122.26416,44.0097656 L121.780762,41.9902344 L119.299316,41.9902344 L119.299316,54 L122.575684,54 Z" id="JISCPublicationRouter" fill="#353535" fill-rule="nonzero"></path>
    </g>
</svg>