<?xml version="1.0" encoding="UTF-8"?>
<svg width="180px" height="60px" viewBox="0 0 180 60" version="1.1" xmlns="http://www.w3.org/2000/svg" xmlns:xlink="http://www.w3.org/1999/xlink">
    <title>JISC</title>
    <g id="JISC" stroke="none" stroke-width="1" fill="none" fill-rule="evenodd">
        <rect id="Rectangle" x="0" y="0" width="180" height="60"></rect>
        <path d="M2.60253906,26.6191406 C4.24251302,26.6191406 5.48144531,26.1393229 6.31933594,25.1796875 C7.15722656,24.2200521 7.57617188,22.8235677 7.57617188,20.9902344 L7.57617188,20.9902344 L7.57617188,6.29492188 L4.24609375,6.29492188 L4.24609375,21.0117188 C4.24609375,21.9785156 4.08854167,22.6892904 3.7734375,23.144043 C3.45833333,23.5987956 2.93554688,23.8261719 2.20507812,23.8261719 C1.73242188,23.8261719 1.20963542,23.7545573 0.63671875,23.6113281 L0.63671875,23.6113281 L0.63671875,26.3828125 C1.1953125,26.5403646 1.85058594,26.6191406 2.60253906,26.6191406 Z M12.9150391,8.49707031 C13.5094401,8.49707031 13.9552409,8.35563151 14.2524414,8.07275391 C14.5496419,7.7898763 14.6982422,7.39420573 14.6982422,6.88574219 C14.6982422,5.8186849 14.1038411,5.28515625 12.9150391,5.28515625 C11.726237,5.28515625 11.1318359,5.8186849 11.1318359,6.88574219 C11.1318359,7.95996094 11.726237,8.49707031 12.9150391,8.49707031 Z M14.5478516,22 L14.5478516,9.99023438 L11.2714844,9.99023438 L11.2714844,22 L14.5478516,22 Z M21.2402344,22.2148438 C22.9446615,22.2148438 24.2247721,21.8925781 25.0805664,21.2480469 C25.9363607,20.6035156 26.3642578,19.6653646 26.3642578,18.4335938 C26.3642578,17.8391927 26.2604167,17.3271484 26.0527344,16.8974609 C25.8450521,16.4677734 25.5227865,16.0882161 25.0859375,15.7587891 C24.6490885,15.429362 23.9615885,15.0748698 23.0234375,14.6953125 C21.9707031,14.2727865 21.2885742,13.9541016 20.9770508,13.7392578 C20.6655273,13.5244141 20.5097656,13.2701823 20.5097656,12.9765625 C20.5097656,12.453776 20.9931641,12.1923828 21.9599609,12.1923828 C22.5042318,12.1923828 23.0377604,12.2747396 23.5605469,12.4394531 C24.0833333,12.6041667 24.6455078,12.8154297 25.2470703,13.0732422 L25.2470703,13.0732422 L26.2353516,10.7099609 C24.867513,10.0797526 23.4602865,9.76464844 22.0136719,9.76464844 C20.4954427,9.76464844 19.3227539,10.0564779 18.4956055,10.6401367 C17.668457,11.2237956 17.2548828,12.0491536 17.2548828,13.1162109 C17.2548828,13.7392578 17.3533529,14.2638346 17.550293,14.6899414 C17.7472331,15.1160482 18.0623372,15.4938151 18.4956055,15.8232422 C18.9288737,16.1526693 19.6074219,16.5107422 20.53125,16.8974609 C21.1757812,17.1695964 21.6914062,17.4077148 22.078125,17.6118164 C22.4648438,17.815918 22.7369792,17.9985352 22.8945312,18.159668 C23.0520833,18.3208008 23.1308594,18.5302734 23.1308594,18.7880859 C23.1308594,19.4755859 22.5364583,19.8193359 21.3476562,19.8193359 C20.7675781,19.8193359 20.0961914,19.7226562 19.3334961,19.5292969 C18.5708008,19.3359375 17.8850911,19.0960286 17.2763672,18.8095703 L17.2763672,18.8095703 L17.2763672,21.5166016 C17.8134766,21.7457682 18.389974,21.9194336 19.0058594,22.0375977 C19.6217448,22.1557617 20.3665365,22.2148438 21.2402344,22.2148438 Z M33.7978516,22.2148438 C34.6214193,22.2148438 35.3035482,22.1503906 35.8442383,22.0214844 C36.3849284,21.8925781 36.9202474,21.6598307 37.4501953,21.3232422 L37.4501953,21.3232422 L37.4501953,18.5195312 C36.9130859,18.8776042 36.3759766,19.1407878 35.8388672,19.309082 C35.3017578,19.4773763 34.718099,19.5615234 34.0878906,19.5615234 C32.3834635,19.5615234 31.53125,18.3870443 31.53125,16.0380859 C31.53125,13.617513 32.3834635,12.4072266 34.0878906,12.4072266 C34.531901,12.4072266 34.9759115,12.4734701 35.4199219,12.605957 C35.8639323,12.738444 36.34375,12.9085286 36.859375,13.1162109 L36.859375,13.1162109 L37.8261719,10.5810547 C36.7233073,10.0367839 35.4772135,9.76464844 34.0878906,9.76464844 C32.1901042,9.76464844 30.7327474,10.3035482 29.7158203,11.3813477 C28.6988932,12.4591471 28.1904297,14.0185547 28.1904297,16.0595703 C28.1904297,20.1630859 30.0595703,22.2148438 33.7978516,22.2148438 Z M49.5351562,22 L49.5351562,16.4140625 L50.9638672,16.4140625 C52.9117839,16.4140625 54.4138997,15.9664714 55.4702148,15.0712891 C56.5265299,14.1761068 57.0546875,12.8834635 57.0546875,11.1933594 C57.0546875,9.56770833 56.5587565,8.34488932 55.5668945,7.52490234 C54.5750326,6.70491536 53.1266276,6.29492188 51.2216797,6.29492188 L51.2216797,6.29492188 L46.2050781,6.29492188 L46.2050781,22 L49.5351562,22 Z M50.6308594,13.6855469 L49.5351562,13.6855469 L49.5351562,9.0234375 L51.0498047,9.0234375 C51.9593099,9.0234375 52.6271159,9.20963542 53.0532227,9.58203125 C53.4793294,9.95442708 53.6923828,10.5309245 53.6923828,11.3115234 C53.6923828,12.0849609 53.438151,12.6739909 52.9296875,13.0786133 C52.421224,13.4832357 51.6549479,13.6855469 50.6308594,13.6855469 L50.6308594,13.6855469 Z M63.9619141,22.2148438 C64.7854818,22.2148438 65.5195312,22.0626628 66.1640625,21.7583008 C66.8085938,21.4539388 67.3063151,21.0224609 67.6572266,20.4638672 L67.6572266,20.4638672 L67.8291016,20.4638672 L68.2695312,22 L70.7832031,22 L70.7832031,9.99023438 L67.5068359,9.99023438 L67.5068359,15.640625 C67.5068359,17.0585938 67.3027344,18.0737305 66.8945312,18.6860352 C66.4863281,19.2983398 65.8238932,19.6044922 64.9072266,19.6044922 C64.2340495,19.6044922 63.7434896,19.3878581 63.4355469,18.9545898 C63.1276042,18.5213216 62.9736328,17.8714193 62.9736328,17.0048828 L62.9736328,17.0048828 L62.9736328,9.99023438 L59.6972656,9.99023438 L59.6972656,17.8212891 C59.6972656,19.2392578 60.0553385,20.3260091 60.7714844,21.081543 C61.4876302,21.8370768 62.5511068,22.2148438 63.9619141,22.2148438 Z M80.8164062,22.2148438 C82.2415365,22.2148438 83.3676758,21.6705729 84.1948242,20.5820312 C85.0219727,19.4934896 85.4355469,17.9573568 85.4355469,15.9736328 C85.4355469,14.0472005 85.0345052,12.5307617 84.2324219,11.4243164 C83.4303385,10.3178711 82.3203125,9.76464844 80.9023438,9.76464844 C79.3984375,9.76464844 78.2633464,10.3590495 77.4970703,11.5478516 L77.4970703,11.5478516 L77.3681641,11.5478516 C77.4541016,10.4593099 77.4970703,9.66796875 77.4970703,9.17382812 L77.4970703,9.17382812 L77.4970703,5.28515625 L74.2207031,5.28515625 L74.2207031,22 L76.7236328,22 L77.2714844,20.6787109 L77.4970703,20.6787109 C78.2991536,21.7027995 79.405599,22.2148438 80.8164062,22.2148438 Z M79.8925781,19.5615234 C79.061849,19.5615234 78.4549154,19.2822266 78.0717773,18.7236328 C77.6886393,18.1650391 77.4970703,17.2412109 77.4970703,15.9521484 L77.4970703,15.9521484 L77.4970703,15.5976562 C77.5113932,14.4518229 77.7047526,13.6300456 78.0771484,13.1323242 C78.4495443,12.6346029 79.0403646,12.3857422 79.8496094,12.3857422 C80.5442708,12.3857422 81.0921224,12.6811523 81.4931641,13.2719727 C81.8942057,13.862793 82.0947266,14.7490234 82.0947266,15.9306641 C82.0947266,17.1123047 81.8959961,18.0128581 81.4985352,18.6323242 C81.1010742,19.2517904 80.5657552,19.5615234 79.8925781,19.5615234 Z M91.4189453,22 L91.4189453,5.28515625 L88.1425781,5.28515625 L88.1425781,22 L91.4189453,22 Z M96.5,8.49707031 C97.094401,8.49707031 97.5402018,8.35563151 97.8374023,8.07275391 C98.1346029,7.7898763 98.2832031,7.39420573 98.2832031,6.88574219 C98.2832031,5.8186849 97.6888021,5.28515625 96.5,5.28515625 C95.3111979,5.28515625 94.7167969,5.8186849 94.7167969,6.88574219 C94.7167969,7.95996094 95.3111979,8.49707031 96.5,8.49707031 Z M98.1328125,22 L98.1328125,9.99023438 L94.8564453,9.99023438 L94.8564453,22 L98.1328125,22 Z M106.447266,22.2148438 C107.270833,22.2148438 107.952962,22.1503906 108.493652,22.0214844 C109.034342,21.8925781 109.569661,21.6598307 110.099609,21.3232422 L110.099609,21.3232422 L110.099609,18.5195312 C109.5625,18.8776042 109.025391,19.1407878 108.488281,19.309082 C107.951172,19.4773763 107.367513,19.5615234 106.737305,19.5615234 C105.032878,19.5615234 104.180664,18.3870443 104.180664,16.0380859 C104.180664,13.617513 105.032878,12.4072266 106.737305,12.4072266 C107.181315,12.4072266 107.625326,12.4734701 108.069336,12.605957 C108.513346,12.738444 108.993164,12.9085286 109.508789,13.1162109 L109.508789,13.1162109 L110.475586,10.5810547 C109.372721,10.0367839 108.126628,9.76464844 106.737305,9.76464844 C104.839518,9.76464844 103.382161,10.3035482 102.365234,11.3813477 C101.348307,12.4591471 100.839844,14.0185547 100.839844,16.0595703 C100.839844,20.1630859 102.708984,22.2148438 106.447266,22.2148438 Z M115.803711,22.2148438 C116.741862,22.2148438 117.502767,22.0805664 118.086426,21.8120117 C118.670085,21.543457 119.23763,21.061849 119.789062,20.3671875 L119.789062,20.3671875 L119.875,20.3671875 L120.508789,22 L122.796875,22 L122.796875,13.9970703 C122.796875,12.5647786 122.367188,11.4977214 121.507812,10.7958984 C120.648438,10.0940755 119.413086,9.74316406 117.801758,9.74316406 C116.118815,9.74316406 114.586263,10.1048177 113.204102,10.828125 L113.204102,10.828125 L114.289062,13.0410156 C115.585286,12.4609375 116.713216,12.1708984 117.672852,12.1708984 C118.918945,12.1708984 119.541992,12.7796224 119.541992,13.9970703 L119.541992,13.9970703 L119.541992,14.5234375 L117.458008,14.5878906 C115.660482,14.6523438 114.315918,14.9871419 113.424316,15.5922852 C112.532715,16.1974284 112.086914,17.1373698 112.086914,18.4121094 C112.086914,19.6295573 112.418132,20.5677083 113.080566,21.2265625 C113.743001,21.8854167 114.650716,22.2148438 115.803711,22.2148438 Z M117.039062,19.8193359 C115.979167,19.8193359 115.449219,19.3574219 115.449219,18.4335938 C115.449219,17.7890625 115.681966,17.3092448 116.147461,16.9941406 C116.612956,16.6790365 117.32194,16.5071615 118.274414,16.4785156 L118.274414,16.4785156 L119.541992,16.4355469 L119.541992,17.4238281 C119.541992,18.1471354 119.314616,18.7272135 118.859863,19.1640625 C118.405111,19.6009115 117.798177,19.8193359 117.039062,19.8193359 Z M130.28418,22.2148438 C131.472982,22.2148438 132.475586,22.0322266 133.291992,21.6669922 L133.291992,21.6669922 L133.291992,19.2285156 C132.489909,19.4791667 131.802409,19.6044922 131.229492,19.6044922 C130.799805,19.6044922 130.454264,19.4934896 130.192871,19.2714844 C129.931478,19.0494792 129.800781,18.7057292 129.800781,18.2402344 L129.800781,18.2402344 L129.800781,12.4501953 L133.163086,12.4501953 L133.163086,9.99023438 L129.800781,9.99023438 L129.800781,7.43359375 L127.706055,7.43359375 L126.760742,9.96875 L124.956055,11.0644531 L124.956055,12.4501953 L126.524414,12.4501953 L126.524414,18.2402344 C126.524414,19.5651042 126.823405,20.5587565 127.421387,21.2211914 C128.019368,21.8836263 128.973633,22.2148438 130.28418,22.2148438 Z M137.363281,8.49707031 C137.957682,8.49707031 138.403483,8.35563151 138.700684,8.07275391 C138.997884,7.7898763 139.146484,7.39420573 139.146484,6.88574219 C139.146484,5.8186849 138.552083,5.28515625 137.363281,5.28515625 C136.174479,5.28515625 135.580078,5.8186849 135.580078,6.88574219 C135.580078,7.95996094 136.174479,8.49707031 137.363281,8.49707031 Z M138.996094,22 L138.996094,9.99023438 L135.719727,9.99023438 L135.719727,22 L138.996094,22 Z M147.493164,22.2148438 C149.333659,22.2148438 150.769531,21.6634115 151.800781,20.5605469 C152.832031,19.4576823 153.347656,17.9287109 153.347656,15.9736328 C153.347656,14.7132161 153.111328,13.6139323 152.638672,12.6757812 C152.166016,11.7376302 151.489258,11.0179036 150.608398,10.5166016 C149.727539,10.0152995 148.710612,9.76464844 147.557617,9.76464844 C145.702799,9.76464844 144.263346,10.3089193 143.239258,11.3974609 C142.215169,12.4860026 141.703125,14.0113932 141.703125,15.9736328 C141.703125,17.2340495 141.939453,18.3369141 142.412109,19.2822266 C142.884766,20.2275391 143.561523,20.9526367 144.442383,21.4575195 C145.323242,21.9624023 146.340169,22.2148438 147.493164,22.2148438 Z M147.536133,19.5830078 C146.655273,19.5830078 146.019694,19.2786458 145.629395,18.6699219 C145.239095,18.0611979 145.043945,17.1624349 145.043945,15.9736328 C145.043945,14.7776693 145.237305,13.8842773 145.624023,13.293457 C146.010742,12.7026367 146.640951,12.4072266 147.514648,12.4072266 C148.395508,12.4072266 149.029297,12.7044271 149.416016,13.2988281 C149.802734,13.8932292 149.996094,14.7848307 149.996094,15.9736328 C149.996094,17.1695964 149.804525,18.0701497 149.421387,18.675293 C149.038249,19.2804362 148.409831,19.5830078 147.536133,19.5830078 Z M159.331055,22 L159.331055,16.3496094 C159.331055,14.9316406 159.535156,13.9165039 159.943359,13.3041992 C160.351562,12.6918945 161.013997,12.3857422 161.930664,12.3857422 C162.603841,12.3857422 163.094401,12.6023763 163.402344,13.0356445 C163.710286,13.4689128 163.864258,14.1188151 163.864258,14.9853516 L163.864258,14.9853516 L163.864258,22 L167.140625,22 L167.140625,14.1689453 C167.140625,12.7438151 166.778971,11.6534831 166.055664,10.8979492 C165.332357,10.1424154 164.272461,9.76464844 162.875977,9.76464844 C162.05957,9.76464844 161.330892,9.9132487 160.689941,10.2104492 C160.048991,10.5076497 159.545898,10.9462891 159.180664,11.5263672 L159.180664,11.5263672 L158.998047,11.5263672 L158.557617,9.99023438 L156.054688,9.99023438 L156.054688,22 L159.331055,22 Z M173.768555,22.2148438 C175.472982,22.2148438 176.753092,21.8925781 177.608887,21.2480469 C178.464681,20.6035156 178.892578,19.6653646 178.892578,18.4335938 C178.892578,17.8391927 178.788737,17.3271484 178.581055,16.8974609 C178.373372,16.4677734 178.051107,16.0882161 177.614258,15.7587891 C177.177409,15.429362 176.489909,15.0748698 175.551758,14.6953125 C174.499023,14.2727865 173.816895,13.9541016 173.505371,13.7392578 C173.193848,13.5244141 173.038086,13.2701823 173.038086,12.9765625 C173.038086,12.453776 173.521484,12.1923828 174.488281,12.1923828 C175.032552,12.1923828 175.566081,12.2747396 176.088867,12.4394531 C176.611654,12.6041667 177.173828,12.8154297 177.775391,13.0732422 L177.775391,13.0732422 L178.763672,10.7099609 C177.395833,10.0797526 175.988607,9.76464844 174.541992,9.76464844 C173.023763,9.76464844 171.851074,10.0564779 171.023926,10.6401367 C170.196777,11.2237956 169.783203,12.0491536 169.783203,13.1162109 C169.783203,13.7392578 169.881673,14.2638346 170.078613,14.6899414 C170.275553,15.1160482 170.590658,15.4938151 171.023926,15.8232422 C171.457194,16.1526693 172.135742,16.5107422 173.05957,16.8974609 C173.704102,17.1695964 174.219727,17.4077148 174.606445,17.6118164 C174.993164,17.815918 175.265299,17.9985352 175.422852,18.159668 C175.580404,18.3208008 175.65918,18.5302734 175.65918,18.7880859 C175.65918,19.4755859 175.064779,19.8193359 173.875977,19.8193359 C173.295898,19.8193359 172.624512,19.7226562 171.861816,19.5292969 C171.099121,19.3359375 170.413411,19.0960286 169.804688,18.8095703 L169.804688,18.8095703 L169.804688,21.5166016 C170.341797,21.7457682 170.918294,21.9194336 171.53418,22.0375977 C172.150065,22.1557617 172.894857,22.2148438 173.768555,22.2148438 Z M58.7358398,54 L58.7358398,47.9736328 L60.5083008,47.9736328 L64.2573242,54 L67.9526367,54 L63.3334961,47.1572266 C64.2644857,46.7490234 64.9842122,46.1850586 65.4926758,45.465332 C66.0011393,44.7456055 66.2553711,43.9238281 66.2553711,43 C66.2553711,41.4173177 65.7433268,40.2374674 64.7192383,39.4604492 C63.6951497,38.683431 62.1160482,38.2949219 59.9819336,38.2949219 L59.9819336,38.2949219 L55.4057617,38.2949219 L55.4057617,54 L58.7358398,54 Z M59.8100586,45.2666016 L58.7358398,45.2666016 L58.7358398,41.0234375 L59.7456055,41.0234375 C60.8198242,41.0234375 61.6129557,41.1809896 62.125,41.4960938 C62.6370443,41.8111979 62.8930664,42.3411458 62.8930664,43.0859375 C62.8930664,43.8378906 62.6424154,44.3893229 62.1411133,44.7402344 C61.6398112,45.0911458 60.862793,45.2666016 59.8100586,45.2666016 L59.8100586,45.2666016 Z M74.730957,54.2148438 C76.5714518,54.2148438 78.0073242,53.6634115 79.0385742,52.5605469 C80.0698242,51.4576823 80.5854492,49.9287109 80.5854492,47.9736328 C80.5854492,46.7132161 80.3491211,45.6139323 79.8764648,44.6757812 C79.4038086,43.7376302 78.7270508,43.0179036 77.8461914,42.5166016 C76.965332,42.0152995 75.9484049,41.7646484 74.7954102,41.7646484 C72.9405924,41.7646484 71.5011393,42.3089193 70.4770508,43.3974609 C69.4529622,44.4860026 68.940918,46.0113932 68.940918,47.9736328 C68.940918,49.2340495 69.1772461,50.3369141 69.6499023,51.2822266 C70.1225586,52.2275391 70.7993164,52.9526367 71.6801758,53.4575195 C72.5610352,53.9624023 73.5779622,54.2148438 74.730957,54.2148438 Z M74.7739258,51.5830078 C73.8930664,51.5830078 73.257487,51.2786458 72.8671875,50.6699219 C72.476888,50.0611979 72.2817383,49.1624349 72.2817383,47.9736328 C72.2817383,46.7776693 72.4750977,45.8842773 72.8618164,45.293457 C73.2485352,44.7026367 73.8787435,44.4072266 74.7524414,44.4072266 C75.6333008,44.4072266 76.2670898,44.7044271 76.6538086,45.2988281 C77.0405273,45.8932292 77.2338867,46.7848307 77.2338867,47.9736328 C77.2338867,49.1695964 77.0423177,50.0701497 76.6591797,50.675293 C76.2760417,51.2804362 75.6476237,51.5830078 74.7739258,51.5830078 Z M87.4926758,54.2148438 C88.3162435,54.2148438 89.050293,54.0626628 89.6948242,53.7583008 C90.3393555,53.4539388 90.8370768,53.0224609 91.1879883,52.4638672 L91.1879883,52.4638672 L91.3598633,52.4638672 L91.800293,54 L94.3139648,54 L94.3139648,41.9902344 L91.0375977,41.9902344 L91.0375977,47.640625 C91.0375977,49.0585938 90.8334961,50.0737305 90.425293,50.6860352 C90.0170898,51.2983398 89.3546549,51.6044922 88.4379883,51.6044922 C87.7648112,51.6044922 87.2742513,51.3878581 86.9663086,50.9545898 C86.6583659,50.5213216 86.5043945,49.8714193 86.5043945,49.0048828 L86.5043945,49.0048828 L86.5043945,41.9902344 L83.2280273,41.9902344 L83.2280273,49.8212891 C83.2280273,51.2392578 83.5861003,52.3260091 84.3022461,53.081543 C85.0183919,53.8370768 86.0818685,54.2148438 87.4926758,54.2148438 Z M101.865723,54.2148438 C103.054525,54.2148438 104.057129,54.0322266 104.873535,53.6669922 L104.873535,53.6669922 L104.873535,51.2285156 C104.071452,51.4791667 103.383952,51.6044922 102.811035,51.6044922 C102.381348,51.6044922 102.035807,51.4934896 101.774414,51.2714844 C101.513021,51.0494792 101.382324,50.7057292 101.382324,50.2402344 L101.382324,50.2402344 L101.382324,44.4501953 L104.744629,44.4501953 L104.744629,41.9902344 L101.382324,41.9902344 L101.382324,39.4335938 L99.2875977,39.4335938 L98.3422852,41.96875 L96.5375977,43.0644531 L96.5375977,44.4501953 L98.105957,44.4501953 L98.105957,50.2402344 C98.105957,51.5651042 98.4049479,52.5587565 99.0029297,53.2211914 C99.6009115,53.8836263 100.555176,54.2148438 101.865723,54.2148438 Z M112.736816,54.2148438 C113.674967,54.2148438 114.469889,54.1450195 115.121582,54.0053711 C115.773275,53.8657227 116.385579,53.6526693 116.958496,53.3662109 L116.958496,53.3662109 L116.958496,50.8310547 C116.256673,51.1604818 115.583496,51.4003906 114.938965,51.5507812 C114.294434,51.7011719 113.610514,51.7763672 112.887207,51.7763672 C111.956217,51.7763672 111.23291,51.514974 110.717285,50.9921875 C110.20166,50.469401 109.925944,49.742513 109.890137,48.8115234 L109.890137,48.8115234 L117.635254,48.8115234 L117.635254,47.2216797 C117.635254,45.5172526 117.162598,44.1816406 116.217285,43.2148438 C115.271973,42.2480469 113.950684,41.7646484 112.253418,41.7646484 C110.477376,41.7646484 109.086263,42.3142904 108.080078,43.4135742 C107.073893,44.5128581 106.570801,46.0686849 106.570801,48.0810547 C106.570801,50.0361328 107.115072,51.5472005 108.203613,52.6142578 C109.292155,53.6813151 110.803223,54.2148438 112.736816,54.2148438 Z M114.562988,46.6308594 L109.965332,46.6308594 C110.022624,45.8216146 110.24821,45.1967773 110.64209,44.7563477 C111.03597,44.315918 111.580241,44.0957031 112.274902,44.0957031 C112.969564,44.0957031 113.520996,44.315918 113.929199,44.7563477 C114.337402,45.1967773 114.548665,45.8216146 114.562988,46.6308594 L114.562988,46.6308594 Z M123.575684,54 L123.575684,47.8876953 C123.575684,46.9208984 123.867513,46.1689453 124.451172,45.6318359 C125.034831,45.0947266 125.849447,44.8261719 126.89502,44.8261719 C127.274577,44.8261719 127.596842,44.8619792 127.861816,44.9335938 L127.861816,44.9335938 L128.108887,41.8613281 C127.815267,41.796875 127.446452,41.7646484 127.002441,41.7646484 C126.25765,41.7646484 125.568359,41.9705404 124.93457,42.3823242 C124.300781,42.7941081 123.797689,43.3365885 123.425293,44.0097656 L123.425293,44.0097656 L123.26416,44.0097656 L122.780762,41.9902344 L120.299316,41.9902344 L120.299316,54 L123.575684,54 Z" id="JiscPublicationsRouter" fill="#353535" fill-rule="nonzero"></path>
    </g>
</svg>