<svg xmlns="http://www.w3.org/2000/svg" viewBox="0 0 95.997002 95.994003" height="95.994" width="95.997">
  <path d="M95.997 95.994H0V0h95.997v95.994" fill="#827460"/>
  <path d="M6.258 91.406v-30.63h4.56v26.63h5.807v4H6.258m16.39-25.682c0-1.548.472-1.893 1.42-1.893.902 0 1.375.35 1.375 1.9v20.73c0 1.55-.473 1.9-1.376 1.9-.947 0-1.42-.34-1.42-1.89zm-4.56 21.122c0 4 3.14 5.163 5.935 5.163 2.84 0 5.98-1.17 5.98-5.17V65.33c0-4-3.14-5.16-5.98-5.16-2.795 0-5.936 1.16-5.936 5.16v21.51m22.54-14.884V65.72c0-1.547-.472-1.892-1.375-1.892-.947 0-1.42.347-1.42 1.896V86.46c0 1.548.473 1.892 1.42 1.892.903 0 1.376-.344 1.376-1.892v-6.626h4.56v7.012c0 4-3.14 5.163-5.98 5.163-2.795 0-5.936-1.17-5.936-5.17V65.33c0-4 3.14-5.16 5.936-5.16 2.84 0 5.98 1.16 5.98 5.16v6.626h-4.56M48.586 91.4V60.77h4.56v13.81h.13l3.483-13.81h4.43L57.7 74.75l3.57 16.65h-4.69l-3.31-15.53h-.13V91.4h-4.56m19.62-4.94c0 1.546.474 1.89 1.42 1.89.904 0 1.376-.344 1.376-1.89v-3.227c0-4.304-7.355-8.52-7.355-13.51v-4.387c0-4 3.14-5.16 5.94-5.16 2.84 0 5.98 1.16 5.98 5.16v6.452H71v-6.066c0-1.548-.474-1.893-1.378-1.893-.943 0-1.416.34-1.416 1.89v3.78c0 2.19 7.355 8.82 7.355 11.91v5.42c0 4-3.14 5.16-5.98 5.16-2.79 0-5.93-1.17-5.93-5.17v-7.05h4.56v6.67m15.19 0c0 1.54.47 1.89 1.42 1.89.91 0 1.38-.35 1.38-1.89v-3.22c0-4.31-7.35-8.52-7.35-13.51v-4.38c0-4 3.14-5.16 5.94-5.16 2.84 0 5.98 1.16 5.98 5.16v6.45H86.2v-6.06c0-1.55-.474-1.897-1.377-1.897-.95 0-1.42.346-1.42 1.895v3.786c0 2.19 7.356 8.82 7.356 11.91v5.42c0 4-3.14 5.16-5.98 5.16-2.8 0-5.94-1.16-5.94-5.17v-7.05h4.56v6.66" fill="#231f20"/>
  <path d="M30.03 57.484c-.238.703.128 1.466.822 1.722 1.277.47 7.795 2.728 10.838 1.048.86-.475 1.42-1.22 1.62-2.154.87-4.107-.21-9.158-4.637-10.543-4.454-1.39-7.743 7.246-8.644 9.927m36.59-8.112c-2.87 1.927-3.7 8.398-3.84 9.677-.07.64.31 1.24.93 1.44 2.03.67 8.87 2.73 11.43.84.73-.54 1.12-1.35 1.1-2.28-.08-4.11-2.22-8.83-6.82-10.14-.99-.28-1.96-.13-2.81.45" fill="#fff"/>
  <path d="M90.942 37.624c-.017-.2-.177-.357-.378-.37-.2-.012-.378.125-.418.322-.047.23-1.195 5.47-8.115 4.37-1.3-14.164-13.11-25.074-28.21-25.41-14.34-.316-26.14 9.037-28.94 22.057-.4-.01-.86-.084-1.29-.29-.82-.387-1.43-1.16-1.81-2.297-1.44-4.312-6.67-5.068-9.66-5.134-2.89-.065-4.68.424-5.63 1.536-1.13 1.32-.79 3.23-.46 5.075l.06.327c.43 2.415 1.65 2.267 3.07 2.098.96-.116 2.14-.26 3.69.136 2.08.53 2.32 1.733 2.61 3.257.22 1.13.47 2.41 1.59 3.39 1.59 1.39 5.47 1.45 7.13 1.4l-.02.99c-.024 1.19.91 2.17 2.09 2.19 1.188.03 2.16-.91 2.19-2.09l.118-5.15c.29-13.31 11.36-23.5 25.19-23.2 13.837.31 24.44 10.98 24.147 24.29l-.112 5.15c-.027 1.18.91 2.16 2.094 2.19 1.18.03 2.16-.91 2.188-2.09l.056-2.43c1.42-.02 4.394-.35 6.53-2.46 1.81-1.78 2.59-4.42 2.32-7.84" fill="#fff"/>
  <path d="M14.198 34.726c-.017.67-.59 1.2-1.287 1.184-.69-.015-1.24-.57-1.23-1.24.02-.67.59-1.2 1.29-1.183.7.013 1.25.57 1.24 1.24" fill="#231f20"/>
</svg>
