<svg xmlns="http://www.w3.org/2000/svg" width="2500" height="834.717" viewBox="0 0 512 170.942" preserveAspectRatio="xMidYMid">
  <path d="M123.957 77.01c-.68-3.605-1.835-6.73-3.444-9.39-1.625-2.66-3.776-4.732-6.467-6.226-2.697-1.495-6.076-2.24-10.16-2.24-3.635 0-6.8.676-9.53 2-2.72 1.325-4.96 3.28-6.716 5.837-1.74 2.56-3.046 5.65-3.932 9.24-.876 3.61-1.305 7.71-1.305 12.32 0 4.28.348 8.21 1.066 11.81.7 3.6 1.86 6.74 3.44 9.4 1.59 2.66 3.74 4.72 6.46 6.18 2.73 1.46 6.09 2.19 10.12 2.19 3.68 0 6.89-.67 9.62-2 2.73-1.32 4.96-3.25 6.71-5.79 1.75-2.53 3.04-5.58 3.88-9.19.84-3.6 1.26-7.7 1.26-12.3 0-4.29-.35-8.23-1.03-11.82zm14.443 46.846c-3.954 4.41-8.912 7.816-14.87 10.223-5.964 2.4-12.938 3.59-20.906 3.59-7.71 0-14.424-1.07-20.132-3.21-5.708-2.15-10.438-5.26-14.192-9.35-3.77-4.09-6.555-9.11-8.368-15.08-1.815-5.97-2.708-12.78-2.708-20.43 0-7.4.974-14.16 2.956-20.29 1.983-6.13 4.94-11.39 8.895-15.76 3.954-4.39 8.905-7.78 14.832-10.17 5.928-2.4 12.88-3.6 20.846-3.6 7.79 0 14.524 1.04 20.23 3.15 5.707 2.1 10.42 5.21 14.147 9.29 3.733 4.08 6.504 9.11 8.315 15.08 1.815 5.96 2.72 12.82 2.72 20.52 0 7.39-.967 14.14-2.916 20.24-1.95 6.1-4.9 11.35-8.85 15.76zm74-62.852c-2.603-2.588-6.267-3.883-10.99-3.883-2.398 0-4.5.4-6.325 1.22-1.81.81-3.314 1.9-4.522 3.3-1.202 1.41-2.09 3.02-2.68 4.88a19.3 19.3 0 0 0-.863 5.79c0 4.42 1.293 7.9 3.883 10.46 2.6 2.56 6.185 3.85 10.795 3.85 2.462 0 4.605-.38 6.416-1.17 1.813-.76 3.316-1.84 4.522-3.2 1.194-1.35 2.102-2.93 2.72-4.72.617-1.78.926-3.63.926-5.59 0-4.67-1.297-8.29-3.883-10.89zM183.522 144.3c0 3.23 1.633 5.697 4.904 7.386 3.272 1.682 7.887 2.53 13.86 2.53 3.687 0 6.793-.378 9.326-1.125 2.53-.74 4.57-1.73 6.133-2.97 1.554-1.23 2.652-2.59 3.31-4.13.637-1.52.965-3.12.965-4.8 0-2.92-1.167-5.16-3.498-6.71-2.34-1.56-5.536-2.4-9.62-2.53l-17.414-.49c-1.694 1.24-3.027 2.41-4.03 3.56-1.01 1.13-1.824 2.22-2.44 3.25-.608 1.04-1.018 2.06-1.217 3.03-.19.97-.27 1.98-.27 3.02zm60.468-83.784h-10.206c1.432 1.562 2.452 3.326 3.063 5.307.623 1.974.92 4.036.92 6.18 0 5.057-.837 9.55-2.53 13.476-1.672 3.92-4.092 7.23-7.23 9.91-3.146 2.69-6.952 4.75-11.377 6.13-4.45 1.41-9.382 2.09-14.84 2.09-2.78 0-5.438-.34-7.97-1.02-2.53-.68-4.46-1.47-5.834-2.4-.78.85-1.475 1.85-2.093 3.03-.62 1.17-.918 2.45-.918 3.88 0 1.88.827 3.41 2.483 4.62 1.642 1.2 3.973 1.86 6.942 1.99l21.103.78c4.933.2 9.315.89 13.178 2.09 3.86 1.2 7.1 2.9 9.73 5.05a21.793 21.793 0 0 1 6.03 7.84c1.4 3.04 2.1 6.51 2.1 10.41 0 4.28-.95 8.31-2.82 12.1-1.88 3.79-4.7 7.09-8.46 9.88-3.75 2.78-8.46 4.98-14.14 6.61-5.68 1.62-12.29 2.43-19.88 2.43-7.39 0-13.69-.59-18.9-1.75-5.22-1.17-9.5-2.79-12.83-4.87-3.34-2.07-5.77-4.55-7.29-7.44-1.53-2.88-2.28-6.05-2.28-9.48 0-2.15.27-4.19.81-6.13.55-1.95 1.37-3.81 2.44-5.6 1.08-1.78 2.39-3.49 3.94-5.11 1.56-1.62 3.33-3.18 5.34-4.67-2.78-1.49-4.94-3.52-6.45-6.09-1.53-2.56-2.29-5.37-2.29-8.41 0-3.83.88-7.31 2.63-10.46 1.75-3.15 4.02-5.98 6.81-8.52-2.27-2.27-4.08-5-5.45-8.18-1.35-3.17-2.03-7.13-2.03-11.86 0-5.06.89-9.58 2.67-13.58 1.78-3.985 4.27-7.36 7.43-10.12 3.18-2.75 6.98-4.86 11.39-6.325 4.4-1.458 9.26-2.186 14.58-2.186 2.72 0 5.33.16 7.83.48 2.49.326 4.81.782 6.95 1.364H244c1.104 0 1.992.713 2.68 2.14.68 1.43 1.015 3.83 1.015 7.2 0 3.12-.36 5.42-1.07 6.91-.718 1.482-1.59 2.23-2.63 2.23zm64.476.487c-2.594-2.588-6.257-3.883-10.99-3.883-2.403 0-4.513.397-6.324 1.214-1.81.808-3.32 1.902-4.535 3.297a13.854 13.854 0 0 0-2.666 4.88 19.31 19.31 0 0 0-.87 5.79c0 4.42 1.3 7.9 3.89 10.46 2.61 2.56 6.2 3.85 10.8 3.85 2.47 0 4.61-.38 6.42-1.17 1.81-.76 3.33-1.84 4.52-3.2 1.2-1.35 2.11-2.93 2.73-4.72.62-1.78.92-3.63.92-5.59 0-4.67-1.29-8.29-3.88-10.89zm-28.888 83.295c0 3.23 1.637 5.698 4.915 7.387 3.26 1.68 7.89 2.528 13.858 2.528 3.7 0 6.81-.377 9.34-1.124 2.53-.75 4.57-1.74 6.13-2.97 1.56-1.24 2.66-2.6 3.31-4.14a12.1 12.1 0 0 0 .97-4.81c0-2.93-1.15-5.16-3.49-6.72-2.33-1.57-5.55-2.41-9.63-2.53l-17.41-.49c-1.68 1.23-3.03 2.41-4.03 3.55-1 1.12-1.82 2.21-2.43 3.24-.62 1.03-1.01 2.05-1.21 3.02-.2.96-.29 1.97-.29 3.02zm60.482-83.782h-10.204c1.417 1.562 2.44 3.326 3.06 5.307.62 1.974.926 4.036.926 6.18 0 5.057-.845 9.55-2.528 13.476-1.69 3.92-4.108 7.23-7.256 9.91-3.134 2.69-6.926 4.75-11.372 6.13-4.445 1.41-9.374 2.09-14.818 2.09-2.795 0-5.45-.34-7.974-1.02-2.534-.68-4.484-1.47-5.846-2.4a14.14 14.14 0 0 0-2.086 3.03c-.62 1.17-.925 2.45-.925 3.88 0 1.88.82 3.41 2.48 4.62 1.65 1.2 3.964 1.86 6.96 1.99l21.092.78c4.93.2 9.32.89 13.18 2.09 3.84 1.2 7.1 2.9 9.72 5.05 2.61 2.17 4.63 4.79 6.02 7.84 1.39 3.04 2.09 6.51 2.09 10.41 0 4.28-.94 8.31-2.82 12.1-1.89 3.79-4.7 7.09-8.46 9.88-3.77 2.78-8.48 4.98-14.14 6.61-5.68 1.62-12.31 2.43-19.89 2.43-7.4 0-13.72-.59-18.93-1.75-5.23-1.17-9.5-2.79-12.84-4.87-3.34-2.07-5.77-4.55-7.3-7.44-1.52-2.88-2.28-6.05-2.28-9.48 0-2.15.28-4.19.83-6.13.54-1.95 1.36-3.81 2.41-5.6a29.376 29.376 0 0 1 3.94-5.11c1.56-1.62 3.34-3.18 5.34-4.67-2.79-1.49-4.94-3.52-6.46-6.09-1.54-2.56-2.29-5.37-2.29-8.41 0-3.83.88-7.31 2.63-10.46 1.75-3.15 4.01-5.98 6.8-8.52-2.27-2.27-4.09-5-5.44-8.18-1.37-3.17-2.04-7.13-2.04-11.86 0-5.06.89-9.58 2.67-13.58 1.78-3.985 4.26-7.36 7.44-10.12 3.16-2.75 6.97-4.86 11.38-6.325 4.39-1.458 9.27-2.186 14.58-2.186 2.73 0 5.34.16 7.82.48 2.5.326 4.82.782 6.96 1.364H340c1.1 0 1.99.713 2.67 2.14.698 1.43 1.03 3.83 1.03 7.2 0 3.12-.36 5.42-1.08 6.91-.71 1.482-1.59 2.23-2.62 2.23zm170.857-2.79c-.714 1.494-1.595 2.23-2.617 2.23h-7.72l-25.635 75.476-10.5 30.747c-.582 1.62-2.168 2.78-4.76 3.5-1.734.47-4.067.77-6.87.93-.273.12-.564.2-.863.2h-18.44c-1.03 0-1.91-.75-2.63-2.24-.706-1.5-1.06-3.81-1.06-6.92 0-3.37.338-5.78 1.014-7.2.678-1.43 1.58-2.15 2.675-2.15h9.24l6.73-16.9c-.84-.39-1.6-.99-2.28-1.79-.68-.82-1.19-1.68-1.51-2.59L419.1 59.95h-9.69c-1.03 0-1.91-.737-2.627-2.23-.71-1.505-1.06-3.793-1.06-6.903 0-3.376.336-5.778 1.02-7.21.678-1.427 1.564-2.145 2.668-2.145h16.44c.42 0 .74-.02 1.17-.02 2.79 0 5 .05 6.62.14 1.62.1 2.89.34 3.79.728.92.39 1.6.998 2.06 1.803.45.816.9 1.973 1.35 3.458l20.43 58.09h.3l18.67-59.25c.38-1.68.89-2.8 1.51-3.35.61-.55 1.64-.96 3.05-1.21 1.44-.26 3.94-.39 7.49-.39.57 0 1.02.03 1.54.03.02 0 .04-.01.06-.01h14.45c1.1 0 1.99.72 2.67 2.15.7 1.43 1.04 3.84 1.04 7.21 0 3.11-.36 5.4-1.08 6.9zm-114.782 76.05c-.716 1.505-1.594 2.242-2.624 2.242h-37.77c-1.03 0-1.91-.737-2.63-2.242-.71-1.494-1.08-3.784-1.08-6.902 0-3.367.34-5.768 1.03-7.213.68-1.41 1.58-2.13 2.68-2.13h6.75V18.5h-6.75c-1.03 0-1.91-.748-2.63-2.252-.71-1.483-1.08-3.785-1.08-6.903 0-3.366.34-5.776 1.03-7.2C353.74.715 354.63 0 355.74 0h16.44c.04 0 .07.05.113.05.767-.03 1.58-.05 2.44-.05 2.4 0 4.373.1 5.935.29 1.556.21 2.804.476 3.74.834.948.35 1.61.8 1.99 1.316a2.77 2.77 0 0 1 .6 1.745v113.35h6.518c1.103 0 1.997.715 2.673 2.13.67 1.444 1.03 3.845 1.03 7.212 0 3.118-.37 5.408-1.08 6.902zm-352.032 0c-.716 1.505-1.592 2.242-2.618 2.242H3.693c-1.034 0-1.91-.737-2.63-2.242C.37 132.282 0 129.992 0 126.874c0-3.367.348-5.768 1.026-7.213.676-1.41 1.572-2.13 2.667-2.13h6.757V18.5H3.693c-1.034 0-1.91-.748-2.63-2.252C.37 14.76 0 12.458 0 9.34c0-3.367.348-5.777 1.026-7.2C1.702.713 2.598-.004 3.693-.004H20.15c.04 0 .07.052.11.052.767-.03 1.564-.052 2.44-.052 2.39 0 4.37.1 5.935.29 1.555.21 2.79.477 3.748.835.934.35 1.593.8 1.98 1.32.388.52.588 1.1.588 1.75v113.35h6.54c1.1 0 2 .72 2.67 2.13.68 1.45 1.02 3.85 1.02 7.21 0 3.12-.36 5.41-1.06 6.9z" fill="#0a0b09"/>
</svg>
