<?xml version="1.0" encoding="utf-8"?>
<!-- Generator: Adobe Illustrator 22.1.0, SVG Export Plug-In . SVG Version: 6.00 Build 0)  -->
<svg version="1.1" id="Layer_1" xmlns="http://www.w3.org/2000/svg" xmlns:xlink="http://www.w3.org/1999/xlink" x="0px" y="0px"
	 viewBox="0 0 287 115" style="enable-background:new 0 0 287 115;" xml:space="preserve">
<style type="text/css">
	.st0{fill:url(#SVGID_1_);}
	.st1{fill:url(#SVGID_2_);}
	.st2{fill:url(#SVGID_3_);}
	.st3{opacity:0.63;fill:url(#SVGID_4_);enable-background:new    ;}
	.st4{opacity:0.63;fill:url(#SVGID_5_);enable-background:new    ;}
	.st5{opacity:0.63;fill:url(#SVGID_6_);enable-background:new    ;}
	.st6{fill:#00355F;}
</style>
<g id="Layer_2_1_">
	<g>
		
			<linearGradient id="SVGID_1_" gradientUnits="userSpaceOnUse" x1="521.7986" y1="247.4713" x2="640.3006" y2="247.4713" gradientTransform="matrix(-1 0 0 -1 785.8906 316)">
			<stop  offset="0" style="stop-color:#FFFFFF"/>
			<stop  offset="1" style="stop-color:#FBB034"/>
		</linearGradient>
		<path class="st0" d="M264.1,47c0,0-57,39.1-118.5,41.5C145.6,88.6,220.9,101.9,264.1,47z"/>
		
			<linearGradient id="SVGID_2_" gradientUnits="userSpaceOnUse" x1="377.3233" y1="220.3425" x2="516.973" y2="220.3425" gradientTransform="matrix(-0.9937 0.1117 -0.1117 -0.9937 679.2481 217.4821)">
			<stop  offset="0" style="stop-color:#FFFFFF"/>
			<stop  offset="1" style="stop-color:#FBB034"/>
		</linearGradient>
		<path class="st1" d="M276.8,15.3c0,0-61.2,54-133.3,64.4C143.6,79.7,234.2,86.7,276.8,15.3z"/>
		
			<linearGradient id="SVGID_3_" gradientUnits="userSpaceOnUse" x1="9.0646" y1="557.1328" x2="147.3322" y2="557.1328" gradientTransform="matrix(-0.6924 0.1786 -0.1786 -0.6923 348.166 414.1469)">
			<stop  offset="0" style="stop-color:#FFFFFF"/>
			<stop  offset="1" style="stop-color:#FBB034"/>
		</linearGradient>
		<path class="st2" d="M237.9,12.8c0,0-37.3,43.8-87.2,57.7C150.7,70.4,215.7,67.2,237.9,12.8z"/>
		
			<linearGradient id="SVGID_4_" gradientUnits="userSpaceOnUse" x1="1026.3109" y1="311.8429" x2="1120.8336" y2="311.8429" gradientTransform="matrix(0.972 0.2351 0.2351 -0.972 -946.9834 115.5527)">
			<stop  offset="2.810000e-02" style="stop-color:#FFFFFF"/>
			<stop  offset="0.8764" style="stop-color:#73AFB6"/>
		</linearGradient>
		<path class="st3" d="M128.4,35.3c0,0,36.1,44.2,83.3,57.8C211.6,93.1,150.5,90.4,128.4,35.3z"/>
		
			<linearGradient id="SVGID_5_" gradientUnits="userSpaceOnUse" x1="874.9784" y1="337.3226" x2="986.9769" y2="337.3226" gradientTransform="matrix(0.9396 0.3422 0.3422 -0.9396 -820.3811 44.8781)">
			<stop  offset="2.810000e-02" style="stop-color:#FFFFFF"/>
			<stop  offset="0.8764" style="stop-color:#73AFB6"/>
		</linearGradient>
		<path class="st4" d="M125.1,5.7c0,0,36.2,57.8,90,80.2C215.1,85.9,143.3,74.9,125.1,5.7z"/>
		
			<linearGradient id="SVGID_6_" gradientUnits="userSpaceOnUse" x1="574.4586" y1="272.2685" x2="630.1346" y2="272.2685" gradientTransform="matrix(-1 0 0 -1 785.8906 316)">
			<stop  offset="0.3258" style="stop-color:#73AFB6"/>
			<stop  offset="0.4711" style="stop-color:#77B1B8"/>
			<stop  offset="0.5971" style="stop-color:#83B7BE"/>
			<stop  offset="0.7159" style="stop-color:#97C3C8"/>
			<stop  offset="0.8303" style="stop-color:#B5D3D7"/>
			<stop  offset="0.9405" style="stop-color:#DDEBEC"/>
			<stop  offset="1" style="stop-color:#FFFFFF"/>
		</linearGradient>
		<path class="st5" d="M155.8,10.8c0,0,19.9,44.5,55.7,65.8C211.4,76.6,161.7,61.7,155.8,10.8z"/>
	</g>
</g>
<g id="Layer_1_1_">
	<g>
		<path class="st6" d="M52.7,56.9h8.8v45.9H46.9L27.3,64.4H27l0.7,38.4H19V56.9h14.6l19.6,38.4h0.2L52.7,56.9z"/>
		<path class="st6" d="M78.4,102.8h-8.8V56.9h8.8V102.8z"/>
		<path class="st6" d="M93.2,88.2v2.1c0,5.3,2.3,5.6,10.4,5.6c8,0,9.1-1.5,9.1-6.8c0-6.5-3.5-5.7-10.3-6.1
			c-9.9-0.6-17.7-0.2-17.7-13.6c0-12.6,8-13,19-13c9.4,0,17,0.3,17,12.4v1.5h-8.8v-1.5c0-5-2-5.1-8.2-5.1c-8.8,0-10.2,0.9-10.2,5.8
			c0,5.6,1.2,5.8,10.1,6.4c14.1,0.9,18,1.6,18,13.3c0,12.9-6.1,14-17.9,14c-10.2,0-19.2,0.3-19.2-12.9v-2.1L93.2,88.2L93.2,88.2z"/>
		<path class="st6" d="M165,73.3v12.4c0,14.7-5.7,17.5-19.6,17.5c-14.2,0-19.4-2.4-19.4-17.5V73.3c0-14.3,4.8-16.8,19.4-16.8
			C158.6,56.5,165,58.5,165,73.3z M134.8,73.3v12.4c0,9.1,1.8,10,10.6,10c8,0,10.8-1.1,10.8-10V73.3c0.2-8.6-2.9-9.2-10.8-9.2
			C135.9,64,135,66,134.8,73.3z"/>
	</g>
</g>
</svg>
