<svg xmlns="http://www.w3.org/2000/svg" width="188" height="65.223" viewBox="0 0 188 65.223">
  <path d="M85.296 26.055c-3.596 0-6.512-2.916-6.512-6.514 0-3.59 2.916-6.51 6.512-6.51 3.598 0 6.513 2.92 6.513 6.52 0 1.34-.41 2.59-1.11 3.627 4.47.878 8.4 3.283 11.21 6.647 1.846-2.985 2.914-6.504 2.914-10.272 0-10.79-8.75-19.54-19.54-19.54s-19.54 8.75-19.54 19.54c0 10.793 8.75 19.54 19.54 19.54 3.6 0 6.513 2.917 6.513 6.513h.016c-.02 3.58-2.928 6.473-6.51 6.473-3.6 0-6.515-2.915-6.515-6.512 0-1.34.406-2.586 1.1-3.622-4.47-.877-8.398-3.28-11.21-6.647-1.85 2.984-2.916 6.502-2.916 10.27 0 10.79 8.75 19.54 19.54 19.54s19.54-8.75 19.54-19.54l-.02-.012c-.025-10.77-8.76-19.49-19.535-19.49zM128.643.003h-23.47v65.22h13.12V39.36h10.35c10.867 0 19.68-8.81 19.68-19.68 0-10.867-8.813-19.677-19.68-19.677zm.024 26.238h-10.375V13.12h10.35c3.624 0 6.56 2.937 6.56 6.56 0 3.617-2.926 6.548-6.536 6.56zM168.317.01c-10.867 0-19.677 8.81-19.677 19.677V65.13h13.12V39.25h11.906c.394.072.798.115 1.214.115v25.72H188v-45.4c0-10.867-8.812-19.68-19.682-19.68zm-6.56 19.678c0-3.622 2.938-6.56 6.56-6.56 3.618 0 6.55 2.926 6.563 6.538v6.583c-.277 0-.55.02-.817.05H161.76v-6.62z" fill="#3f6165"/>
  <path d="M45.9.003C35.108.003 26.36 8.75 26.36 19.54l-.12 25.86c0 3.623-2.937 6.56-6.56 6.56-3.624 0-6.56-2.937-6.56-6.56V19.25h-.08c.15-3.46 3-6.223 6.498-6.223 1.34 0 2.588.406 3.624 1.1.878-4.472 3.282-8.397 6.648-11.21C26.825 1.067 23.306.003 19.538.003 8.844.003.162 8.597.006 19.253H0V45.4c0 10.868 8.81 19.68 19.68 19.68 10.868 0 19.678-8.812 19.678-19.68l.007-6.157h11.88c.38.07.77.11 1.168.11v25.725h13.025V19.54C65.438 8.75 56.69 0 45.898 0zM39.386 19.54c0-3.595 2.916-6.51 6.513-6.51 3.59 0 6.5 2.902 6.51 6.49v6.776H39.38z" fill="#48a283"/>
</svg>
