<?xml version="1.0" encoding="UTF-8"?>
<svg width="180px" height="60px" viewBox="0 0 180 60" version="1.1" xmlns="http://www.w3.org/2000/svg" xmlns:xlink="http://www.w3.org/1999/xlink">
    <title>PMC</title>
    <g id="PMC" stroke="none" stroke-width="1" fill="none" fill-rule="evenodd">
        <rect id="Rectangle" x="0" y="0" width="180" height="60"></rect>
        <path d="M60.6650391,42 L60.6650391,33.3671875 L62.8730469,33.3671875 C65.8834635,33.3671875 68.2049154,32.6754557 69.8374023,31.2919922 C71.4698893,29.9085286 72.2861328,27.9108073 72.2861328,25.2988281 C72.2861328,22.7864583 71.519694,20.8966471 69.9868164,19.6293945 C68.4539388,18.3621419 66.2154948,17.7285156 63.2714844,17.7285156 L63.2714844,17.7285156 L55.5185547,17.7285156 L55.5185547,42 L60.6650391,42 Z M62.3583984,29.1503906 L60.6650391,29.1503906 L60.6650391,21.9453125 L63.0058594,21.9453125 C64.4114583,21.9453125 65.4435221,22.2330729 66.1020508,22.8085938 C66.7605794,23.3841146 67.0898438,24.2750651 67.0898438,25.4814453 C67.0898438,26.6767578 66.6969401,27.5870768 65.9111328,28.2124023 C65.1253255,28.8377279 63.9410807,29.1503906 62.3583984,29.1503906 L62.3583984,29.1503906 Z M81.4667969,42 L81.4663642,30.5617512 C81.4588643,29.2228166 81.3538653,26.6882354 81.1513672,22.9580078 L81.1513672,22.9580078 L81.3007812,22.9580078 L87.1445312,42 L91.859375,42 L98.1181641,22.9912109 L98.2675781,22.9912109 C98.1347656,26.0458984 98.0600586,27.9274089 98.043457,28.6357422 C98.0268555,29.3440755 98.0185547,29.969401 98.0185547,30.5117188 L98.0185547,30.5117188 L98.0185547,42 L102.816406,42 L102.816406,17.7285156 L95.8105469,17.7285156 L89.7177734,36.2890625 L89.6181641,36.2890625 L83.8740234,17.7285156 L76.8681641,17.7285156 L76.8681641,42 L81.4667969,42 Z M118.753906,42.3320312 C121.210938,42.3320312 123.435547,41.9169922 125.427734,41.0869141 L125.427734,41.0869141 L125.427734,36.7705078 C123.003906,37.6227214 120.939779,38.0488281 119.235352,38.0488281 C115.173503,38.0488281 113.142578,35.3427734 113.142578,29.9306641 C113.142578,27.3297526 113.673828,25.3015951 114.736328,23.8461914 C115.798828,22.3907878 117.298503,21.6630859 119.235352,21.6630859 C120.120768,21.6630859 121.022786,21.8235677 121.941406,22.1445312 C122.860026,22.4654948 123.773112,22.8417969 124.680664,23.2734375 L124.680664,23.2734375 L126.34082,19.0898438 C123.961263,17.9498698 121.592773,17.3798828 119.235352,17.3798828 C116.922201,17.3798828 114.905111,17.8862305 113.184082,18.8989258 C111.463053,19.9116211 110.143229,21.3670247 109.224609,23.2651367 C108.30599,25.1632487 107.84668,27.3740234 107.84668,29.8974609 C107.84668,33.9039714 108.781901,36.9780273 110.652344,39.1196289 C112.522786,41.2612305 115.223307,42.3320312 118.753906,42.3320312 Z" fill="#212121" fill-rule="nonzero"></path>
    </g>
</svg>