<?xml version="1.0" encoding="UTF-8"?>
<svg width="180px" height="60px" viewBox="0 0 180 60" version="1.1" xmlns="http://www.w3.org/2000/svg" xmlns:xlink="http://www.w3.org/1999/xlink">
    <title>PubMed</title>
    <g id="PubMed" stroke="none" stroke-width="1" fill="none" fill-rule="evenodd">
        <rect id="Rectangle" x="0" y="0" width="180" height="60"></rect>
        <path d="M28.7651367,42 L28.7651367,33.3671875 L30.9731445,33.3671875 C33.9835612,33.3671875 36.305013,32.6754557 37.9375,31.2919922 C39.569987,29.9085286 40.3862305,27.9108073 40.3862305,25.2988281 C40.3862305,22.7864583 39.6197917,20.8966471 38.0869141,19.6293945 C36.5540365,18.3621419 34.3155924,17.7285156 31.371582,17.7285156 L31.371582,17.7285156 L23.6186523,17.7285156 L23.6186523,42 L28.7651367,42 Z M30.4584961,29.1503906 L28.7651367,29.1503906 L28.7651367,21.9453125 L31.105957,21.9453125 C32.511556,21.9453125 33.5436198,22.2330729 34.2021484,22.8085938 C34.8606771,23.3841146 35.1899414,24.2750651 35.1899414,25.4814453 C35.1899414,26.6767578 34.7970378,27.5870768 34.0112305,28.2124023 C33.2254232,28.8377279 32.0411784,29.1503906 30.4584961,29.1503906 L30.4584961,29.1503906 Z M51.0610352,42.3320312 C52.3338216,42.3320312 53.4682617,42.0968424 54.4643555,41.6264648 C55.4604492,41.1560872 56.2296549,40.4892578 56.7719727,39.6259766 L56.7719727,39.6259766 L57.0375977,39.6259766 L57.7182617,42 L61.6030273,42 L61.6030273,23.4394531 L56.5395508,23.4394531 L56.5395508,32.171875 C56.5395508,34.3632812 56.2241211,35.9321289 55.5932617,36.878418 C54.9624023,37.824707 53.9386393,38.2978516 52.5219727,38.2978516 C51.4816081,38.2978516 50.7234701,37.9630534 50.2475586,37.293457 C49.7716471,36.6238607 49.5336914,35.6194661 49.5336914,34.2802734 L49.5336914,34.2802734 L49.5336914,23.4394531 L44.4702148,23.4394531 L44.4702148,35.5419922 C44.4702148,37.7333984 45.0236003,39.4129232 46.1303711,40.5805664 C47.2371419,41.7482096 48.8806966,42.3320312 51.0610352,42.3320312 Z M77.1088867,42.3320312 C79.3113607,42.3320312 81.0517578,41.4908854 82.3300781,39.8085938 C83.6083984,38.1263021 84.2475586,35.7522786 84.2475586,32.6865234 C84.2475586,29.7093099 83.6277669,27.3657227 82.3881836,25.6557617 C81.1486003,23.9458008 79.4331055,23.0908203 77.2416992,23.0908203 C74.9174805,23.0908203 73.1632487,24.0094401 71.9790039,25.8466797 L71.9790039,25.8466797 L71.7797852,25.8466797 C71.9125977,24.164388 71.9790039,22.9414062 71.9790039,22.1777344 L71.9790039,22.1777344 L71.9790039,16.1679688 L66.9155273,16.1679688 L66.9155273,42 L70.7836914,42 L71.6303711,39.9580078 L71.9790039,39.9580078 C73.2185872,41.5406901 74.9285482,42.3320312 77.1088867,42.3320312 Z M75.6811523,38.2314453 C74.3972982,38.2314453 73.4593099,37.7998047 72.8671875,36.9365234 C72.2750651,36.0732422 71.9790039,34.6455078 71.9790039,32.6533203 L71.9790039,32.6533203 L71.9790039,32.1054688 C72.0011393,30.3346354 72.2999674,29.0646159 72.8754883,28.2954102 C73.4510091,27.5262044 74.3640951,27.1416016 75.6147461,27.1416016 C76.6883138,27.1416016 77.5349935,27.5981445 78.1547852,28.5112305 C78.7745768,29.4243164 79.0844727,30.7939453 79.0844727,32.6201172 C79.0844727,34.4462891 78.7773438,35.8380534 78.1630859,36.7954102 C77.5488281,37.7527669 76.7215169,38.2314453 75.6811523,38.2314453 Z M93.4282227,42 L93.4282227,30.7109375 C93.4282227,29.4160156 93.3230794,26.8317057 93.112793,22.9580078 L93.112793,22.9580078 L93.262207,22.9580078 L99.105957,42 L103.820801,42 L110.07959,22.9912109 L110.229004,22.9912109 C110.096191,26.0458984 110.021484,27.9274089 110.004883,28.6357422 C109.988281,29.3440755 109.97998,29.969401 109.97998,30.5117188 L109.97998,30.5117188 L109.97998,42 L114.777832,42 L114.777832,17.7285156 L107.771973,17.7285156 L101.679199,36.2890625 L101.57959,36.2890625 L95.8354492,17.7285156 L88.8295898,17.7285156 L88.8295898,42 L93.4282227,42 Z M128.88916,42.3320312 C130.33903,42.3320312 131.567546,42.2241211 132.574707,42.0083008 C133.581868,41.7924805 134.528158,41.4632161 135.413574,41.0205078 L135.413574,41.0205078 L135.413574,37.1025391 C134.328939,37.6116536 133.288574,37.9824219 132.29248,38.2148438 C131.296387,38.4472656 130.239421,38.5634766 129.121582,38.5634766 C127.68278,38.5634766 126.564941,38.1595052 125.768066,37.3515625 C124.971191,36.5436198 124.545085,35.4202474 124.489746,33.9814453 L124.489746,33.9814453 L136.459473,33.9814453 L136.459473,31.5244141 C136.459473,28.8902995 135.729004,26.8261719 134.268066,25.3320312 C132.807129,23.8378906 130.765137,23.0908203 128.14209,23.0908203 C125.397298,23.0908203 123.247396,23.9402669 121.692383,25.6391602 C120.13737,27.3380534 119.359863,29.742513 119.359863,32.8525391 C119.359863,35.8740234 120.201009,38.2093099 121.883301,39.8583984 C123.565592,41.507487 125.900879,42.3320312 128.88916,42.3320312 Z M131.711426,30.6113281 L124.605957,30.6113281 C124.694499,29.3606771 125.043132,28.3950195 125.651855,27.7143555 C126.260579,27.0336914 127.101725,26.6933594 128.175293,26.6933594 C129.248861,26.6933594 130.101074,27.0336914 130.731934,27.7143555 C131.362793,28.3950195 131.68929,29.3606771 131.711426,30.6113281 L131.711426,30.6113281 Z M146.453613,42.3320312 C148.811035,42.3320312 150.565267,41.4189453 151.716309,39.5927734 L151.716309,39.5927734 L151.932129,39.5927734 L152.911621,42 L156.796387,42 L156.796387,16.1679688 L151.716309,16.1679688 L151.716309,22.1113281 C151.716309,23.1959635 151.843587,24.430013 152.098145,25.8134766 L152.098145,25.8134766 L151.932129,25.8134766 C150.703613,23.9983724 148.921712,23.0908203 146.586426,23.0908203 C144.361816,23.0908203 142.615885,23.9402669 141.348633,25.6391602 C140.08138,27.3380534 139.447754,29.7093099 139.447754,32.7529297 C139.447754,35.7522786 140.070312,38.0986328 141.31543,39.7919922 C142.560547,41.4853516 144.273275,42.3320312 146.453613,42.3320312 Z M148.22998,38.2978516 C147.056803,38.2978516 146.154785,37.8413086 145.523926,36.9282227 C144.893066,36.0151367 144.577637,34.6455078 144.577637,32.8193359 C144.577637,30.9931641 144.890299,29.6013997 145.515625,28.644043 C146.140951,27.6866862 147.018066,27.2080078 148.146973,27.2080078 C149.530436,27.2080078 150.529297,27.6396484 151.143555,28.5029297 C151.757812,29.3662109 152.064941,30.7939453 152.064941,32.7861328 L152.064941,32.7861328 L152.064941,33.3339844 C152.009603,35.1380208 151.680339,36.4163411 151.077148,37.1689453 C150.473958,37.9215495 149.524902,38.2978516 148.22998,38.2978516 Z" fill="#212121" fill-rule="nonzero"></path>
    </g>
</svg>