<svg id="Layer_1" data-name="Layer 1" xmlns="http://www.w3.org/2000/svg" viewBox="0 0 256.84 137.5"><path d="M13.94,93.11H3.9L13.52,38.4H31.87c10.94,0,17.44,4,17.44,12.83,0,10-6.42,14.9-12.59,16.79,2.14.9,3,2.3,3.87,5.51L46.1,93.11H35.32l-4.6-17.52c-.83-2.72-1.89-4.28-4.77-4.28H17.8ZM27.26,64c6.91,0,11.6-4.12,11.6-11.27,0-5.43-4-6.34-10.86-6.34H22.16L19,64Z" style="fill:#303375"/><path d="M87.57,60.12c0,14.4-17.28,16.12-26.08,16.21C61.08,81.59,63,86.77,70,86.77c4.77,0,8.39-2.22,10.61-3.62l3,6.42a27.59,27.59,0,0,1-16,4.77c-11.27,0-16-7-16-16.53,0-14.24,9.13-27.32,24.1-27.32C83.21,50.49,87.57,54.36,87.57,60.12ZM74.24,57.57c-6.83,0-10.61,6.66-11.85,12.09,4.78.08,16.21-1.15,16.21-8.22C78.6,58.89,76.79,57.57,74.24,57.57Z" style="fill:#303375"/><path d="M133.4,93.11l7.33-41.38h9.87l-7.32,41.38Z" style="fill:#303375"/><path d="M190.25,60.12c0,14.4-17.27,16.12-26.08,16.21-.41,5.26,1.48,10.44,8.48,10.44,4.77,0,8.39-2.22,10.61-3.62l3,6.42a27.56,27.56,0,0,1-16,4.77c-11.27,0-16-7-16-16.53,0-14.24,9.13-27.32,24.11-27.32C185.89,50.49,190.25,54.36,190.25,60.12Zm-13.33-2.55c-6.82,0-10.61,6.66-11.84,12.09,4.77.08,16.21-1.15,16.21-8.22C181.29,58.89,179.47,57.57,176.92,57.57Z" style="fill:#303375"/><path d="M252.37,51.73c.25,2.38.57,6.58.57,9.62,0,18.92-7,32.91-22.54,32.91-6.17,0-9.54-2.8-10.36-6.91a17.24,17.24,0,0,1-14.32,6.91c-7.57,0-11.76-3.37-11.84-10.28a23.44,23.44,0,0,1,.41-4l4.93-28.22H209l-4.52,26a22.77,22.77,0,0,0-.58,4.53c.08,2.63,1.07,4.44,4.61,4.44,4.52,0,8.14-3.7,8.88-7.9l4.69-27.06h9.79l-4.69,26a29.24,29.24,0,0,0-.49,4.36c0,2.64.91,4.61,4.44,4.61,7.9,0,12.09-11.85,12.09-25.09,0-3.21-.24-7.49-.49-9.87Z" style="fill:#303375"/><path d="M67.34,128.6l2.83,3.59A14.14,14.14,0,0,1,60,136.27c-8.12,0-13.28-5.07-13.28-15.3,0-11.72,7.18-15.62,13.55-15.62a12,12,0,0,1,10.23,5.56l-3.9,2.83C64.74,111.36,62.72,110,60,110c-4.62,0-7.68,3.86-7.68,10.64s2.52,11.13,8,11.13C62.86,131.74,65.1,130.62,67.34,128.6Z" style="fill:#303375"/><path d="M84.17,136.27c-8,0-12.74-5.16-12.74-15.39,0-11.49,6.95-15.53,13.24-15.53,6.68,0,12.47,4.13,12.47,15.53C97.14,131.16,92,136.27,84.17,136.27Zm.32-4.53c5.43,0,7.09-5.34,7.09-10.73,0-4.58-1.44-11-7.18-11C79,110,77,115.31,77,120.65,77,125.77,78.34,131.74,84.49,131.74Z" style="fill:#303375"/><path d="M124.43,105.89h6L132,135.73h-5.2l-1.12-20.55h-.09l-6.91,17.23h-4.13l-6.74-17h-.09l-1.12,20.37h-5.2l1.7-29.84h6.11l7.44,19.52h.09Z" style="fill:#303375"/><path d="M160.42,105.89h6L168,135.73H162.8l-1.12-20.55h-.09l-6.91,17.23h-4.13l-6.73-17h-.09l-1.13,20.37h-5.2l1.7-29.84h6.11l7.45,19.52h.09Z" style="fill:#303375"/><path d="M185,136.27c-8,0-12.74-5.16-12.74-15.39,0-11.49,6.95-15.53,13.24-15.53,6.68,0,12.47,4.13,12.47,15.53C198,131.16,192.87,136.27,185,136.27Zm.32-4.53c5.43,0,7.09-5.34,7.09-10.73,0-4.58-1.44-11-7.18-11-5.39,0-7.36,5.34-7.36,10.68C177.88,125.77,179.18,131.74,185.33,131.74Z" style="fill:#303375"/><path d="M226.75,105.89v29.84H221.5l-12.88-21h-.09v21h-5.39V105.89h5.53l12.56,20.73h.09V105.89Z" style="fill:#303375"/><path d="M233.21,128.91a17.62,17.62,0,0,0,8.3,2.6c2.38,0,4.81-.76,4.81-4.13,0-2.82-2.56-3.68-5.7-4.53-4.45-1.21-8.57-3-8.57-8.7,0-5.48,4.21-8.8,10.09-8.8a14.68,14.68,0,0,1,10.28,4.22l-2.92,3.63a12,12,0,0,0-7.36-3.18c-2,0-4.4.85-4.4,3.63s2.61,3.64,6,4.67c4.09,1.3,8.4,3.05,8.4,8.84s-4.22,9.11-10.68,9.11a20.1,20.1,0,0,1-10.24-2.87Z" style="fill:#303375"/><path d="M148,1.23l-40.89,80.2H107L102.9,51.31H93.48l6.6,41.8h10.53l45-88Z" style="fill:#303375"/></svg>
