<svg xmlns="http://www.w3.org/2000/svg" viewBox="0 0 438.85635 125.54011" width="438.856" height="125.54">
  <path d="M79.03 11.21c-1.9-5.7-8-8.8-13.7-7-5.7 1.9-8.8 8-7 13.7l28.1 86.4c1.9 5.3 7.7 8.3 13.2 6.7 5.8-1.7 9.3-7.8 7.4-13.4 0-.2-28-86.4-28-86.4z" fill="#ecb32d"/>
  <path d="M35.53 25.31c-1.9-5.7-8-8.8-13.7-7-5.7 1.9-8.8 8-7 13.7l28.1 86.4c1.9 5.3 7.7 8.3 13.2 6.7 5.8-1.7 9.3-7.8 7.4-13.4 0-.2-28-86.4-28-86.4z" fill="#63c1a0"/>
  <path d="M114.43 82.71c5.7-1.9 8.8-8 7-13.7-1.9-5.7-8-8.8-13.7-7l-86.5 28.2c-5.3 1.9-8.3 7.7-6.7 13.2 1.7 5.8 7.8 9.3 13.4 7.4.2 0 86.5-28.1 86.5-28.1z" fill="#e01a59"/>
  <path d="M39.23 107.21c5.6-1.8 12.9-4.2 20.7-6.7-1.8-5.6-4.2-12.9-6.7-20.7l-20.7 6.7z" fill="#331433"/>
  <path d="M82.83 93.01c7.8-2.5 15.1-4.9 20.7-6.7-1.8-5.6-4.2-12.9-6.7-20.7l-20.7 6.7z" fill="#d62027"/>
  <path d="M100.23 39.21c5.7-1.9 8.8-8 7-13.7-1.9-5.7-8-8.8-13.7-7l-86.4 28.1c-5.3 1.9-8.3 7.7-6.7 13.2 1.7 5.8 7.8 9.3 13.4 7.4.2 0 86.4-28 86.4-28z" fill="#89d3df"/>
  <path d="M25.13 63.61c5.6-1.8 12.9-4.2 20.7-6.7-2.5-7.8-4.9-15.1-6.7-20.7l-20.7 6.7z" fill="#258b74"/>
  <path d="M68.63 49.51c7.8-2.5 15.1-4.9 20.7-6.7-2.5-7.8-4.9-15.1-6.7-20.7l-20.7 6.7z" fill="#819c3c"/>
  <path d="M202.03 33.91c3.8 1.7 4.1 2.9 1.1 8.6-3.1 5.8-3.8 6.2-7.6 4.7-4.7-2-10.8-3.5-14.7-3.5-6.4 0-10.6 2.3-10.6 5.8 0 11.5 36.6 5.3 36.6 29.7 0 12.3-10.6 20.5-26.4 20.5-8.3 0-18.6-2.8-25.7-6.4-3.5-1.8-3.8-2.8-.7-8.7 2.6-5.1 3.5-5.7 7.3-4.1 6 2.6 13.7 4.7 18.8 4.7 5.8 0 9.7-2.4 9.7-5.8 0-11.1-37.3-5.8-37.3-29.5 0-12.6 10.5-21 26.2-21 7.6-.1 16.9 2.1 23.3 5zm29.6-29v91.2c0 1.4-1.5 2.8-3.5 2.8h-9.6c-2.1 0-3.5-1.5-3.5-2.8V4.91c0-4.5 1.3-4.9 8.3-4.9 8-.1 8.3.5 8.3 4.9zm68.2 51.2v39.3c0 2.1-1.5 3.5-3.5 3.5h-9.5c-2.2 0-3.7-1.6-3.5-3.8l.1-4.2c-5.1 5.7-12.5 8.7-19.9 8.7-14.3 0-23.9-8.3-23.9-20.6 0-13.1 10.8-22 27.1-22 6.2 0 11.8 1.1 16.4 3v-4.5c0-7.2-5.7-11.5-15.4-11.5-4.5 0-10.1 1.8-14.5 4.4-3.4 1.9-4.2 1.8-7.9-3.7-3.6-5.5-3.5-6.5 0-8.8 6.7-4.3 15.7-7.1 24-7.1 18.7 0 30.5 10.1 30.5 27.3zm-44.2 22.8c0 4.7 4 7.8 9.9 7.8 7.2 0 13.8-3.5 17.6-9.4v-6.1c-3.8-1.5-8.5-2.3-12.6-2.3-9 0-14.9 4.2-14.9 10zm109.2-44.9c3.5 2 3.6 3.1-.2 9-3.6 5.6-4.2 5.9-8.1 4-2.9-1.5-7.6-2.8-11.4-2.8-12 0-20 7.9-20 19.9 0 12.4 8 20.8 20 20.8 4.2 0 9.4-1.6 12.8-3.5 3.5-2 4.2-1.9 7.9 3.5 3.3 5 3.3 6.2.3 8.3-5.4 3.7-13.8 6.5-21.3 6.5-22.2 0-37.1-14.2-37.1-35.6 0-21.2 14.9-35.3 37.3-35.3 6.8 0 14.8 2.3 19.8 5.2zm72.6 56.3c2.8 3.5 1.7 4.8-5.3 7.3-7.1 2.6-8.1 2.4-10.6-.8l-19.9-26.5-8.9 8.6v17.2c0 1.4-1.5 2.8-3.5 2.8h-9.6c-2.1 0-3.5-1.5-3.5-2.8V4.91c0-4.5 1.3-4.9 8.3-4.9 8.1 0 8.3.6 8.3 4.9v51.8l27.2-26.1c3-2.8 4.7-2.6 10 .9 5.9 3.8 6.3 4.9 3.5 7.6l-20.2 19.8z" fill="#2d333a"/>
</svg>
